<svg viewBox="-1 0 16 16" xmlns="http://www.w3.org/2000/svg"><g id="0" style="fill:none;fill-rule:evenodd"><path d="m13.974 5.909c-.062-.198-.227-.344-.424-.374l-3.855-.588-1.725-3.665c-.177-.376-.765-.376-.941 0l-1.725 3.665-3.855.588c-.197.03-.362.176-.424.374-.061.201-.01.419.133.565l2.79 2.854-.659 4.03c-.033.205.048.415.209.538.162.123.377.14.554.042l3.448-1.901 3.448 1.901c.077.043.161.063.245.063.107 0 .217-.035.309-.105.161-.123.242-.333.209-.538l-.659-4.03 2.79-2.854c.142-.146.193-.364.132-.565" id="1" fill="#000"/></g></svg>
