<svg width="16px" height="16px" viewBox="0 0 16 16" version="1.1" xmlns="http://www.w3.org/2000/svg" xmlns:xlink="http://www.w3.org/1999/xlink">
    <g id="#-Visual-Assets" fill="none" fill-rule="evenodd">
        <path d="M8,1 C4.12307692,1 1,4.13384615 1,8 C1,11.8661538 4.12307692,15 8,15 C11.8769231,15 15,11.8661538 15,8 C15,4.13384615 11.8769231,1 8,1 L8,1 Z M8,14 C4.72727273,14 2,11.3087273 2,8 C2,4.69127273 4.72727273,2 8,2 C11.2727273,2 14,4.69127273 14,8 C14,11.3087273 11.2727273,14 8,14 L8,14 Z M7.99620095,11.5 C10.9924019,11.5 11.4136511,9.72942543 11.4136511,9.72942543 C11.4613404,9.60271727 11.3911168,9.53923416 11.2707087,9.578125 C11.2707087,9.578125 10.258794,10 7.99620106,10 C5.73360809,10 4.72810428,9.578125 4.72810428,9.578125 C4.60212576,9.53497776 4.53521435,9.60752869 4.58547746,9.72942543 C4.58547746,9.72942543 5,11.4999999 7.99620095,11.5 Z M6,8 C6.5,8 7,7.55270936 7,7 C7,6.44729064 6.5,6 6,6 C5.4,6 5,6.44729064 5,7 C5,7.55270936 5.4,8 6,8 L6,8 Z M10,8 C10.6,8 11,7.55270936 11,7 C11,6.44729064 10.6,6 10,6 C9.5,6 9,6.44729064 9,7 C9,7.55270936 9.5,8 10,8 L10,8 Z" id="Smile" fill="#606C7B"></path>
    </g>
</svg>