<svg viewBox="-1 0 16 16" xmlns="http://www.w3.org/2000/svg"><g id="0" style="fill:none;fill-rule:evenodd"><path d="m2.49 3.251c.162-.122.245-.335.186-.544-.077-.268-.355-.421-.622-.344l-.691.202c-.266.077-.419.358-.343.626.067.229.28.365.508.354l3.629 10.122c.073.206.267.333.473.333.056 0 .113-.01.17-.03.262-.095.396-.384.302-.647l-3.612-10.07m11.222-2.203c-.175-.083-.383-.058-.533.066-.301.25-1.278.896-2.172.896-.491 0-.896-.194-1.366-.42-.575-.277-1.229-.59-2.15-.59-2.72 0-4.29 1.681-4.356 1.752-.127.138-.168.336-.104.513l2.258 6.345c.059.165.198.286.366.324.035.007.07.011.105.011.136 0 .266-.054.361-.153.326-.338 1.383-1.214 2.357-1.214.723 0 1.172.133 1.607.261.408.12.829.245 1.404.245 1.204 0 2.206-.544 2.248-.567.161-.089.262-.259.262-.443v-6.567c.001-.197-.111-.375-.287-.459" id="1" fill="#000"/></g></svg>
