<svg viewBox="-1 0 16 16" xmlns="http://www.w3.org/2000/svg"><g id="0" style="fill:none;fill-rule:evenodd"><path d="m7.5 1c-3.59 0-6.5 2.91-6.5 6.5 0 3.59 2.91 6.5 6.5 6.5 3.59 0 6.5-2.91 6.5-6.5 0-3.59-2.91-6.5-6.5-6.5m4.418 9.737l-.068-.565-2.062.474-1.088 1.816.52.244c-.541.179-1.117.279-1.719.279-.602 0-1.178-.1-1.721-.279l.523-.244-1.088-1.815-2.062-.474-.07.563c-.668-.909-1.068-2.025-1.068-3.237 0-.01.002-.019.002-.029l.395.423 1.391-1.597-.188-2.108-.557.109c.68-.941 1.646-1.662 2.775-2.02l-.279.505 1.947.828 1.947-.828-.279-.505c1.129.36 2.098 1.081 2.777 2.02l-.561-.109-.186 2.107 1.391 1.596.395-.422v.029c-.001 1.213-.399 2.33-1.067 3.239m-6.705-3.75l.873 2.688h2.826l.875-2.688-2.287-1.661-2.287 1.661" id="1" fill="#000"/></g></svg>
