<svg viewBox="0 0 16 16" xmlns="http://www.w3.org/2000/svg"><g id="0" style="fill:none;fill-rule:evenodd"><path d="m13.782 3.808c0 0-1.595 1.601-1.757 1.765-.165.162-.713.145-.713.145 0 0-1.455-.163-1.665-.372-.209-.209-.354-1.727-.354-1.727 0 0-.04-.423.17-.632.21-.209 1.765-1.76 1.765-1.76 0 0 .2-.225-.089-.226-.934-.004-2.829.018-3.747.935l-.19.188c-1.085 1.09-1.157 2.73-.285 3.908l-5.366 4.846c-.427.426-.988 1.585 0 2.573.989.988 2.151.425 2.577 0 0 0 3.515-3.839 3.816-4.175.301-.335.143-.688.143-.688 0 0-.618-.862-.951-1.378-.182-.281-.096-.317.161-.152.71.453 1.538.973 1.683 1.041l.003-.002c1.175.879 2.817.811 3.909-.28l.188-.189c.89-.888.917-2.764.921-3.712.002-.303-.219-.108-.219-.108m-10.801 9.09c-.499 0-.903-.403-.903-.902 0-.498.404-.901.903-.901.498 0 .904.403.904.901 0 .499-.406.902-.904.902" id="1" fill="#000"/></g></svg>