<svg viewBox="0 0 16 16" xmlns="http://www.w3.org/2000/svg"><g id="0" style="fill:none;fill-rule:evenodd"><path d="m13.993 4.763c-.221-.528-1.419-1.153-2.894-.447 0 0-7.424 3.552-7.652 3.661-.226.109-.39-.013-.6-.181-.369-.29-.902-.714-1.07-.853-.263-.216-.928-.078-.746.358.18.435.744 1.79.957 2.302.313.753 1.95.581 4.799-.781.26-.124.539-.258.832-.398l-.72 4.11c-.093.399-.003.509.12.451l.422-.202c.219-.105.52-.477.672-.831l2.057-4.773c2.073-1.039 3.963-2.079 3.823-2.416m-10.129.47l1.71 1.116 1.895-.907-2.391-.791c-.347-.115-.806-.123-1.024-.019l-.423.203c-.122.059-.107.205.233.398" id="1" fill="#000"/></g></svg>