<svg viewBox="-1 0 16 16" xmlns="http://www.w3.org/2000/svg"><g id="0" style="fill:none;fill-rule:evenodd"><path d="m12.986 10.438c-.022 0-.05.006-.072.007.113-1.162-.264-2.652-2.02-4.1-1.366-1.132-4.366-.033-4.5-1.403 0-.002-.001-.002-.001-.004-.014-.093-.026-.186-.052-.278.338-.138.783-.415 1.389-.737 1.136-.604 2.646-.637 2.614-1.087-.046-.639-1.442-.891-2.808-.314.966-.446 2.098-.662 1.783-1.337-.191-.405-1.987-.152-3.285.847-.586.453-.972.829-1.096 1.193-.632-.205-1.361-.169-1.975.148-1.136.589-2.276 2.457-1.894 3.433.192.485 1.098.754 2.053.792-.464 1.451.669 1.643.243 3.116-.234.808-.183 1.708-.293 1.861-.268.368-1.582-.141-1.582 1.128 0 .24.764.282 1.757.215.478-.03 1.731-2.071 2.118-2.658-.853-3.395 2.782-3.094 3.166-1.919-2.51-.464-2.727 1.062-2.395 1.771.549 1.173 1.771 1.347 2.42 1.445-4.58 0-4.364.804-4.364 1.21 0 .348 3.115.128 4.545.13 1.654-.001 3.494.459 3.176-.552-.226-.71-.2-1.094-.069-1.326.324.262.82.43 1.164.424.553-.009.994-.464.986-1.018-.005-.553-.459-.996-1.012-.987m-10.348-5.02c0-.33.255-.597.574-.597.317 0 .575.267.575.597 0 .33-.258.598-.575.598-.319.001-.574-.268-.574-.598" id="1" fill="#000"/></g></svg>
