<svg width="16px" height="16px" viewBox="0 0 16 16" version="1.1" xmlns="http://www.w3.org/2000/svg" xmlns:xlink="http://www.w3.org/1999/xlink">
    <g id="#-Icons-Emoji-Picker" fill="none" fill-rule="evenodd">
        <g id="People-Copy" fill="#000000">
            <path d="M7.5,1 C11.0898509,1 14,3.91014913 14,7.5 C14,11.0898509 11.0898509,14 7.5,14 C3.91014913,14 1,11.0898509 1,7.5 C1,3.91014913 3.91014913,1 7.5,1 Z M4.75,10.25 C4.75,11.7687831 5.98121694,13 7.5,13 C4.46243388,13 2,10.5375661 2,7.5 C2,4.46243388 4.46243388,2 7.5,2 C9.01878306,2 10.25,3.23121694 10.25,4.75 C10.25,6.26878306 9.01878306,7.5 7.5,7.5 C5.98121694,7.5 4.75,8.73121694 4.75,10.25 Z M7.5,11 C7.77614237,11 8,10.7761424 8,10.5 C8,10.2238576 7.77614237,10 7.5,10 C7.22385763,10 7,10.2238576 7,10.5 C7,10.7761424 7.22385763,11 7.5,11 Z" id="Combined-Shape"></path>
            <circle id="Oval-Copy" cx="7.5" cy="4.5" r="0.5"></circle>
        </g>
    </g>
</svg>