<?xml version="1.0" encoding="UTF-8" standalone="no"?>
<svg width="200px" height="74px" viewBox="0 0 200 74" version="1.1" xmlns="http://www.w3.org/2000/svg" xmlns:xlink="http://www.w3.org/1999/xlink" xmlns:sketch="http://www.bohemiancoding.com/sketch/ns">
    <!-- Generator: Sketch 3.0.3 (7891) - http://www.bohemiancoding.com/sketch -->
    <title>Icons</title>
    <desc>Created with Sketch.</desc>
    <defs></defs>
    <g id="Page-1" stroke="none" stroke-width="1" fill="none" fill-rule="evenodd" sketch:type="MSPage">
        <g id="Icons" sketch:type="MSArtboardGroup">
            <g id="Group-6" sketch:type="MSLayerGroup" transform="translate(108.000000, 15.000000)" fill="#4C4C4C">
                <path d="M0,1.50639765 L0,7.49360235 C0,8.3255628 0.666420147,9 1.50863659,9 L15.4913634,9 C16.3245604,9 17,8.32353723 17,7.49360235 L17,1.50639765 C17,0.674437201 16.3335799,0 15.4913634,0 L1.50863659,0 C0.67543961,0 0,0.67646277 0,1.50639765 Z M15.4913634,1 C15.7775853,1 16,1.22300558 16,1.50639765 L16,7.49360235 C16,7.77182737 15.7717003,8 15.4913634,8 L1.50863659,8 C1.22241473,8 1,7.77699442 1,7.49360235 L1,1.50639765 C1,1.22817263 1.22829972,1 1.50863659,1 L15.4913634,1 Z" id="Rectangle-272" sketch:type="MSShapeGroup"></path>
                <path d="M19,1.50639765 L19,7.49360235 C19,8.3255628 19.6664201,9 20.5086366,9 L34.4913634,9 C35.3245604,9 36,8.32353723 36,7.49360235 L36,1.50639765 C36,0.674437201 35.3335799,0 34.4913634,0 L20.5086366,0 C19.6754396,0 19,0.67646277 19,1.50639765 Z M34.4913634,1 C34.7775853,1 35,1.22300558 35,1.50639765 L35,7.49360235 C35,7.77182737 34.7717003,8 34.4913634,8 L20.5086366,8 C20.2224147,8 20,7.77699442 20,7.49360235 L20,1.50639765 C20,1.22817263 20.2282997,1 20.5086366,1 L34.4913634,1 Z" id="Rectangle-278" sketch:type="MSShapeGroup"></path>
                <path d="M0,12.5063976 L0,18.4936024 C0,19.3255628 0.666420147,20 1.50863659,20 L15.4913634,20 C16.3245604,20 17,19.3235372 17,18.4936024 L17,12.5063976 C17,11.6744372 16.3335799,11 15.4913634,11 L1.50863659,11 C0.67543961,11 0,11.6764628 0,12.5063976 Z M15.4913634,12 C15.7775853,12 16,12.2230056 16,12.5063976 L16,18.4936024 C16,18.7718274 15.7717003,19 15.4913634,19 L1.50863659,19 C1.22241473,19 1,18.7769944 1,18.4936024 L1,12.5063976 C1,12.2281726 1.22829972,12 1.50863659,12 L15.4913634,12 Z" id="Rectangle-280" sketch:type="MSShapeGroup"></path>
                <path d="M23.0000002,20 L20.5086366,20 C19.6664201,20 19,19.3255628 19,18.4936024 L19,12.5063976 C19,11.6764628 19.6754396,11 20.5086366,11 L30.4956817,11 L26.5,11 L26,12 L20.5086366,12 C20.2282997,12 20,12.2281726 20,12.5063976 L20,18.4936024 C20,18.7769944 20.2224147,19 20.5086366,19 L23.5,19.0000004 L23.0000002,20 Z M34.4913634,11 L30.4956817,11 Z" id="Rectangle-279" sketch:type="MSShapeGroup"></path>
            </g>
            <g id="Group-7" sketch:type="MSLayerGroup" transform="translate(157.000000, 15.000000)">
                <path d="M10.5,0.5 C10.5,0.5 13.5,2.99665077 13.5,4.5 C13.5,5.66331744 10.5,8.5 10.5,8.5" id="Line" stroke="#4C4C4C" stroke-linecap="square" sketch:type="MSShapeGroup"></path>
                <path d="M10.5,11.5 C10.5,11.5 13.5,13.9966508 13.5,15.5 C13.5,16.6633174 10.5,19.5 10.5,19.5" id="Line-6" stroke="#4C4C4C" stroke-linecap="square" sketch:type="MSShapeGroup"></path>
                <path d="M23.5,11.5 C23.5,11.5 26.5,13.9966508 26.5,15.5 C26.5,16.6633174 23.5,19.5 23.5,19.5" id="Line-5" stroke="#4C4C4C" stroke-linecap="square" sketch:type="MSShapeGroup"></path>
                <path d="M0,1.50639765 L0,7.49360235 C0,8.3255628 0.674923137,9 1.49343323,9 L19.5065668,9 C20.3313672,9 21.4426603,8.49005425 21.974014,7.85562389 C21.974014,7.85562389 24,5.63353053 24,4.70349462 C24,3.63779563 21.9164,1.16398445 21.9164,1.16398445 C21.4102862,0.521133591 20.3250769,0 19.5065668,0 L1.49343323,0 C0.668632833,0 0,0.67646277 0,1.50639765 Z M19.5065668,1 C20.0217073,1 20.8161205,1.38302248 21.1306856,1.78257397 C21.2097567,1.87730047 21.3166537,2.00812219 21.4556925,2.18505205 C21.6883015,2.48105232 21.9208215,2.79279608 22.1362722,3.10369407 C22.2787179,3.30924502 22.4086499,3.50731192 22.5231187,3.69464702 C22.8297501,4.19646767 23,4.59512096 23,4.70349462 C23,4.74786718 22.8374336,5.09182639 22.5491603,5.52179711 C22.44196,5.68169054 22.3208767,5.85076305 22.188529,6.02629879 C21.9800589,6.30279737 21.7548409,6.58083178 21.529497,6.84522884 C21.394775,7.00329881 21.2912531,7.12023569 21.2350515,7.18187735 C20.8694952,7.61697019 20.0408994,8 19.5065668,8 L1.49343323,8 C1.22632402,8 1,7.77237353 1,7.49360235 L1,1.50639765 C1,1.22591662 1.2237645,1 1.49343323,1 L19.5065668,1 Z" id="Rectangle-272" fill="#4C4C4C" sketch:type="MSShapeGroup"></path>
                <path d="M0,12.5063976 L0,18.4936024 C0,19.3255628 0.674141334,20 1.50369251,20 L31.4963075,20 C32.3267739,20 33.4298269,19.4778393 33.9409876,18.8341121 C33.9409876,18.8341121 36,16.4519452 36,15.4311166 C36,14.4562103 33.9492188,12.1449776 33.9492188,12.1449776 C33.4249797,11.5126239 32.3258587,11 31.4963075,11 L1.50369251,11 C0.673226067,11 0,11.6764628 0,12.5063976 Z M31.4963075,12 C32.02948,12 32.8459418,12.3810124 33.17937,12.783204 C33.2582783,12.8729825 33.3632406,12.9948392 33.4998046,13.159567 C33.7282402,13.4351133 33.9565622,13.7249945 34.1679861,14.0135232 C34.3037095,14.1987438 34.4277945,14.3771807 34.5375295,14.545964 C34.8338149,15.0016801 35,15.3651082 35,15.4311166 C35,15.5188025 34.8335793,15.8969768 34.5345557,16.3726417 C34.4224195,16.5510198 34.2952141,16.7396794 34.1558134,16.935515 C33.9433205,17.2340332 33.7139101,17.5335702 33.4843999,17.818066 C33.3472122,17.9881207 33.2417678,18.1138484 33.1844296,18.1801855 C32.839438,18.6132539 32.0266226,19 31.4963075,19 L1.50369251,19 C1.22641847,19 1,18.7732695 1,18.4936024 L1,12.5063976 C1,12.2274387 1.22681959,12 1.50369251,12 L31.4963075,12 Z" id="Rectangle-280" fill="#4C4C4C" sketch:type="MSShapeGroup"></path>
            </g>
            <path d="M142.011369,33.6790496 C142.230313,33.8019408 142.228181,33.7853177 142.22313,33.8814322 C142.225042,33.8450488 142.228755,33.8040316 142.233747,33.7615517 C142.238536,33.7208044 142.243242,33.6884627 142.245922,33.6722365 L142.328408,33.1728347 L141.828033,33.0964772 L141.301771,33.0161695 L141.226344,33.5104475 L141.726344,33.5104475 C141.726344,33.4760026 141.720891,33.3876205 141.706555,33.1698523 C141.690671,32.9315519 141.690671,32.9315519 141.685716,32.8588902 L141.345316,33.3671414 C141.771864,33.2246317 142.002027,32.8601282 142.111652,32.3830798 C142.172352,32.1189374 142.18871,31.8555466 142.182219,31.6314224 C142.181353,31.6059372 141.68156,31.6227552 141.68156,31.6227552 L141.439291,32.0601403 C141.970296,32.3542654 142.338949,32.0316412 142.582547,31.5201676 C142.660083,31.3573672 142.712537,31.2012739 142.742777,31.0875626 C143.021175,30.2943815 142.944022,29.7115278 142.477711,29.4438599 C142.321438,29.3541568 142.167218,29.3294154 142.02835,29.3380769 C142.010196,29.3393935 142.542539,29.9454627 142.542539,29.9454627 C142.593997,29.7127163 142.623907,29.4526378 142.635941,29.168862 C142.652473,28.7789863 142.634969,28.3672593 142.595853,27.9635909 C142.578486,27.7843611 142.560929,27.6466123 142.548702,27.5658003 C142.396007,26.2176014 139.896836,25.8216965 139.5,26 C138.91202,26.264187 137.346938,26.549135 137.779954,27.0669051 L138.297242,26.264358 C137.180876,25.9544615 136.653324,26.7327604 136.594121,27.9214597 C136.577662,28.251929 136.595826,28.5987716 136.635912,28.9388378 C136.653869,29.0911654 136.672095,29.2087968 136.685004,29.2790107 L136.97092,30.0736848 L137.169606,29.479645 C136.620587,29.8324157 136.577718,30.2051018 136.748384,30.8514027 C136.784969,30.9899487 136.798355,31.0567613 136.800825,31.1191508 C136.818329,31.5741798 136.983445,31.9068549 137.294815,32.0665653 C137.474636,32.1588007 137.654432,32.170359 137.819038,32.1378946 C137.875207,32.125153 137.875207,32.125153 137.907132,32.11484 L137.746879,31.6412167 L137.247023,31.6532459 C137.261101,32.238231 137.402091,32.6831921 137.644661,32.9968791 C137.826806,33.2324252 138.031993,33.3573704 138.205641,33.4037016 L137.839856,32.9933388 C137.868503,33.1881648 137.880926,33.3239958 137.880926,33.4038492 C137.880926,33.3944365 137.887006,33.360402 137.944756,33.275791 C138.066464,33.0974723 138.188182,33.0595807 138.49665,33.09484 C138.552634,33.1167035 138.552634,33.1167035 138.59222,33.139193 L138.473302,33.0676783 L138.334537,33.0676783 L137.874936,33.0676783 L137.310678,33.0676783 L137.378568,33.6278372 C137.380153,33.6409186 137.380348,33.6711827 137.377875,33.7106938 C137.375259,33.752506 137.370071,33.7998765 137.363057,33.8489761 C137.356395,33.8956193 137.349851,33.9325782 137.346158,33.950941 L137.836343,34.0495244 L137.634346,33.5921437 C137.369209,33.7092384 137.224866,33.7856428 136.932799,33.9534411 C136.690906,34.0922803 136.557654,34.1614571 136.340803,34.2551465 C136.24,34.2989344 136.24,34.2989344 136.138747,34.3422499 C136.008011,34.3979804 135.870696,34.455372 135.727563,34.5141762 C135.306476,34.6871736 134.854388,34.8646033 134.402174,35.0365447 C134.130813,35.1397219 133.920056,35.218013 133.800428,35.261667 C133.41373,35.3590732 133.07943,35.5778582 132.844506,35.8719492 C132.620721,36.1520946 132.525573,36.4349427 132.502743,36.6519906 L132.5,37.5 L132.5,38 L133,38 L146,38 L146.5,38 L146.5,37.5 L146.5,36.3958572 L146.5,36.2857143 C146.5,35.4193003 145.148798,34.7333497 143.256444,34.2482614 C143.047761,34.1945873 142.832297,34.1146516 142.617823,34.0154109 C142.35901,33.895654 142.15715,33.7764843 142.04915,33.7025249 L142.011369,33.6790496 Z M141.484129,34.5276009 C141.634685,34.6307035 141.882709,34.7771269 142.197883,34.9229631 C142.464111,35.0461511 142.735372,35.1467872 143.007741,35.2168409 C144.369275,35.5658587 145.5,36.1398817 145.5,36.2857143 L145.5,36.3958572 L145.5,37.5 L146,37 L133,37 L133.5,37.5 L133.5,36.7042937 C133.501789,36.713505 133.537905,36.6061436 133.625826,36.4960796 C133.72661,36.3699131 133.875072,36.272751 134.096829,36.2154936 C134.266821,36.1559745 134.481694,36.0761545 134.757573,35.9712595 C135.217425,35.7964138 135.677403,35.6158876 136.107578,35.4391567 C136.254624,35.3787451 136.395957,35.3196736 136.530885,35.2621566 C136.635761,35.217291 136.635761,35.217291 136.739013,35.172439 C136.994232,35.0621764 137.158699,34.9767946 137.412984,34.8308488 C137.695003,34.6688275 137.81237,34.6067024 138.03834,34.5069052 L138.275427,34.4021986 L138.326528,34.1481079 C138.33368,34.1125471 138.343404,34.0576235 138.353008,33.9903897 C138.363508,33.9168849 138.371489,33.8440081 138.375923,33.7731484 C138.381892,33.6777668 138.381329,33.5902435 138.371303,33.5075194 L137.874936,33.5676783 L137.874936,34.0676783 L138.334537,34.0676783 L138.334537,33.5676783 L138.076855,33.9961635 C138.11703,34.0190074 138.11703,34.0190074 138.175694,34.0419341 C138.500332,34.0808466 138.634512,34.0390754 138.770708,33.8395313 C138.907914,33.6385066 138.907914,33.3830665 138.829218,32.8478639 L138.781351,32.5223247 L138.463433,32.4375011 C138.489912,32.4445658 138.474343,32.4350856 138.435732,32.3851548 C138.331623,32.2505219 138.255938,32.0116648 138.246734,31.6291875 L138.230384,30.9497747 L137.586626,31.1675934 C137.609495,31.1603442 137.609495,31.1603442 137.625541,31.1567938 C137.662816,31.1494423 137.702924,31.1520207 137.751208,31.1767869 C137.803555,31.2036374 137.80492,31.2063879 137.800064,31.0801501 C137.793838,30.9228893 137.769624,30.8020315 137.715242,30.5960892 C137.643603,30.3247958 137.638768,30.3668271 137.710179,30.3209423 L138.048196,30.1037507 L137.908866,29.7269025 L137.645735,29.0152102 C137.659285,29.0479605 137.644296,28.9512203 137.629036,28.8217695 C137.594955,28.5326452 137.579561,28.2386937 137.592883,27.9712026 C137.624969,27.3269663 137.745577,27.1490334 138.029763,27.2279216 L139,27.5 L138.547051,26.4253745 C138.607136,26.4972204 138.618604,26.6385309 138.560004,26.7320193 C138.553095,26.7430416 138.591105,26.7151044 138.66875,26.6802177 C138.921871,26.5664871 139.15411,26.9930894 139.577555,27 C140.601371,27.0167087 140.941422,26.7334854 141.028434,27.5 C141.04057,27.5825165 141.584991,27.8998331 141.600515,28.0600392 C141.635516,28.4212436 141.65115,28.7889869 141.636839,29.1264957 C141.627109,29.3559518 141.603674,29.5597197 141.566119,29.7295861 L141.414595,30.4149333 L142.111835,30.3342065 C142.050956,30.3386102 142.018745,30.3334427 141.979884,30.3111361 C141.929261,30.2820775 141.901253,30.2383076 141.900856,30.2353093 C141.91365,30.3319614 141.884007,30.5178217 141.787504,30.7942805 C141.760584,30.8899068 141.725807,30.9933959 141.679713,31.0901778 C141.648154,31.156441 141.618638,31.2010135 141.61145,31.2073046 C141.676676,31.1502225 141.813593,31.1243095 141.923829,31.1853701 L141.134201,30.7479925 L141.18227,31.649381 C141.18688,31.8068486 141.175353,31.9924551 141.137054,32.1591181 C141.097374,32.3317935 141.046276,32.4127154 141.028433,32.4186766 L140.661728,32.5411931 L140.688033,32.9269279 C140.692945,32.9989585 140.692945,32.9989585 140.707694,33.2200611 C140.717845,33.3742306 140.726344,33.5119828 140.726344,33.5104475 L140.726344,33.9399355 L141.150917,34.0047255 L141.677179,34.0850332 L141.752606,33.5907552 L141.25929,33.5092739 C141.254249,33.5397905 141.247374,33.5870384 141.240582,33.6448312 C141.233251,33.707211 141.227659,33.768998 141.224508,33.828958 C141.219629,33.9218003 141.220628,34.0052375 141.230704,34.0837785 C141.256044,34.2813048 141.318341,34.4368154 141.52191,34.5510761 L141.484129,34.5276009 Z" id="Path-5" fill="#4C4C4C" sketch:type="MSShapeGroup"></path>
            <path d="M36.4699636,28.2939185 C36.0817306,28.1232806 35.7776165,27.9532276 35.6103177,27.8449388 C35.7318675,27.9080646 35.7666797,27.9911058 35.7770084,28.0692963 C35.7740119,28.0466117 35.7735697,27.9991245 35.777131,27.938597 C35.7802447,27.8856754 35.7860364,27.8269384 35.7937367,27.7663005 C35.8012454,27.7071707 35.8086643,27.6598955 35.8130884,27.6350274 L35.9035487,27.1265452 L35.3924032,27.0526023 L34.6330699,26.9427561 L34.5614844,27.4376051 L35.0614844,27.4376051 C35.0614844,27.3955376 35.0529469,27.2675544 35.0326046,26.9818871 C35.0201101,26.8068156 35.0091542,26.656665 35.0018431,26.5575811 L34.6537317,27.071176 C35.1785842,26.9054726 35.4765125,26.457795 35.6210125,25.8599927 C35.7046056,25.5141647 35.7272994,25.1659615 35.71824,24.871302 C35.7170402,24.8380777 34.9855546,25.2977089 34.9855546,25.2977089 C35.5768951,25.6068477 36.0114188,25.2464816 36.313323,24.6442343 C36.4193978,24.4326332 36.4917378,24.2277102 36.5326315,24.0810682 C36.9134508,23.0521658 36.813802,22.3347706 36.2461295,22.0268022 C36.067042,21.9296454 35.8906208,21.903014 35.7339116,21.912451 C35.7142098,21.9138328 36.2434376,22.5250037 36.2434376,22.5250037 C36.3149204,22.2164893 36.3567611,21.8694003 36.3736534,21.4895396 C36.3970317,20.9638274 36.3722169,20.4068319 36.3167456,19.8606483 C36.2921237,19.6182154 36.2672953,19.4323526 36.2501703,19.3243674 C36.0395317,17.5798216 34.4775333,16.691479 32.4606374,16.6609891 C31.6835681,16.649242 30.9146409,16.7781923 30.3763758,17.0077978 C29.6332797,17.3247771 29.2405456,17.9186862 29.7625804,18.5130289 L30.2660697,17.6996815 C28.8534118,17.326127 28.1763016,18.2742399 28.0961338,19.7989634 C28.0728714,20.2413941 28.0985211,20.7078268 28.155219,21.1652419 C28.1805869,21.3698991 28.2062513,21.5274071 28.2241952,21.6202133 L28.6321444,22.676555 L28.8364559,22.0662827 C28.1384638,22.4928734 28.0837455,22.9395606 28.3125805,23.7584379 C28.3683057,23.9578484 28.3893667,24.0568439 28.3936703,24.1558559 C28.4151737,24.7236358 28.623323,25.1220059 28.9976691,25.3022457 C29.2021848,25.4007156 29.4066334,25.412602 29.5943841,25.3771247 C29.658493,25.3631742 29.658493,25.3631742 29.6915779,25.3529142 L29.0377246,24.8892609 C29.0562344,25.657687 29.2478739,26.2330597 29.5718711,26.6306888 C29.8037554,26.9152713 30.0561137,27.0612293 30.2596615,27.1129168 L29.8888817,26.7065358 C29.9321228,26.9794737 29.9510823,27.1717595 29.9510823,27.28887 C29.9510823,27.3043187 29.9555329,27.2812748 30.0153539,27.2006467 C30.1368364,27.0369101 30.3503426,26.9767691 30.5376447,27.0367324 C30.5907929,27.0563259 30.5907929,27.0563259 30.629383,27.0769891 L30.5146373,27.0119128 L30.3827225,27.0119128 L29.718913,27.0119128 L29.145421,27.0119128 L29.223578,27.5800541 C29.2273832,27.6077153 29.2279055,27.6578579 29.2237942,27.7208339 C29.2197617,27.7826042 29.2117605,27.8515346 29.2009433,27.9226553 C29.1908389,27.9890903 29.1808709,28.0419179 29.1749849,28.069359 L29.6638654,28.1742205 L29.4724901,27.7122946 C29.0978033,27.8675268 28.8904389,27.9708841 28.4794104,28.1940035 C28.1196573,28.3892077 27.3237104,29.3674482 27,29.4999999 C26.4077289,29.7472867 29.5377248,30.4272527 31.5,31.4272527 C31.5,31.4272527 33,33.9745284 32.9999998,33.9745282 C32.9999998,33.9745282 42.0331092,34.1134706 42.0333886,33.9745282 C42.0345347,33.3688355 42.0343248,32.2315889 42.0333886,31.4272527 C42.0328489,30.9913109 42.0333886,31.0317082 42.0333886,30.902399 C42.0333886,29.9734924 41.5668009,29.6149877 38.5853519,28.902593 C38.5830942,28.9020535 37.6759315,28.6869275 37.428599,28.6268755 C37.1149307,28.5495812 36.7915495,28.4352633 36.4699636,28.2939185 Z M38.3529516,29.8752132 C40.3872112,30.3612842 41.0333893,30.7863982 41.0333893,30.9023989 C41.0333893,31.032349 41.0328496,31.4665634 41.0333893,31.9023989 C41.0343244,32.7057943 41.034533,32.3955651 41.0333893,32.9999999 C41.0331107,33.1385783 33.773403,33.2488783 33.5000002,32.9999999 C33.4124743,32.9203251 33.3669524,32.9472806 33.2595493,32.8639662 C33.0256382,32.6825173 32.7949154,32.526435 32.6364849,32.4271181 L32.370913,32.8507589 L32.870913,32.8507589 C32.870913,32.310127 32.3265482,32.0387758 30.586594,31.3632689 C30.3817176,31.2837292 30.1650965,31.2017838 29.9381518,31.1178163 C29.3632903,30.9051227 28.7483345,30.6889097 28.1335107,30.4802848 C27.7646528,30.3551222 27.477451,30.260184 27.3124983,30.2067407 C26.9050629,29.9995177 26.0754725,29.4535269 25.9342462,29.4005801 L25.7587225,29.8687589 L25.9308506,30.3381968 C26.698399,30.0567609 27.3786964,29.7942865 27.9832801,29.5418457 C28.34289,29.3946069 28.5674991,29.2839322 28.939515,29.0820765 C29.3394432,28.8649844 29.5194392,28.7752684 29.8552406,28.6361463 L30.0977043,28.535694 L30.1527458,28.2790819 C30.1625564,28.2333431 30.1761333,28.1613897 30.1895737,28.0730214 C30.204393,27.9755875 30.2155882,27.8791413 30.2216701,27.7859776 C30.2298006,27.661435 30.2286218,27.5482584 30.214248,27.4437715 L29.718913,27.5119128 L29.718913,28.0119128 L30.3827225,28.0119128 L30.3827225,27.5119128 L30.136062,27.9468365 C30.1755443,27.9680057 30.1755443,27.9680057 30.232746,27.9891172 C30.4397322,28.0553822 30.6756845,27.9889186 30.8184509,27.7964951 C30.9856074,27.5711981 30.9856074,27.2383453 30.8765633,26.550059 L30.8250242,26.2247438 L30.5057835,26.143678 C30.4977136,26.1416287 30.4326453,26.1039948 30.3471031,25.9990122 C30.171093,25.7830019 30.0508468,25.4219781 30.0374347,24.86518 L30.0212933,24.1950777 L29.3835814,24.4015267 C29.4301467,24.4005998 29.4015812,24.3459291 29.3928402,24.1152139 C29.3841176,23.9143575 29.3511168,23.75924 29.275682,23.4892995 C29.153782,23.0530852 29.1549429,23.0436091 29.3579414,22.9195428 L29.716665,22.7003024 L29.562253,22.3092705 L29.1801578,21.3416552 C29.1921147,21.3585055 29.1700178,21.2228918 29.1476243,21.0422304 C29.0975664,20.6383842 29.0749774,20.2276106 29.0947544,19.8514694 C29.1465362,18.8666227 29.4040121,18.5060962 30.010423,18.6664518 L31.5967526,19.0859309 L30.5139123,17.8531043 C30.5495214,17.8936458 30.5593707,18.0110961 30.5167412,18.0755623 C30.5319881,18.0525052 30.6202258,17.9909588 30.7687359,17.9276095 C31.16852,17.7570753 31.800321,17.6511212 32.4455219,17.6608749 C34.0231037,17.6847236 35.1204043,18.3087824 35.2599584,19.4627136 C35.2768693,19.5715242 35.2992631,19.7391615 35.3218634,19.9616901 C35.372817,20.4633911 35.3955781,20.9742901 35.3746407,21.4451139 C35.3602754,21.7681506 35.3255342,22.0563454 35.2692455,22.2992834 L35.1097987,22.987444 L35.8118268,22.9090554 C35.7973079,22.9209926 35.8243483,23.115663 35.5818369,23.7739057 C35.5442699,23.9025103 35.4912721,24.0526413 35.4193597,24.1960941 C35.3637466,24.3070328 35.3082345,24.3865765 35.2726991,24.4160473 C35.2986241,24.3945467 35.38633,24.378821 35.4488428,24.4115013 L34.6682314,24.0034161 L34.7179973,24.8828541 C34.725262,25.115063 34.7079058,25.3813677 34.6490056,25.6250405 C34.5782153,25.9179029 34.4699852,26.0805332 34.3526657,26.1175727 L33.9754454,26.2366664 L34.0045543,26.6311676 C34.0118146,26.7295644 34.0227159,26.8789667 34.0336104,27.0315978 C34.0494277,27.2536944 34.0614844,27.4344326 34.0614844,27.4376051 L34.0614844,27.8704791 L34.4898989,27.9324541 L35.2492322,28.0423002 L34.8285471,27.4598751 C34.8214223,27.4999237 34.8115179,27.5630373 34.8017034,27.640324 C34.7913585,27.7217877 34.7834225,27.8022719 34.7788574,27.8798618 C34.7532195,28.315608 34.782049,28.5338529 35.102634,28.7054849 C35.1226309,28.7204747 35.2196094,28.7792761 35.3519326,28.8532679 C35.5693257,28.9748286 35.8097632,29.0960728 36.0675897,29.2093939 C36.4387792,29.3725407 36.8154572,29.5056995 37.1910001,29.5982374 C37.4430641,29.6594411 38.3530215,29.8752299 38.3529516,29.8752132 Z M25.6406572,29.3706261 C25.6353252,29.3312218 25.6344546,29.2622778 25.6392,29.176661 C25.6431838,29.1047848 25.6507275,29.02577 25.6608026,28.9444952 C25.6703798,28.8672376 25.679866,28.8054308 25.6856836,28.7720389 L25.7740113,28.2650561 L25.2646941,28.1913722 L24.2932655,28.0508338 L24.2216749,28.545682 L24.7216749,28.545682 C24.7216749,28.4979121 24.7104921,28.3260836 24.685938,27.9724828 C24.6703467,27.7484454 24.6566617,27.5560745 24.6475292,27.4291158 L24.2997963,27.9416505 C24.9132438,27.7473458 25.2675923,27.2153294 25.4422901,26.4946076 C25.5460617,26.0664942 25.5744848,25.6326104 25.5633308,25.2674505 C25.5618895,25.2273135 24.8295003,25.6848966 24.8295003,25.6848966 C25.4873651,26.030358 25.9826856,25.6194029 26.3386126,24.9109038 C26.469769,24.6498273 26.5599517,24.395404 26.6103318,24.2157995 C27.0791872,22.9469624 26.9613018,22.1026688 26.3111064,21.7488393 C26.1081021,21.6383664 25.906832,21.6077543 25.7300422,21.6182083 C25.7090089,21.6196586 26.2369902,22.2316226 26.2369902,22.2316226 C26.3268378,21.8463509 26.3796672,21.4108506 26.4010326,20.9331787 C26.4307356,20.2691031 26.3991097,19.5638759 26.3284168,18.8722348 C26.2970362,18.5652157 26.2654466,18.3302385 26.2438072,18.1946501 C25.9863259,16.0410381 24.1072631,14.9742017 21.6800252,15.0004736 C20.738319,15.0106664 19.8107737,15.1999938 19.1715787,15.5081564 C18.3366124,15.9107024 17.9397421,16.5881726 18.5087164,17.233165 L19.0109275,16.4188632 C17.3419571,15.979638 16.4598773,17.0418803 16.2372485,18.8429206 C16.1619844,19.4517976 16.1650153,20.0922827 16.2147406,20.6969925 C16.2280596,20.8589651 16.2415896,20.9800463 16.2511048,21.0499186 L16.2807028,21.1641188 L16.766417,22.4095803 L16.9721273,21.8009021 C16.1510625,22.3010643 16.0894816,22.8086155 16.3664862,23.8031156 C16.4405991,24.0691951 16.4693208,24.2051051 16.4752532,24.3471598 C16.502742,25.0246056 16.7431883,25.483887 17.1670176,25.6899863 C17.3984032,25.8025042 17.631587,25.8167158 17.8454205,25.7767337 C17.916936,25.7613166 17.916936,25.7613166 17.9516358,25.7506329 L17.299074,25.2872162 C17.3232455,26.2394416 17.5589894,26.9447879 17.9528942,27.4277128 C18.2299153,27.7673392 18.5274121,27.9390831 18.7610628,27.9981844 L18.3895823,27.5900837 C18.4448492,27.9464207 18.4693045,28.1999205 18.4693045,28.359135 C18.6378256,28.1734966 18.8512342,28.1105127 19.0396327,28.1710411 C19.0926145,28.1906464 19.0926145,28.1906464 19.1313209,28.2114726 L19.0161962,28.1458359 L18.8836749,28.1458359 L18.0352939,28.1458359 L17.4673046,28.1458359 L17.5393303,28.70924 C17.5453573,28.756385 17.5458513,28.8292475 17.5400043,28.9178294 C17.534507,29.0011155 17.5239038,29.0929067 17.5096739,29.1873461 C17.4962897,29.276173 17.4830361,29.3471441 17.4749403,29.3853074 L17.770952,29.0278607 C17.2985893,29.2256359 17.0438129,29.3534882 16.5168165,29.6405285 C16.0571636,29.8906473 15.797672,30.0183614 15.3799672,30.1894523 C15.2576308,30.2400385 15.1331121,30.2909195 15.0050347,30.3426796 C14.7618719,30.4409495 14.5066425,30.5420825 14.2407179,30.6456575 C13.4594449,30.9499557 12.6214684,31.2617468 11.7833692,31.5638538 C11.4899419,31.6696247 11.2175077,31.7666118 10.9731011,31.8526855 C10.8266891,31.9042481 10.7223336,31.9406534 10.6670605,31.9597754 C10.0295517,32.1136023 9.55340255,32.4056107 9.27410096,32.8041002 C9.01273745,33.1769967 8.95941945,33.5741617 9.02620193,33.9289651 C9.03642783,33.9832934 9.04800508,34.0271312 9.05868128,34.0594097 L9.03338919,33.9023989 L9.03338918,35.9023991 L33.03339,35.9023991 C33.03339,34.0781298 33.0333892,34.0781297 33.0333892,33.4023989 C33.0333892,32.1227867 30.8667698,30.9298076 27.8579401,30.1985929 C27.4443644,30.0977468 27.0220832,29.9492227 26.6034886,29.7655954 C26.3100943,29.6368904 26.0362114,29.4988352 25.790134,29.3611091 C25.6444258,29.2795583 25.5421347,29.2174092 25.491276,29.18439 C25.6030234,29.2417207 25.632726,29.3120139 25.6406572,29.3706261 Z M25.3017393,30.233732 C25.5746896,30.3864984 25.8771044,30.5389356 26.2017662,30.6813569 C26.6705019,30.8869799 27.1466681,31.0544563 27.6214163,31.1702185 C30.1593721,31.7870002 32.0333892,32.8188673 32.0333892,33.4023989 C32.0333892,34.0781297 32.033389,35.0000009 32.033389,35.0000009 L10.0929862,35.0000009 L10.0333892,33.9023989 L10.0080971,33.745388 C9.98792941,33.6323372 10.0052637,33.5032142 10.0929862,33.3780575 C10.2218284,33.1942337 10.4882525,33.0308436 10.949414,32.9179589 C11.0509696,32.8851117 11.1570624,32.8481004 11.3052782,32.7959026 C11.5519178,32.7090424 11.8266494,32.6112374 12.1224775,32.5046012 C12.9679654,32.1998308 13.8135759,31.8851992 14.6036508,31.5774728 C14.873369,31.4724202 15.1324964,31.3697427 15.3797257,31.2698294 C15.5102399,31.2170844 15.6372376,31.1651904 15.7605548,31.1141956 C16.2156446,30.927795 16.5057139,30.7850315 16.962122,30.5366885 C17.4946693,30.2466325 17.7229856,30.1320584 18.1571597,29.9502725 L18.3988071,29.8490964 L18.4531714,29.5928258 C18.4650941,29.5366229 18.4818682,29.4467996 18.4985118,29.3363419 C18.5166109,29.2162235 18.5303156,29.0975819 18.537833,28.9836922 C18.5475676,28.836212 18.5466642,28.7029465 18.5312576,28.5824317 L18.0352939,28.6458359 L18.0352939,29.1458359 L18.8836749,29.1458359 L18.8836749,28.6458359 L18.6360289,29.0801991 C18.675823,29.1016455 18.675823,29.1016455 18.7337532,29.1231113 C18.9468142,29.1915632 19.1884121,29.1202597 19.3322687,28.9204419 C19.5074,28.6771832 19.5074,28.272633 19.3777675,27.4368188 L19.3270564,27.1098559 L19.006287,27.028718 C18.9682755,27.0191031 18.8582788,26.9556024 18.7278066,26.7956443 C18.4817737,26.4940093 18.3175575,26.002674 18.298752,25.2618401 L18.2818128,24.5945311 L17.6461901,24.7984234 C17.550031,24.7642721 17.4882095,24.6461857 17.4744066,24.3060253 C17.4643031,24.0640812 17.4236195,23.8715679 17.3298154,23.5347932 C17.1595488,22.9235031 17.1681746,22.8524084 17.4923654,22.6549234 L17.8503964,22.4368242 L17.6980756,22.0462452 L17.2123613,20.8007837 L17.2419593,20.9149839 C17.2347378,20.8619553 17.2231627,20.7583682 17.2113768,20.615039 C17.1667897,20.0728162 17.1640628,19.496555 17.2296951,18.9655981 C17.388492,17.68095 17.8348646,17.143407 18.756422,17.3859346 L20.3459863,17.8042623 L19.2586331,16.5716327 C19.2678555,16.5820873 19.2761809,16.5678755 19.6058542,16.4089365 C20.1030542,16.1692312 20.8875129,16.0091101 21.6908483,16.000415 C23.6686314,15.9790079 25.0668039,16.7728193 25.253602,18.3328949 C25.2751412,18.4702793 25.3042659,18.6869218 25.3335997,18.9739155 C25.3997182,19.6208019 25.4292642,20.2796477 25.4020314,20.8884951 C25.3832239,21.3089789 25.3375844,21.6852098 25.2631215,22.0045106 L25.102767,22.6921195 L25.8046108,22.6150815 C25.8544288,22.6388025 25.8720733,22.6649442 25.8865336,22.7685088 C25.9188029,22.999621 25.8553979,23.3765137 25.6597071,23.9079993 C25.6129243,24.06896 25.542087,24.2688059 25.4450332,24.4619985 C25.3135494,24.7237269 25.2501731,24.7763086 25.2944209,24.7995443 L24.5131938,24.3893024 L24.5627497,25.2703009 C24.5724535,25.581379 24.5494035,25.9332405 24.470433,26.2590365 C24.3695261,26.6753314 24.2046938,26.9228094 23.9978392,26.9883289 L23.6218058,27.1074345 L23.6501063,27.5008635 C23.6591881,27.6271164 23.6728245,27.8188032 23.686453,28.0146105 C23.7071029,28.3119535 23.7216749,28.53586 23.7216749,28.545682 L23.7216749,28.9785514 L24.1500842,29.0405302 L25.1215128,29.1810687 L24.7005233,28.600402 C24.6920896,28.6488101 24.6801986,28.726285 24.6683988,28.8214725 C24.6557259,28.9237022 24.6460936,29.0245949 24.6407325,29.1213197 C24.6135254,29.6121903 24.6479027,29.8662414 24.9841289,30.0451564 C25.0151991,30.0675733 25.1360308,30.1409873 25.3017393,30.233732 Z" id="Icon-7" fill="#4C4C4C" sketch:type="MSShapeGroup"></path>
            <path d="M62.4980991,15 C61.6707218,15 61,15.6762201 61,16.4908981 L61,32.5091019 C61,33.3325022 61.6741559,34 62.4980991,34 L88.5019009,34 C89.3292782,34 90,33.3237799 90,32.5091019 L90,16.4908981 C90,15.6674978 89.3258441,15 88.5019009,15 L62.4980991,15 L62.4980991,15 Z M62,16 L62,33 L89,33 L89,16 L62,16 L62,16 Z" id="Rectangle-292" fill="#4C4C4C" sketch:type="MSShapeGroup"></path>
            <path d="M61.5,35.5 C61.7047052,36.0822285 61.7627979,35.9151341 62.414639,35.9151341 L88.9165401,35.9151344 C89.7439175,35.9151344 92,35.3146781 92,34.5 L92,18 C92,17.3508863 91.581033,17.7046934 91,17.5 L91,35 L61,35 L61.5,35.5 Z M63,19 L63.0165384,20 L68.0165384,20 L68.0165384,19 L63.0165384,19 L63,19 Z M63,23 L84,23 L84,22 L63,22 L63,23 Z M63,24 L63,25 L78,25 L78,24 L63,24 Z M64.5,27 C63.6715729,27 63,27.6657972 63,28.5 C63,29.3284271 63.6657972,30 64.5,30 C65.3284271,30 66,29.3342028 66,28.5 C66,27.6715729 65.3342028,27 64.5,27 L64.5,27 Z" id="Rectangle-291" fill="#4C4C4C" sketch:type="MSShapeGroup"></path>
            <path d="M9.27,60.525 L10.9,60.525 C10.923,59.767 11.18,59.369 12.062,59.369 C12.643,59.369 13.023,59.726 13.023,60.262 C13.023,60.955 12.441,61.278 11.973,61.682 C11.235,62.317 11.257,62.522 11.257,63.438 L12.742,63.438 C12.742,62.655 12.821,62.743 13.469,62.295 C14.184,61.803 14.73,61.223 14.73,60.295 C14.73,58.922 13.67,58.006 12.084,58.006 C10.297,58.006 9.37,58.861 9.27,60.525 L9.27,60.525 Z M13,64 L11,64 L11,66 L13,66 L13,64 L13,64 L13,64 L13,64 Z" id="Shape" fill="#4D4D4D" sketch:type="MSShapeGroup"></path>
            <path d="M12,55 C15.859,55 19,58.14 19,62 C19,65.859 15.859,69 12,69 C8.141,69 5,65.859 5,62 C5,58.14 8.141,55 12,55 M12,54 C7.582,54 4,57.582 4,62 C4,66.418 7.582,70 12,70 C16.418,70 20,66.418 20,62 C20,57.582 16.418,54 12,54" id="Shape" fill="#4D4D4D" sketch:type="MSShapeGroup"></path>
        </g>
    </g>
</svg>