<?xml version="1.0" encoding="UTF-8" standalone="no"?>
<svg width="200px" height="96px" viewBox="0 0 200 96" version="1.1" xmlns="http://www.w3.org/2000/svg" xmlns:xlink="http://www.w3.org/1999/xlink" xmlns:sketch="http://www.bohemiancoding.com/sketch/ns">
    <!-- Generator: Sketch 3.4.2 (15855) - http://www.bohemiancoding.com/sketch -->
    <title>backlog</title>
    <desc>Created with Sketch.</desc>
    <defs>
        <filter x="-50%" y="-50%" width="200%" height="200%" filterUnits="objectBoundingBox" id="filter-1">
            <feOffset dx="0" dy="1" in="SourceAlpha" result="shadowOffsetOuter1"></feOffset>
            <feGaussianBlur stdDeviation="1" in="shadowOffsetOuter1" result="shadowBlurOuter1"></feGaussianBlur>
            <feColorMatrix values="0 0 0 0 0.631372549   0 0 0 0 0.654901961   0 0 0 0 0.701960784  0 0 0 0.7 0" in="shadowBlurOuter1" type="matrix" result="shadowMatrixOuter1"></feColorMatrix>
            <feMerge>
                <feMergeNode in="shadowMatrixOuter1"></feMergeNode>
                <feMergeNode in="SourceGraphic"></feMergeNode>
            </feMerge>
        </filter>
    </defs>
    <g id="Page-1" stroke="none" stroke-width="1" fill="none" fill-rule="evenodd" sketch:type="MSPage">
        <g id="Dashboards-Empty-5" sketch:type="MSArtboardGroup" transform="translate(-128.000000, -319.000000)">
            <rect id="Input-2" fill="#FFFFFF" filter="url(#filter-1)" sketch:type="MSShapeGroup" x="128" y="319" width="200" height="203"></rect>
            <rect id="Rectangle-907" fill="#F3F5F8" sketch:type="MSShapeGroup" x="146" y="335" width="42" height="76" rx="2"></rect>
            <path d="M187,336 L187,335 L307.993011,335 C309.097951,335 310,335.892633 310,336.993751 L310,409.006249 C310,410.106918 309.10144,411 307.993011,411 L187,411 L187,410 L306.993011,410 C308.10144,410 309,409.104275 309,408.001532 L309,337.998468 C309,336.894745 308.097951,336 306.993011,336 L187,336 Z" id="Rectangle-907" fill="#F2F4F7" sketch:type="MSShapeGroup"></path>
            <rect id="Rectangle-575" opacity="0.8" fill="#569BDA" sketch:type="MSShapeGroup" x="153" y="343" width="22" height="2"></rect>
            <rect id="Rectangle-907" fill="#78BEFF" sketch:type="MSShapeGroup" x="146" y="358" width="42" height="8"></rect>
            <rect id="Rectangle-578" opacity="0.8" fill="#569BDA" sketch:type="MSShapeGroup" x="153" y="352" width="18" height="2"></rect>
            <rect id="Rectangle-588" fill="#FFFFFF" sketch:type="MSShapeGroup" x="153" y="361" width="24" height="2"></rect>
            <rect id="Rectangle-590" opacity="0.8" fill="#569BDA" sketch:type="MSShapeGroup" x="153" y="370" width="16" height="2"></rect>
            <rect id="Rectangle-575" fill="#8F9CAC" sketch:type="MSShapeGroup" x="199" y="343" width="52" height="4"></rect>
            <rect id="Rectangle-516" opacity="0.8" fill="#B9C1CB" sketch:type="MSShapeGroup" x="199" y="353" width="62" height="2"></rect>
            <rect id="Rectangle-516" opacity="0.8" fill="#B9C1CB" sketch:type="MSShapeGroup" x="199" y="357" width="62" height="2"></rect>
            <rect id="Rectangle-516" opacity="0.8" fill="#B9C1CB" sketch:type="MSShapeGroup" x="199" y="381" width="62" height="2"></rect>
            <rect id="Rectangle-516" opacity="0.8" fill="#B9C1CB" sketch:type="MSShapeGroup" x="199" y="385" width="22" height="2"></rect>
            <rect id="Rectangle-516" opacity="0.8" fill="#B9C1CB" sketch:type="MSShapeGroup" x="271" y="343" width="32" height="2"></rect>
            <rect id="Rectangle-516" opacity="0.8" fill="#B9C1CB" sketch:type="MSShapeGroup" x="271" y="353" width="8" height="2"></rect>
            <rect id="Rectangle-516" opacity="0.799999952" fill="#A1A7B3" sketch:type="MSShapeGroup" x="284" y="353" width="18" height="2"></rect>
            <rect id="Rectangle-516" opacity="0.8" fill="#B9C1CB" sketch:type="MSShapeGroup" x="271" y="358" width="11" height="2"></rect>
            <rect id="Rectangle-516" opacity="0.799999952" fill="#A1A7B3" sketch:type="MSShapeGroup" x="284" y="358" width="15" height="2"></rect>
            <rect id="Rectangle-516" opacity="0.8" fill="#B9C1CB" sketch:type="MSShapeGroup" x="271" y="363" width="10" height="2"></rect>
            <rect id="Rectangle-516" opacity="0.799999952" fill="#A1A7B3" sketch:type="MSShapeGroup" x="284" y="363" width="19" height="2"></rect>
            <rect id="Rectangle-516" opacity="0.8" fill="#B9C1CB" sketch:type="MSShapeGroup" x="271" y="368" width="11" height="2"></rect>
            <rect id="Rectangle-516" opacity="0.799999952" fill="#A1A7B3" sketch:type="MSShapeGroup" x="284" y="368" width="18" height="2"></rect>
            <rect id="Rectangle-516" opacity="0.8" fill="#B9C1CB" sketch:type="MSShapeGroup" x="271" y="373" width="10" height="2"></rect>
            <rect id="Rectangle-516" opacity="0.799999952" fill="#A1A7B3" sketch:type="MSShapeGroup" x="284" y="373" width="15" height="2"></rect>
            <rect id="Rectangle-516" opacity="0.8" fill="#B9C1CB" sketch:type="MSShapeGroup" x="199" y="361" width="62" height="2"></rect>
            <rect id="Rectangle-516" opacity="0.8" fill="#B9C1CB" sketch:type="MSShapeGroup" x="199" y="365" width="62" height="2"></rect>
            <rect id="Rectangle-516" opacity="0.8" fill="#B9C1CB" sketch:type="MSShapeGroup" x="199" y="369" width="62" height="2"></rect>
            <rect id="Rectangle-516" opacity="0.8" fill="#B9C1CB" sketch:type="MSShapeGroup" x="199" y="373" width="62" height="2"></rect>
            <rect id="Rectangle-516" opacity="0.8" fill="#B9C1CB" sketch:type="MSShapeGroup" x="199" y="377" width="62" height="2"></rect>
            <rect id="Rectangle-516" opacity="0.8" fill="#74AC6A" sketch:type="MSShapeGroup" x="271" y="343" width="12" height="2"></rect>
        </g>
    </g>
</svg>