<?xml version="1.0" encoding="UTF-8" standalone="no"?>
<svg width="200px" height="96px" viewBox="0 0 200 96" version="1.1" xmlns="http://www.w3.org/2000/svg" xmlns:xlink="http://www.w3.org/1999/xlink" xmlns:sketch="http://www.bohemiancoding.com/sketch/ns">
    <!-- Generator: Sketch 3.4.2 (15855) - http://www.bohemiancoding.com/sketch -->
    <title>estimation</title>
    <desc>Created with Sketch.</desc>
    <defs>
        <filter x="-50%" y="-50%" width="200%" height="200%" filterUnits="objectBoundingBox" id="filter-1">
            <feOffset dx="0" dy="1" in="SourceAlpha" result="shadowOffsetOuter1"></feOffset>
            <feGaussianBlur stdDeviation="1" in="shadowOffsetOuter1" result="shadowBlurOuter1"></feGaussianBlur>
            <feColorMatrix values="0 0 0 0 0.631372549   0 0 0 0 0.654901961   0 0 0 0 0.701960784  0 0 0 0.7 0" in="shadowBlurOuter1" type="matrix" result="shadowMatrixOuter1"></feColorMatrix>
            <feMerge>
                <feMergeNode in="shadowMatrixOuter1"></feMergeNode>
                <feMergeNode in="SourceGraphic"></feMergeNode>
            </feMerge>
        </filter>
    </defs>
    <g id="Page-1" stroke="none" stroke-width="1" fill="none" fill-rule="evenodd" sketch:type="MSPage">
        <g id="Dashboards-Empty-5" sketch:type="MSArtboardGroup" transform="translate(-128.000000, -546.000000)">
            <rect id="Input-2" fill="#FFFFFF" filter="url(#filter-1)" sketch:type="MSShapeGroup" x="128" y="546" width="200" height="203"></rect>
            <rect id="Rectangle-907" fill="#F3F5F8" sketch:type="MSShapeGroup" x="146" y="562" width="164" height="76" rx="2"></rect>
            <path d="M158.990246,567.888171 C158.9664,567.812014 158.902937,567.755857 158.827166,567.744318 L157.344439,567.518153 L156.680962,566.108467 C156.612883,565.963844 156.386724,565.963844 156.31903,566.108467 L155.655553,567.518153 L154.172826,567.744318 C154.097055,567.755857 154.033592,567.812014 154.009745,567.888171 C153.986283,567.965483 154.005899,568.049333 154.0609,568.10549 L155.134002,569.203237 L154.880535,570.752546 C154.867842,570.831396 154.898997,570.912169 154.960921,570.959479 C155.02323,571.006789 155.105925,571.013328 155.174003,570.975634 L156.500188,570.244443 L157.826373,570.975634 C157.855989,570.992173 157.888298,570.999866 157.920606,570.999866 C157.961761,570.999866 158.00407,570.986404 158.039455,570.959479 C158.101379,570.912169 158.132534,570.831396 158.119841,570.752546 L157.866374,569.203237 L158.939476,568.10549 C158.994093,568.049333 159.013709,567.965483 158.990246,567.888171 L158.990246,567.888171 Z" id="Star" fill="#4BC41A" sketch:type="MSShapeGroup"></path>
            <rect id="Rectangle-668" fill="#FFFFFF" sketch:type="MSShapeGroup" x="152" y="575" width="42" height="15" rx="1"></rect>
            <rect id="Rectangle-516" opacity="0.2" fill="#8F9CAC" sketch:type="MSShapeGroup" x="200" y="562" width="1" height="76"></rect>
            <rect id="Rectangle-516" opacity="0.2" fill="#8F9CAC" sketch:type="MSShapeGroup" x="255" y="562" width="1" height="76"></rect>
            <rect id="Rectangle-668" fill="#FFFFFF" sketch:type="MSShapeGroup" x="152" y="594" width="42" height="15" rx="1"></rect>
            <rect id="Rectangle-668" fill="#FFFFFF" sketch:type="MSShapeGroup" x="207" y="575" width="42" height="15" rx="1"></rect>
            <rect id="Rectangle-668" fill="#FFFFFF" sketch:type="MSShapeGroup" x="207" y="594" width="42" height="15" rx="1"></rect>
            <rect id="Rectangle-668" fill="#FFFFFF" sketch:type="MSShapeGroup" x="152" y="613" width="42" height="15" rx="1"></rect>
            <rect id="Rectangle-668" fill="#FFFFFF" sketch:type="MSShapeGroup" x="262" y="575" width="42" height="15" rx="1"></rect>
            <rect id="Rectangle-516" opacity="0.8" fill="#B9C1CB" sketch:type="MSShapeGroup" x="159" y="579" width="30" height="2"></rect>
            <rect id="Rectangle-668" opacity="0.8" fill="#569BDA" sketch:type="MSShapeGroup" x="152" y="575" width="2" height="15" rx="1"></rect>
            <rect id="Rectangle-516" opacity="0.8" fill="#B9C1CB" sketch:type="MSShapeGroup" x="159" y="582" width="30" height="2"></rect>
            <rect id="Rectangle-516" opacity="0.8" fill="#B9C1CB" sketch:type="MSShapeGroup" x="159" y="598" width="30" height="2"></rect>
            <rect id="Rectangle-668" opacity="0.8" fill="#569BDA" sketch:type="MSShapeGroup" x="152" y="594" width="2" height="15" rx="1"></rect>
            <rect id="Rectangle-516" opacity="0.8" fill="#B9C1CB" sketch:type="MSShapeGroup" x="159" y="601" width="30" height="2"></rect>
            <rect id="Rectangle-516" opacity="0.8" fill="#B9C1CB" sketch:type="MSShapeGroup" x="159" y="617" width="30" height="2"></rect>
            <rect id="Rectangle-668" opacity="0.8" fill="#569BDA" sketch:type="MSShapeGroup" x="152" y="613" width="2" height="15" rx="1"></rect>
            <rect id="Rectangle-516" opacity="0.8" fill="#B9C1CB" sketch:type="MSShapeGroup" x="159" y="620" width="30" height="2"></rect>
            <rect id="Rectangle-516" opacity="0.8" fill="#B9C1CB" sketch:type="MSShapeGroup" x="214" y="579" width="30" height="2"></rect>
            <rect id="Rectangle-668" opacity="0.8" fill="#569BDA" sketch:type="MSShapeGroup" x="207" y="575" width="2" height="15" rx="1"></rect>
            <rect id="Rectangle-516" opacity="0.8" fill="#B9C1CB" sketch:type="MSShapeGroup" x="214" y="582" width="30" height="2"></rect>
            <rect id="Rectangle-516" opacity="0.8" fill="#B9C1CB" sketch:type="MSShapeGroup" x="214" y="598" width="30" height="2"></rect>
            <rect id="Rectangle-668" opacity="0.8" fill="#569BDA" sketch:type="MSShapeGroup" x="207" y="594" width="2" height="15" rx="1"></rect>
            <rect id="Rectangle-516" opacity="0.8" fill="#B9C1CB" sketch:type="MSShapeGroup" x="214" y="601" width="30" height="2"></rect>
            <rect id="Rectangle-516" opacity="0.8" fill="#B9C1CB" sketch:type="MSShapeGroup" x="269" y="579" width="30" height="2"></rect>
            <rect id="Rectangle-668" opacity="0.8" fill="#569BDA" sketch:type="MSShapeGroup" x="262" y="575" width="2" height="15" rx="1"></rect>
            <rect id="Rectangle-516" opacity="0.8" fill="#B9C1CB" sketch:type="MSShapeGroup" x="269" y="582" width="30" height="2"></rect>
            <path d="M213.990246,567.888171 C213.9664,567.812014 213.902937,567.755857 213.827166,567.744318 L212.344439,567.518153 L211.680962,566.108467 C211.612883,565.963844 211.386724,565.963844 211.31903,566.108467 L210.655553,567.518153 L209.172826,567.744318 C209.097055,567.755857 209.033592,567.812014 209.009745,567.888171 C208.986283,567.965483 209.005899,568.049333 209.0609,568.10549 L210.134002,569.203237 L209.880535,570.752546 C209.867842,570.831396 209.898997,570.912169 209.960921,570.959479 C210.02323,571.006789 210.105925,571.013328 210.174003,570.975634 L211.500188,570.244443 L212.826373,570.975634 C212.855989,570.992173 212.888298,570.999866 212.920606,570.999866 C212.961761,570.999866 213.00407,570.986404 213.039455,570.959479 C213.101379,570.912169 213.132534,570.831396 213.119841,570.752546 L212.866374,569.203237 L213.939476,568.10549 C213.994093,568.049333 214.013709,567.965483 213.990246,567.888171 L213.990246,567.888171 Z" id="Star" fill="#CDBB2A" sketch:type="MSShapeGroup"></path>
            <path d="M220.990246,567.888171 C220.9664,567.812014 220.902937,567.755857 220.827166,567.744318 L219.344439,567.518153 L218.680962,566.108467 C218.612883,565.963844 218.386724,565.963844 218.31903,566.108467 L217.655553,567.518153 L216.172826,567.744318 C216.097055,567.755857 216.033592,567.812014 216.009745,567.888171 C215.986283,567.965483 216.005899,568.049333 216.0609,568.10549 L217.134002,569.203237 L216.880535,570.752546 C216.867842,570.831396 216.898997,570.912169 216.960921,570.959479 C217.02323,571.006789 217.105925,571.013328 217.174003,570.975634 L218.500188,570.244443 L219.826373,570.975634 C219.855989,570.992173 219.888298,570.999866 219.920606,570.999866 C219.961761,570.999866 220.00407,570.986404 220.039455,570.959479 C220.101379,570.912169 220.132534,570.831396 220.119841,570.752546 L219.866374,569.203237 L220.939476,568.10549 C220.994093,568.049333 221.013709,567.965483 220.990246,567.888171 L220.990246,567.888171 Z" id="Star" fill="#CDBB2A" sketch:type="MSShapeGroup"></path>
            <path d="M268.990246,567.888171 C268.9664,567.812014 268.902937,567.755857 268.827166,567.744318 L267.344439,567.518153 L266.680962,566.108467 C266.612883,565.963844 266.386724,565.963844 266.31903,566.108467 L265.655553,567.518153 L264.172826,567.744318 C264.097055,567.755857 264.033592,567.812014 264.009745,567.888171 C263.986283,567.965483 264.005899,568.049333 264.0609,568.10549 L265.134002,569.203237 L264.880535,570.752546 C264.867842,570.831396 264.898997,570.912169 264.960921,570.959479 C265.02323,571.006789 265.105925,571.013328 265.174003,570.975634 L266.500188,570.244443 L267.826373,570.975634 C267.855989,570.992173 267.888298,570.999866 267.920606,570.999866 C267.961761,570.999866 268.00407,570.986404 268.039455,570.959479 C268.101379,570.912169 268.132534,570.831396 268.119841,570.752546 L267.866374,569.203237 L268.939476,568.10549 C268.994093,568.049333 269.013709,567.965483 268.990246,567.888171 L268.990246,567.888171 Z" id="Star" fill="#E08738" sketch:type="MSShapeGroup"></path>
            <path d="M275.990246,567.888171 C275.9664,567.812014 275.902937,567.755857 275.827166,567.744318 L274.344439,567.518153 L273.680962,566.108467 C273.612883,565.963844 273.386724,565.963844 273.31903,566.108467 L272.655553,567.518153 L271.172826,567.744318 C271.097055,567.755857 271.033592,567.812014 271.009745,567.888171 C270.986283,567.965483 271.005899,568.049333 271.0609,568.10549 L272.134002,569.203237 L271.880535,570.752546 C271.867842,570.831396 271.898997,570.912169 271.960921,570.959479 C272.02323,571.006789 272.105925,571.013328 272.174003,570.975634 L273.500188,570.244443 L274.826373,570.975634 C274.855989,570.992173 274.888298,570.999866 274.920606,570.999866 C274.961761,570.999866 275.00407,570.986404 275.039455,570.959479 C275.101379,570.912169 275.132534,570.831396 275.119841,570.752546 L274.866374,569.203237 L275.939476,568.10549 C275.994093,568.049333 276.013709,567.965483 275.990246,567.888171 L275.990246,567.888171 Z" id="Star" fill="#E08738" sketch:type="MSShapeGroup"></path>
            <path d="M282.990246,567.888171 C282.9664,567.812014 282.902937,567.755857 282.827166,567.744318 L281.344439,567.518153 L280.680962,566.108467 C280.612883,565.963844 280.386724,565.963844 280.31903,566.108467 L279.655553,567.518153 L278.172826,567.744318 C278.097055,567.755857 278.033592,567.812014 278.009745,567.888171 C277.986283,567.965483 278.005899,568.049333 278.0609,568.10549 L279.134002,569.203237 L278.880535,570.752546 C278.867842,570.831396 278.898997,570.912169 278.960921,570.959479 C279.02323,571.006789 279.105925,571.013328 279.174003,570.975634 L280.500188,570.244443 L281.826373,570.975634 C281.855989,570.992173 281.888298,570.999866 281.920606,570.999866 C281.961761,570.999866 282.00407,570.986404 282.039455,570.959479 C282.101379,570.912169 282.132534,570.831396 282.119841,570.752546 L281.866374,569.203237 L282.939476,568.10549 C282.994093,568.049333 283.013709,567.965483 282.990246,567.888171 L282.990246,567.888171 Z" id="Star" fill="#E08738" sketch:type="MSShapeGroup"></path>
        </g>
    </g>
</svg>