<?xml version="1.0" encoding="UTF-8" standalone="no"?>
<svg width="200px" height="96px" viewBox="0 0 200 96" version="1.1" xmlns="http://www.w3.org/2000/svg" xmlns:xlink="http://www.w3.org/1999/xlink" xmlns:sketch="http://www.bohemiancoding.com/sketch/ns">
    <!-- Generator: Sketch 3.4.2 (15855) - http://www.bohemiancoding.com/sketch -->
    <title>featureProgressByEpic</title>
    <desc>Created with Sketch.</desc>
    <defs>
        <filter x="-50%" y="-50%" width="200%" height="200%" filterUnits="objectBoundingBox" id="filter-1">
            <feOffset dx="0" dy="1" in="SourceAlpha" result="shadowOffsetOuter1"></feOffset>
            <feGaussianBlur stdDeviation="1" in="shadowOffsetOuter1" result="shadowBlurOuter1"></feGaussianBlur>
            <feColorMatrix values="0 0 0 0 0.631372549   0 0 0 0 0.654901961   0 0 0 0 0.701960784  0 0 0 0.7 0" in="shadowBlurOuter1" type="matrix" result="shadowMatrixOuter1"></feColorMatrix>
            <feMerge>
                <feMergeNode in="shadowMatrixOuter1"></feMergeNode>
                <feMergeNode in="SourceGraphic"></feMergeNode>
            </feMerge>
        </filter>
    </defs>
    <g id="Page-1" stroke="none" stroke-width="1" fill="none" fill-rule="evenodd" sketch:type="MSPage">
        <g id="Dashboards-Empty-5" sketch:type="MSArtboardGroup" transform="translate(-1208.000000, -546.000000)">
            <rect id="Input-2" fill="#FFFFFF" filter="url(#filter-1)" sketch:type="MSShapeGroup" x="1208" y="546" width="200" height="203"></rect>
            <rect id="Rectangle-907" fill="#F3F5F8" sketch:type="MSShapeGroup" x="1226" y="562" width="164" height="76" rx="2"></rect>
            <rect id="Rectangle-598" opacity="0.599999964" fill="#009A80" sketch:type="MSShapeGroup" x="1234" y="580" width="18" height="2"></rect>
            <rect id="Rectangle-516" opacity="0.2" fill="#8F9CAC" sketch:type="MSShapeGroup" x="1261" y="562" width="1" height="76"></rect>
            <rect id="Rectangle-516" opacity="0.2" fill="#8F9CAC" sketch:type="MSShapeGroup" transform="translate(1308.000000, 593.500000) scale(-1, 1) translate(-1308.000000, -593.500000) " x="1226" y="593" width="164" height="1"></rect>
            <rect id="Rectangle-668" opacity="0.6" fill="#288019" sketch:type="MSShapeGroup" x="1268" y="579" width="6" height="4" rx="1"></rect>
            <rect id="Rectangle-516" opacity="0.2" fill="#8F9CAC" sketch:type="MSShapeGroup" x="1304" y="562" width="1" height="76"></rect>
            <rect id="Rectangle-516" opacity="0.2" fill="#8F9CAC" sketch:type="MSShapeGroup" x="1347" y="562" width="1" height="76"></rect>
            <rect id="Rectangle-516" opacity="0.2" fill="#8F9CAC" sketch:type="MSShapeGroup" transform="translate(1308.000000, 574.500000) scale(-1, 1) translate(-1308.000000, -574.500000) " x="1226" y="574" width="164" height="1"></rect>
            <rect id="Rectangle-598" opacity="0.799999952" fill="#728397" sketch:type="MSShapeGroup" x="1268" y="568" width="18" height="2"></rect>
            <rect id="Rectangle-668" opacity="0.6" fill="#288019" sketch:type="MSShapeGroup" x="1276" y="579" width="6" height="4" rx="1"></rect>
            <rect id="Rectangle-668" opacity="0.6" fill="#288019" sketch:type="MSShapeGroup" x="1284" y="579" width="6" height="4" rx="1"></rect>
            <rect id="Rectangle-668" opacity="0.6" fill="#288019" sketch:type="MSShapeGroup" x="1268" y="585" width="6" height="4" rx="1"></rect>
            <rect id="Rectangle-668" opacity="0.6" fill="#288019" sketch:type="MSShapeGroup" x="1276" y="585" width="6" height="4" rx="1"></rect>
            <rect id="Rectangle-668" opacity="0.6" fill="#288019" sketch:type="MSShapeGroup" x="1292" y="579" width="6" height="4" rx="1"></rect>
            <rect id="Rectangle-668" opacity="0.6" fill="#288019" sketch:type="MSShapeGroup" x="1284" y="585" width="6" height="4" rx="1"></rect>
            <rect id="Rectangle-668" opacity="0.6" fill="#288019" sketch:type="MSShapeGroup" x="1311" y="579" width="6" height="4" rx="1"></rect>
            <rect id="Rectangle-598" opacity="0.799999952" fill="#728397" sketch:type="MSShapeGroup" x="1311" y="568" width="18" height="2"></rect>
            <rect id="Rectangle-668" opacity="0.6" fill="#288019" sketch:type="MSShapeGroup" x="1319" y="579" width="6" height="4" rx="1"></rect>
            <rect id="Rectangle-668" opacity="0.6" fill="#288019" sketch:type="MSShapeGroup" x="1354" y="579" width="6" height="4" rx="1"></rect>
            <rect id="Rectangle-598" opacity="0.799999952" fill="#728397" sketch:type="MSShapeGroup" x="1354" y="568" width="18" height="2"></rect>
            <rect id="Rectangle-598" opacity="0.599999964" fill="#009A80" sketch:type="MSShapeGroup" x="1234" y="599" width="18" height="2"></rect>
            <rect id="Rectangle-516" opacity="0.2" fill="#8F9CAC" sketch:type="MSShapeGroup" transform="translate(1308.000000, 612.500000) scale(-1, 1) translate(-1308.000000, -612.500000) " x="1226" y="612" width="164" height="1"></rect>
            <rect id="Rectangle-668" opacity="0.6" fill="#288019" sketch:type="MSShapeGroup" x="1268" y="598" width="6" height="4" rx="1"></rect>
            <rect id="Rectangle-668" opacity="0.6" fill="#288019" sketch:type="MSShapeGroup" x="1276" y="598" width="6" height="4" rx="1"></rect>
            <rect id="Rectangle-668" opacity="0.6" fill="#288019" sketch:type="MSShapeGroup" x="1284" y="598" width="6" height="4" rx="1"></rect>
            <rect id="Rectangle-668" opacity="0.6" fill="#288019" sketch:type="MSShapeGroup" x="1311" y="598" width="6" height="4" rx="1"></rect>
            <rect id="Rectangle-668" opacity="0.6" fill="#288019" sketch:type="MSShapeGroup" x="1319" y="598" width="6" height="4" rx="1"></rect>
            <rect id="Rectangle-598" opacity="0.599999964" fill="#009A80" sketch:type="MSShapeGroup" x="1234" y="618" width="18" height="2"></rect>
            <rect id="Rectangle-668" opacity="0.6" fill="#288019" sketch:type="MSShapeGroup" x="1268" y="617" width="6" height="4" rx="1"></rect>
            <rect id="Rectangle-668" opacity="0.6" fill="#288019" sketch:type="MSShapeGroup" x="1276" y="617" width="6" height="4" rx="1"></rect>
            <rect id="Rectangle-668" opacity="0.6" fill="#288019" sketch:type="MSShapeGroup" x="1311" y="617" width="6" height="4" rx="1"></rect>
        </g>
    </g>
</svg>