<?xml version="1.0" encoding="UTF-8" standalone="no"?>
<svg width="200px" height="96px" viewBox="0 0 200 96" version="1.1" xmlns="http://www.w3.org/2000/svg" xmlns:xlink="http://www.w3.org/1999/xlink">
    <!-- Generator: Sketch 39 (31667) - http://www.bohemiancoding.com/sketch -->
    <title>featuresRoadmap</title>
    <desc>Created with Sketch.</desc>
    <defs>
        <rect id="path-1" x="0" y="0" width="200" height="203"></rect>
        <filter x="-50%" y="-50%" width="200%" height="200%" filterUnits="objectBoundingBox" id="filter-2">
            <feOffset dx="0" dy="1" in="SourceAlpha" result="shadowOffsetOuter1"></feOffset>
            <feGaussianBlur stdDeviation="1" in="shadowOffsetOuter1" result="shadowBlurOuter1"></feGaussianBlur>
            <feColorMatrix values="0 0 0 0 0.631372549   0 0 0 0 0.654901961   0 0 0 0 0.701960784  0 0 0 1 0" type="matrix" in="shadowBlurOuter1"></feColorMatrix>
        </filter>
    </defs>
    <g id="Page-1" stroke="none" stroke-width="1" fill="none" fill-rule="evenodd">
        <g id="Timelines" transform="translate(-352.000000, -90.000000)">
            <g id="Features-Roadmap" transform="translate(352.000000, 90.000000)">
                <g id="Input-2">
                    <use fill="black" fill-opacity="1" filter="url(#filter-2)" xlink:href="#path-1"></use>
                    <use fill="#FFFFFF" fill-rule="evenodd" xlink:href="#path-1"></use>
                </g>
                <rect id="Rectangle-907" fill="#F3F5F8" x="18" y="16" width="164" height="76" rx="2"></rect>
                <g id="Group" transform="translate(23.000000, 22.000000)">
                    <rect id="Rectangle-668" fill="#FFFFFF" x="0" y="0" width="50" height="15" rx="1"></rect>
                    <rect id="Rectangle-516" fill="#B9C1CB" opacity="0.8" x="7" y="4" width="30" height="2"></rect>
                    <rect id="Rectangle-516" fill="#B9C1CB" opacity="0.8" x="7" y="7" width="30" height="2"></rect>
                </g>
                <g id="Group" transform="translate(99.000000, 60.000000)">
                    <rect id="Rectangle-668" fill="#FFFFFF" x="0" y="0" width="63" height="15" rx="1"></rect>
                    <rect id="Rectangle-516" fill="#B9C1CB" opacity="0.8" x="7" y="4" width="30" height="2"></rect>
                    <rect id="Rectangle-516" fill="#B9C1CB" opacity="0.8" x="7" y="7" width="30" height="2"></rect>
                </g>
                <g id="Group-2" transform="translate(75.000000, 22.000000)">
                    <rect id="Rectangle-668" fill="#FFFFFF" x="0" y="0" width="103" height="15" rx="1"></rect>
                    <rect id="Rectangle-516" fill="#B9C1CB" opacity="0.8" x="7" y="4" width="30" height="2"></rect>
                    <rect id="Rectangle-516" fill="#B9C1CB" opacity="0.8" x="7" y="7" width="30" height="2"></rect>
                </g>
                <g id="Group-2" transform="translate(45.000000, 41.000000)">
                    <rect id="Rectangle-668" fill="#FFFFFF" x="0" y="0" width="99" height="15" rx="1"></rect>
                    <rect id="Rectangle-516" fill="#B9C1CB" opacity="0.8" x="7" y="4" width="30" height="2"></rect>
                    <rect id="Rectangle-516" fill="#B9C1CB" opacity="0.8" x="7" y="7" width="30" height="2"></rect>
                </g>
                <rect id="Rectangle-516" fill="#8EBA3E" x="123" y="16" width="1" height="76"></rect>
                <rect id="Rectangle-668" fill="#288019" opacity="0.6" x="23" y="22" width="2" height="15" rx="1"></rect>
                <rect id="Rectangle-668" fill="#288019" opacity="0.6" x="75" y="22" width="2" height="15" rx="1"></rect>
                <rect id="Rectangle-668" fill="#288019" opacity="0.6" x="45" y="41" width="2" height="15" rx="1"></rect>
                <rect id="Rectangle-668" fill="#288019" opacity="0.6" x="99" y="60" width="2" height="15" rx="1"></rect>
            </g>
        </g>
    </g>
</svg>