<?xml version="1.0" encoding="UTF-8" standalone="no"?>
<svg width="200px" height="96px" viewBox="0 0 200 96" version="1.1" xmlns="http://www.w3.org/2000/svg" xmlns:xlink="http://www.w3.org/1999/xlink" xmlns:sketch="http://www.bohemiancoding.com/sketch/ns">
    <!-- Generator: Sketch 3.4.2 (15855) - http://www.bohemiancoding.com/sketch -->
    <title>featureProgress</title>
    <desc>Created with Sketch.</desc>
    <defs>
        <filter x="-50%" y="-50%" width="200%" height="200%" filterUnits="objectBoundingBox" id="filter-1">
            <feOffset dx="0" dy="1" in="SourceAlpha" result="shadowOffsetOuter1"></feOffset>
            <feGaussianBlur stdDeviation="1" in="shadowOffsetOuter1" result="shadowBlurOuter1"></feGaussianBlur>
            <feColorMatrix values="0 0 0 0 0.631372549   0 0 0 0 0.654901961   0 0 0 0 0.701960784  0 0 0 0.7 0" in="shadowBlurOuter1" type="matrix" result="shadowMatrixOuter1"></feColorMatrix>
            <feMerge>
                <feMergeNode in="shadowMatrixOuter1"></feMergeNode>
                <feMergeNode in="SourceGraphic"></feMergeNode>
            </feMerge>
        </filter>
    </defs>
    <g id="Page-1" stroke="none" stroke-width="1" fill="none" fill-rule="evenodd" sketch:type="MSPage">
        <g id="Dashboards-Empty-5" sketch:type="MSArtboardGroup" transform="translate(-992.000000, -546.000000)">
            <rect id="Input-2" fill="#FFFFFF" filter="url(#filter-1)" sketch:type="MSShapeGroup" x="992" y="546" width="200" height="203"></rect>
            <rect id="Rectangle-907" fill="#F3F5F8" sketch:type="MSShapeGroup" x="1010" y="562" width="164" height="76" rx="2"></rect>
            <rect id="Rectangle-598" opacity="0.799999952" fill="#728397" sketch:type="MSShapeGroup" x="1018" y="572" width="18" height="2"></rect>
            <rect id="Rectangle-668" fill="#FFFFFF" sketch:type="MSShapeGroup" x="1051" y="568" width="42" height="15" rx="1"></rect>
            <rect id="Rectangle-516" opacity="0.2" fill="#8F9CAC" sketch:type="MSShapeGroup" x="1044" y="562" width="1" height="76"></rect>
            <rect id="Rectangle-516" opacity="0.8" fill="#B9C1CB" sketch:type="MSShapeGroup" x="1058" y="572" width="30" height="2"></rect>
            <rect id="Rectangle-516" opacity="0.2" fill="#8F9CAC" sketch:type="MSShapeGroup" transform="translate(1092.000000, 587.500000) scale(-1, 1) translate(-1092.000000, -587.500000) " x="1010" y="587" width="164" height="1"></rect>
            <rect id="Rectangle-516" opacity="0.2" fill="#8F9CAC" sketch:type="MSShapeGroup" transform="translate(1092.000000, 611.500000) scale(-1, 1) translate(-1092.000000, -611.500000) " x="1010" y="611" width="164" height="1"></rect>
            <rect id="Rectangle-668" opacity="0.6" fill="#288019" sketch:type="MSShapeGroup" x="1051" y="568" width="2" height="15" rx="1"></rect>
            <rect id="Rectangle-516" opacity="0.8" fill="#B9C1CB" sketch:type="MSShapeGroup" x="1058" y="575" width="30" height="2"></rect>
            <rect id="Rectangle-668" fill="#FFFFFF" sketch:type="MSShapeGroup" x="1097" y="568" width="42" height="15" rx="1"></rect>
            <rect id="Rectangle-516" opacity="0.8" fill="#B9C1CB" sketch:type="MSShapeGroup" x="1104" y="572" width="30" height="2"></rect>
            <rect id="Rectangle-668" opacity="0.6" fill="#288019" sketch:type="MSShapeGroup" x="1097" y="568" width="2" height="15" rx="1"></rect>
            <rect id="Rectangle-516" opacity="0.8" fill="#B9C1CB" sketch:type="MSShapeGroup" x="1104" y="575" width="30" height="2"></rect>
            <rect id="Rectangle-598" opacity="0.799999952" fill="#728397" sketch:type="MSShapeGroup" x="1018" y="596" width="18" height="2"></rect>
            <rect id="Rectangle-668" fill="#FFFFFF" sketch:type="MSShapeGroup" x="1051" y="592" width="42" height="15" rx="1"></rect>
            <rect id="Rectangle-516" opacity="0.8" fill="#B9C1CB" sketch:type="MSShapeGroup" x="1058" y="596" width="30" height="2"></rect>
            <rect id="Rectangle-668" opacity="0.6" fill="#288019" sketch:type="MSShapeGroup" x="1051" y="592" width="2" height="15" rx="1"></rect>
            <rect id="Rectangle-516" opacity="0.8" fill="#B9C1CB" sketch:type="MSShapeGroup" x="1058" y="599" width="30" height="2"></rect>
            <rect id="Rectangle-598" opacity="0.799999952" fill="#728397" sketch:type="MSShapeGroup" x="1018" y="617" width="18" height="2"></rect>
            <rect id="Rectangle-668" opacity="0.6" fill="#C7CED6" sketch:type="MSShapeGroup" x="1051" y="616" width="6" height="4" rx="1"></rect>
            <rect id="Rectangle-668" opacity="0.6" fill="#C7CED6" sketch:type="MSShapeGroup" x="1059" y="616" width="6" height="4" rx="1"></rect>
            <rect id="Rectangle-668" opacity="0.6" fill="#C7CED6" sketch:type="MSShapeGroup" x="1067" y="616" width="6" height="4" rx="1"></rect>
            <rect id="Rectangle-668" opacity="0.6" fill="#C7CED6" sketch:type="MSShapeGroup" x="1075" y="616" width="6" height="4" rx="1"></rect>
            <rect id="Rectangle-668" opacity="0.6" fill="#C7CED6" sketch:type="MSShapeGroup" x="1083" y="616" width="6" height="4" rx="1"></rect>
            <rect id="Rectangle-668" opacity="0.6" fill="#C7CED6" sketch:type="MSShapeGroup" x="1091" y="616" width="6" height="4" rx="1"></rect>
            <rect id="Rectangle-668" opacity="0.6" fill="#C7CED6" sketch:type="MSShapeGroup" x="1099" y="616" width="6" height="4" rx="1"></rect>
            <rect id="Rectangle-668" opacity="0.6" fill="#C7CED6" sketch:type="MSShapeGroup" x="1107" y="616" width="6" height="4" rx="1"></rect>
            <rect id="Rectangle-668" opacity="0.6" fill="#C7CED6" sketch:type="MSShapeGroup" x="1115" y="616" width="6" height="4" rx="1"></rect>
            <rect id="Rectangle-668" opacity="0.6" fill="#C7CED6" sketch:type="MSShapeGroup" x="1123" y="616" width="6" height="4" rx="1"></rect>
            <rect id="Rectangle-668" opacity="0.6" fill="#C7CED6" sketch:type="MSShapeGroup" x="1131" y="616" width="6" height="4" rx="1"></rect>
            <rect id="Rectangle-668" opacity="0.6" fill="#C7CED6" sketch:type="MSShapeGroup" x="1139" y="616" width="6" height="4" rx="1"></rect>
            <rect id="Rectangle-668" opacity="0.6" fill="#C7CED6" sketch:type="MSShapeGroup" x="1147" y="616" width="6" height="4" rx="1"></rect>
            <rect id="Rectangle-668" opacity="0.6" fill="#C7CED6" sketch:type="MSShapeGroup" x="1155" y="616" width="6" height="4" rx="1"></rect>
            <rect id="Rectangle-668" opacity="0.6" fill="#C7CED6" sketch:type="MSShapeGroup" x="1051" y="622" width="6" height="4" rx="1"></rect>
            <rect id="Rectangle-668" opacity="0.6" fill="#C7CED6" sketch:type="MSShapeGroup" x="1059" y="622" width="6" height="4" rx="1"></rect>
            <rect id="Rectangle-668" opacity="0.6" fill="#C7CED6" sketch:type="MSShapeGroup" x="1067" y="622" width="6" height="4" rx="1"></rect>
            <rect id="Rectangle-668" opacity="0.6" fill="#C7CED6" sketch:type="MSShapeGroup" x="1075" y="622" width="6" height="4" rx="1"></rect>
            <rect id="Rectangle-668" opacity="0.6" fill="#C7CED6" sketch:type="MSShapeGroup" x="1083" y="622" width="6" height="4" rx="1"></rect>
            <rect id="Rectangle-668" opacity="0.6" fill="#C7CED6" sketch:type="MSShapeGroup" x="1091" y="622" width="6" height="4" rx="1"></rect>
            <rect id="Rectangle-668" opacity="0.6" fill="#C7CED6" sketch:type="MSShapeGroup" x="1099" y="622" width="6" height="4" rx="1"></rect>
            <rect id="Rectangle-668" opacity="0.6" fill="#C7CED6" sketch:type="MSShapeGroup" x="1107" y="622" width="6" height="4" rx="1"></rect>
            <rect id="Rectangle-668" opacity="0.6" fill="#C7CED6" sketch:type="MSShapeGroup" x="1115" y="622" width="6" height="4" rx="1"></rect>
            <rect id="Rectangle-668" opacity="0.6" fill="#C7CED6" sketch:type="MSShapeGroup" x="1123" y="622" width="6" height="4" rx="1"></rect>
            <rect id="Rectangle-668" opacity="0.6" fill="#C7CED6" sketch:type="MSShapeGroup" x="1131" y="622" width="6" height="4" rx="1"></rect>
        </g>
    </g>
</svg>