<?xml version="1.0" encoding="UTF-8" standalone="no"?>
<svg width="200px" height="96px" viewBox="0 0 200 96" version="1.1" xmlns="http://www.w3.org/2000/svg" xmlns:xlink="http://www.w3.org/1999/xlink" xmlns:sketch="http://www.bohemiancoding.com/sketch/ns">
    <!-- Generator: Sketch 3.4.2 (15855) - http://www.bohemiancoding.com/sketch -->
    <title>people</title>
    <desc>Created with Sketch.</desc>
    <defs>
        <filter x="-50%" y="-50%" width="200%" height="200%" filterUnits="objectBoundingBox" id="filter-1">
            <feOffset dx="0" dy="1" in="SourceAlpha" result="shadowOffsetOuter1"></feOffset>
            <feGaussianBlur stdDeviation="1" in="shadowOffsetOuter1" result="shadowBlurOuter1"></feGaussianBlur>
            <feColorMatrix values="0 0 0 0 0.631372549   0 0 0 0 0.654901961   0 0 0 0 0.701960784  0 0 0 0.7 0" in="shadowBlurOuter1" type="matrix" result="shadowMatrixOuter1"></feColorMatrix>
            <feMerge>
                <feMergeNode in="shadowMatrixOuter1"></feMergeNode>
                <feMergeNode in="SourceGraphic"></feMergeNode>
            </feMerge>
        </filter>
    </defs>
    <g id="Page-1" stroke="none" stroke-width="1" fill="none" fill-rule="evenodd" sketch:type="MSPage">
        <g id="Dashboards-Empty-5" sketch:type="MSArtboardGroup" transform="translate(-344.000000, -90.000000)">
            <rect id="Input-2" fill="#FFFFFF" filter="url(#filter-1)" sketch:type="MSShapeGroup" x="344" y="90" width="200" height="203"></rect>
            <rect id="Rectangle-907" fill="#F3F5F8" sketch:type="MSShapeGroup" x="362" y="106" width="42" height="76" rx="2"></rect>
            <path d="M403,107 L403,106 L523.993011,106 C525.097951,106 526,106.892633 526,107.993751 L526,180.006249 C526,181.106918 525.10144,182 523.993011,182 L403,182 L403,181 L522.993011,181 C524.10144,181 525,180.104275 525,179.001532 L525,108.998468 C525,107.894745 524.097951,107 522.993011,107 L403,107 Z" id="Rectangle-907" fill="#F2F4F7" sketch:type="MSShapeGroup"></path>
            <rect id="Rectangle-516" opacity="0.799999952" fill="#728397" sketch:type="MSShapeGroup" x="376" y="114" width="15" height="2"></rect>
            <path d="M414,123.001311 L414,121.987311 C414,121.987311 414.066,121.364311 414.816,121.171311 C414.816,121.171311 416.024,120.730311 416.97,120.317311 C417.459,120.104311 417.565,119.977311 418.058,119.758311 C418.058,119.758311 418.11,119.504311 418.091,119.354311 L418.477,119.354311 C418.477,119.354311 418.565,119.405311 418.477,118.809311 C418.477,118.809311 418.007,118.685311 417.985,117.737311 C417.985,117.737311 417.631,117.856311 417.61,117.281311 C417.595,116.891311 417.294,116.553311 417.727,116.274311 L417.507,115.678311 C417.507,115.678311 417.066,113.274311 418.334,113.626311 C417.799,112.986311 421.367,112.347311 421.599,114.376311 C421.599,114.376311 421.764,115.472311 421.599,116.221311 C421.599,116.221311 422.12,116.161311 421.771,117.162311 C421.771,117.162311 421.58,117.883311 421.286,117.721311 C421.286,117.721311 421.334,118.633311 420.87,118.787311 C420.87,118.787311 420.903,119.273311 420.903,119.306311 L421.344,119.372311 C421.344,119.372311 421.278,119.769311 421.355,119.812311 C421.355,119.812311 421.878,120.171311 422.502,120.332311 C423.704,120.641311 425.127,121.170311 425.127,121.633311 C425.127,121.633311 425.248,122.250311 425.248,123.000311 L414,123.000311 L414,123.000311 L414,123.001311 L414,123.001311 Z" id="Shape" fill="#ACB6BF" sketch:type="MSShapeGroup"></path>
            <path d="M367,118.057272 L367,117.493838 C367,117.493838 367.036673,117.147666 367.453414,117.040424 C367.453414,117.040424 368.124644,116.795381 368.650293,116.565896 C368.922008,116.447541 368.980908,116.376973 369.254845,116.255285 C369.254845,116.255285 369.283739,116.114149 369.273182,116.0308 L369.487664,116.0308 C369.487664,116.0308 369.536562,116.059139 369.487664,115.727969 C369.487664,115.727969 369.226507,115.659068 369.214283,115.132307 C369.214283,115.132307 369.017581,115.19843 369.005912,114.878929 C368.997577,114.662224 368.830325,114.474413 369.070924,114.319385 L368.94868,113.988215 C368.94868,113.988215 368.703636,112.652422 369.408206,112.848012 C369.110931,112.492394 371.093506,112.13733 371.222417,113.264753 C371.222417,113.264753 371.3141,113.87375 371.222417,114.289935 C371.222417,114.289935 371.511913,114.256596 371.31799,114.812806 C371.31799,114.812806 371.21186,115.213433 371.048498,115.123417 C371.048498,115.123417 371.075169,115.630174 370.817345,115.715744 C370.817345,115.715744 370.835682,115.985792 370.835682,116.004129 L371.080725,116.040802 C371.080725,116.040802 371.044052,116.261397 371.086838,116.28529 C371.086838,116.28529 371.377445,116.48477 371.724173,116.57423 C372.39207,116.745928 373.182766,117.039869 373.182766,117.297137 C373.182766,117.297137 373.25,117.639975 373.25,118.056716 L367,118.056716 L367,118.056716 L367,118.057272 L367,118.057272 Z" id="Shape" fill="#ACB6BF" sketch:type="MSShapeGroup"></path>
            <rect id="Rectangle-516" opacity="0.799999952" fill="#728397" sketch:type="MSShapeGroup" x="376" y="124" width="10" height="2"></rect>
            <path d="M367,128.057272 L367,127.493838 C367,127.493838 367.036673,127.147666 367.453414,127.040424 C367.453414,127.040424 368.124644,126.795381 368.650293,126.565896 C368.922008,126.447541 368.980908,126.376973 369.254845,126.255285 C369.254845,126.255285 369.283739,126.114149 369.273182,126.0308 L369.487664,126.0308 C369.487664,126.0308 369.536562,126.059139 369.487664,125.727969 C369.487664,125.727969 369.226507,125.659068 369.214283,125.132307 C369.214283,125.132307 369.017581,125.19843 369.005912,124.878929 C368.997577,124.662224 368.830325,124.474413 369.070924,124.319385 L368.94868,123.988215 C368.94868,123.988215 368.703636,122.652422 369.408206,122.848012 C369.110931,122.492394 371.093506,122.13733 371.222417,123.264753 C371.222417,123.264753 371.3141,123.87375 371.222417,124.289935 C371.222417,124.289935 371.511913,124.256596 371.31799,124.812806 C371.31799,124.812806 371.21186,125.213433 371.048498,125.123417 C371.048498,125.123417 371.075169,125.630174 370.817345,125.715744 C370.817345,125.715744 370.835682,125.985792 370.835682,126.004129 L371.080725,126.040802 C371.080725,126.040802 371.044052,126.261397 371.086838,126.28529 C371.086838,126.28529 371.377445,126.48477 371.724173,126.57423 C372.39207,126.745928 373.182766,127.039869 373.182766,127.297137 C373.182766,127.297137 373.25,127.639975 373.25,128.056716 L367,128.056716 L367,128.056716 L367,128.057272 L367,128.057272 Z" id="Shape" fill="#ACB6BF" sketch:type="MSShapeGroup"></path>
            <rect id="Rectangle-516" opacity="0.799999952" fill="#728397" sketch:type="MSShapeGroup" x="376" y="134" width="17" height="2"></rect>
            <path d="M367,138.057272 L367,137.493838 C367,137.493838 367.036673,137.147666 367.453414,137.040424 C367.453414,137.040424 368.124644,136.795381 368.650293,136.565896 C368.922008,136.447541 368.980908,136.376973 369.254845,136.255285 C369.254845,136.255285 369.283739,136.114149 369.273182,136.0308 L369.487664,136.0308 C369.487664,136.0308 369.536562,136.059139 369.487664,135.727969 C369.487664,135.727969 369.226507,135.659068 369.214283,135.132307 C369.214283,135.132307 369.017581,135.19843 369.005912,134.878929 C368.997577,134.662224 368.830325,134.474413 369.070924,134.319385 L368.94868,133.988215 C368.94868,133.988215 368.703636,132.652422 369.408206,132.848012 C369.110931,132.492394 371.093506,132.13733 371.222417,133.264753 C371.222417,133.264753 371.3141,133.87375 371.222417,134.289935 C371.222417,134.289935 371.511913,134.256596 371.31799,134.812806 C371.31799,134.812806 371.21186,135.213433 371.048498,135.123417 C371.048498,135.123417 371.075169,135.630174 370.817345,135.715744 C370.817345,135.715744 370.835682,135.985792 370.835682,136.004129 L371.080725,136.040802 C371.080725,136.040802 371.044052,136.261397 371.086838,136.28529 C371.086838,136.28529 371.377445,136.48477 371.724173,136.57423 C372.39207,136.745928 373.182766,137.039869 373.182766,137.297137 C373.182766,137.297137 373.25,137.639975 373.25,138.056716 L367,138.056716 L367,138.056716 L367,138.057272 L367,138.057272 Z" id="Shape" fill="#ACB6BF" sketch:type="MSShapeGroup"></path>
            <rect id="Rectangle-516" opacity="0.799999952" fill="#728397" sketch:type="MSShapeGroup" x="376" y="154" width="8" height="2"></rect>
            <path d="M367,158.057272 L367,157.493838 C367,157.493838 367.036673,157.147666 367.453414,157.040424 C367.453414,157.040424 368.124644,156.795381 368.650293,156.565896 C368.922008,156.447541 368.980908,156.376973 369.254845,156.255285 C369.254845,156.255285 369.283739,156.114149 369.273182,156.0308 L369.487664,156.0308 C369.487664,156.0308 369.536562,156.059139 369.487664,155.727969 C369.487664,155.727969 369.226507,155.659068 369.214283,155.132307 C369.214283,155.132307 369.017581,155.19843 369.005912,154.878929 C368.997577,154.662224 368.830325,154.474413 369.070924,154.319385 L368.94868,153.988215 C368.94868,153.988215 368.703636,152.652422 369.408206,152.848012 C369.110931,152.492394 371.093506,152.13733 371.222417,153.264753 C371.222417,153.264753 371.3141,153.87375 371.222417,154.289935 C371.222417,154.289935 371.511913,154.256596 371.31799,154.812806 C371.31799,154.812806 371.21186,155.213433 371.048498,155.123417 C371.048498,155.123417 371.075169,155.630174 370.817345,155.715744 C370.817345,155.715744 370.835682,155.985792 370.835682,156.004129 L371.080725,156.040802 C371.080725,156.040802 371.044052,156.261397 371.086838,156.28529 C371.086838,156.28529 371.377445,156.48477 371.724173,156.57423 C372.39207,156.745928 373.182766,157.039869 373.182766,157.297137 C373.182766,157.297137 373.25,157.639975 373.25,158.056716 L367,158.056716 L367,158.056716 L367,158.057272 L367,158.057272 Z" id="Shape" fill="#ACB6BF" sketch:type="MSShapeGroup"></path>
            <rect id="Rectangle-516" opacity="0.799999952" fill="#728397" sketch:type="MSShapeGroup" x="431" y="114" width="15" height="2"></rect>
            <rect id="Rectangle-516" opacity="0.3" fill="#728397" sketch:type="MSShapeGroup" x="431" y="118" width="25" height="2"></rect>
            <rect id="Rectangle-444" fill="#F2F4F7" sketch:type="MSShapeGroup" x="414" y="130" width="104" height="8"></rect>
            <rect id="Rectangle-444" fill="#F2F4F7" sketch:type="MSShapeGroup" x="414" y="139" width="104" height="8"></rect>
            <rect id="Rectangle-444" fill="#F2F4F7" sketch:type="MSShapeGroup" x="414" y="148" width="104" height="8"></rect>
            <rect id="Rectangle-446" fill="#5959B3" sketch:type="MSShapeGroup" x="414" y="130" width="1" height="8"></rect>
            <rect id="Rectangle-446" fill="#5959B3" sketch:type="MSShapeGroup" x="414" y="139" width="1" height="8"></rect>
            <rect id="Rectangle-446" fill="#E06661" sketch:type="MSShapeGroup" x="414" y="148" width="1" height="8"></rect>
            <rect id="Rectangle-469" opacity="0.8" fill="#B9C1CB" sketch:type="MSShapeGroup" x="504" y="133" width="10" height="2"></rect>
            <rect id="Rectangle-470" opacity="0.8" fill="#B9C1CB" sketch:type="MSShapeGroup" x="504" y="142" width="10" height="2"></rect>
            <rect id="Rectangle-471" opacity="0.8" fill="#B9C1CB" sketch:type="MSShapeGroup" x="504" y="151" width="10" height="2"></rect>
            <rect id="Rectangle-476" opacity="0.8" fill="#B9C1CB" sketch:type="MSShapeGroup" x="491" y="133" width="5" height="2"></rect>
            <rect id="Rectangle-477" opacity="0.8" fill="#B9C1CB" sketch:type="MSShapeGroup" x="491" y="142" width="5" height="2"></rect>
            <rect id="Rectangle-478" opacity="0.8" fill="#B9C1CB" sketch:type="MSShapeGroup" x="491" y="151" width="5" height="2"></rect>
            <rect id="Rectangle-464" opacity="0.8" fill="#5959B3" sketch:type="MSShapeGroup" x="418" y="133" width="48" height="2"></rect>
            <rect id="Rectangle-465" opacity="0.8" fill="#5959B3" sketch:type="MSShapeGroup" x="418" y="142" width="58" height="2"></rect>
            <rect id="Rectangle-466" opacity="0.8" fill="#E06661" sketch:type="MSShapeGroup" x="418" y="151" width="48" height="2"></rect>
            <rect id="Rectangle-516" opacity="0.3" fill="#728397" sketch:type="MSShapeGroup" x="431" y="122" width="21" height="2"></rect>
            <rect id="Rectangle-907" fill="#78BEFF" sketch:type="MSShapeGroup" x="362" y="141" width="42" height="8"></rect>
            <rect id="Rectangle-516" opacity="0.799999952" fill="#FFFFFF" sketch:type="MSShapeGroup" x="376" y="144" width="13" height="2"></rect>
            <path d="M367,148.057272 L367,147.493838 C367,147.493838 367.036673,147.147666 367.453414,147.040424 C367.453414,147.040424 368.124644,146.795381 368.650293,146.565896 C368.922008,146.447541 368.980908,146.376973 369.254845,146.255285 C369.254845,146.255285 369.283739,146.114149 369.273182,146.0308 L369.487664,146.0308 C369.487664,146.0308 369.536562,146.059139 369.487664,145.727969 C369.487664,145.727969 369.226507,145.659068 369.214283,145.132307 C369.214283,145.132307 369.017581,145.19843 369.005912,144.878929 C368.997577,144.662224 368.830325,144.474413 369.070924,144.319385 L368.94868,143.988215 C368.94868,143.988215 368.703636,142.652422 369.408206,142.848012 C369.110931,142.492394 371.093506,142.13733 371.222417,143.264753 C371.222417,143.264753 371.3141,143.87375 371.222417,144.289935 C371.222417,144.289935 371.511913,144.256596 371.31799,144.812806 C371.31799,144.812806 371.21186,145.213433 371.048498,145.123417 C371.048498,145.123417 371.075169,145.630174 370.817345,145.715744 C370.817345,145.715744 370.835682,145.985792 370.835682,146.004129 L371.080725,146.040802 C371.080725,146.040802 371.044052,146.261397 371.086838,146.28529 C371.086838,146.28529 371.377445,146.48477 371.724173,146.57423 C372.39207,146.745928 373.182766,147.039869 373.182766,147.297137 C373.182766,147.297137 373.25,147.639975 373.25,148.056716 L367,148.056716 L367,148.056716 L367,148.057272 L367,148.057272 Z" id="Shape" fill="#FFFFFF" sketch:type="MSShapeGroup"></path>
        </g>
    </g>
</svg>