<?xml version="1.0" encoding="UTF-8" standalone="no"?>
<svg width="200px" height="96px" viewBox="0 0 200 96" version="1.1" xmlns="http://www.w3.org/2000/svg" xmlns:xlink="http://www.w3.org/1999/xlink" xmlns:sketch="http://www.bohemiancoding.com/sketch/ns">
    <!-- Generator: Sketch 3.4.2 (15855) - http://www.bohemiancoding.com/sketch -->
    <title>peopleByRole</title>
    <desc>Created with Sketch.</desc>
    <defs>
        <filter x="-50%" y="-50%" width="200%" height="200%" filterUnits="objectBoundingBox" id="filter-1">
            <feOffset dx="0" dy="1" in="SourceAlpha" result="shadowOffsetOuter1"></feOffset>
            <feGaussianBlur stdDeviation="1" in="shadowOffsetOuter1" result="shadowBlurOuter1"></feGaussianBlur>
            <feColorMatrix values="0 0 0 0 0.631372549   0 0 0 0 0.654901961   0 0 0 0 0.701960784  0 0 0 0.7 0" in="shadowBlurOuter1" type="matrix" result="shadowMatrixOuter1"></feColorMatrix>
            <feMerge>
                <feMergeNode in="shadowMatrixOuter1"></feMergeNode>
                <feMergeNode in="SourceGraphic"></feMergeNode>
            </feMerge>
        </filter>
    </defs>
    <g id="Page-1" stroke="none" stroke-width="1" fill="none" fill-rule="evenodd" sketch:type="MSPage">
        <g id="Dashboards-Empty-5" sketch:type="MSArtboardGroup" transform="translate(-560.000000, -90.000000)">
            <rect id="Input-2" fill="#FFFFFF" filter="url(#filter-1)" sketch:type="MSShapeGroup" x="560" y="90" width="200" height="203"></rect>
            <rect id="Rectangle-907" fill="#F3F5F8" sketch:type="MSShapeGroup" x="578" y="106" width="164" height="76" rx="2"></rect>
            <rect id="Rectangle-516" opacity="0.799999952" fill="#728397" sketch:type="MSShapeGroup" x="586" y="112" width="15" height="2"></rect>
            <rect id="Rectangle-668" fill="#FFFFFF" sketch:type="MSShapeGroup" x="584" y="119" width="42" height="15" rx="1"></rect>
            <path d="M588,130 L588,129.2396 C588,129.2396 588.049494,128.772411 588.61192,128.62768 C588.61192,128.62768 589.517801,128.296973 590.227208,127.987264 C590.59391,127.827535 590.6734,127.732297 591.043101,127.568069 C591.043101,127.568069 591.082096,127.377594 591.067848,127.265108 L591.35731,127.265108 C591.35731,127.265108 591.423301,127.303353 591.35731,126.856412 C591.35731,126.856412 591.004856,126.763424 590.988358,126.052517 C590.988358,126.052517 590.722893,126.141756 590.707145,125.710562 C590.695897,125.418101 590.470176,125.164634 590.794884,124.955411 L590.629905,124.50847 C590.629905,124.50847 590.299199,122.705706 591.250074,122.969672 C590.848877,122.489734 593.524526,122.010547 593.698503,123.532098 C593.698503,123.532098 593.822237,124.35399 593.698503,124.915666 C593.698503,124.915666 594.089202,124.870672 593.827486,125.621324 C593.827486,125.621324 593.684255,126.162003 593.463784,126.040519 C593.463784,126.040519 593.499779,126.724429 593.151825,126.839914 C593.151825,126.839914 593.176571,127.204366 593.176571,127.229113 L593.507278,127.278607 C593.507278,127.278607 593.457785,127.576318 593.515527,127.608563 C593.515527,127.608563 593.907726,127.877778 594.375664,127.998512 C595.277046,128.230232 596.344156,128.62693 596.344156,128.974134 C596.344156,128.974134 596.434894,129.436824 596.434894,129.99925 L588,129.99925 L588,129.99925 L588,130 L588,130 Z" id="Shape" fill="#ACB6BF" sketch:type="MSShapeGroup"></path>
            <rect id="Rectangle-516" opacity="0.2" fill="#8F9CAC" sketch:type="MSShapeGroup" x="632" y="106" width="1" height="76"></rect>
            <rect id="Rectangle-516" opacity="0.2" fill="#8F9CAC" sketch:type="MSShapeGroup" x="687" y="106" width="1" height="76"></rect>
            <rect id="Rectangle-516" opacity="0.8" fill="#B9C1CB" sketch:type="MSShapeGroup" x="600" y="123" width="15" height="2"></rect>
            <rect id="Rectangle-516" opacity="0.8" fill="#B9C1CB" sketch:type="MSShapeGroup" x="600" y="126" width="20" height="2"></rect>
            <rect id="Rectangle-668" fill="#FFFFFF" sketch:type="MSShapeGroup" x="584" y="138" width="42" height="15" rx="1"></rect>
            <path d="M588,149 L588,148.2396 C588,148.2396 588.049494,147.772411 588.61192,147.62768 C588.61192,147.62768 589.517801,147.296973 590.227208,146.987264 C590.59391,146.827535 590.6734,146.732297 591.043101,146.568069 C591.043101,146.568069 591.082096,146.377594 591.067848,146.265108 L591.35731,146.265108 C591.35731,146.265108 591.423301,146.303353 591.35731,145.856412 C591.35731,145.856412 591.004856,145.763424 590.988358,145.052517 C590.988358,145.052517 590.722893,145.141756 590.707145,144.710562 C590.695897,144.418101 590.470176,144.164634 590.794884,143.955411 L590.629905,143.50847 C590.629905,143.50847 590.299199,141.705706 591.250074,141.969672 C590.848877,141.489734 593.524526,141.010547 593.698503,142.532098 C593.698503,142.532098 593.822237,143.35399 593.698503,143.915666 C593.698503,143.915666 594.089202,143.870672 593.827486,144.621324 C593.827486,144.621324 593.684255,145.162003 593.463784,145.040519 C593.463784,145.040519 593.499779,145.724429 593.151825,145.839914 C593.151825,145.839914 593.176571,146.204366 593.176571,146.229113 L593.507278,146.278607 C593.507278,146.278607 593.457785,146.576318 593.515527,146.608563 C593.515527,146.608563 593.907726,146.877778 594.375664,146.998512 C595.277046,147.230232 596.344156,147.62693 596.344156,147.974134 C596.344156,147.974134 596.434894,148.436824 596.434894,148.99925 L588,148.99925 L588,148.99925 L588,149 L588,149 Z" id="Shape" fill="#ACB6BF" sketch:type="MSShapeGroup"></path>
            <rect id="Rectangle-516" opacity="0.8" fill="#B9C1CB" sketch:type="MSShapeGroup" x="600" y="142" width="15" height="2"></rect>
            <rect id="Rectangle-516" opacity="0.8" fill="#B9C1CB" sketch:type="MSShapeGroup" x="600" y="145" width="20" height="2"></rect>
            <rect id="Rectangle-668" fill="#FFFFFF" sketch:type="MSShapeGroup" x="584" y="157" width="42" height="15" rx="1"></rect>
            <path d="M588,168 L588,167.2396 C588,167.2396 588.049494,166.772411 588.61192,166.62768 C588.61192,166.62768 589.517801,166.296973 590.227208,165.987264 C590.59391,165.827535 590.6734,165.732297 591.043101,165.568069 C591.043101,165.568069 591.082096,165.377594 591.067848,165.265108 L591.35731,165.265108 C591.35731,165.265108 591.423301,165.303353 591.35731,164.856412 C591.35731,164.856412 591.004856,164.763424 590.988358,164.052517 C590.988358,164.052517 590.722893,164.141756 590.707145,163.710562 C590.695897,163.418101 590.470176,163.164634 590.794884,162.955411 L590.629905,162.50847 C590.629905,162.50847 590.299199,160.705706 591.250074,160.969672 C590.848877,160.489734 593.524526,160.010547 593.698503,161.532098 C593.698503,161.532098 593.822237,162.35399 593.698503,162.915666 C593.698503,162.915666 594.089202,162.870672 593.827486,163.621324 C593.827486,163.621324 593.684255,164.162003 593.463784,164.040519 C593.463784,164.040519 593.499779,164.724429 593.151825,164.839914 C593.151825,164.839914 593.176571,165.204366 593.176571,165.229113 L593.507278,165.278607 C593.507278,165.278607 593.457785,165.576318 593.515527,165.608563 C593.515527,165.608563 593.907726,165.877778 594.375664,165.998512 C595.277046,166.230232 596.344156,166.62693 596.344156,166.974134 C596.344156,166.974134 596.434894,167.436824 596.434894,167.99925 L588,167.99925 L588,167.99925 L588,168 L588,168 Z" id="Shape" fill="#ACB6BF" sketch:type="MSShapeGroup"></path>
            <rect id="Rectangle-516" opacity="0.8" fill="#B9C1CB" sketch:type="MSShapeGroup" x="600" y="161" width="15" height="2"></rect>
            <rect id="Rectangle-516" opacity="0.8" fill="#B9C1CB" sketch:type="MSShapeGroup" x="600" y="164" width="20" height="2"></rect>
            <rect id="Rectangle-668" fill="#FFFFFF" sketch:type="MSShapeGroup" x="639" y="119" width="42" height="15" rx="1"></rect>
            <path d="M643,130 L643,129.2396 C643,129.2396 643.049494,128.772411 643.61192,128.62768 C643.61192,128.62768 644.517801,128.296973 645.227208,127.987264 C645.59391,127.827535 645.6734,127.732297 646.043101,127.568069 C646.043101,127.568069 646.082096,127.377594 646.067848,127.265108 L646.35731,127.265108 C646.35731,127.265108 646.423301,127.303353 646.35731,126.856412 C646.35731,126.856412 646.004856,126.763424 645.988358,126.052517 C645.988358,126.052517 645.722893,126.141756 645.707145,125.710562 C645.695897,125.418101 645.470176,125.164634 645.794884,124.955411 L645.629905,124.50847 C645.629905,124.50847 645.299199,122.705706 646.250074,122.969672 C645.848877,122.489734 648.524526,122.010547 648.698503,123.532098 C648.698503,123.532098 648.822237,124.35399 648.698503,124.915666 C648.698503,124.915666 649.089202,124.870672 648.827486,125.621324 C648.827486,125.621324 648.684255,126.162003 648.463784,126.040519 C648.463784,126.040519 648.499779,126.724429 648.151825,126.839914 C648.151825,126.839914 648.176571,127.204366 648.176571,127.229113 L648.507278,127.278607 C648.507278,127.278607 648.457785,127.576318 648.515527,127.608563 C648.515527,127.608563 648.907726,127.877778 649.375664,127.998512 C650.277046,128.230232 651.344156,128.62693 651.344156,128.974134 C651.344156,128.974134 651.434894,129.436824 651.434894,129.99925 L643,129.99925 L643,129.99925 L643,130 L643,130 Z" id="Shape" fill="#ACB6BF" sketch:type="MSShapeGroup"></path>
            <rect id="Rectangle-516" opacity="0.8" fill="#B9C1CB" sketch:type="MSShapeGroup" x="655" y="123" width="15" height="2"></rect>
            <rect id="Rectangle-516" opacity="0.8" fill="#B9C1CB" sketch:type="MSShapeGroup" x="655" y="126" width="20" height="2"></rect>
            <rect id="Rectangle-668" fill="#FFFFFF" sketch:type="MSShapeGroup" x="639" y="138" width="42" height="15" rx="1"></rect>
            <path d="M643,149 L643,148.2396 C643,148.2396 643.049494,147.772411 643.61192,147.62768 C643.61192,147.62768 644.517801,147.296973 645.227208,146.987264 C645.59391,146.827535 645.6734,146.732297 646.043101,146.568069 C646.043101,146.568069 646.082096,146.377594 646.067848,146.265108 L646.35731,146.265108 C646.35731,146.265108 646.423301,146.303353 646.35731,145.856412 C646.35731,145.856412 646.004856,145.763424 645.988358,145.052517 C645.988358,145.052517 645.722893,145.141756 645.707145,144.710562 C645.695897,144.418101 645.470176,144.164634 645.794884,143.955411 L645.629905,143.50847 C645.629905,143.50847 645.299199,141.705706 646.250074,141.969672 C645.848877,141.489734 648.524526,141.010547 648.698503,142.532098 C648.698503,142.532098 648.822237,143.35399 648.698503,143.915666 C648.698503,143.915666 649.089202,143.870672 648.827486,144.621324 C648.827486,144.621324 648.684255,145.162003 648.463784,145.040519 C648.463784,145.040519 648.499779,145.724429 648.151825,145.839914 C648.151825,145.839914 648.176571,146.204366 648.176571,146.229113 L648.507278,146.278607 C648.507278,146.278607 648.457785,146.576318 648.515527,146.608563 C648.515527,146.608563 648.907726,146.877778 649.375664,146.998512 C650.277046,147.230232 651.344156,147.62693 651.344156,147.974134 C651.344156,147.974134 651.434894,148.436824 651.434894,148.99925 L643,148.99925 L643,148.99925 L643,149 L643,149 Z" id="Shape" fill="#ACB6BF" sketch:type="MSShapeGroup"></path>
            <rect id="Rectangle-516" opacity="0.8" fill="#B9C1CB" sketch:type="MSShapeGroup" x="655" y="142" width="15" height="2"></rect>
            <rect id="Rectangle-516" opacity="0.8" fill="#B9C1CB" sketch:type="MSShapeGroup" x="655" y="145" width="20" height="2"></rect>
            <rect id="Rectangle-668" fill="#FFFFFF" sketch:type="MSShapeGroup" x="694" y="119" width="42" height="15" rx="1"></rect>
            <path d="M698,130 L698,129.2396 C698,129.2396 698.049494,128.772411 698.61192,128.62768 C698.61192,128.62768 699.517801,128.296973 700.227208,127.987264 C700.59391,127.827535 700.6734,127.732297 701.043101,127.568069 C701.043101,127.568069 701.082096,127.377594 701.067848,127.265108 L701.35731,127.265108 C701.35731,127.265108 701.423301,127.303353 701.35731,126.856412 C701.35731,126.856412 701.004856,126.763424 700.988358,126.052517 C700.988358,126.052517 700.722893,126.141756 700.707145,125.710562 C700.695897,125.418101 700.470176,125.164634 700.794884,124.955411 L700.629905,124.50847 C700.629905,124.50847 700.299199,122.705706 701.250074,122.969672 C700.848877,122.489734 703.524526,122.010547 703.698503,123.532098 C703.698503,123.532098 703.822237,124.35399 703.698503,124.915666 C703.698503,124.915666 704.089202,124.870672 703.827486,125.621324 C703.827486,125.621324 703.684255,126.162003 703.463784,126.040519 C703.463784,126.040519 703.499779,126.724429 703.151825,126.839914 C703.151825,126.839914 703.176571,127.204366 703.176571,127.229113 L703.507278,127.278607 C703.507278,127.278607 703.457785,127.576318 703.515527,127.608563 C703.515527,127.608563 703.907726,127.877778 704.375664,127.998512 C705.277046,128.230232 706.344156,128.62693 706.344156,128.974134 C706.344156,128.974134 706.434894,129.436824 706.434894,129.99925 L698,129.99925 L698,129.99925 L698,130 L698,130 Z" id="Shape" fill="#ACB6BF" sketch:type="MSShapeGroup"></path>
            <rect id="Rectangle-516" opacity="0.8" fill="#B9C1CB" sketch:type="MSShapeGroup" x="710" y="123" width="15" height="2"></rect>
            <rect id="Rectangle-516" opacity="0.8" fill="#B9C1CB" sketch:type="MSShapeGroup" x="710" y="126" width="20" height="2"></rect>
            <rect id="Rectangle-516" opacity="0.799999952" fill="#728397" sketch:type="MSShapeGroup" x="641" y="112" width="15" height="2"></rect>
            <rect id="Rectangle-516" opacity="0.799999952" fill="#728397" sketch:type="MSShapeGroup" x="696" y="112" width="15" height="2"></rect>
        </g>
    </g>
</svg>