<?xml version="1.0" encoding="UTF-8" standalone="no"?>
<svg width="200px" height="96px" viewBox="0 0 200 96" version="1.1" xmlns="http://www.w3.org/2000/svg" xmlns:xlink="http://www.w3.org/1999/xlink" xmlns:sketch="http://www.bohemiancoding.com/sketch/ns">
    <!-- Generator: Sketch 3.4.2 (15855) - http://www.bohemiancoding.com/sketch -->
    <title>peopleByProject</title>
    <desc>Created with Sketch.</desc>
    <defs>
        <filter x="-50%" y="-50%" width="200%" height="200%" filterUnits="objectBoundingBox" id="filter-1">
            <feOffset dx="0" dy="1" in="SourceAlpha" result="shadowOffsetOuter1"></feOffset>
            <feGaussianBlur stdDeviation="1" in="shadowOffsetOuter1" result="shadowBlurOuter1"></feGaussianBlur>
            <feColorMatrix values="0 0 0 0 0.631372549   0 0 0 0 0.654901961   0 0 0 0 0.701960784  0 0 0 0.7 0" in="shadowBlurOuter1" type="matrix" result="shadowMatrixOuter1"></feColorMatrix>
            <feMerge>
                <feMergeNode in="shadowMatrixOuter1"></feMergeNode>
                <feMergeNode in="SourceGraphic"></feMergeNode>
            </feMerge>
        </filter>
    </defs>
    <g id="Page-1" stroke="none" stroke-width="1" fill="none" fill-rule="evenodd" sketch:type="MSPage">
        <g id="Dashboards-Empty-5" sketch:type="MSArtboardGroup" transform="translate(-992.000000, -90.000000)">
            <rect id="Input-2" fill="#FFFFFF" filter="url(#filter-1)" sketch:type="MSShapeGroup" x="992" y="90" width="200" height="203"></rect>
            <rect id="Rectangle-907" fill="#F3F5F8" sketch:type="MSShapeGroup" x="1010" y="106" width="164" height="76" rx="2"></rect>
            <rect id="Rectangle-598" stroke="#E1EFCC" stroke-width="2" fill="#A1A7B3" sketch:type="MSShapeGroup" x="1018" y="115" width="18" height="2"></rect>
            <rect id="Rectangle-611" stroke="#CCEEFB" stroke-width="2" fill="#A1A7B3" sketch:type="MSShapeGroup" x="1019" y="138" width="11" height="2"></rect>
            <rect id="Rectangle-668" fill="#FFFFFF" sketch:type="MSShapeGroup" x="1051" y="112" width="42" height="15" rx="1"></rect>
            <path d="M1055,123 L1055,122.2396 C1055,122.2396 1055.04949,121.772411 1055.61192,121.62768 C1055.61192,121.62768 1056.5178,121.296973 1057.22721,120.987264 C1057.59391,120.827535 1057.6734,120.732297 1058.0431,120.568069 C1058.0431,120.568069 1058.0821,120.377594 1058.06785,120.265108 L1058.35731,120.265108 C1058.35731,120.265108 1058.4233,120.303353 1058.35731,119.856412 C1058.35731,119.856412 1058.00486,119.763424 1057.98836,119.052517 C1057.98836,119.052517 1057.72289,119.141756 1057.70715,118.710562 C1057.6959,118.418101 1057.47018,118.164634 1057.79488,117.955411 L1057.62991,117.50847 C1057.62991,117.50847 1057.2992,115.705706 1058.25007,115.969672 C1057.84888,115.489734 1060.52453,115.010547 1060.6985,116.532098 C1060.6985,116.532098 1060.82224,117.35399 1060.6985,117.915666 C1060.6985,117.915666 1061.0892,117.870672 1060.82749,118.621324 C1060.82749,118.621324 1060.68425,119.162003 1060.46378,119.040519 C1060.46378,119.040519 1060.49978,119.724429 1060.15182,119.839914 C1060.15182,119.839914 1060.17657,120.204366 1060.17657,120.229113 L1060.50728,120.278607 C1060.50728,120.278607 1060.45778,120.576318 1060.51553,120.608563 C1060.51553,120.608563 1060.90773,120.877778 1061.37566,120.998512 C1062.27705,121.230232 1063.34416,121.62693 1063.34416,121.974134 C1063.34416,121.974134 1063.43489,122.436824 1063.43489,122.99925 L1055,122.99925 L1055,122.99925 L1055,123 L1055,123 Z" id="Shape" fill="#ACB6BF" sketch:type="MSShapeGroup"></path>
            <rect id="Rectangle-516" opacity="0.2" fill="#8F9CAC" sketch:type="MSShapeGroup" x="1044" y="106" width="1" height="76"></rect>
            <rect id="Rectangle-516" opacity="0.8" fill="#B9C1CB" sketch:type="MSShapeGroup" x="1067" y="116" width="15" height="2"></rect>
            <rect id="Rectangle-516" opacity="0.8" fill="#B9C1CB" sketch:type="MSShapeGroup" x="1067" y="119" width="20" height="2"></rect>
            <rect id="Rectangle-516" opacity="0.2" fill="#8F9CAC" sketch:type="MSShapeGroup" transform="translate(1092.000000, 131.500000) scale(-1, 1) translate(-1092.000000, -131.500000) " x="1010" y="131" width="164" height="1"></rect>
            <rect id="Rectangle-668" fill="#FFFFFF" sketch:type="MSShapeGroup" x="1097" y="112" width="42" height="15" rx="1"></rect>
            <path d="M1101,123 L1101,122.2396 C1101,122.2396 1101.04949,121.772411 1101.61192,121.62768 C1101.61192,121.62768 1102.5178,121.296973 1103.22721,120.987264 C1103.59391,120.827535 1103.6734,120.732297 1104.0431,120.568069 C1104.0431,120.568069 1104.0821,120.377594 1104.06785,120.265108 L1104.35731,120.265108 C1104.35731,120.265108 1104.4233,120.303353 1104.35731,119.856412 C1104.35731,119.856412 1104.00486,119.763424 1103.98836,119.052517 C1103.98836,119.052517 1103.72289,119.141756 1103.70715,118.710562 C1103.6959,118.418101 1103.47018,118.164634 1103.79488,117.955411 L1103.62991,117.50847 C1103.62991,117.50847 1103.2992,115.705706 1104.25007,115.969672 C1103.84888,115.489734 1106.52453,115.010547 1106.6985,116.532098 C1106.6985,116.532098 1106.82224,117.35399 1106.6985,117.915666 C1106.6985,117.915666 1107.0892,117.870672 1106.82749,118.621324 C1106.82749,118.621324 1106.68425,119.162003 1106.46378,119.040519 C1106.46378,119.040519 1106.49978,119.724429 1106.15182,119.839914 C1106.15182,119.839914 1106.17657,120.204366 1106.17657,120.229113 L1106.50728,120.278607 C1106.50728,120.278607 1106.45778,120.576318 1106.51553,120.608563 C1106.51553,120.608563 1106.90773,120.877778 1107.37566,120.998512 C1108.27705,121.230232 1109.34416,121.62693 1109.34416,121.974134 C1109.34416,121.974134 1109.43489,122.436824 1109.43489,122.99925 L1101,122.99925 L1101,122.99925 L1101,123 L1101,123 Z" id="Shape" fill="#ACB6BF" sketch:type="MSShapeGroup"></path>
            <rect id="Rectangle-516" opacity="0.8" fill="#B9C1CB" sketch:type="MSShapeGroup" x="1113" y="116" width="15" height="2"></rect>
            <rect id="Rectangle-516" opacity="0.8" fill="#B9C1CB" sketch:type="MSShapeGroup" x="1113" y="119" width="20" height="2"></rect>
            <rect id="Rectangle-611" stroke="#F9D3E4" stroke-width="2" fill="#A1A7B3" sketch:type="MSShapeGroup" x="1019" y="162" width="11" height="2"></rect>
            <rect id="Rectangle-668" fill="#FFFFFF" sketch:type="MSShapeGroup" x="1051" y="136" width="42" height="15" rx="1"></rect>
            <path d="M1055,147 L1055,146.2396 C1055,146.2396 1055.04949,145.772411 1055.61192,145.62768 C1055.61192,145.62768 1056.5178,145.296973 1057.22721,144.987264 C1057.59391,144.827535 1057.6734,144.732297 1058.0431,144.568069 C1058.0431,144.568069 1058.0821,144.377594 1058.06785,144.265108 L1058.35731,144.265108 C1058.35731,144.265108 1058.4233,144.303353 1058.35731,143.856412 C1058.35731,143.856412 1058.00486,143.763424 1057.98836,143.052517 C1057.98836,143.052517 1057.72289,143.141756 1057.70715,142.710562 C1057.6959,142.418101 1057.47018,142.164634 1057.79488,141.955411 L1057.62991,141.50847 C1057.62991,141.50847 1057.2992,139.705706 1058.25007,139.969672 C1057.84888,139.489734 1060.52453,139.010547 1060.6985,140.532098 C1060.6985,140.532098 1060.82224,141.35399 1060.6985,141.915666 C1060.6985,141.915666 1061.0892,141.870672 1060.82749,142.621324 C1060.82749,142.621324 1060.68425,143.162003 1060.46378,143.040519 C1060.46378,143.040519 1060.49978,143.724429 1060.15182,143.839914 C1060.15182,143.839914 1060.17657,144.204366 1060.17657,144.229113 L1060.50728,144.278607 C1060.50728,144.278607 1060.45778,144.576318 1060.51553,144.608563 C1060.51553,144.608563 1060.90773,144.877778 1061.37566,144.998512 C1062.27705,145.230232 1063.34416,145.62693 1063.34416,145.974134 C1063.34416,145.974134 1063.43489,146.436824 1063.43489,146.99925 L1055,146.99925 L1055,146.99925 L1055,147 L1055,147 Z" id="Shape" fill="#ACB6BF" sketch:type="MSShapeGroup"></path>
            <rect id="Rectangle-516" opacity="0.8" fill="#B9C1CB" sketch:type="MSShapeGroup" x="1067" y="140" width="15" height="2"></rect>
            <rect id="Rectangle-516" opacity="0.8" fill="#B9C1CB" sketch:type="MSShapeGroup" x="1067" y="143" width="20" height="2"></rect>
            <rect id="Rectangle-516" opacity="0.2" fill="#8F9CAC" sketch:type="MSShapeGroup" transform="translate(1092.000000, 155.500000) scale(-1, 1) translate(-1092.000000, -155.500000) " x="1010" y="155" width="164" height="1"></rect>
            <rect id="Rectangle-668" fill="#FFFFFF" sketch:type="MSShapeGroup" x="1097" y="136" width="42" height="15" rx="1"></rect>
            <path d="M1101,147 L1101,146.2396 C1101,146.2396 1101.04949,145.772411 1101.61192,145.62768 C1101.61192,145.62768 1102.5178,145.296973 1103.22721,144.987264 C1103.59391,144.827535 1103.6734,144.732297 1104.0431,144.568069 C1104.0431,144.568069 1104.0821,144.377594 1104.06785,144.265108 L1104.35731,144.265108 C1104.35731,144.265108 1104.4233,144.303353 1104.35731,143.856412 C1104.35731,143.856412 1104.00486,143.763424 1103.98836,143.052517 C1103.98836,143.052517 1103.72289,143.141756 1103.70715,142.710562 C1103.6959,142.418101 1103.47018,142.164634 1103.79488,141.955411 L1103.62991,141.50847 C1103.62991,141.50847 1103.2992,139.705706 1104.25007,139.969672 C1103.84888,139.489734 1106.52453,139.010547 1106.6985,140.532098 C1106.6985,140.532098 1106.82224,141.35399 1106.6985,141.915666 C1106.6985,141.915666 1107.0892,141.870672 1106.82749,142.621324 C1106.82749,142.621324 1106.68425,143.162003 1106.46378,143.040519 C1106.46378,143.040519 1106.49978,143.724429 1106.15182,143.839914 C1106.15182,143.839914 1106.17657,144.204366 1106.17657,144.229113 L1106.50728,144.278607 C1106.50728,144.278607 1106.45778,144.576318 1106.51553,144.608563 C1106.51553,144.608563 1106.90773,144.877778 1107.37566,144.998512 C1108.27705,145.230232 1109.34416,145.62693 1109.34416,145.974134 C1109.34416,145.974134 1109.43489,146.436824 1109.43489,146.99925 L1101,146.99925 L1101,146.99925 L1101,147 L1101,147 Z" id="Shape" fill="#ACB6BF" sketch:type="MSShapeGroup"></path>
            <rect id="Rectangle-516" opacity="0.8" fill="#B9C1CB" sketch:type="MSShapeGroup" x="1113" y="140" width="15" height="2"></rect>
            <rect id="Rectangle-516" opacity="0.8" fill="#B9C1CB" sketch:type="MSShapeGroup" x="1113" y="143" width="20" height="2"></rect>
            <rect id="Rectangle-668" fill="#FFFFFF" sketch:type="MSShapeGroup" x="1051" y="160" width="42" height="15" rx="1"></rect>
            <path d="M1055,171 L1055,170.2396 C1055,170.2396 1055.04949,169.772411 1055.61192,169.62768 C1055.61192,169.62768 1056.5178,169.296973 1057.22721,168.987264 C1057.59391,168.827535 1057.6734,168.732297 1058.0431,168.568069 C1058.0431,168.568069 1058.0821,168.377594 1058.06785,168.265108 L1058.35731,168.265108 C1058.35731,168.265108 1058.4233,168.303353 1058.35731,167.856412 C1058.35731,167.856412 1058.00486,167.763424 1057.98836,167.052517 C1057.98836,167.052517 1057.72289,167.141756 1057.70715,166.710562 C1057.6959,166.418101 1057.47018,166.164634 1057.79488,165.955411 L1057.62991,165.50847 C1057.62991,165.50847 1057.2992,163.705706 1058.25007,163.969672 C1057.84888,163.489734 1060.52453,163.010547 1060.6985,164.532098 C1060.6985,164.532098 1060.82224,165.35399 1060.6985,165.915666 C1060.6985,165.915666 1061.0892,165.870672 1060.82749,166.621324 C1060.82749,166.621324 1060.68425,167.162003 1060.46378,167.040519 C1060.46378,167.040519 1060.49978,167.724429 1060.15182,167.839914 C1060.15182,167.839914 1060.17657,168.204366 1060.17657,168.229113 L1060.50728,168.278607 C1060.50728,168.278607 1060.45778,168.576318 1060.51553,168.608563 C1060.51553,168.608563 1060.90773,168.877778 1061.37566,168.998512 C1062.27705,169.230232 1063.34416,169.62693 1063.34416,169.974134 C1063.34416,169.974134 1063.43489,170.436824 1063.43489,170.99925 L1055,170.99925 L1055,170.99925 L1055,171 L1055,171 Z" id="Shape" fill="#ACB6BF" sketch:type="MSShapeGroup"></path>
            <rect id="Rectangle-516" opacity="0.8" fill="#B9C1CB" sketch:type="MSShapeGroup" x="1067" y="164" width="15" height="2"></rect>
            <rect id="Rectangle-516" opacity="0.8" fill="#B9C1CB" sketch:type="MSShapeGroup" x="1067" y="167" width="20" height="2"></rect>
        </g>
    </g>
</svg>