<?xml version="1.0" encoding="UTF-8" standalone="no"?>
<svg width="200px" height="96px" viewBox="0 0 200 96" version="1.1" xmlns="http://www.w3.org/2000/svg" xmlns:xlink="http://www.w3.org/1999/xlink" xmlns:sketch="http://www.bohemiancoding.com/sketch/ns">
    <!-- Generator: Sketch 3.4.2 (15855) - http://www.bohemiancoding.com/sketch -->
    <title>peopleByTeam</title>
    <desc>Created with Sketch.</desc>
    <defs>
        <filter x="-50%" y="-50%" width="200%" height="200%" filterUnits="objectBoundingBox" id="filter-1">
            <feOffset dx="0" dy="1" in="SourceAlpha" result="shadowOffsetOuter1"></feOffset>
            <feGaussianBlur stdDeviation="1" in="shadowOffsetOuter1" result="shadowBlurOuter1"></feGaussianBlur>
            <feColorMatrix values="0 0 0 0 0.631372549   0 0 0 0 0.654901961   0 0 0 0 0.701960784  0 0 0 0.7 0" in="shadowBlurOuter1" type="matrix" result="shadowMatrixOuter1"></feColorMatrix>
            <feMerge>
                <feMergeNode in="shadowMatrixOuter1"></feMergeNode>
                <feMergeNode in="SourceGraphic"></feMergeNode>
            </feMerge>
        </filter>
    </defs>
    <g id="Page-1" stroke="none" stroke-width="1" fill="none" fill-rule="evenodd" sketch:type="MSPage">
        <g id="Dashboards-Empty-5" sketch:type="MSArtboardGroup" transform="translate(-1208.000000, -90.000000)">
            <rect id="Input-2" fill="#FFFFFF" filter="url(#filter-1)" sketch:type="MSShapeGroup" x="1208" y="90" width="200" height="203"></rect>
            <rect id="Rectangle-907" fill="#F3F5F8" sketch:type="MSShapeGroup" x="1226" y="106" width="164" height="76" rx="2"></rect>
            <path d="M1246.48615,119.802246 C1246.80923,118.801477 1246.57538,117.373785 1245.60385,116.400708 C1244.90077,115.697631 1243.95923,115.37917 1243.11462,115.37917 C1242.77615,115.37917 1242.45385,115.429939 1242.16692,115.527631 C1240.71077,114.806093 1239.43615,114.8384 1238.73538,115.539939 C1238.22692,116.047631 1238.09538,116.846862 1238.28615,117.765323 L1237.97,118.082246 C1237.90615,118.065323 1237.84077,118.053785 1237.77231,118.053785 C1237.34615,118.053785 1237,118.39917 1237,118.825323 C1237,119.251477 1237.34615,119.597631 1237.77231,119.597631 C1238.19846,119.597631 1238.54308,119.251477 1238.54308,118.825323 C1238.54308,118.756862 1238.53231,118.690708 1238.51462,118.627631 L1238.53846,118.603785 C1238.87385,119.463016 1239.45154,120.375323 1240.23385,121.219939 L1239.12692,122.326862 C1239.06385,122.310708 1238.99769,122.2984 1238.93,122.2984 C1238.50385,122.2984 1238.15769,122.644554 1238.15769,123.070708 C1238.15769,123.496862 1238.50385,123.842246 1238.93,123.842246 C1239.35692,123.842246 1239.70154,123.496862 1239.70154,123.070708 C1239.70154,123.001477 1239.68923,122.936093 1239.67308,122.873016 L1240.77923,121.766093 C1241.62308,122.54917 1242.53231,123.1284 1243.39154,123.463785 L1243.37,123.484554 C1243.30692,123.4684 1243.24231,123.456093 1243.17308,123.456093 C1242.74692,123.456093 1242.40154,123.802246 1242.40154,124.2284 C1242.40154,124.655323 1242.74692,125.000708 1243.17308,125.000708 C1243.59923,125.000708 1243.94462,124.655323 1243.94462,124.2284 C1243.94462,124.15917 1243.93308,124.094554 1243.91538,124.030708 L1244.22846,123.71917 C1245.14923,123.913016 1245.95308,123.782246 1246.46308,123.271477 C1247.16385,122.571477 1247.18385,121.246862 1246.48615,119.802246 L1246.48615,119.802246 Z M1245.08308,116.920708 C1246.10154,117.93917 1246.04692,119.52917 1245.51462,120.062246 C1245.23923,120.337631 1244.95615,120.472246 1244.65154,120.472246 C1244.11462,120.472246 1243.43231,120.075323 1242.68154,119.323785 C1240.89769,117.5384 1241.65769,116.776093 1241.94462,116.48917 C1242.18,116.254554 1242.61615,116.114554 1243.11462,116.114554 C1243.85308,116.114554 1244.57231,116.4084 1245.08308,116.920708 L1245.08308,116.920708 Z" id="UFO" opacity="0.5" fill="#606C7B" sketch:type="MSShapeGroup"></path>
            <path d="M1242.00077,143.0425 C1243.72846,143.0425 1244.23538,142.5575 1244.23538,141.441667 C1244.23538,140.71 1243.71308,140.251667 1243.06615,140.020833 C1242.99385,139.445833 1242.54692,139 1242,139 C1241.45308,139 1241.00538,139.445 1240.93308,140.020833 C1240.28538,140.251667 1239.76385,140.71 1239.76385,141.441667 C1239.76538,142.5575 1240.27308,143.0425 1242.00077,143.0425 L1242.00077,143.0425 Z M1246.61615,144.380833 L1245.00538,144.380833 C1245.00538,144.079167 1245.00077,143.839167 1244.98923,143.6475 C1245.52615,143.259167 1246.23154,142.406667 1246.23154,140.600833 C1246.23154,140.369167 1246.05923,140.180833 1245.84692,140.180833 C1245.63462,140.180833 1245.46231,140.369167 1245.46231,140.600833 C1245.46231,142.753333 1244.27615,143.115833 1244.21769,143.1325 C1244.17923,143.1425 1244.14538,143.164167 1244.11308,143.185833 C1243.66308,143.373333 1242.99462,143.625 1242.00077,143.625 C1240.53077,143.625 1239.77692,143.053333 1239.39231,142.913333 C1239.02538,142.624167 1238.53923,141.9825 1238.53923,140.600833 C1238.53923,140.369167 1238.36615,140.180833 1238.15462,140.180833 C1237.94231,140.180833 1237.77,140.369167 1237.77,140.600833 C1237.77,142.398333 1238.46923,143.251667 1239.00462,143.6425 C1238.99692,143.84 1238.99538,144.081667 1238.99538,144.38 L1237.38385,144.38 C1237.17154,144.38 1237,144.5675 1237,144.8 C1237,145.031667 1237.17154,145.22 1237.38385,145.22 L1239.07385,145.22 C1239.11077,145.424167 1239.16,145.624167 1239.22077,145.818333 C1238.34692,146.138333 1237.38308,146.9325 1237.38308,148.579167 C1237.38308,148.810833 1237.55615,148.999167 1237.76846,148.999167 C1237.98077,148.999167 1238.15308,148.810833 1238.15308,148.579167 C1238.15308,147.258333 1238.96462,146.768333 1239.54308,146.585 C1240.01769,147.481667 1240.76,148.169167 1241.61462,148.433333 L1241.61462,145.219167 C1241.61462,143.96 1242.38308,143.959167 1242.38308,145.219167 L1242.38308,148.433333 C1243.23769,148.169167 1243.97769,147.483333 1244.45231,146.588333 C1245.02692,146.7725 1245.84538,147.263333 1245.84538,148.578333 C1245.84538,148.81 1246.01769,148.998333 1246.23,148.998333 C1246.44154,148.998333 1246.61462,148.81 1246.61462,148.578333 C1246.61462,146.930833 1245.65154,146.136667 1244.77692,145.8175 C1244.83769,145.623333 1244.88769,145.423333 1244.92462,145.219167 L1246.61385,145.219167 C1246.82615,145.219167 1246.99846,145.030833 1246.99846,144.799167 C1247.00077,144.568333 1246.82846,144.380833 1246.61615,144.380833 L1246.61615,144.380833 Z" id="Bug" opacity="0.5" fill="#606C7B" sketch:type="MSShapeGroup"></path>
            <path d="M1246.99469,165.593187 C1246.82469,165.182521 1245.90315,164.69641 1244.76854,165.245521 C1244.76854,165.245521 1239.05777,168.008187 1238.88238,168.092965 C1238.70854,168.177743 1238.58238,168.082854 1238.42085,167.952187 C1238.137,167.726632 1237.727,167.396854 1237.59777,167.288743 C1237.39546,167.120743 1236.88392,167.228076 1237.02392,167.567187 C1237.16238,167.905521 1237.59623,168.95941 1237.76008,169.357632 C1238.00085,169.943299 1239.26008,169.809521 1241.45162,168.750187 C1241.65162,168.653743 1241.86623,168.549521 1242.09162,168.440632 L1241.53777,171.637299 C1241.46623,171.947632 1241.53546,172.033187 1241.63008,171.988076 L1241.95469,171.830965 C1242.12315,171.749299 1242.35469,171.459965 1242.47162,171.184632 L1244.05392,167.472299 C1245.64854,166.664187 1247.10238,165.855299 1246.99469,165.593187 L1246.99469,165.593187 Z M1239.20315,165.958743 L1240.51854,166.826743 L1241.97623,166.121299 L1240.137,165.506076 C1239.87008,165.416632 1239.517,165.41041 1239.34931,165.491299 L1239.02392,165.649187 C1238.93008,165.695076 1238.94162,165.808632 1239.20315,165.958743 L1239.20315,165.958743 Z" id="Airplane" opacity="0.5" fill="#606C7B" sketch:type="MSShapeGroup"></path>
            <rect id="Rectangle-668" fill="#FFFFFF" sketch:type="MSShapeGroup" x="1267" y="112" width="42" height="15" rx="1"></rect>
            <path d="M1271,123 L1271,122.2396 C1271,122.2396 1271.04949,121.772411 1271.61192,121.62768 C1271.61192,121.62768 1272.5178,121.296973 1273.22721,120.987264 C1273.59391,120.827535 1273.6734,120.732297 1274.0431,120.568069 C1274.0431,120.568069 1274.0821,120.377594 1274.06785,120.265108 L1274.35731,120.265108 C1274.35731,120.265108 1274.4233,120.303353 1274.35731,119.856412 C1274.35731,119.856412 1274.00486,119.763424 1273.98836,119.052517 C1273.98836,119.052517 1273.72289,119.141756 1273.70715,118.710562 C1273.6959,118.418101 1273.47018,118.164634 1273.79488,117.955411 L1273.62991,117.50847 C1273.62991,117.50847 1273.2992,115.705706 1274.25007,115.969672 C1273.84888,115.489734 1276.52453,115.010547 1276.6985,116.532098 C1276.6985,116.532098 1276.82224,117.35399 1276.6985,117.915666 C1276.6985,117.915666 1277.0892,117.870672 1276.82749,118.621324 C1276.82749,118.621324 1276.68425,119.162003 1276.46378,119.040519 C1276.46378,119.040519 1276.49978,119.724429 1276.15182,119.839914 C1276.15182,119.839914 1276.17657,120.204366 1276.17657,120.229113 L1276.50728,120.278607 C1276.50728,120.278607 1276.45778,120.576318 1276.51553,120.608563 C1276.51553,120.608563 1276.90773,120.877778 1277.37566,120.998512 C1278.27705,121.230232 1279.34416,121.62693 1279.34416,121.974134 C1279.34416,121.974134 1279.43489,122.436824 1279.43489,122.99925 L1271,122.99925 L1271,122.99925 L1271,123 L1271,123 Z" id="Shape" fill="#ACB6BF" sketch:type="MSShapeGroup"></path>
            <rect id="Rectangle-516" opacity="0.2" fill="#8F9CAC" sketch:type="MSShapeGroup" x="1260" y="106" width="1" height="76"></rect>
            <rect id="Rectangle-516" opacity="0.8" fill="#B9C1CB" sketch:type="MSShapeGroup" x="1283" y="116" width="15" height="2"></rect>
            <rect id="Rectangle-516" opacity="0.8" fill="#B9C1CB" sketch:type="MSShapeGroup" x="1283" y="119" width="20" height="2"></rect>
            <rect id="Rectangle-516" opacity="0.2" fill="#8F9CAC" sketch:type="MSShapeGroup" transform="translate(1308.000000, 131.500000) scale(-1, 1) translate(-1308.000000, -131.500000) " x="1226" y="131" width="164" height="1"></rect>
            <rect id="Rectangle-668" fill="#FFFFFF" sketch:type="MSShapeGroup" x="1313" y="112" width="42" height="15" rx="1"></rect>
            <path d="M1317,123 L1317,122.2396 C1317,122.2396 1317.04949,121.772411 1317.61192,121.62768 C1317.61192,121.62768 1318.5178,121.296973 1319.22721,120.987264 C1319.59391,120.827535 1319.6734,120.732297 1320.0431,120.568069 C1320.0431,120.568069 1320.0821,120.377594 1320.06785,120.265108 L1320.35731,120.265108 C1320.35731,120.265108 1320.4233,120.303353 1320.35731,119.856412 C1320.35731,119.856412 1320.00486,119.763424 1319.98836,119.052517 C1319.98836,119.052517 1319.72289,119.141756 1319.70715,118.710562 C1319.6959,118.418101 1319.47018,118.164634 1319.79488,117.955411 L1319.62991,117.50847 C1319.62991,117.50847 1319.2992,115.705706 1320.25007,115.969672 C1319.84888,115.489734 1322.52453,115.010547 1322.6985,116.532098 C1322.6985,116.532098 1322.82224,117.35399 1322.6985,117.915666 C1322.6985,117.915666 1323.0892,117.870672 1322.82749,118.621324 C1322.82749,118.621324 1322.68425,119.162003 1322.46378,119.040519 C1322.46378,119.040519 1322.49978,119.724429 1322.15182,119.839914 C1322.15182,119.839914 1322.17657,120.204366 1322.17657,120.229113 L1322.50728,120.278607 C1322.50728,120.278607 1322.45778,120.576318 1322.51553,120.608563 C1322.51553,120.608563 1322.90773,120.877778 1323.37566,120.998512 C1324.27705,121.230232 1325.34416,121.62693 1325.34416,121.974134 C1325.34416,121.974134 1325.43489,122.436824 1325.43489,122.99925 L1317,122.99925 L1317,122.99925 L1317,123 L1317,123 Z" id="Shape" fill="#ACB6BF" sketch:type="MSShapeGroup"></path>
            <rect id="Rectangle-516" opacity="0.8" fill="#B9C1CB" sketch:type="MSShapeGroup" x="1329" y="116" width="15" height="2"></rect>
            <rect id="Rectangle-516" opacity="0.8" fill="#B9C1CB" sketch:type="MSShapeGroup" x="1329" y="119" width="20" height="2"></rect>
            <rect id="Rectangle-668" fill="#FFFFFF" sketch:type="MSShapeGroup" x="1267" y="136" width="42" height="15" rx="1"></rect>
            <path d="M1271,147 L1271,146.2396 C1271,146.2396 1271.04949,145.772411 1271.61192,145.62768 C1271.61192,145.62768 1272.5178,145.296973 1273.22721,144.987264 C1273.59391,144.827535 1273.6734,144.732297 1274.0431,144.568069 C1274.0431,144.568069 1274.0821,144.377594 1274.06785,144.265108 L1274.35731,144.265108 C1274.35731,144.265108 1274.4233,144.303353 1274.35731,143.856412 C1274.35731,143.856412 1274.00486,143.763424 1273.98836,143.052517 C1273.98836,143.052517 1273.72289,143.141756 1273.70715,142.710562 C1273.6959,142.418101 1273.47018,142.164634 1273.79488,141.955411 L1273.62991,141.50847 C1273.62991,141.50847 1273.2992,139.705706 1274.25007,139.969672 C1273.84888,139.489734 1276.52453,139.010547 1276.6985,140.532098 C1276.6985,140.532098 1276.82224,141.35399 1276.6985,141.915666 C1276.6985,141.915666 1277.0892,141.870672 1276.82749,142.621324 C1276.82749,142.621324 1276.68425,143.162003 1276.46378,143.040519 C1276.46378,143.040519 1276.49978,143.724429 1276.15182,143.839914 C1276.15182,143.839914 1276.17657,144.204366 1276.17657,144.229113 L1276.50728,144.278607 C1276.50728,144.278607 1276.45778,144.576318 1276.51553,144.608563 C1276.51553,144.608563 1276.90773,144.877778 1277.37566,144.998512 C1278.27705,145.230232 1279.34416,145.62693 1279.34416,145.974134 C1279.34416,145.974134 1279.43489,146.436824 1279.43489,146.99925 L1271,146.99925 L1271,146.99925 L1271,147 L1271,147 Z" id="Shape" fill="#ACB6BF" sketch:type="MSShapeGroup"></path>
            <rect id="Rectangle-516" opacity="0.8" fill="#B9C1CB" sketch:type="MSShapeGroup" x="1283" y="140" width="15" height="2"></rect>
            <rect id="Rectangle-516" opacity="0.8" fill="#B9C1CB" sketch:type="MSShapeGroup" x="1283" y="143" width="20" height="2"></rect>
            <rect id="Rectangle-516" opacity="0.2" fill="#8F9CAC" sketch:type="MSShapeGroup" transform="translate(1308.000000, 155.500000) scale(-1, 1) translate(-1308.000000, -155.500000) " x="1226" y="155" width="164" height="1"></rect>
            <rect id="Rectangle-668" fill="#FFFFFF" sketch:type="MSShapeGroup" x="1313" y="136" width="42" height="15" rx="1"></rect>
            <path d="M1317,147 L1317,146.2396 C1317,146.2396 1317.04949,145.772411 1317.61192,145.62768 C1317.61192,145.62768 1318.5178,145.296973 1319.22721,144.987264 C1319.59391,144.827535 1319.6734,144.732297 1320.0431,144.568069 C1320.0431,144.568069 1320.0821,144.377594 1320.06785,144.265108 L1320.35731,144.265108 C1320.35731,144.265108 1320.4233,144.303353 1320.35731,143.856412 C1320.35731,143.856412 1320.00486,143.763424 1319.98836,143.052517 C1319.98836,143.052517 1319.72289,143.141756 1319.70715,142.710562 C1319.6959,142.418101 1319.47018,142.164634 1319.79488,141.955411 L1319.62991,141.50847 C1319.62991,141.50847 1319.2992,139.705706 1320.25007,139.969672 C1319.84888,139.489734 1322.52453,139.010547 1322.6985,140.532098 C1322.6985,140.532098 1322.82224,141.35399 1322.6985,141.915666 C1322.6985,141.915666 1323.0892,141.870672 1322.82749,142.621324 C1322.82749,142.621324 1322.68425,143.162003 1322.46378,143.040519 C1322.46378,143.040519 1322.49978,143.724429 1322.15182,143.839914 C1322.15182,143.839914 1322.17657,144.204366 1322.17657,144.229113 L1322.50728,144.278607 C1322.50728,144.278607 1322.45778,144.576318 1322.51553,144.608563 C1322.51553,144.608563 1322.90773,144.877778 1323.37566,144.998512 C1324.27705,145.230232 1325.34416,145.62693 1325.34416,145.974134 C1325.34416,145.974134 1325.43489,146.436824 1325.43489,146.99925 L1317,146.99925 L1317,146.99925 L1317,147 L1317,147 Z" id="Shape" fill="#ACB6BF" sketch:type="MSShapeGroup"></path>
            <rect id="Rectangle-516" opacity="0.8" fill="#B9C1CB" sketch:type="MSShapeGroup" x="1329" y="140" width="15" height="2"></rect>
            <rect id="Rectangle-516" opacity="0.8" fill="#B9C1CB" sketch:type="MSShapeGroup" x="1329" y="143" width="20" height="2"></rect>
            <rect id="Rectangle-668" fill="#FFFFFF" sketch:type="MSShapeGroup" x="1267" y="160" width="42" height="15" rx="1"></rect>
            <path d="M1271,171 L1271,170.2396 C1271,170.2396 1271.04949,169.772411 1271.61192,169.62768 C1271.61192,169.62768 1272.5178,169.296973 1273.22721,168.987264 C1273.59391,168.827535 1273.6734,168.732297 1274.0431,168.568069 C1274.0431,168.568069 1274.0821,168.377594 1274.06785,168.265108 L1274.35731,168.265108 C1274.35731,168.265108 1274.4233,168.303353 1274.35731,167.856412 C1274.35731,167.856412 1274.00486,167.763424 1273.98836,167.052517 C1273.98836,167.052517 1273.72289,167.141756 1273.70715,166.710562 C1273.6959,166.418101 1273.47018,166.164634 1273.79488,165.955411 L1273.62991,165.50847 C1273.62991,165.50847 1273.2992,163.705706 1274.25007,163.969672 C1273.84888,163.489734 1276.52453,163.010547 1276.6985,164.532098 C1276.6985,164.532098 1276.82224,165.35399 1276.6985,165.915666 C1276.6985,165.915666 1277.0892,165.870672 1276.82749,166.621324 C1276.82749,166.621324 1276.68425,167.162003 1276.46378,167.040519 C1276.46378,167.040519 1276.49978,167.724429 1276.15182,167.839914 C1276.15182,167.839914 1276.17657,168.204366 1276.17657,168.229113 L1276.50728,168.278607 C1276.50728,168.278607 1276.45778,168.576318 1276.51553,168.608563 C1276.51553,168.608563 1276.90773,168.877778 1277.37566,168.998512 C1278.27705,169.230232 1279.34416,169.62693 1279.34416,169.974134 C1279.34416,169.974134 1279.43489,170.436824 1279.43489,170.99925 L1271,170.99925 L1271,170.99925 L1271,171 L1271,171 Z" id="Shape" fill="#ACB6BF" sketch:type="MSShapeGroup"></path>
            <rect id="Rectangle-516" opacity="0.8" fill="#B9C1CB" sketch:type="MSShapeGroup" x="1283" y="164" width="15" height="2"></rect>
            <rect id="Rectangle-516" opacity="0.8" fill="#B9C1CB" sketch:type="MSShapeGroup" x="1283" y="167" width="20" height="2"></rect>
        </g>
    </g>
</svg>