<?xml version="1.0" encoding="UTF-8" standalone="no"?>
<svg width="200px" height="96px" viewBox="0 0 200 96" version="1.1" xmlns="http://www.w3.org/2000/svg" xmlns:xlink="http://www.w3.org/1999/xlink" xmlns:sketch="http://www.bohemiancoding.com/sketch/ns">
    <!-- Generator: Sketch 3.4.2 (15855) - http://www.bohemiancoding.com/sketch -->
    <title>projects</title>
    <desc>Created with Sketch.</desc>
    <defs>
        <filter x="-50%" y="-50%" width="200%" height="200%" filterUnits="objectBoundingBox" id="filter-1">
            <feOffset dx="0" dy="1" in="SourceAlpha" result="shadowOffsetOuter1"></feOffset>
            <feGaussianBlur stdDeviation="1" in="shadowOffsetOuter1" result="shadowBlurOuter1"></feGaussianBlur>
            <feColorMatrix values="0 0 0 0 0.631372549   0 0 0 0 0.654901961   0 0 0 0 0.701960784  0 0 0 0.7 0" in="shadowBlurOuter1" type="matrix" result="shadowMatrixOuter1"></feColorMatrix>
            <feMerge>
                <feMergeNode in="shadowMatrixOuter1"></feMergeNode>
                <feMergeNode in="SourceGraphic"></feMergeNode>
            </feMerge>
        </filter>
    </defs>
    <g id="Page-1" stroke="none" stroke-width="1" fill="none" fill-rule="evenodd" sketch:type="MSPage">
        <g id="Dashboards-Empty-5" sketch:type="MSArtboardGroup" transform="translate(-776.000000, -90.000000)">
            <rect id="Input-2" fill="#FFFFFF" filter="url(#filter-1)" sketch:type="MSShapeGroup" x="776" y="90" width="200" height="203"></rect>
            <rect id="Rectangle-907" fill="#F3F5F8" sketch:type="MSShapeGroup" x="794" y="106" width="42" height="76" rx="2"></rect>
            <path d="M835,107 L835,106 L955.993011,106 C957.097951,106 958,106.892633 958,107.993751 L958,180.006249 C958,181.106918 957.10144,182 955.993011,182 L835,182 L835,181 L954.993011,181 C956.10144,181 957,180.104275 957,179.001532 L957,108.998468 C957,107.894745 956.097951,107 954.993011,107 L835,107 Z" id="Rectangle-907" fill="#F2F4F7" sketch:type="MSShapeGroup"></path>
            <rect id="Rectangle-575" stroke="#D1DFF0" stroke-width="2" fill="#A1A7B3" sketch:type="MSShapeGroup" x="801" y="114" width="22" height="2"></rect>
            <rect id="Rectangle-907" fill="#78BEFF" sketch:type="MSShapeGroup" x="794" y="129" width="42" height="8"></rect>
            <rect id="Rectangle-578" stroke="#E2EFCD" stroke-width="2" fill="#A1A7B3" sketch:type="MSShapeGroup" x="801" y="123" width="18" height="2"></rect>
            <rect id="Rectangle-588" fill="#FFFFFF" sketch:type="MSShapeGroup" x="801" y="132" width="24" height="2"></rect>
            <rect id="Rectangle-590" stroke="#FBEAD6" stroke-width="2" fill="#A1A7B3" sketch:type="MSShapeGroup" x="801" y="141" width="16" height="2"></rect>
            <rect id="Rectangle-575" fill="#8F9CAC" sketch:type="MSShapeGroup" x="847" y="114" width="52" height="4"></rect>
            <rect id="Rectangle-516" opacity="0.8" fill="#B9C1CB" sketch:type="MSShapeGroup" x="847" y="124" width="62" height="2"></rect>
            <rect id="Rectangle-516" opacity="0.8" fill="#B9C1CB" sketch:type="MSShapeGroup" x="847" y="128" width="62" height="2"></rect>
            <rect id="Rectangle-516" opacity="0.8" fill="#B9C1CB" sketch:type="MSShapeGroup" x="847" y="152" width="62" height="2"></rect>
            <rect id="Rectangle-516" opacity="0.8" fill="#B9C1CB" sketch:type="MSShapeGroup" x="847" y="156" width="22" height="2"></rect>
            <rect id="Rectangle-516" opacity="0.8" fill="#B9C1CB" sketch:type="MSShapeGroup" x="919" y="114" width="32" height="2"></rect>
            <rect id="Rectangle-516" opacity="0.8" fill="#B9C1CB" sketch:type="MSShapeGroup" x="919" y="124" width="8" height="2"></rect>
            <rect id="Rectangle-516" opacity="0.799999952" fill="#A1A7B3" sketch:type="MSShapeGroup" x="932" y="124" width="18" height="2"></rect>
            <rect id="Rectangle-516" opacity="0.8" fill="#B9C1CB" sketch:type="MSShapeGroup" x="919" y="129" width="11" height="2"></rect>
            <rect id="Rectangle-516" opacity="0.799999952" fill="#A1A7B3" sketch:type="MSShapeGroup" x="932" y="129" width="15" height="2"></rect>
            <rect id="Rectangle-516" opacity="0.8" fill="#B9C1CB" sketch:type="MSShapeGroup" x="919" y="134" width="10" height="2"></rect>
            <rect id="Rectangle-516" opacity="0.799999952" fill="#A1A7B3" sketch:type="MSShapeGroup" x="932" y="134" width="19" height="2"></rect>
            <rect id="Rectangle-516" opacity="0.8" fill="#B9C1CB" sketch:type="MSShapeGroup" x="919" y="139" width="11" height="2"></rect>
            <rect id="Rectangle-516" opacity="0.799999952" fill="#A1A7B3" sketch:type="MSShapeGroup" x="932" y="139" width="18" height="2"></rect>
            <rect id="Rectangle-516" opacity="0.8" fill="#B9C1CB" sketch:type="MSShapeGroup" x="919" y="144" width="10" height="2"></rect>
            <rect id="Rectangle-516" opacity="0.799999952" fill="#A1A7B3" sketch:type="MSShapeGroup" x="932" y="144" width="15" height="2"></rect>
            <rect id="Rectangle-516" opacity="0.8" fill="#B9C1CB" sketch:type="MSShapeGroup" x="847" y="132" width="62" height="2"></rect>
            <rect id="Rectangle-516" opacity="0.8" fill="#B9C1CB" sketch:type="MSShapeGroup" x="847" y="136" width="62" height="2"></rect>
            <rect id="Rectangle-516" opacity="0.8" fill="#B9C1CB" sketch:type="MSShapeGroup" x="847" y="140" width="62" height="2"></rect>
            <rect id="Rectangle-516" opacity="0.8" fill="#B9C1CB" sketch:type="MSShapeGroup" x="847" y="144" width="62" height="2"></rect>
            <rect id="Rectangle-516" opacity="0.8" fill="#B9C1CB" sketch:type="MSShapeGroup" x="847" y="148" width="62" height="2"></rect>
            <rect id="Rectangle-516" opacity="0.8" fill="#74AC6A" sketch:type="MSShapeGroup" x="919" y="114" width="12" height="2"></rect>
        </g>
    </g>
</svg>