<?xml version="1.0" encoding="UTF-8" standalone="no"?>
<svg width="200px" height="96px" viewBox="0 0 200 96" version="1.1" xmlns="http://www.w3.org/2000/svg" xmlns:xlink="http://www.w3.org/1999/xlink">
    <!-- Generator: Sketch 39 (31667) - http://www.bohemiancoding.com/sketch -->
    <title>projectsRoadmap</title>
    <desc>Created with Sketch.</desc>
    <defs>
        <rect id="path-1" x="0" y="0" width="200" height="203"></rect>
        <filter x="-50%" y="-50%" width="200%" height="200%" filterUnits="objectBoundingBox" id="filter-2">
            <feOffset dx="0" dy="1" in="SourceAlpha" result="shadowOffsetOuter1"></feOffset>
            <feGaussianBlur stdDeviation="1" in="shadowOffsetOuter1" result="shadowBlurOuter1"></feGaussianBlur>
            <feColorMatrix values="0 0 0 0 0.631372549   0 0 0 0 0.654901961   0 0 0 0 0.701960784  0 0 0 1 0" type="matrix" in="shadowBlurOuter1"></feColorMatrix>
        </filter>
    </defs>
    <g id="Page-1" stroke="none" stroke-width="1" fill="none" fill-rule="evenodd">
        <g id="Timelines" transform="translate(-128.000000, -90.000000)">
            <g id="Projects-Roadmap" transform="translate(128.000000, 90.000000)">
                <g id="Input-2">
                    <use fill="black" fill-opacity="1" filter="url(#filter-2)" xlink:href="#path-1"></use>
                    <use fill="#FFFFFF" fill-rule="evenodd" xlink:href="#path-1"></use>
                </g>
                <rect id="Rectangle-907" fill="#F3F5F8" x="18" y="16" width="164" height="76" rx="2"></rect>
                <g id="Group" transform="translate(23.000000, 22.000000)">
                    <rect id="Rectangle-668" fill="#FFFFFF" x="0" y="0" width="50" height="15" rx="1"></rect>
                    <path d="M4,10.999 C4,11.551 4.447,11.998 5,11.998 L12.999,11.998 C13.551,11.998 13.999,11.551 13.999,10.999 L13.999,9.718 L4,9.718 L4,10.999 L4,10.999 L4,10.999 L4,10.999 Z M12.999,4 L10.999,4 L10.999,3 C10.999,2.447 10.552,2 9.999,2 L7.999,2 C7.447,2 6.999,2.447 6.999,3 L6.999,4 L5,4 C4.447,4 4,4.447 4,5 L4,9.155 L7.999,9.155 L7.999,8 L9.999,8 L9.999,9.155 L13.999,9.155 L13.999,5 C13.999,4.447 13.551,4 12.999,4 L12.999,4 L12.999,4 L12.999,4 Z M10.011,4 L7.999,4 L7.999,3.744 C7.999,3.329 8.336,2.992 8.751,2.992 L9.259,2.992 C9.674,2.992 10.011,3.329 10.011,3.744 L10.011,4 L10.011,4 L10.011,4 L10.011,4 Z" id="Shape" fill="#ACB6BF"></path>
                    <rect id="Rectangle-516" fill="#B9C1CB" opacity="0.8" x="20" y="6" width="15" height="2"></rect>
                </g>
                <g id="Group" transform="translate(99.000000, 60.000000)">
                    <rect id="Rectangle-668" fill="#CCEEFB" x="0" y="0" width="63" height="15" rx="1"></rect>
                    <path d="M4,10.999 C4,11.551 4.447,11.998 5,11.998 L12.999,11.998 C13.551,11.998 13.999,11.551 13.999,10.999 L13.999,9.718 L4,9.718 L4,10.999 L4,10.999 L4,10.999 L4,10.999 Z M12.999,4 L10.999,4 L10.999,3 C10.999,2.447 10.552,2 9.999,2 L7.999,2 C7.447,2 6.999,2.447 6.999,3 L6.999,4 L5,4 C4.447,4 4,4.447 4,5 L4,9.155 L7.999,9.155 L7.999,8 L9.999,8 L9.999,9.155 L13.999,9.155 L13.999,5 C13.999,4.447 13.551,4 12.999,4 L12.999,4 L12.999,4 L12.999,4 Z M10.011,4 L7.999,4 L7.999,3.744 C7.999,3.329 8.336,2.992 8.751,2.992 L9.259,2.992 C9.674,2.992 10.011,3.329 10.011,3.744 L10.011,4 L10.011,4 L10.011,4 L10.011,4 Z" id="Shape" fill="#ACB6BF"></path>
                    <rect id="Rectangle-516" fill="#B9C1CB" opacity="0.8" x="20" y="6" width="15" height="2"></rect>
                </g>
                <g id="Group-2" transform="translate(75.000000, 22.000000)">
                    <rect id="Rectangle-668" fill="#FBEAD6" x="0" y="0" width="103" height="15" rx="1"></rect>
                    <path d="M4,10.999 C4,11.551 4.447,11.998 5,11.998 L12.999,11.998 C13.551,11.998 13.999,11.551 13.999,10.999 L13.999,9.718 L4,9.718 L4,10.999 L4,10.999 L4,10.999 L4,10.999 Z M12.999,4 L10.999,4 L10.999,3 C10.999,2.447 10.552,2 9.999,2 L7.999,2 C7.447,2 6.999,2.447 6.999,3 L6.999,4 L5,4 C4.447,4 4,4.447 4,5 L4,9.155 L7.999,9.155 L7.999,8 L9.999,8 L9.999,9.155 L13.999,9.155 L13.999,5 C13.999,4.447 13.551,4 12.999,4 L12.999,4 L12.999,4 L12.999,4 Z M10.011,4 L7.999,4 L7.999,3.744 C7.999,3.329 8.336,2.992 8.751,2.992 L9.259,2.992 C9.674,2.992 10.011,3.329 10.011,3.744 L10.011,4 L10.011,4 L10.011,4 L10.011,4 Z" id="Shape" fill="#ACB6BF"></path>
                    <rect id="Rectangle-516" fill="#B9C1CB" opacity="0.8" x="20" y="6" width="15" height="2"></rect>
                </g>
                <g id="Group-2" transform="translate(45.000000, 41.000000)">
                    <rect id="Rectangle-668" fill="#E1EFCC" x="0" y="0" width="99" height="15" rx="1"></rect>
                    <path d="M4,10.999 C4,11.551 4.447,11.998 5,11.998 L12.999,11.998 C13.551,11.998 13.999,11.551 13.999,10.999 L13.999,9.718 L4,9.718 L4,10.999 L4,10.999 L4,10.999 L4,10.999 Z M12.999,4 L10.999,4 L10.999,3 C10.999,2.447 10.552,2 9.999,2 L7.999,2 C7.447,2 6.999,2.447 6.999,3 L6.999,4 L5,4 C4.447,4 4,4.447 4,5 L4,9.155 L7.999,9.155 L7.999,8 L9.999,8 L9.999,9.155 L13.999,9.155 L13.999,5 C13.999,4.447 13.551,4 12.999,4 L12.999,4 L12.999,4 L12.999,4 Z M10.011,4 L7.999,4 L7.999,3.744 C7.999,3.329 8.336,2.992 8.751,2.992 L9.259,2.992 C9.674,2.992 10.011,3.329 10.011,3.744 L10.011,4 L10.011,4 L10.011,4 L10.011,4 Z" id="Shape" fill="#ACB6BF"></path>
                    <rect id="Rectangle-516" fill="#B9C1CB" opacity="0.8" x="20" y="6" width="15" height="2"></rect>
                </g>
                <rect id="Rectangle-516" fill="#8EBA3E" x="123" y="16" width="1" height="76"></rect>
            </g>
        </g>
    </g>
</svg>