<?xml version="1.0" encoding="UTF-8" standalone="no"?>
<svg width="200px" height="96px" viewBox="0 0 200 96" version="1.1" xmlns="http://www.w3.org/2000/svg" xmlns:xlink="http://www.w3.org/1999/xlink" xmlns:sketch="http://www.bohemiancoding.com/sketch/ns">
    <!-- Generator: Sketch 3.4.2 (15855) - http://www.bohemiancoding.com/sketch -->
    <title>projectsByTeam</title>
    <desc>Created with Sketch.</desc>
    <defs>
        <filter x="-50%" y="-50%" width="200%" height="200%" filterUnits="objectBoundingBox" id="filter-1">
            <feOffset dx="0" dy="1" in="SourceAlpha" result="shadowOffsetOuter1"></feOffset>
            <feGaussianBlur stdDeviation="1" in="shadowOffsetOuter1" result="shadowBlurOuter1"></feGaussianBlur>
            <feColorMatrix values="0 0 0 0 0.631372549   0 0 0 0 0.654901961   0 0 0 0 0.701960784  0 0 0 0.7 0" in="shadowBlurOuter1" type="matrix" result="shadowMatrixOuter1"></feColorMatrix>
            <feMerge>
                <feMergeNode in="shadowMatrixOuter1"></feMergeNode>
                <feMergeNode in="SourceGraphic"></feMergeNode>
            </feMerge>
        </filter>
    </defs>
    <g id="Page-1" stroke="none" stroke-width="1" fill="none" fill-rule="evenodd" sketch:type="MSPage">
        <g id="Dashboards-Empty-5" sketch:type="MSArtboardGroup" transform="translate(-344.000000, -319.000000)">
            <rect id="Input-2" fill="#FFFFFF" filter="url(#filter-1)" sketch:type="MSShapeGroup" x="344" y="319" width="200" height="203"></rect>
            <rect id="Rectangle-907" fill="#F3F5F8" sketch:type="MSShapeGroup" x="362" y="335" width="164" height="76" rx="2"></rect>
            <path d="M382.486154,348.802246 C382.809231,347.801477 382.575385,346.373785 381.603846,345.400708 C380.900769,344.697631 379.959231,344.37917 379.114615,344.37917 C378.776154,344.37917 378.453846,344.429939 378.166923,344.527631 C376.710769,343.806093 375.436154,343.8384 374.735385,344.539939 C374.226923,345.047631 374.095385,345.846862 374.286154,346.765323 L373.97,347.082246 C373.906154,347.065323 373.840769,347.053785 373.772308,347.053785 C373.346154,347.053785 373,347.39917 373,347.825323 C373,348.251477 373.346154,348.597631 373.772308,348.597631 C374.198462,348.597631 374.543077,348.251477 374.543077,347.825323 C374.543077,347.756862 374.532308,347.690708 374.514615,347.627631 L374.538462,347.603785 C374.873846,348.463016 375.451538,349.375323 376.233846,350.219939 L375.126923,351.326862 C375.063846,351.310708 374.997692,351.2984 374.93,351.2984 C374.503846,351.2984 374.157692,351.644554 374.157692,352.070708 C374.157692,352.496862 374.503846,352.842246 374.93,352.842246 C375.356923,352.842246 375.701538,352.496862 375.701538,352.070708 C375.701538,352.001477 375.689231,351.936093 375.673077,351.873016 L376.779231,350.766093 C377.623077,351.54917 378.532308,352.1284 379.391538,352.463785 L379.37,352.484554 C379.306923,352.4684 379.242308,352.456093 379.173077,352.456093 C378.746923,352.456093 378.401538,352.802246 378.401538,353.2284 C378.401538,353.655323 378.746923,354.000708 379.173077,354.000708 C379.599231,354.000708 379.944615,353.655323 379.944615,353.2284 C379.944615,353.15917 379.933077,353.094554 379.915385,353.030708 L380.228462,352.71917 C381.149231,352.913016 381.953077,352.782246 382.463077,352.271477 C383.163846,351.571477 383.183846,350.246862 382.486154,348.802246 L382.486154,348.802246 Z M381.083077,345.920708 C382.101538,346.93917 382.046923,348.52917 381.514615,349.062246 C381.239231,349.337631 380.956154,349.472246 380.651538,349.472246 C380.114615,349.472246 379.432308,349.075323 378.681538,348.323785 C376.897692,346.5384 377.657692,345.776093 377.944615,345.48917 C378.18,345.254554 378.616154,345.114554 379.114615,345.114554 C379.853077,345.114554 380.572308,345.4084 381.083077,345.920708 L381.083077,345.920708 Z" id="UFO" opacity="0.5" fill="#606C7B" sketch:type="MSShapeGroup"></path>
            <path d="M378.000769,372.0425 C379.728462,372.0425 380.235385,371.5575 380.235385,370.441667 C380.235385,369.71 379.713077,369.251667 379.066154,369.020833 C378.993846,368.445833 378.546923,368 378,368 C377.453077,368 377.005385,368.445 376.933077,369.020833 C376.285385,369.251667 375.763846,369.71 375.763846,370.441667 C375.765385,371.5575 376.273077,372.0425 378.000769,372.0425 L378.000769,372.0425 Z M382.616154,373.380833 L381.005385,373.380833 C381.005385,373.079167 381.000769,372.839167 380.989231,372.6475 C381.526154,372.259167 382.231538,371.406667 382.231538,369.600833 C382.231538,369.369167 382.059231,369.180833 381.846923,369.180833 C381.634615,369.180833 381.462308,369.369167 381.462308,369.600833 C381.462308,371.753333 380.276154,372.115833 380.217692,372.1325 C380.179231,372.1425 380.145385,372.164167 380.113077,372.185833 C379.663077,372.373333 378.994615,372.625 378.000769,372.625 C376.530769,372.625 375.776923,372.053333 375.392308,371.913333 C375.025385,371.624167 374.539231,370.9825 374.539231,369.600833 C374.539231,369.369167 374.366154,369.180833 374.154615,369.180833 C373.942308,369.180833 373.77,369.369167 373.77,369.600833 C373.77,371.398333 374.469231,372.251667 375.004615,372.6425 C374.996923,372.84 374.995385,373.081667 374.995385,373.38 L373.383846,373.38 C373.171538,373.38 373,373.5675 373,373.8 C373,374.031667 373.171538,374.22 373.383846,374.22 L375.073846,374.22 C375.110769,374.424167 375.16,374.624167 375.220769,374.818333 C374.346923,375.138333 373.383077,375.9325 373.383077,377.579167 C373.383077,377.810833 373.556154,377.999167 373.768462,377.999167 C373.980769,377.999167 374.153077,377.810833 374.153077,377.579167 C374.153077,376.258333 374.964615,375.768333 375.543077,375.585 C376.017692,376.481667 376.76,377.169167 377.614615,377.433333 L377.614615,374.219167 C377.614615,372.96 378.383077,372.959167 378.383077,374.219167 L378.383077,377.433333 C379.237692,377.169167 379.977692,376.483333 380.452308,375.588333 C381.026923,375.7725 381.845385,376.263333 381.845385,377.578333 C381.845385,377.81 382.017692,377.998333 382.23,377.998333 C382.441538,377.998333 382.614615,377.81 382.614615,377.578333 C382.614615,375.930833 381.651538,375.136667 380.776923,374.8175 C380.837692,374.623333 380.887692,374.423333 380.924615,374.219167 L382.613846,374.219167 C382.826154,374.219167 382.998462,374.030833 382.998462,373.799167 C383.000769,373.568333 382.828462,373.380833 382.616154,373.380833 L382.616154,373.380833 Z" id="Bug" opacity="0.5" fill="#606C7B" sketch:type="MSShapeGroup"></path>
            <rect id="Rectangle-668" fill="#FFFFFF" sketch:type="MSShapeGroup" x="403" y="341" width="42" height="15" rx="1"></rect>
            <path d="M407,351.999 C407,352.551 407.447,352.998 408,352.998 L415.999,352.998 C416.551,352.998 416.999,352.551 416.999,351.999 L416.999,350.718 L407,350.718 L407,351.999 L407,351.999 L407,351.999 L407,351.999 Z M415.999,345 L413.999,345 L413.999,344 C413.999,343.447 413.552,343 412.999,343 L410.999,343 C410.447,343 409.999,343.447 409.999,344 L409.999,345 L408,345 C407.447,345 407,345.447 407,346 L407,350.155 L410.999,350.155 L410.999,349 L412.999,349 L412.999,350.155 L416.999,350.155 L416.999,346 C416.999,345.447 416.551,345 415.999,345 L415.999,345 L415.999,345 L415.999,345 Z M413.011,345 L410.999,345 L410.999,344.744 C410.999,344.329 411.336,343.992 411.751,343.992 L412.259,343.992 C412.674,343.992 413.011,344.329 413.011,344.744 L413.011,345 L413.011,345 L413.011,345 L413.011,345 Z" id="Shape" fill="#ACB6BF" sketch:type="MSShapeGroup"></path>
            <rect id="Rectangle-516" opacity="0.2" fill="#8F9CAC" sketch:type="MSShapeGroup" x="396" y="335" width="1" height="76"></rect>
            <rect id="Rectangle-516" opacity="0.8" fill="#B9C1CB" sketch:type="MSShapeGroup" x="423" y="347" width="15" height="2"></rect>
            <rect id="Rectangle-516" opacity="0.2" fill="#8F9CAC" sketch:type="MSShapeGroup" transform="translate(444.000000, 360.500000) scale(-1, 1) translate(-444.000000, -360.500000) " x="362" y="360" width="164" height="1"></rect>
            <rect id="Rectangle-668" fill="#CCEEFB" sketch:type="MSShapeGroup" x="403" y="365" width="42" height="15" rx="1"></rect>
            <path d="M407,375.999 C407,376.551 407.447,376.998 408,376.998 L415.999,376.998 C416.551,376.998 416.999,376.551 416.999,375.999 L416.999,374.718 L407,374.718 L407,375.999 L407,375.999 L407,375.999 L407,375.999 Z M415.999,369 L413.999,369 L413.999,368 C413.999,367.447 413.552,367 412.999,367 L410.999,367 C410.447,367 409.999,367.447 409.999,368 L409.999,369 L408,369 C407.447,369 407,369.447 407,370 L407,374.155 L410.999,374.155 L410.999,373 L412.999,373 L412.999,374.155 L416.999,374.155 L416.999,370 C416.999,369.447 416.551,369 415.999,369 L415.999,369 L415.999,369 L415.999,369 Z M413.011,369 L410.999,369 L410.999,368.744 C410.999,368.329 411.336,367.992 411.751,367.992 L412.259,367.992 C412.674,367.992 413.011,368.329 413.011,368.744 L413.011,369 L413.011,369 L413.011,369 L413.011,369 Z" id="Shape" fill="#ACB6BF" sketch:type="MSShapeGroup"></path>
            <rect id="Rectangle-516" opacity="0.8" fill="#B9C1CB" sketch:type="MSShapeGroup" x="423" y="371" width="15" height="2"></rect>
            <rect id="Rectangle-668" fill="#FFFFFF" sketch:type="MSShapeGroup" x="449" y="365" width="42" height="15" rx="1"></rect>
            <path d="M453,375.999 C453,376.551 453.447,376.998 454,376.998 L461.999,376.998 C462.551,376.998 462.999,376.551 462.999,375.999 L462.999,374.718 L453,374.718 L453,375.999 L453,375.999 L453,375.999 L453,375.999 Z M461.999,369 L459.999,369 L459.999,368 C459.999,367.447 459.552,367 458.999,367 L456.999,367 C456.447,367 455.999,367.447 455.999,368 L455.999,369 L454,369 C453.447,369 453,369.447 453,370 L453,374.155 L456.999,374.155 L456.999,373 L458.999,373 L458.999,374.155 L462.999,374.155 L462.999,370 C462.999,369.447 462.551,369 461.999,369 L461.999,369 L461.999,369 L461.999,369 Z M459.011,369 L456.999,369 L456.999,368.744 C456.999,368.329 457.336,367.992 457.751,367.992 L458.259,367.992 C458.674,367.992 459.011,368.329 459.011,368.744 L459.011,369 L459.011,369 L459.011,369 L459.011,369 Z" id="Shape" fill="#ACB6BF" sketch:type="MSShapeGroup"></path>
            <rect id="Rectangle-516" opacity="0.8" fill="#B9C1CB" sketch:type="MSShapeGroup" x="469" y="371" width="15" height="2"></rect>
            <rect id="Rectangle-668" fill="#E1EFCC" sketch:type="MSShapeGroup" x="403" y="384" width="42" height="15" rx="1"></rect>
            <path d="M407,394.999 C407,395.551 407.447,395.998 408,395.998 L415.999,395.998 C416.551,395.998 416.999,395.551 416.999,394.999 L416.999,393.718 L407,393.718 L407,394.999 L407,394.999 L407,394.999 L407,394.999 Z M415.999,388 L413.999,388 L413.999,387 C413.999,386.447 413.552,386 412.999,386 L410.999,386 C410.447,386 409.999,386.447 409.999,387 L409.999,388 L408,388 C407.447,388 407,388.447 407,389 L407,393.155 L410.999,393.155 L410.999,392 L412.999,392 L412.999,393.155 L416.999,393.155 L416.999,389 C416.999,388.447 416.551,388 415.999,388 L415.999,388 L415.999,388 L415.999,388 Z M413.011,388 L410.999,388 L410.999,387.744 C410.999,387.329 411.336,386.992 411.751,386.992 L412.259,386.992 C412.674,386.992 413.011,387.329 413.011,387.744 L413.011,388 L413.011,388 L413.011,388 L413.011,388 Z" id="Shape" fill="#ACB6BF" sketch:type="MSShapeGroup"></path>
            <rect id="Rectangle-516" opacity="0.8" fill="#B9C1CB" sketch:type="MSShapeGroup" x="423" y="390" width="15" height="2"></rect>
            <rect id="Rectangle-668" fill="#FBEAD6" sketch:type="MSShapeGroup" x="449" y="341" width="42" height="15" rx="1"></rect>
            <path d="M453,351.999 C453,352.551 453.447,352.998 454,352.998 L461.999,352.998 C462.551,352.998 462.999,352.551 462.999,351.999 L462.999,350.718 L453,350.718 L453,351.999 L453,351.999 L453,351.999 L453,351.999 Z M461.999,345 L459.999,345 L459.999,344 C459.999,343.447 459.552,343 458.999,343 L456.999,343 C456.447,343 455.999,343.447 455.999,344 L455.999,345 L454,345 C453.447,345 453,345.447 453,346 L453,350.155 L456.999,350.155 L456.999,349 L458.999,349 L458.999,350.155 L462.999,350.155 L462.999,346 C462.999,345.447 462.551,345 461.999,345 L461.999,345 L461.999,345 L461.999,345 Z M459.011,345 L456.999,345 L456.999,344.744 C456.999,344.329 457.336,343.992 457.751,343.992 L458.259,343.992 C458.674,343.992 459.011,344.329 459.011,344.744 L459.011,345 L459.011,345 L459.011,345 L459.011,345 Z" id="Shape" fill="#ACB6BF" sketch:type="MSShapeGroup"></path>
            <rect id="Rectangle-516" opacity="0.8" fill="#B9C1CB" sketch:type="MSShapeGroup" x="469" y="347" width="15" height="2"></rect>
        </g>
    </g>
</svg>