<?xml version="1.0" encoding="UTF-8" standalone="no"?>
<svg width="200px" height="96px" viewBox="0 0 200 96" version="1.1" xmlns="http://www.w3.org/2000/svg" xmlns:xlink="http://www.w3.org/1999/xlink" xmlns:sketch="http://www.bohemiancoding.com/sketch/ns">
    <!-- Generator: Sketch 3.4.2 (15855) - http://www.bohemiancoding.com/sketch -->
    <title>requestsQueue</title>
    <desc>Created with Sketch.</desc>
    <defs>
        <filter x="-50%" y="-50%" width="200%" height="200%" filterUnits="objectBoundingBox" id="filter-1">
            <feOffset dx="0" dy="1" in="SourceAlpha" result="shadowOffsetOuter1"></feOffset>
            <feGaussianBlur stdDeviation="1" in="shadowOffsetOuter1" result="shadowBlurOuter1"></feGaussianBlur>
            <feColorMatrix values="0 0 0 0 0.631372549   0 0 0 0 0.654901961   0 0 0 0 0.701960784  0 0 0 0.7 0" in="shadowBlurOuter1" type="matrix" result="shadowMatrixOuter1"></feColorMatrix>
            <feMerge>
                <feMergeNode in="shadowMatrixOuter1"></feMergeNode>
                <feMergeNode in="SourceGraphic"></feMergeNode>
            </feMerge>
        </filter>
    </defs>
    <g id="Page-1" stroke="none" stroke-width="1" fill="none" fill-rule="evenodd" sketch:type="MSPage">
        <g id="Dashboards-Empty-5" sketch:type="MSArtboardGroup" transform="translate(-1208.000000, -1227.000000)">
            <rect id="Input-2" fill="#FFFFFF" filter="url(#filter-1)" sketch:type="MSShapeGroup" x="1208" y="1227" width="200" height="203"></rect>
            <rect id="Rectangle-907" fill="#F3F5F8" sketch:type="MSShapeGroup" x="1226" y="1243" width="42" height="76" rx="2"></rect>
            <path d="M1267,1244 L1267,1243 L1387.99301,1243 C1389.09795,1243 1390,1243.89263 1390,1244.99375 L1390,1317.00625 C1390,1318.10692 1389.10144,1319 1387.99301,1319 L1267,1319 L1267,1318 L1386.99301,1318 C1388.10144,1318 1389,1317.10427 1389,1316.00153 L1389,1245.99847 C1389,1244.89474 1388.09795,1244 1386.99301,1244 L1267,1244 Z" id="Rectangle-907" fill="#F2F4F7" sketch:type="MSShapeGroup"></path>
            <rect id="Rectangle-575" opacity="0.800000012" fill="#FFC814" sketch:type="MSShapeGroup" x="1233" y="1251" width="22" height="2"></rect>
            <rect id="Rectangle-907" fill="#78BEFF" sketch:type="MSShapeGroup" x="1226" y="1266" width="42" height="8"></rect>
            <rect id="Rectangle-578" opacity="0.800000012" fill="#FFC814" sketch:type="MSShapeGroup" x="1233" y="1260" width="18" height="2"></rect>
            <rect id="Rectangle-588" fill="#FFFFFF" sketch:type="MSShapeGroup" x="1233" y="1269" width="24" height="2"></rect>
            <rect id="Rectangle-590" opacity="0.800000012" fill="#FFC814" sketch:type="MSShapeGroup" x="1233" y="1278" width="16" height="2"></rect>
            <rect id="Rectangle-575" fill="#8F9CAC" sketch:type="MSShapeGroup" x="1279" y="1251" width="52" height="4"></rect>
            <rect id="Rectangle-516" opacity="0.8" fill="#B9C1CB" sketch:type="MSShapeGroup" x="1279" y="1261" width="62" height="2"></rect>
            <rect id="Rectangle-516" opacity="0.8" fill="#B9C1CB" sketch:type="MSShapeGroup" x="1279" y="1265" width="62" height="2"></rect>
            <rect id="Rectangle-516" opacity="0.8" fill="#B9C1CB" sketch:type="MSShapeGroup" x="1279" y="1289" width="62" height="2"></rect>
            <rect id="Rectangle-516" opacity="0.8" fill="#B9C1CB" sketch:type="MSShapeGroup" x="1279" y="1293" width="22" height="2"></rect>
            <rect id="Rectangle-516" opacity="0.8" fill="#B9C1CB" sketch:type="MSShapeGroup" x="1351" y="1251" width="32" height="2"></rect>
            <rect id="Rectangle-516" opacity="0.8" fill="#B9C1CB" sketch:type="MSShapeGroup" x="1351" y="1261" width="8" height="2"></rect>
            <rect id="Rectangle-516" opacity="0.799999952" fill="#A1A7B3" sketch:type="MSShapeGroup" x="1364" y="1261" width="18" height="2"></rect>
            <rect id="Rectangle-516" opacity="0.8" fill="#B9C1CB" sketch:type="MSShapeGroup" x="1351" y="1266" width="11" height="2"></rect>
            <rect id="Rectangle-516" opacity="0.799999952" fill="#A1A7B3" sketch:type="MSShapeGroup" x="1364" y="1266" width="15" height="2"></rect>
            <rect id="Rectangle-516" opacity="0.8" fill="#B9C1CB" sketch:type="MSShapeGroup" x="1351" y="1271" width="10" height="2"></rect>
            <rect id="Rectangle-516" opacity="0.799999952" fill="#A1A7B3" sketch:type="MSShapeGroup" x="1364" y="1271" width="19" height="2"></rect>
            <rect id="Rectangle-516" opacity="0.8" fill="#B9C1CB" sketch:type="MSShapeGroup" x="1351" y="1276" width="11" height="2"></rect>
            <rect id="Rectangle-516" opacity="0.799999952" fill="#A1A7B3" sketch:type="MSShapeGroup" x="1364" y="1276" width="18" height="2"></rect>
            <rect id="Rectangle-516" opacity="0.8" fill="#B9C1CB" sketch:type="MSShapeGroup" x="1351" y="1281" width="10" height="2"></rect>
            <rect id="Rectangle-516" opacity="0.799999952" fill="#A1A7B3" sketch:type="MSShapeGroup" x="1364" y="1281" width="15" height="2"></rect>
            <rect id="Rectangle-516" opacity="0.8" fill="#B9C1CB" sketch:type="MSShapeGroup" x="1279" y="1269" width="62" height="2"></rect>
            <rect id="Rectangle-516" opacity="0.8" fill="#B9C1CB" sketch:type="MSShapeGroup" x="1279" y="1273" width="62" height="2"></rect>
            <rect id="Rectangle-516" opacity="0.8" fill="#B9C1CB" sketch:type="MSShapeGroup" x="1279" y="1277" width="62" height="2"></rect>
            <rect id="Rectangle-516" opacity="0.8" fill="#B9C1CB" sketch:type="MSShapeGroup" x="1279" y="1281" width="62" height="2"></rect>
            <rect id="Rectangle-516" opacity="0.8" fill="#B9C1CB" sketch:type="MSShapeGroup" x="1279" y="1285" width="62" height="2"></rect>
            <rect id="Rectangle-516" opacity="0.8" fill="#74AC6A" sketch:type="MSShapeGroup" x="1351" y="1251" width="12" height="2"></rect>
        </g>
    </g>
</svg>