<?xml version="1.0" encoding="UTF-8" standalone="no"?>
<svg width="200px" height="96px" viewBox="0 0 200 96" version="1.1" xmlns="http://www.w3.org/2000/svg" xmlns:xlink="http://www.w3.org/1999/xlink" xmlns:sketch="http://www.bohemiancoding.com/sketch/ns">
    <!-- Generator: Sketch 3.4.2 (15855) - http://www.bohemiancoding.com/sketch -->
    <title>teamsByProject</title>
    <desc>Created with Sketch.</desc>
    <defs>
        <filter x="-50%" y="-50%" width="200%" height="200%" filterUnits="objectBoundingBox" id="filter-1">
            <feOffset dx="0" dy="1" in="SourceAlpha" result="shadowOffsetOuter1"></feOffset>
            <feGaussianBlur stdDeviation="1" in="shadowOffsetOuter1" result="shadowBlurOuter1"></feGaussianBlur>
            <feColorMatrix values="0 0 0 0 0.631372549   0 0 0 0 0.654901961   0 0 0 0 0.701960784  0 0 0 0.7 0" in="shadowBlurOuter1" type="matrix" result="shadowMatrixOuter1"></feColorMatrix>
            <feMerge>
                <feMergeNode in="shadowMatrixOuter1"></feMergeNode>
                <feMergeNode in="SourceGraphic"></feMergeNode>
            </feMerge>
        </filter>
    </defs>
    <g id="Page-1" stroke="none" stroke-width="1" fill="none" fill-rule="evenodd" sketch:type="MSPage">
        <g id="Dashboards-Empty-5" sketch:type="MSArtboardGroup" transform="translate(-559.000000, -319.000000)">
            <rect id="Input-2" fill="#FFFFFF" filter="url(#filter-1)" sketch:type="MSShapeGroup" x="560" y="319" width="200" height="203"></rect>
            <rect id="Rectangle-907" fill="#F3F5F8" sketch:type="MSShapeGroup" x="578" y="335" width="164" height="76" rx="2"></rect>
            <rect id="Rectangle-516" stroke="#CCEEFB" stroke-width="2" fill="#A1A7B3" sketch:type="MSShapeGroup" x="586" y="341" width="15" height="2"></rect>
            <rect id="Rectangle-668" fill="#FFFFFF" sketch:type="MSShapeGroup" x="584" y="348" width="42" height="15" rx="1"></rect>
            <path d="M598.994692,352.593187 C598.824692,352.182521 597.903153,351.69641 596.768538,352.245521 C596.768538,352.245521 591.057769,355.008187 590.882384,355.092965 C590.708538,355.177743 590.582384,355.082854 590.420846,354.952187 C590.137,354.726632 589.727,354.396854 589.597769,354.288743 C589.395461,354.120743 588.883923,354.228076 589.023923,354.567187 C589.162384,354.905521 589.59623,355.95941 589.760077,356.357632 C590.000846,356.943299 591.260077,356.809521 593.451615,355.750187 C593.651615,355.653743 593.86623,355.549521 594.091615,355.440632 L593.537769,358.637299 C593.46623,358.947632 593.535461,359.033187 593.630077,358.988076 L593.954692,358.830965 C594.123153,358.749299 594.354692,358.459965 594.471615,358.184632 L596.053923,354.472299 C597.648538,353.664187 599.102384,352.855299 598.994692,352.593187 L598.994692,352.593187 Z M591.203153,352.958743 L592.518538,353.826743 L593.97623,353.121299 L592.137,352.506076 C591.870077,352.416632 591.517,352.41041 591.349307,352.491299 L591.023923,352.649187 C590.930077,352.695076 590.941615,352.808632 591.203153,352.958743 L591.203153,352.958743 Z" id="Airplane" opacity="0.5" fill="#606C7B" sketch:type="MSShapeGroup"></path>
            <rect id="Rectangle-516" opacity="0.2" fill="#8F9CAC" sketch:type="MSShapeGroup" x="632" y="335" width="1" height="76"></rect>
            <rect id="Rectangle-516" opacity="0.2" fill="#8F9CAC" sketch:type="MSShapeGroup" x="687" y="335" width="1" height="76"></rect>
            <rect id="Rectangle-516" opacity="0.8" fill="#B9C1CB" sketch:type="MSShapeGroup" x="604" y="354" width="15" height="2"></rect>
            <rect id="Rectangle-516" stroke="#F9D3E4" stroke-width="2" fill="#A1A7B3" sketch:type="MSShapeGroup" x="641" y="341" width="15" height="2"></rect>
            <rect id="Rectangle-516" stroke="#E2EFCD" stroke-width="2" fill="#A1A7B3" sketch:type="MSShapeGroup" x="696" y="341" width="15" height="2"></rect>
            <rect id="Rectangle-668" fill="#FFFFFF" sketch:type="MSShapeGroup" x="584" y="367" width="42" height="15" rx="1"></rect>
            <path d="M594.001032,373 C595.546534,373 596,372.640074 596,371.811998 C596,371.269017 595.532771,370.928881 594.954068,370.757576 C594.889386,370.33086 594.489592,370 594.000344,370 C593.511096,370 593.110614,370.330241 593.045932,370.757576 C592.466541,370.928881 592,371.269017 592,371.811998 C592.001376,372.640074 592.455531,373 594.001032,373 L594.001032,373 Z M597.694089,374.333963 L596.405278,374.333963 C596.405278,374.0945 596.401586,373.903988 596.392353,373.751843 C596.821957,373.443583 597.38635,372.766868 597.38635,371.333396 C597.38635,371.149499 597.248483,371 597.078611,371 C596.908739,371 596.770872,371.149499 596.770872,371.333396 C596.770872,373.042053 595.821805,373.329805 595.775029,373.343035 C595.744255,373.350973 595.717174,373.368172 595.691324,373.385371 C595.33127,373.534209 594.796419,373.733982 594.001222,373.733982 C592.825044,373.733982 592.221875,373.280193 591.914136,373.169061 C591.620553,372.93952 591.231571,372.430164 591.231571,371.333396 C591.231571,371.149499 591.093089,371 590.923832,371 C590.75396,371 590.616093,371.149499 590.616093,371.333396 C590.616093,372.760253 591.175563,373.43763 591.603935,373.747874 C591.597781,373.904649 591.59655,374.096485 591.59655,374.333302 L590.307123,374.333302 C590.137252,374.333302 590,374.482139 590,374.666698 C590,374.850595 590.137252,375.000095 590.307123,375.000095 L591.659328,375.000095 C591.688871,375.162162 591.728262,375.320922 591.776885,375.475052 C591.077702,375.729068 590.306508,376.359478 590.306508,377.666604 C590.306508,377.850501 590.444991,378 590.614862,378 C590.784734,378 590.922601,377.850501 590.922601,377.666604 C590.922601,376.618125 591.571931,376.229163 592.03477,376.083633 C592.41452,376.795407 593.008456,377.341145 593.692252,377.550841 L593.692252,374.999433 C593.692252,373.999905 594.307114,373.999244 594.307114,374.999433 L594.307114,377.550841 C594.99091,377.341145 595.583,376.79673 595.96275,376.086279 C596.422512,376.23247 597.07738,376.622094 597.07738,377.665942 C597.07738,377.849839 597.215247,377.999338 597.385119,377.999338 C597.554376,377.999338 597.692858,377.849839 597.692858,377.665942 C597.692858,376.358155 596.92228,375.727745 596.222482,375.47439 C596.271104,375.320261 596.31111,375.161501 596.340653,374.999433 L597.692243,374.999433 C597.862115,374.999433 597.999982,374.849934 597.999982,374.666037 C598.001828,374.482801 597.863961,374.333963 597.694089,374.333963 L597.694089,374.333963 Z" id="Bug" opacity="0.5" fill="#606C7B" sketch:type="MSShapeGroup"></path>
            <rect id="Rectangle-516" opacity="0.8" fill="#B9C1CB" sketch:type="MSShapeGroup" x="604" y="373" width="15" height="2"></rect>
            <rect id="Rectangle-668" fill="#FFFFFF" sketch:type="MSShapeGroup" x="639" y="348" width="42" height="15" rx="1"></rect>
            <path d="M650,353 C650.551871,353 651,352.552377 651,351.999579 C651,351.447623 650.552721,351 650,351 C649.447279,351 649,351.447623 649,351.999579 C649,352.552377 649.446429,353 650,353 L650,353 Z M648.099611,357 L647.937924,357.951566 C647.937924,357.951566 647.524129,358.783385 647.23907,359.271975 C647.023743,359.6421 646.921827,359.908487 647.06972,359.975724 C647.297308,360.07818 647.60229,359.848934 647.921832,359.427581 C648.458234,358.721271 648.734098,358.367796 648.838313,358.196181 L648.999999,357.747293 C649.000766,357.746652 648.203826,357.301607 648.099611,357 L648.099611,357 Z M651.98337,353.710014 C651.900759,353.536914 651.768081,353.552026 651.624138,353.614534 L651.624138,353.264213 C651.624138,353.155682 651.545283,353.067758 651.447652,353.067758 C651.350021,353.067758 651.270539,353.155682 651.270539,353.264213 L651.270539,353.796564 L650.701025,354.093994 L649.727845,353.305427 C649.704689,353.286194 649.677152,353.277264 649.651492,353.266274 C649.639602,353.255283 649.627711,353.24704 649.613942,353.242919 L648.846037,353.00525 C648.739644,352.972279 648.595701,353.097295 648.568164,353.30474 L648.044337,355.394304 C647.963604,355.82568 647.962352,356.145778 648.308441,356.499534 C648.313448,356.50709 648.314699,356.513959 648.320958,356.521515 L649.625207,357.73871 L649.480638,359.29867 C649.470625,359.683337 649.491903,359.906581 649.711573,359.931996 C649.917474,359.955351 650.008221,359.4807 650.030125,359.360492 C650.030125,359.360492 650.292352,357.866474 650.324896,357.655594 C650.357439,357.444715 650.375589,357.196055 650.234775,357.036693 L649.229677,355.929403 L649.617071,354.164058 L650.373085,354.771282 C650.470716,354.849589 650.622795,354.890803 650.734195,354.837912 C650.734195,354.837912 651.013319,354.6497 651.270539,354.473852 L651.270539,359.803545 C651.270539,359.912076 651.350021,360 651.447652,360 C651.545283,360 651.624138,359.912076 651.624138,359.803545 L651.624138,354.228627 C651.631648,354.223819 651.641036,354.21695 651.647294,354.212828 C651.849441,354.066518 652.0616,353.873497 651.98337,353.710014 L651.98337,353.710014 Z M647.403418,355.60699 C647.47861,355.323115 647.972729,353.532224 647.972729,353.532224 C648.165409,352.763591 647.287273,352.927245 646.901914,353.395716 C646.515883,353.864186 646.072116,354.593263 646.006323,355.141622 C645.945901,355.64577 646.329246,355.826488 646.698492,355.958343 C647.067739,356.090197 647.328897,355.89164 647.403418,355.60699 L647.403418,355.60699 Z" id="Traveler" opacity="0.5" fill="#606C7B" sketch:type="MSShapeGroup"></path>
            <rect id="Rectangle-516" opacity="0.8" fill="#B9C1CB" sketch:type="MSShapeGroup" x="659" y="354" width="15" height="2"></rect>
            <rect id="Rectangle-668" fill="#FFFFFF" sketch:type="MSShapeGroup" x="639" y="367" width="42" height="15" rx="1"></rect>
            <path d="M652.865223,371.7276 C652.865223,371.7276 651.883692,372.712847 651.784,372.813772 C651.682462,372.913466 651.345234,372.903005 651.345234,372.903005 C651.345234,372.903005 650.449855,372.802695 650.320625,372.674078 C650.192011,372.54546 650.10278,371.61129 650.10278,371.61129 C650.10278,371.61129 650.078165,371.350978 650.207395,371.222361 C650.336625,371.093743 651.293542,370.139266 651.293542,370.139266 C651.293542,370.139266 651.416618,370.000802 651.238773,370.000186 C650.664007,369.997725 649.497861,370.011264 648.932942,370.575581 L648.81602,370.691275 C648.148332,371.362056 648.104025,372.371303 648.640636,373.096239 L645.338505,376.078443 C645.075737,376.340601 644.730509,377.053844 645.338505,377.661854 C645.947116,378.269864 646.662188,377.923397 646.92434,377.661854 C646.92434,377.661854 649.087403,375.299353 649.272632,375.09258 C649.457862,374.886423 649.360632,374.669188 649.360632,374.669188 C649.360632,374.669188 648.980326,374.138718 648.775405,373.821174 C648.663405,373.648248 648.716328,373.626094 648.874481,373.727634 C649.311401,374.006408 649.820936,374.326413 649.910166,374.36826 L649.912012,374.367029 C650.635085,374.907961 651.645539,374.866114 652.317535,374.194719 L652.433226,374.078409 C652.980915,373.531938 652.99753,372.377457 652.999992,371.794063 C653.001222,371.607598 652.865223,371.7276 652.865223,371.7276 L652.865223,371.7276 Z M646.499723,377 C646.223575,377 646,376.776484 646,376.499723 C646,376.223516 646.223575,376 646.499723,376 C646.775318,376 647,376.223516 647,376.499723 C647,376.776484 646.775318,377 646.499723,377 L646.499723,377 Z" id="Wrench" opacity="0.5" fill="#606C7B" sketch:type="MSShapeGroup"></path>
            <rect id="Rectangle-516" opacity="0.8" fill="#B9C1CB" sketch:type="MSShapeGroup" x="659" y="373" width="15" height="2"></rect>
            <rect id="Rectangle-668" fill="#FFFFFF" sketch:type="MSShapeGroup" x="584" y="386" width="42" height="15" rx="1"></rect>
            <path d="M597,394.914599 C596.808456,395.321905 596.717456,395.50447 596.471185,395.864176 C596.127551,396.367284 595.642645,396.995114 595.043194,396.999332 C594.509924,397.003549 594.37247,396.664328 593.648293,396.670354 C592.924752,396.673366 592.773298,397.005357 592.239392,396.999934 C591.639941,396.995114 591.18049,396.429344 590.836855,395.926839 C589.875952,394.519343 589.774771,392.868427 590.368494,391.989947 C590.788492,391.366937 591.454124,391.001205 592.07903,391.001205 C592.715389,391.001205 593.115023,391.337413 593.640657,391.337413 C594.151017,391.337413 594.462197,391 595.197829,391 C595.754644,391 596.34264,391.291622 596.762638,391.794127 C595.387464,392.520168 595.610827,394.409081 597,394.914599 L597,394.914599 Z M594.510498,390.349111 C594.828184,389.998725 595.068901,389.504478 594.982122,389 C594.464468,389.030691 593.858526,389.314579 593.504619,389.682867 C593.18467,390.018546 592.919806,390.51663 593.022431,390.999369 C593.58687,391.015354 594.171684,390.725711 594.510498,390.349111 L594.510498,390.349111 Z" id="Apple" opacity="0.5" fill="#606C7B" sketch:type="MSShapeGroup"></path>
            <rect id="Rectangle-516" opacity="0.8" fill="#B9C1CB" sketch:type="MSShapeGroup" x="604" y="392" width="15" height="2"></rect>
            <rect id="Rectangle-668" fill="#FFFFFF" sketch:type="MSShapeGroup" x="694" y="348" width="42" height="15" rx="1"></rect>
            <path d="M706.966738,357.14049 C707.446782,357.192878 707.785969,356.93149 707.835551,356.511837 C707.847383,356.409267 707.784842,356.105418 707.819211,355.812598 C707.852454,355.531359 707.980916,355.2617 707.994439,355.155821 C708.042894,354.735616 707.771883,354.407504 707.291838,354.354013 C706.905324,354.312103 706.18413,354.558049 705.539,354.8244 C706.032567,354.271295 706.536839,353.62665 706.615719,353.227952 C706.71432,352.742676 706.457395,352.374859 706.007212,352.289935 C705.896779,352.26898 705.560974,352.307582 705.247142,352.248577 C704.944015,352.191226 704.662299,352.037923 704.547922,352.016416 C704.094922,351.931493 703.717422,352.180197 703.619385,352.666576 C703.537124,353.082369 703.778273,353.914507 704.032381,354.627532 C703.454299,354.110272 702.744938,353.543933 702.311095,353.451289 C701.816401,353.345962 701.43383,353.584189 701.336356,354.015423 C701.312129,354.12075 701.343118,354.445002 701.274942,354.745542 C701.210148,355.035054 701.046189,355.30361 701.020834,355.412246 C700.923924,355.845134 701.16958,356.214605 701.664274,356.320484 C702.161222,356.425811 703.249773,356.118653 704.043086,355.855611 C703.441904,356.398238 702.653098,357.177989 702.520128,357.645618 C702.388285,358.106631 702.60577,358.480514 703.033415,358.595767 C703.138214,358.624994 703.465005,358.61231 703.762497,358.692822 C704.050974,358.771128 704.310717,358.93932 704.418332,358.969098 C704.847105,359.084352 705.232492,358.872595 705.366026,358.411031 C705.505757,357.924101 705.22066,356.790871 704.99247,356.022149 C705.621824,356.496948 706.490637,357.087551 706.966738,357.14049 L706.966738,357.14049 Z M707.984812,358.362982 C706.292854,357.635957 705,356 705,356 C705.90467,358.098828 707.219909,358.924311 707.473239,358.993952 C707.724931,359.062992 708.077627,358.521475 707.984812,358.362982 L707.984812,358.362982 Z" id="Shamrock" opacity="0.5" fill="#606C7B" sketch:type="MSShapeGroup"></path>
            <rect id="Rectangle-516" opacity="0.8" fill="#B9C1CB" sketch:type="MSShapeGroup" x="714" y="354" width="15" height="2"></rect>
        </g>
    </g>
</svg>