<?xml version="1.0" encoding="UTF-8" standalone="no"?>
<svg width="200px" height="96px" viewBox="0 0 200 96" version="1.1" xmlns="http://www.w3.org/2000/svg" xmlns:xlink="http://www.w3.org/1999/xlink" xmlns:sketch="http://www.bohemiancoding.com/sketch/ns">
    <!-- Generator: Sketch 3.4.2 (15855) - http://www.bohemiancoding.com/sketch -->
    <title>workByTags</title>
    <desc>Created with Sketch.</desc>
    <defs>
        <filter x="-50%" y="-50%" width="200%" height="200%" filterUnits="objectBoundingBox" id="filter-1">
            <feOffset dx="0" dy="1" in="SourceAlpha" result="shadowOffsetOuter1"></feOffset>
            <feGaussianBlur stdDeviation="1" in="shadowOffsetOuter1" result="shadowBlurOuter1"></feGaussianBlur>
            <feColorMatrix values="0 0 0 0 0.631372549   0 0 0 0 0.654901961   0 0 0 0 0.701960784  0 0 0 0.7 0" in="shadowBlurOuter1" type="matrix" result="shadowMatrixOuter1"></feColorMatrix>
            <feMerge>
                <feMergeNode in="shadowMatrixOuter1"></feMergeNode>
                <feMergeNode in="SourceGraphic"></feMergeNode>
            </feMerge>
        </filter>
    </defs>
    <g id="Page-1" stroke="none" stroke-width="1" fill="none" fill-rule="evenodd" sketch:type="MSPage">
        <g id="Dashboards-Empty-5" sketch:type="MSArtboardGroup" transform="translate(-560.000000, -1000.000000)">
            <rect id="Input-2" fill="#FFFFFF" filter="url(#filter-1)" sketch:type="MSShapeGroup" x="560" y="1000" width="200" height="203"></rect>
            <rect id="Rectangle-907" fill="#F3F5F8" sketch:type="MSShapeGroup" x="578" y="1016" width="164" height="76" rx="2"></rect>
            <rect id="Rectangle-598" opacity="0.799999952" fill="#728397" sketch:type="MSShapeGroup" x="586" y="1026" width="18" height="2"></rect>
            <rect id="Rectangle-668" fill="#FFFFFF" sketch:type="MSShapeGroup" x="619" y="1022" width="42" height="15" rx="1"></rect>
            <rect id="Rectangle-516" opacity="0.2" fill="#8F9CAC" sketch:type="MSShapeGroup" x="612" y="1016" width="1" height="76"></rect>
            <rect id="Rectangle-516" opacity="0.8" fill="#B9C1CB" sketch:type="MSShapeGroup" x="626" y="1026" width="30" height="2"></rect>
            <rect id="Rectangle-516" opacity="0.2" fill="#8F9CAC" sketch:type="MSShapeGroup" transform="translate(660.000000, 1041.500000) scale(-1, 1) translate(-660.000000, -1041.500000) " x="578" y="1041" width="164" height="1"></rect>
            <rect id="Rectangle-516" opacity="0.2" fill="#8F9CAC" sketch:type="MSShapeGroup" transform="translate(660.000000, 1065.500000) scale(-1, 1) translate(-660.000000, -1065.500000) " x="578" y="1065" width="164" height="1"></rect>
            <rect id="Rectangle-668" opacity="0.8" fill="#E06661" sketch:type="MSShapeGroup" x="619" y="1022" width="2" height="15" rx="1"></rect>
            <rect id="Rectangle-516" opacity="0.8" fill="#B9C1CB" sketch:type="MSShapeGroup" x="626" y="1029" width="30" height="2"></rect>
            <rect id="Rectangle-668" fill="#FFFFFF" sketch:type="MSShapeGroup" x="665" y="1022" width="42" height="15" rx="1"></rect>
            <rect id="Rectangle-516" opacity="0.8" fill="#B9C1CB" sketch:type="MSShapeGroup" x="672" y="1026" width="30" height="2"></rect>
            <rect id="Rectangle-668" opacity="0.800000012" fill="#FFC814" sketch:type="MSShapeGroup" x="665" y="1022" width="2" height="15" rx="1"></rect>
            <rect id="Rectangle-516" opacity="0.8" fill="#B9C1CB" sketch:type="MSShapeGroup" x="672" y="1029" width="30" height="2"></rect>
            <rect id="Rectangle-598" opacity="0.799999952" fill="#728397" sketch:type="MSShapeGroup" x="586" y="1050" width="18" height="2"></rect>
            <rect id="Rectangle-668" fill="#FFFFFF" sketch:type="MSShapeGroup" x="619" y="1046" width="42" height="15" rx="1"></rect>
            <rect id="Rectangle-516" opacity="0.8" fill="#B9C1CB" sketch:type="MSShapeGroup" x="626" y="1050" width="30" height="2"></rect>
            <rect id="Rectangle-668" opacity="0.6" fill="#288019" sketch:type="MSShapeGroup" x="619" y="1046" width="2" height="15" rx="1"></rect>
            <rect id="Rectangle-516" opacity="0.8" fill="#B9C1CB" sketch:type="MSShapeGroup" x="626" y="1053" width="30" height="2"></rect>
            <rect id="Rectangle-668" fill="#FFFFFF" sketch:type="MSShapeGroup" x="665" y="1046" width="42" height="15" rx="1"></rect>
            <rect id="Rectangle-516" opacity="0.8" fill="#B9C1CB" sketch:type="MSShapeGroup" x="672" y="1050" width="30" height="2"></rect>
            <rect id="Rectangle-668" opacity="0.7" fill="#5A5AB4" sketch:type="MSShapeGroup" x="665" y="1046" width="2" height="15" rx="1"></rect>
            <rect id="Rectangle-516" opacity="0.8" fill="#B9C1CB" sketch:type="MSShapeGroup" x="672" y="1053" width="30" height="2"></rect>
            <rect id="Rectangle-598" opacity="0.799999952" fill="#728397" sketch:type="MSShapeGroup" x="586" y="1074" width="18" height="2"></rect>
            <rect id="Rectangle-668" fill="#FFFFFF" sketch:type="MSShapeGroup" x="619" y="1070" width="42" height="15" rx="1"></rect>
            <rect id="Rectangle-516" opacity="0.8" fill="#B9C1CB" sketch:type="MSShapeGroup" x="626" y="1074" width="30" height="2"></rect>
            <rect id="Rectangle-668" opacity="0.7" fill="#5A5AB4" sketch:type="MSShapeGroup" x="619" y="1070" width="2" height="15" rx="1"></rect>
            <rect id="Rectangle-516" opacity="0.8" fill="#B9C1CB" sketch:type="MSShapeGroup" x="626" y="1077" width="30" height="2"></rect>
        </g>
    </g>
</svg>