<?xml version="1.0" encoding="UTF-8" standalone="no"?>
<svg width="200px" height="96px" viewBox="0 0 200 96" version="1.1" xmlns="http://www.w3.org/2000/svg" xmlns:xlink="http://www.w3.org/1999/xlink" xmlns:sketch="http://www.bohemiancoding.com/sketch/ns">
    <!-- Generator: Sketch 3.4.2 (15855) - http://www.bohemiancoding.com/sketch -->
    <title>workByTeam</title>
    <desc>Created with Sketch.</desc>
    <defs>
        <filter x="-50%" y="-50%" width="200%" height="200%" filterUnits="objectBoundingBox" id="filter-1">
            <feOffset dx="0" dy="1" in="SourceAlpha" result="shadowOffsetOuter1"></feOffset>
            <feGaussianBlur stdDeviation="1" in="shadowOffsetOuter1" result="shadowBlurOuter1"></feGaussianBlur>
            <feColorMatrix values="0 0 0 0 0.631372549   0 0 0 0 0.654901961   0 0 0 0 0.701960784  0 0 0 0.7 0" in="shadowBlurOuter1" type="matrix" result="shadowMatrixOuter1"></feColorMatrix>
            <feMerge>
                <feMergeNode in="shadowMatrixOuter1"></feMergeNode>
                <feMergeNode in="SourceGraphic"></feMergeNode>
            </feMerge>
        </filter>
    </defs>
    <g id="Page-1" stroke="none" stroke-width="1" fill="none" fill-rule="evenodd" sketch:type="MSPage">
        <g id="Dashboards-Empty-5" sketch:type="MSArtboardGroup" transform="translate(-344.000000, -1000.000000)">
            <rect id="Input-2" fill="#FFFFFF" filter="url(#filter-1)" sketch:type="MSShapeGroup" x="344" y="1000" width="200" height="203"></rect>
            <rect id="Rectangle-907" fill="#F3F5F8" sketch:type="MSShapeGroup" x="362" y="1016" width="164" height="76" rx="2"></rect>
            <rect id="Rectangle-516" opacity="0.2" fill="#8F9CAC" sketch:type="MSShapeGroup" x="397" y="1016" width="1" height="76"></rect>
            <rect id="Rectangle-516" opacity="0.2" fill="#8F9CAC" sketch:type="MSShapeGroup" transform="translate(444.000000, 1047.500000) scale(-1, 1) translate(-444.000000, -1047.500000) " x="362" y="1047" width="164" height="1"></rect>
            <rect id="Rectangle-668" opacity="0.8" fill="#569BDA" sketch:type="MSShapeGroup" x="404" y="1033" width="6" height="4" rx="1"></rect>
            <rect id="Rectangle-516" opacity="0.2" fill="#8F9CAC" sketch:type="MSShapeGroup" x="440" y="1016" width="1" height="76"></rect>
            <rect id="Rectangle-516" opacity="0.2" fill="#8F9CAC" sketch:type="MSShapeGroup" x="483" y="1016" width="1" height="76"></rect>
            <rect id="Rectangle-516" opacity="0.2" fill="#8F9CAC" sketch:type="MSShapeGroup" transform="translate(444.000000, 1028.500000) scale(-1, 1) translate(-444.000000, -1028.500000) " x="362" y="1028" width="164" height="1"></rect>
            <rect id="Rectangle-598" opacity="0.799999952" fill="#728397" sketch:type="MSShapeGroup" x="404" y="1022" width="18" height="2"></rect>
            <rect id="Rectangle-668" opacity="0.8" fill="#569BDA" sketch:type="MSShapeGroup" x="412" y="1033" width="6" height="4" rx="1"></rect>
            <rect id="Rectangle-668" opacity="0.8" fill="#569BDA" sketch:type="MSShapeGroup" x="420" y="1033" width="6" height="4" rx="1"></rect>
            <rect id="Rectangle-668" opacity="0.8" fill="#E06661" sketch:type="MSShapeGroup" x="404" y="1039" width="6" height="4" rx="1"></rect>
            <rect id="Rectangle-668" opacity="0.8" fill="#569BDA" sketch:type="MSShapeGroup" x="412" y="1039" width="6" height="4" rx="1"></rect>
            <rect id="Rectangle-668" opacity="0.8" fill="#E06661" sketch:type="MSShapeGroup" x="428" y="1033" width="6" height="4" rx="1"></rect>
            <rect id="Rectangle-668" opacity="0.8" fill="#569BDA" sketch:type="MSShapeGroup" x="420" y="1039" width="6" height="4" rx="1"></rect>
            <rect id="Rectangle-668" opacity="0.8" fill="#E06661" sketch:type="MSShapeGroup" x="447" y="1033" width="6" height="4" rx="1"></rect>
            <rect id="Rectangle-598" opacity="0.799999952" fill="#728397" sketch:type="MSShapeGroup" x="447" y="1022" width="18" height="2"></rect>
            <rect id="Rectangle-668" opacity="0.8" fill="#569BDA" sketch:type="MSShapeGroup" x="455" y="1033" width="6" height="4" rx="1"></rect>
            <rect id="Rectangle-668" opacity="0.6" fill="#C7CED6" sketch:type="MSShapeGroup" x="490" y="1033" width="6" height="4" rx="1"></rect>
            <rect id="Rectangle-598" opacity="0.799999952" fill="#728397" sketch:type="MSShapeGroup" x="490" y="1022" width="18" height="2"></rect>
            <rect id="Rectangle-516" opacity="0.2" fill="#8F9CAC" sketch:type="MSShapeGroup" transform="translate(444.000000, 1066.500000) scale(-1, 1) translate(-444.000000, -1066.500000) " x="362" y="1066" width="164" height="1"></rect>
            <rect id="Rectangle-668" opacity="0.8" fill="#E06661" sketch:type="MSShapeGroup" x="404" y="1052" width="6" height="4" rx="1"></rect>
            <rect id="Rectangle-668" opacity="0.8" fill="#569BDA" sketch:type="MSShapeGroup" x="412" y="1052" width="6" height="4" rx="1"></rect>
            <rect id="Rectangle-668" opacity="0.8" fill="#569BDA" sketch:type="MSShapeGroup" x="420" y="1052" width="6" height="4" rx="1"></rect>
            <rect id="Rectangle-668" opacity="0.8" fill="#569BDA" sketch:type="MSShapeGroup" x="447" y="1052" width="6" height="4" rx="1"></rect>
            <rect id="Rectangle-668" opacity="0.8" fill="#E06661" sketch:type="MSShapeGroup" x="455" y="1052" width="6" height="4" rx="1"></rect>
            <rect id="Rectangle-668" opacity="0.8" fill="#569BDA" sketch:type="MSShapeGroup" x="404" y="1071" width="6" height="4" rx="1"></rect>
            <rect id="Rectangle-668" opacity="0.8" fill="#E06661" sketch:type="MSShapeGroup" x="412" y="1071" width="6" height="4" rx="1"></rect>
            <rect id="Rectangle-668" opacity="0.8" fill="#569BDA" sketch:type="MSShapeGroup" x="447" y="1071" width="6" height="4" rx="1"></rect>
            <rect id="Rectangle-668" opacity="0.6" fill="#C7CED6" sketch:type="MSShapeGroup" x="498" y="1033" width="6" height="4" rx="1"></rect>
            <rect id="Rectangle-668" opacity="0.6" fill="#C7CED6" sketch:type="MSShapeGroup" x="506" y="1033" width="6" height="4" rx="1"></rect>
            <rect id="Rectangle-668" opacity="0.6" fill="#C7CED6" sketch:type="MSShapeGroup" x="514" y="1033" width="6" height="4" rx="1"></rect>
            <rect id="Rectangle-668" opacity="0.6" fill="#C7CED6" sketch:type="MSShapeGroup" x="490" y="1052" width="6" height="4" rx="1"></rect>
            <rect id="Rectangle-668" opacity="0.6" fill="#C7CED6" sketch:type="MSShapeGroup" x="498" y="1052" width="6" height="4" rx="1"></rect>
            <rect id="Rectangle-668" opacity="0.6" fill="#C7CED6" sketch:type="MSShapeGroup" x="490" y="1071" width="6" height="4" rx="1"></rect>
            <path d="M384.486154,1037.80225 C384.809231,1036.80148 384.575385,1035.37378 383.603846,1034.40071 C382.900769,1033.69763 381.959231,1033.37917 381.114615,1033.37917 C380.776154,1033.37917 380.453846,1033.42994 380.166923,1033.52763 C378.710769,1032.80609 377.436154,1032.8384 376.735385,1033.53994 C376.226923,1034.04763 376.095385,1034.84686 376.286154,1035.76532 L375.97,1036.08225 C375.906154,1036.06532 375.840769,1036.05378 375.772308,1036.05378 C375.346154,1036.05378 375,1036.39917 375,1036.82532 C375,1037.25148 375.346154,1037.59763 375.772308,1037.59763 C376.198462,1037.59763 376.543077,1037.25148 376.543077,1036.82532 C376.543077,1036.75686 376.532308,1036.69071 376.514615,1036.62763 L376.538462,1036.60378 C376.873846,1037.46302 377.451538,1038.37532 378.233846,1039.21994 L377.126923,1040.32686 C377.063846,1040.31071 376.997692,1040.2984 376.93,1040.2984 C376.503846,1040.2984 376.157692,1040.64455 376.157692,1041.07071 C376.157692,1041.49686 376.503846,1041.84225 376.93,1041.84225 C377.356923,1041.84225 377.701538,1041.49686 377.701538,1041.07071 C377.701538,1041.00148 377.689231,1040.93609 377.673077,1040.87302 L378.779231,1039.76609 C379.623077,1040.54917 380.532308,1041.1284 381.391538,1041.46378 L381.37,1041.48455 C381.306923,1041.4684 381.242308,1041.45609 381.173077,1041.45609 C380.746923,1041.45609 380.401538,1041.80225 380.401538,1042.2284 C380.401538,1042.65532 380.746923,1043.00071 381.173077,1043.00071 C381.599231,1043.00071 381.944615,1042.65532 381.944615,1042.2284 C381.944615,1042.15917 381.933077,1042.09455 381.915385,1042.03071 L382.228462,1041.71917 C383.149231,1041.91302 383.953077,1041.78225 384.463077,1041.27148 C385.163846,1040.57148 385.183846,1039.24686 384.486154,1037.80225 L384.486154,1037.80225 Z M383.083077,1034.92071 C384.101538,1035.93917 384.046923,1037.52917 383.514615,1038.06225 C383.239231,1038.33763 382.956154,1038.47225 382.651538,1038.47225 C382.114615,1038.47225 381.432308,1038.07532 380.681538,1037.32378 C378.897692,1035.5384 379.657692,1034.77609 379.944615,1034.48917 C380.18,1034.25455 380.616154,1034.11455 381.114615,1034.11455 C381.853077,1034.11455 382.572308,1034.4084 383.083077,1034.92071 L383.083077,1034.92071 Z" id="UFO" opacity="0.5" fill="#606C7B" sketch:type="MSShapeGroup"></path>
            <path d="M380.000769,1056.0425 C381.728462,1056.0425 382.235385,1055.5575 382.235385,1054.44167 C382.235385,1053.71 381.713077,1053.25167 381.066154,1053.02083 C380.993846,1052.44583 380.546923,1052 380,1052 C379.453077,1052 379.005385,1052.445 378.933077,1053.02083 C378.285385,1053.25167 377.763846,1053.71 377.763846,1054.44167 C377.765385,1055.5575 378.273077,1056.0425 380.000769,1056.0425 L380.000769,1056.0425 Z M384.616154,1057.38083 L383.005385,1057.38083 C383.005385,1057.07917 383.000769,1056.83917 382.989231,1056.6475 C383.526154,1056.25917 384.231538,1055.40667 384.231538,1053.60083 C384.231538,1053.36917 384.059231,1053.18083 383.846923,1053.18083 C383.634615,1053.18083 383.462308,1053.36917 383.462308,1053.60083 C383.462308,1055.75333 382.276154,1056.11583 382.217692,1056.1325 C382.179231,1056.1425 382.145385,1056.16417 382.113077,1056.18583 C381.663077,1056.37333 380.994615,1056.625 380.000769,1056.625 C378.530769,1056.625 377.776923,1056.05333 377.392308,1055.91333 C377.025385,1055.62417 376.539231,1054.9825 376.539231,1053.60083 C376.539231,1053.36917 376.366154,1053.18083 376.154615,1053.18083 C375.942308,1053.18083 375.77,1053.36917 375.77,1053.60083 C375.77,1055.39833 376.469231,1056.25167 377.004615,1056.6425 C376.996923,1056.84 376.995385,1057.08167 376.995385,1057.38 L375.383846,1057.38 C375.171538,1057.38 375,1057.5675 375,1057.8 C375,1058.03167 375.171538,1058.22 375.383846,1058.22 L377.073846,1058.22 C377.110769,1058.42417 377.16,1058.62417 377.220769,1058.81833 C376.346923,1059.13833 375.383077,1059.9325 375.383077,1061.57917 C375.383077,1061.81083 375.556154,1061.99917 375.768462,1061.99917 C375.980769,1061.99917 376.153077,1061.81083 376.153077,1061.57917 C376.153077,1060.25833 376.964615,1059.76833 377.543077,1059.585 C378.017692,1060.48167 378.76,1061.16917 379.614615,1061.43333 L379.614615,1058.21917 C379.614615,1056.96 380.383077,1056.95917 380.383077,1058.21917 L380.383077,1061.43333 C381.237692,1061.16917 381.977692,1060.48333 382.452308,1059.58833 C383.026923,1059.7725 383.845385,1060.26333 383.845385,1061.57833 C383.845385,1061.81 384.017692,1061.99833 384.23,1061.99833 C384.441538,1061.99833 384.614615,1061.81 384.614615,1061.57833 C384.614615,1059.93083 383.651538,1059.13667 382.776923,1058.8175 C382.837692,1058.62333 382.887692,1058.42333 382.924615,1058.21917 L384.613846,1058.21917 C384.826154,1058.21917 384.998462,1058.03083 384.998462,1057.79917 C385.000769,1057.56833 384.828462,1057.38083 384.616154,1057.38083 L384.616154,1057.38083 Z" id="Bug" opacity="0.5" fill="#606C7B" sketch:type="MSShapeGroup"></path>
            <path d="M384.994692,1071.59319 C384.824692,1071.18252 383.903153,1070.69641 382.768538,1071.24552 C382.768538,1071.24552 377.057769,1074.00819 376.882384,1074.09297 C376.708538,1074.17774 376.582384,1074.08285 376.420846,1073.95219 C376.137,1073.72663 375.727,1073.39685 375.597769,1073.28874 C375.395461,1073.12074 374.883923,1073.22808 375.023923,1073.56719 C375.162384,1073.90552 375.59623,1074.95941 375.760077,1075.35763 C376.000846,1075.9433 377.260077,1075.80952 379.451615,1074.75019 C379.651615,1074.65374 379.86623,1074.54952 380.091615,1074.44063 L379.537769,1077.6373 C379.46623,1077.94763 379.535461,1078.03319 379.630077,1077.98808 L379.954692,1077.83097 C380.123153,1077.7493 380.354692,1077.45997 380.471615,1077.18463 L382.053923,1073.4723 C383.648538,1072.66419 385.102384,1071.8553 384.994692,1071.59319 L384.994692,1071.59319 Z M377.203153,1071.95874 L378.518538,1072.82674 L379.97623,1072.1213 L378.137,1071.50608 C377.870077,1071.41663 377.517,1071.41041 377.349307,1071.4913 L377.023923,1071.64919 C376.930077,1071.69508 376.941615,1071.80863 377.203153,1071.95874 L377.203153,1071.95874 Z" id="Airplane" opacity="0.5" fill="#606C7B" sketch:type="MSShapeGroup"></path>
        </g>
    </g>
</svg>