<?xml version="1.0" encoding="UTF-8" standalone="no"?>
<svg width="200px" height="96px" viewBox="0 0 200 96" version="1.1" xmlns="http://www.w3.org/2000/svg" xmlns:xlink="http://www.w3.org/1999/xlink">
    <!-- Generator: Sketch 39 (31667) - http://www.bohemiancoding.com/sketch -->
    <title>workByPerson</title>
    <desc>Created with Sketch.</desc>
    <defs>
        <rect id="path-1" x="0" y="0" width="200" height="203"></rect>
        <filter x="-50%" y="-50%" width="200%" height="200%" filterUnits="objectBoundingBox" id="filter-2">
            <feOffset dx="0" dy="1" in="SourceAlpha" result="shadowOffsetOuter1"></feOffset>
            <feGaussianBlur stdDeviation="1" in="shadowOffsetOuter1" result="shadowBlurOuter1"></feGaussianBlur>
            <feColorMatrix values="0 0 0 0 0.631372549   0 0 0 0 0.654901961   0 0 0 0 0.701960784  0 0 0 1 0" type="matrix" in="shadowBlurOuter1"></feColorMatrix>
        </filter>
    </defs>
    <g id="Page-1" stroke="none" stroke-width="1" fill="none" fill-rule="evenodd">
        <g id="Timelines" transform="translate(-576.000000, -90.000000)">
            <g id="Work-by-Person" transform="translate(576.000000, 90.000000)">
                <g id="Input-2">
                    <use fill="black" fill-opacity="1" filter="url(#filter-2)" xlink:href="#path-1"></use>
                    <use fill="#FFFFFF" fill-rule="evenodd" xlink:href="#path-1"></use>
                </g>
                <rect id="Rectangle-907" fill="#F3F5F8" x="18" y="16" width="164" height="76" rx="2"></rect>
            </g>
            <rect id="Rectangle-516" fill="#8F9CAC" opacity="0.2" transform="translate(676.000000, 131.500000) scale(-1, 1) translate(-676.000000, -131.500000) " x="594" y="131" width="164" height="1"></rect>
            <rect id="Rectangle-598" fill="#B9C1CB" opacity="0.8" x="611" y="137" width="12" height="2"></rect>
            <rect id="Rectangle-516" fill="#8F9CAC" opacity="0.2" transform="translate(676.000000, 155.500000) scale(-1, 1) translate(-676.000000, -155.500000) " x="594" y="155" width="164" height="1"></rect>
            <path d="M599,143.5 L599,142.7396 C599,142.7396 599.049494,142.272411 599.61192,142.12768 C599.61192,142.12768 600.517801,141.796973 601.227208,141.487264 C601.59391,141.327535 601.6734,141.232297 602.043101,141.068069 C602.043101,141.068069 602.082096,140.877594 602.067848,140.765108 L602.35731,140.765108 C602.35731,140.765108 602.423301,140.803353 602.35731,140.356412 C602.35731,140.356412 602.004856,140.263424 601.988358,139.552517 C601.988358,139.552517 601.722893,139.641756 601.707145,139.210562 C601.695897,138.918101 601.470176,138.664634 601.794884,138.455411 L601.629905,138.00847 C601.629905,138.00847 601.299199,136.205706 602.250074,136.469672 C601.848877,135.989734 604.524526,135.510547 604.698503,137.032098 C604.698503,137.032098 604.822237,137.85399 604.698503,138.415666 C604.698503,138.415666 605.089202,138.370672 604.827486,139.121324 C604.827486,139.121324 604.684255,139.662003 604.463784,139.540519 C604.463784,139.540519 604.499779,140.224429 604.151825,140.339914 C604.151825,140.339914 604.176571,140.704366 604.176571,140.729113 L604.507278,140.778607 C604.507278,140.778607 604.457785,141.076318 604.515527,141.108563 C604.515527,141.108563 604.907726,141.377778 605.375664,141.498512 C606.277046,141.730232 607.344156,142.12693 607.344156,142.474134 C607.344156,142.474134 607.434894,142.936824 607.434894,143.49925 L599,143.49925 L599,143.49925 L599,143.5 L599,143.5 Z" id="Shape" fill="#ACB6BF"></path>
            <rect id="Rectangle-598" fill="#B9C1CB" opacity="0.8" x="611" y="140" width="8" height="2"></rect>
            <rect id="Rectangle-598" fill="#B9C1CB" opacity="0.8" x="611" y="111" width="12" height="2"></rect>
            <path d="M599,117.5 L599,116.7396 C599,116.7396 599.049494,116.272411 599.61192,116.12768 C599.61192,116.12768 600.517801,115.796973 601.227208,115.487264 C601.59391,115.327535 601.6734,115.232297 602.043101,115.068069 C602.043101,115.068069 602.082096,114.877594 602.067848,114.765108 L602.35731,114.765108 C602.35731,114.765108 602.423301,114.803353 602.35731,114.356412 C602.35731,114.356412 602.004856,114.263424 601.988358,113.552517 C601.988358,113.552517 601.722893,113.641756 601.707145,113.210562 C601.695897,112.918101 601.470176,112.664634 601.794884,112.455411 L601.629905,112.00847 C601.629905,112.00847 601.299199,110.205706 602.250074,110.469672 C601.848877,109.989734 604.524526,109.510547 604.698503,111.032098 C604.698503,111.032098 604.822237,111.85399 604.698503,112.415666 C604.698503,112.415666 605.089202,112.370672 604.827486,113.121324 C604.827486,113.121324 604.684255,113.662003 604.463784,113.540519 C604.463784,113.540519 604.499779,114.224429 604.151825,114.339914 C604.151825,114.339914 604.176571,114.704366 604.176571,114.729113 L604.507278,114.778607 C604.507278,114.778607 604.457785,115.076318 604.515527,115.108563 C604.515527,115.108563 604.907726,115.377778 605.375664,115.498512 C606.277046,115.730232 607.344156,116.12693 607.344156,116.474134 C607.344156,116.474134 607.434894,116.936824 607.434894,117.49925 L599,117.49925 L599,117.49925 L599,117.5 L599,117.5 Z" id="Shape" fill="#ACB6BF"></path>
            <rect id="Rectangle-598" fill="#B9C1CB" opacity="0.8" x="611" y="114" width="8" height="2"></rect>
            <rect id="Rectangle-598" fill="#B9C1CB" opacity="0.8" x="611" y="161" width="12" height="2"></rect>
            <path d="M599,167.5 L599,166.7396 C599,166.7396 599.049494,166.272411 599.61192,166.12768 C599.61192,166.12768 600.517801,165.796973 601.227208,165.487264 C601.59391,165.327535 601.6734,165.232297 602.043101,165.068069 C602.043101,165.068069 602.082096,164.877594 602.067848,164.765108 L602.35731,164.765108 C602.35731,164.765108 602.423301,164.803353 602.35731,164.356412 C602.35731,164.356412 602.004856,164.263424 601.988358,163.552517 C601.988358,163.552517 601.722893,163.641756 601.707145,163.210562 C601.695897,162.918101 601.470176,162.664634 601.794884,162.455411 L601.629905,162.00847 C601.629905,162.00847 601.299199,160.205706 602.250074,160.469672 C601.848877,159.989734 604.524526,159.510547 604.698503,161.032098 C604.698503,161.032098 604.822237,161.85399 604.698503,162.415666 C604.698503,162.415666 605.089202,162.370672 604.827486,163.121324 C604.827486,163.121324 604.684255,163.662003 604.463784,163.540519 C604.463784,163.540519 604.499779,164.224429 604.151825,164.339914 C604.151825,164.339914 604.176571,164.704366 604.176571,164.729113 L604.507278,164.778607 C604.507278,164.778607 604.457785,165.076318 604.515527,165.108563 C604.515527,165.108563 604.907726,165.377778 605.375664,165.498512 C606.277046,165.730232 607.344156,166.12693 607.344156,166.474134 C607.344156,166.474134 607.434894,166.936824 607.434894,167.49925 L599,167.49925 L599,167.49925 L599,167.5 L599,167.5 Z" id="Shape" fill="#ACB6BF"></path>
            <rect id="Rectangle-598" fill="#B9C1CB" opacity="0.8" x="611" y="164" width="8" height="2"></rect>
            <rect id="Rectangle-668" fill="#E06661" opacity="0.8" x="632" y="110" width="30" height="4" rx="1"></rect>
            <rect id="Rectangle-668" fill="#78AFE1" opacity="0.8" x="659" y="116" width="41" height="4" rx="1"></rect>
            <rect id="Rectangle-668" fill="#E06661" opacity="0.8" x="681" y="110" width="30" height="4" rx="1"></rect>
            <rect id="Rectangle-668" fill="#78AFE1" opacity="0.8" x="713" y="110" width="30" height="4" rx="1"></rect>
            <rect id="Rectangle-668" fill="#78AFE1" opacity="0.8" x="632" y="136" width="41" height="4" rx="1"></rect>
            <rect id="Rectangle-668" fill="#E06661" opacity="0.8" x="664" y="142" width="30" height="4" rx="1"></rect>
            <rect id="Rectangle-668" fill="#78AFE1" opacity="0.8" x="696" y="136" width="30" height="4" rx="1"></rect>
            <rect id="Rectangle-668" fill="#78AFE1" opacity="0.8" x="632" y="166" width="41" height="4" rx="1"></rect>
            <rect id="Rectangle-668" fill="#E06661" opacity="0.8" x="675" y="166" width="41" height="4" rx="1"></rect>
            <rect id="Rectangle-668" fill="#78AFE1" opacity="0.8" x="711" y="160" width="30" height="4" rx="1"></rect>
            <rect id="Rectangle-668" fill="#E06661" opacity="0.8" x="664" y="160" width="30" height="4" rx="1"></rect>
            <rect id="Rectangle-516" fill="#8F9CAC" opacity="0.2" x="628" y="106" width="1" height="76"></rect>
            <rect id="Rectangle-516" fill="#8EBA3E" x="699" y="106" width="1" height="76"></rect>
        </g>
    </g>
</svg>