<?xml version="1.0" encoding="utf-8"?>
<!-- Generator: Adobe Illustrator 20.0.0, SVG Export Plug-In . SVG Version: 6.00 Build 0)  -->
<svg version="1.1" id="Layer_1" xmlns="http://www.w3.org/2000/svg" xmlns:xlink="http://www.w3.org/1999/xlink" x="0px" y="0px"
	 viewBox="0 0 162.2 32.7" style="enable-background:new 0 0 162.2 32.7;" xml:space="preserve">
<style type="text/css">
	.st0{fill:#649791;}
	.st1{fill:#F0C500;}
	.st2{fill:#A2163B;}
	.st3{fill:#91BEAF;}
	.st4{fill:#4A625A;}
	.st5{fill:#B9BC63;}
	.st6{fill:#1D1D1B;}
</style>
<title>Asset 1</title>
<g id="Layer_2">
	<g id="Layer_1-2">
		<path class="st0" d="M160.9,8c-0.3,0-0.6-0.1-0.8-0.3l-6.4-5.4c-0.6-0.5-0.6-1.3-0.2-1.8c0.5-0.6,1.3-0.6,1.8-0.2l6.4,5.4
			c0.6,0.5,0.6,1.3,0.2,1.8C161.7,7.8,161.3,8,160.9,8z"/>
		<path class="st1" d="M151.5,19.1c-0.7,0-1.3-0.6-1.3-1.3c0-0.5,0.3-1,0.9-1.2l8-2.9c0.7-0.2,1.4,0.1,1.7,0.8
			c0.2,0.7-0.1,1.4-0.8,1.7l0,0l-8,2.9C151.8,19.1,151.6,19.1,151.5,19.1z"/>
		<path class="st2" d="M145.1,13.8h-0.2c-0.7-0.1-1.2-0.8-1.1-1.5l1.5-8.3c0.1-0.7,0.8-1.2,1.5-1c0.7,0.1,1.1,0.8,1,1.5l-1.5,8.3
			C146.3,13.4,145.8,13.8,145.1,13.8z"/>
		<path class="st3" d="M151.9,14.4c-0.3,0-0.6-0.1-0.8-0.3l-2.1-1.8c-0.6-0.5-0.6-1.3-0.2-1.8c0.5-0.6,1.3-0.6,1.8-0.2l0,0l2.1,1.8
			c0.6,0.5,0.6,1.3,0.2,1.8C152.7,14.2,152.3,14.4,151.9,14.4z"/>
		<path class="st4" d="M156.2,12.6H156c-0.7-0.1-1.2-0.8-1.1-1.5c0,0,0,0,0,0l0.5-2.8c0.1-0.7,0.7-1.2,1.4-1.1
			c0.7,0.1,1.2,0.7,1.1,1.4c0,0,0,0.1,0,0.1l-0.5,2.8C157.4,12.2,156.9,12.6,156.2,12.6z"/>
		<path class="st5" d="M150.4,8.1c-0.7,0-1.3-0.6-1.3-1.3c0-0.5,0.3-1,0.9-1.2l2.6-1c0.7-0.2,1.4,0.1,1.7,0.8
			c0.2,0.7-0.1,1.4-0.8,1.7l-2.6,1C150.7,8,150.5,8.1,150.4,8.1z"/>
		<path class="st6" d="M8,17.8c-0.1-0.1-0.3-0.2-0.5-0.2H3.3l0.5-2.7c0-0.2,0-0.4-0.1-0.5c-0.2-0.2-0.5-0.3-0.7-0.2
			c-0.3,0-1,0-1.1,0.6l-1.6,9.1c-0.3,1.4-0.4,2.9,0.5,4c0.8,0.9,2,1.3,3.2,1.2c0.9,0,1.8-0.2,2.5-0.6c0.2-0.3,0.3-0.7,0.2-1
			C6.6,27.2,6.3,27,5.9,27c-0.1,0-0.3,0-0.4,0.1c-0.5,0.2-0.9,0.3-1.4,0.3c-0.7,0.1-1.3-0.1-1.8-0.6c-0.4-0.5-0.5-1.3-0.2-2.7
			l0.8-4.7h4.4c0.3,0,0.7-0.1,0.8-0.8C8.2,18.3,8.2,18,8,17.8z"/>
		<path class="st6" d="M13.1,29.1c-1.3,0.1-2.6-0.3-3.5-1.3c-0.6-0.8-0.8-1.8-0.6-2.7c0.4-2.5,2.4-3.9,5.3-3.9
			c0.9,0,1.8,0.1,2.6,0.3c0.1-0.6,0-1.2-0.4-1.8c-0.5-0.4-1.1-0.6-1.8-0.6c-1,0-1.9,0.2-2.9,0.4c-0.5,0.1-0.7,0-0.8-0.2
			C11,19.3,11,19,11.1,18.7c0.1-0.3,0.1-0.7,0.6-0.8c1.1-0.3,2.3-0.5,3.4-0.5c1.2-0.1,2.4,0.4,3.2,1.2l0,0c0.9,1.1,0.8,2.5,0.5,4
			l-0.3,1.4c-0.1,1.5-0.8,2.9-1.9,3.9C15.6,28.8,14.4,29.2,13.1,29.1z M14.2,23.1c-1.9,0-2.9,0.7-3.2,2.2c-0.1,0.5,0,1,0.3,1.4
			c0.6,0.5,1.3,0.7,2.1,0.6c2.3,0,2.9-1.2,3.3-3.4l0.1-0.6C15.9,23.1,15,23.1,14.2,23.1L14.2,23.1z"/>
		<path class="st6" d="M21.1,29c-0.3,0-0.5,0-0.7-0.2c-0.1-0.1-0.2-0.3-0.1-0.5l0.9-5.2c0.1-0.7,0.3-1.4,0.5-2.1
			c0.6-2.2,2.7-3.7,5.1-3.6c0.7,0,1.5,0.1,2.1,0.4c0.4,0.1,0.5,0.5,0.4,0.9c0,0,0,0,0,0c-0.1,0.4-0.4,0.9-1,0.9
			c-0.1,0-0.3,0-0.4-0.1c-0.4-0.2-0.9-0.3-1.4-0.3c-2.5,0-3,1.6-3.5,4.1l-0.9,5.1C22,29,21.4,29,21.1,29z"/>
		<path class="st6" d="M33.5,32.7c-1.3,0-2.6-0.4-3.7-1c-0.2-0.1-0.4-0.4-0.4-0.6c0-0.2,0-0.3,0.1-0.5c0.2-0.4,0.6-0.6,1-0.6
			c0.1,0,0.3,0,0.4,0.1c0.9,0.5,1.8,0.8,2.8,0.8c2.1,0,2.8-1,3.2-3c-2.6,1-4.6,0.6-5.7-0.5c-0.7-0.7-1-1.7-0.9-2.7
			c0-0.6,0.1-1.2,0.2-1.9c0.1-0.6,0.2-1.2,0.4-1.8c0.7-2.3,2.8-3.8,5.2-3.7c1.2-0.1,2.4,0.4,3.2,1.2l0,0c0.9,1.1,0.8,2.5,0.5,3.9
			l-0.9,5.1c-0.1,1.5-0.8,2.9-1.8,3.9C36,32.3,34.8,32.7,33.5,32.7z M35.9,19.2c-2.3,0-3,1.4-3.5,3.8c-0.2,1.2-0.3,2.5,0.2,3.1
			c0.5,0.5,1.2,0.7,1.8,0.6c1,0,1.9-0.3,2.8-0.7l0.6-3.6c0.2-1.4,0.2-2.2-0.2-2.6C37.2,19.4,36.6,19.1,35.9,19.2z"/>
		<path class="st6" d="M45.8,29.1c-1.1,0.1-2.3-0.3-3.1-1.1c-0.6-0.7-1-1.6-0.9-2.6c0-0.7,0.1-1.5,0.3-2.2c0.1-0.7,0.3-1.5,0.5-2.2
			c0.7-2.2,2.8-3.7,5.2-3.6c1.1-0.1,2.3,0.3,3.1,1.1c0.6,0.7,1,1.6,0.9,2.6c0,0.2,0,0.3,0,0.5C51.6,23,50.3,24,48.9,24H44
			c-0.2,1.3-0.2,2.2,0.3,2.8c0.5,0.5,1.2,0.7,1.9,0.6c1.1-0.1,2.1-0.3,3.1-0.8l0,0c0.1-0.1,0.3-0.1,0.4-0.1c0.6,0,0.7,0.4,0.8,0.8
			s-0.4,0.8-0.6,0.9C48.6,28.8,47.2,29.1,45.8,29.1z M44.3,22.2h4.8c0.3,0,0.6-0.1,0.7-0.7c0.1-0.5,0-1.1-0.3-1.6
			c-0.5-0.5-1.2-0.8-1.9-0.7C45.5,19.2,44.7,20.3,44.3,22.2z"/>
		<path class="st6" d="M63.3,32.6c-0.3,0-0.5,0-0.7-0.2c-0.1-0.1-0.2-0.3-0.1-0.5L64,23c0.1-0.7,0.3-1.3,0.5-2
			c0.7-2.2,2.8-3.7,5.2-3.6c1.1-0.1,2.2,0.3,3.1,1.1c0.6,0.7,1,1.7,0.9,2.6c0,0.7-0.1,1.5-0.3,2.2c-0.1,0.7-0.3,1.5-0.5,2.2l0,0
			c-0.7,2.2-2.8,3.7-5.1,3.6c-0.9,0-1.9-0.2-2.7-0.6L64.4,32C64.3,32.6,63.6,32.6,63.3,32.6z M65.3,26.6c0.8,0.4,1.7,0.6,2.6,0.6
			c2.6,0,3.1-1.6,3.5-4.1c0.3-1.5,0.4-2.7-0.1-3.4c-0.5-0.5-1.2-0.7-1.8-0.6c-2.6,0-3.1,1.6-3.5,4.1L65.3,26.6z"/>
		<path class="st6" d="M88.6,29.1c-1.1,0.1-2.3-0.3-3.1-1.1c-0.6-0.7-1-1.7-0.9-2.6c0-0.7,0.1-1.5,0.3-2.2c0.1-0.7,0.3-1.5,0.5-2.2
			c0.7-2.3,2.8-3.7,5.2-3.6c1.1-0.1,2.2,0.3,3.1,1.1c0.6,0.7,1,1.7,0.9,2.6l0,0c0,0.7-0.1,1.5-0.3,2.2c-0.1,0.7-0.3,1.5-0.5,2.2
			C93.1,27.7,91,29.2,88.6,29.1z M90.4,19.2c-2.6,0-3.1,1.6-3.5,4.1c-0.3,1.5-0.4,2.7,0.1,3.4c0.5,0.5,1.2,0.7,1.9,0.6
			c2.6,0,3.1-1.6,3.5-4.1c0.3-1.5,0.4-2.7-0.1-3.4C91.7,19.4,91,19.1,90.4,19.2L90.4,19.2z"/>
		<path class="st6" d="M100.3,29.1c-1.1,0.1-2.3-0.3-3.1-1.1c-0.6-0.7-1-1.7-0.9-2.6c0-0.7,0.1-1.5,0.3-2.2c0.1-0.7,0.3-1.5,0.5-2.2
			c0.7-2.2,2.8-3.7,5.2-3.6c1.3,0,2.5,0.4,3.6,1c0.3,0.2,0.4,0.6,0.3,0.9c-0.2,0.4-0.4,0.9-0.9,0.9c-0.1,0-0.3,0-0.4-0.1
			c-0.8-0.5-1.7-0.8-2.7-0.8c-2.6,0-3.1,1.6-3.5,4.1c-0.3,1.5-0.4,2.7,0.1,3.4c0.5,0.5,1.2,0.7,1.8,0.6c1-0.1,2.1-0.4,3-0.8l0,0
			c0.1-0.1,0.3-0.1,0.4-0.1c0.5,0,0.7,0.4,0.7,0.7v0.1c0.1,0.2,0,0.6-0.5,0.9C102.9,28.7,101.6,29.1,100.3,29.1z"/>
		<path class="st6" d="M122,29.1c-1.1,0-2.2-0.2-3.3-0.5c-0.3-0.1-0.5-0.3-0.6-0.5c-0.1-0.2,0-0.4,0.1-0.5c0.3-0.4,0.5-0.7,1-0.7
			c0.1,0,0.2,0,0.3,0.1h0.1c0.8,0.3,1.7,0.4,2.6,0.5c1.4,0,2.3-0.5,2.5-1.6s-0.6-1.2-1.9-1.5h-0.1c-0.9-0.2-3.7-0.8-3.2-3.5
			c0.4-2,2.1-3.2,4.6-3.2c0.9,0,1.7,0.1,2.5,0.4c0.2,0,0.3,0.2,0.4,0.3c0.1,0.2,0.1,0.4,0,0.6c-0.1,0.3-0.3,0.9-0.9,0.9H126h-0.1
			c-0.6-0.2-1.3-0.3-2-0.3c-1.5,0-2.3,0.5-2.5,1.5s0.7,1.3,1.9,1.5h0.1c1.1,0.2,3.7,0.8,3.2,3.5C126.1,28.2,123.9,29.1,122,29.1z"/>
		<path class="st6" d="M75.9,29c-0.3,0-0.5,0-0.7-0.2C75,28.6,75,28.4,75,28.3l1-5.2c0.1-0.7,0.2-1.4,0.4-2.1
			c0.6-2.2,2.7-3.7,5.1-3.6c0.7,0,1.5,0.1,2.1,0.4c0.4,0.1,0.5,0.5,0.4,0.9c0,0,0,0,0,0c-0.2,0.4-0.4,0.9-1,0.9
			c-0.1,0-0.3,0-0.4-0.1c-0.4-0.2-0.9-0.3-1.4-0.3c-2.5,0-3,1.6-3.4,4.1l-0.9,5.1C76.8,29,76.2,29,75.9,29z"/>
		<path class="st6" d="M57.7,29.1c-1.2,0.1-2.4-0.3-3.2-1.2c-0.9-1.1-0.8-2.5-0.5-4l1.6-9.1c0.1-0.6,0.8-0.6,1.1-0.6
			c0.3,0,0.5,0,0.7,0.2c0.1,0.1,0.2,0.3,0.1,0.5L57,17.6h4.3c0.2,0,0.4,0.1,0.5,0.2c0.2,0.2,0.2,0.5,0.1,0.7
			c-0.1,0.7-0.6,0.8-0.8,0.8h-4.4L55.9,24c-0.3,1.4-0.2,2.2,0.2,2.7c0.5,0.4,1.2,0.7,1.8,0.6c0.5,0,1-0.1,1.4-0.3
			c0.1-0.1,0.2-0.1,0.4-0.1c0.3,0,0.6,0.2,0.7,0.5c0.1,0.3,0.1,0.7-0.2,1l0,0C59.5,29,58.6,29.2,57.7,29.1z"/>
		<path class="st6" d="M111.1,29.1c-1.1,0.1-2.3-0.3-3.1-1.1c-0.6-0.7-1-1.6-0.9-2.6c0-0.7,0.1-1.5,0.3-2.2c0.1-0.7,0.3-1.5,0.5-2.2
			c0.7-2.2,2.8-3.7,5.2-3.6c1.1-0.1,2.3,0.3,3.1,1.1c0.6,0.7,1,1.6,0.9,2.6c0,0.2,0,0.3,0,0.5c-0.2,1.4-1.4,2.5-2.8,2.4h-5
			c-0.2,1.3-0.2,2.2,0.3,2.8c0.5,0.5,1.2,0.7,1.9,0.6c1.1-0.1,2.1-0.3,3.1-0.8l0,0c0.1-0.1,0.3-0.1,0.4-0.1c0.6,0,0.7,0.4,0.8,0.8
			s-0.4,0.8-0.6,0.9C113.8,28.8,112.4,29.1,111.1,29.1z M109.5,22.2h4.8c0.3,0,0.6-0.1,0.7-0.7c0.1-0.5,0-1.1-0.3-1.6
			c-0.5-0.5-1.2-0.8-1.9-0.7C110.7,19.2,110,20.3,109.5,22.2z"/>
		<path class="st6" d="M132.1,29.1c-1.1,0-2.2-0.2-3.3-0.5c-0.3-0.1-0.5-0.3-0.6-0.5c-0.1-0.2,0-0.4,0.1-0.5c0.3-0.4,0.5-0.7,1-0.7
			l0,0c0.1,0,0.2,0,0.3,0.1h0.1c0.8,0.3,1.7,0.4,2.6,0.4c1.4,0,2.3-0.5,2.5-1.6s-0.6-1.2-1.9-1.5h-0.1c-0.9-0.2-3.7-0.8-3.2-3.5
			c0.4-2,2.1-3.2,4.6-3.2c0.9,0,1.7,0.1,2.5,0.4c0.2,0.1,0.3,0.2,0.4,0.3c0.1,0.2,0.1,0.4,0,0.6c-0.1,0.3-0.3,0.9-0.9,0.9H136h-0.1
			c-0.6-0.2-1.3-0.3-2-0.3c-1.5,0-2.3,0.5-2.5,1.5s0.7,1.3,1.9,1.5h0.1c1.1,0.2,3.7,0.8,3.2,3.5C136.2,28.2,134,29.1,132.1,29.1z"/>
	</g>
</g>
</svg>
