<?xml version="1.0" encoding="utf-8"?>
<!-- Generator: Adobe Illustrator 20.0.0, SVG Export Plug-In . SVG Version: 6.00 Build 0)  -->
<svg version="1.1" id="Layer_1" xmlns="http://www.w3.org/2000/svg" xmlns:xlink="http://www.w3.org/1999/xlink" x="0px" y="0px"
	 viewBox="0 0 127.2 12.6" style="enable-background:new 0 0 127.2 12.6;" xml:space="preserve">
<style type="text/css">
	.st0{fill:#999;}
</style>
<title>Asset 3</title>
<g id="Layer_2">
	<g id="Layer_1-2">
		<path class="st0" d="M0.4,12.1C0.2,12,0,11.8,0,11.5C0,11.2,0.3,11,0.6,11c0,0,0,0,0,0c0.1,0,0.1,0,0.2,0c0.9,0.3,1.9,0.5,2.9,0.5
			c1.4,0.2,2.7-0.9,2.8-2.3c0-0.1,0-0.2,0-0.2c0-1.6-1.6-2-2.8-2.4C1.9,6.2,0.1,5.4,0.1,3.2S1.9,0,3.9,0c1,0,1.9,0.1,2.8,0.5
			C6.9,0.5,7.1,0.8,7.1,1c0,0.3-0.3,0.6-0.6,0.5c-0.1,0-0.1,0-0.2,0C5.5,1.3,4.7,1.1,3.9,1.1c-1.5,0-2.7,0.5-2.7,2.2s1.6,2,2.8,2.3
			C6,6,7.7,6.8,7.7,9.1s-1.9,3.6-4,3.6C2.6,12.7,1.4,12.5,0.4,12.1z"/>
		<path class="st0" d="M19.2,11.4c0.3,0,0.5,0.2,0.5,0.5c0,0.3-0.2,0.5-0.5,0.5h-6.2c-0.6,0-1.1-0.4-1.1-1V1.6
			c0-0.9,0.8-1.5,1.6-1.5H19c0.3,0,0.6,0.2,0.6,0.5c0,0,0,0,0,0c0,0.3-0.3,0.5-0.6,0.5c0,0,0,0,0,0h-5.4c-0.3,0-0.5,0.2-0.5,0.4
			c0,0,0,0,0,0v4h5.5c0.3,0,0.6,0.2,0.6,0.5c0,0,0,0,0,0c0,0.3-0.3,0.5-0.6,0.5h-5.5v4.8L19.2,11.4z"/>
		<path class="st0" d="M31.6,11.4c0.3,0,0.5,0.2,0.5,0.5c0,0.3-0.2,0.5-0.5,0.5h-6.2c-0.6,0-1.1-0.4-1.1-1V1.6
			c0-0.9,0.8-1.5,1.7-1.5c0,0,0,0,0,0h5.4c0.3,0,0.6,0.2,0.6,0.5c0,0,0,0,0,0c0,0.3-0.3,0.5-0.6,0.5c0,0,0,0,0,0H26
			c-0.3,0-0.5,0.2-0.5,0.4c0,0,0,0,0,0v4H31c0.3,0,0.6,0.2,0.6,0.5c0,0,0,0,0,0c0,0.3-0.3,0.5-0.6,0.5h-5.5v4.8L31.6,11.4z"/>
		<path class="st0" d="M36.3,12.6c-0.4,0-0.8-0.3-0.8-0.8c0-0.4,0.3-0.8,0.8-0.8c0.4,0,0.8,0.3,0.8,0.8c0,0,0,0,0,0
			C37.1,12.3,36.8,12.6,36.3,12.6z"/>
		<path class="st0" d="M56.9,10.9c0.1,0,0.2-0.1,0.3-0.1c0.3,0,0.6,0.2,0.6,0.6c0,0.2-0.1,0.4-0.3,0.5c-1.1,0.5-2.3,0.8-3.5,0.7
			c-2.3,0-4-1.1-4.3-3.5c-0.1-0.9-0.1-1.9-0.1-2.8c0-0.9,0-1.9,0.1-2.8c0.3-2.4,2-3.5,4.3-3.5c1.2,0,2.4,0.2,3.5,0.7
			c0.2,0.1,0.3,0.3,0.3,0.5c0,0.3-0.3,0.6-0.6,0.5c-0.1,0-0.2,0-0.3,0c-0.9-0.4-2-0.7-3-0.7c-1.8,0-3,0.8-3.2,2.6
			c-0.1,0.9-0.1,1.8-0.1,2.7c0,0.9,0,1.8,0.1,2.7c0.2,1.8,1.4,2.6,3.2,2.6C55,11.6,56,11.3,56.9,10.9z"/>
		<path class="st0" d="M70.8,0.6V12c0,0.3-0.3,0.6-0.6,0.6s-0.6-0.3-0.6-0.6V6.6h-6.1V12c0,0.3-0.3,0.6-0.6,0.6
			c-0.3,0-0.6-0.3-0.6-0.6V0.6c0-0.3,0.3-0.6,0.6-0.6c0.3,0,0.6,0.3,0.6,0.6v5h6.1v-5c0-0.3,0.3-0.6,0.6-0.6S70.8,0.3,70.8,0.6z"/>
		<path class="st0" d="M80.5,1l3.3,10.9c0,0,0,0.1,0,0.1c0,0.3-0.3,0.5-0.6,0.5c0,0,0,0,0,0c-0.2,0-0.5-0.1-0.6-0.4l-1-3.5h-4.8
			l-1.1,3.5c-0.1,0.2-0.3,0.4-0.6,0.4c-0.3,0-0.6-0.2-0.6-0.5c0,0,0,0,0,0c0,0,0-0.1,0-0.1L78,1c0.2-0.7,1-1.1,1.7-0.8
			C80,0.3,80.4,0.6,80.5,1L80.5,1z M81.3,7.7l-2-6.4c0,0-0.1-0.1-0.1-0.1s-0.1,0.1-0.1,0.1l-2,6.4H81.3z"/>
		<path class="st0" d="M88.8,1.3V12c0,0.3-0.3,0.6-0.6,0.6s-0.6-0.3-0.6-0.6V1.4c-0.1-0.7,0.4-1.3,1.1-1.4c0.1,0,0.1,0,0.2,0
			c0.5,0,1,0.3,1.2,0.8l4.9,10.6c0,0.1,0.1,0.1,0.1,0.1c0.1,0,0.1-0.1,0.1-0.2V0.6C95.4,0.3,95.6,0,96,0s0.6,0.3,0.6,0.6v10.6
			c0.1,0.7-0.4,1.3-1.1,1.4c-0.1,0-0.1,0-0.2,0c-0.5,0-1-0.3-1.3-0.8L89.1,1.2c0,0-0.1-0.1-0.1-0.1S88.8,1.2,88.8,1.3z"/>
		<path class="st0" d="M102.4,3.6c-0.1,0.9-0.1,1.8-0.1,2.7c0,0.9,0,1.8,0.1,2.7c0.2,1.8,1.4,2.6,3.2,2.6c1-0.1,2-0.3,2.9-0.6
			c0.1-0.1,0.1-0.1,0.1-0.2V7.2h-1.9c-0.3,0-0.6-0.2-0.6-0.5c0-0.3,0.3-0.5,0.6-0.5h1.9c0.5-0.1,1,0.3,1.1,0.9c0,0,0,0.1,0,0.1v3.6
			c0,0.5-0.3,1-0.8,1.1c-1.1,0.4-2.2,0.7-3.4,0.7c-2.3,0-4-1.1-4.3-3.5c-0.1-0.9-0.1-1.9-0.1-2.8c0-0.9,0-1.9,0.1-2.8
			c0.3-2.4,2-3.5,4.3-3.5c1.2,0,2.4,0.2,3.5,0.7c0.2,0.1,0.3,0.3,0.3,0.5c0,0.3-0.3,0.5-0.6,0.5c-0.1,0-0.2,0-0.3,0
			c-0.9-0.4-2-0.6-3-0.6C103.8,1.1,102.6,1.8,102.4,3.6z"/>
		<path class="st0" d="M121.7,11.4c0.3,0,0.5,0.2,0.5,0.5c0,0.3-0.2,0.5-0.5,0.5h-6.2c-0.6,0-1.1-0.4-1.1-1V1.6
			c0-0.9,0.8-1.5,1.6-1.5h5.4c0.3,0,0.6,0.2,0.6,0.5c0,0,0,0,0,0c0,0.3-0.3,0.5-0.6,0.5c0,0,0,0,0,0H116c-0.3,0-0.5,0.2-0.5,0.4
			c0,0,0,0,0,0v4h5.5c0.3,0,0.6,0.2,0.6,0.5c0,0,0,0,0,0c0,0.3-0.3,0.5-0.6,0.5h-5.5v4.8L121.7,11.4z"/>
		<path class="st0" d="M126.4,12.6c-0.4,0-0.8-0.3-0.8-0.8s0.3-0.8,0.8-0.8c0.4,0,0.8,0.3,0.8,0.8c0,0,0,0,0,0
			C127.2,12.3,126.8,12.6,126.4,12.6L126.4,12.6z"/>
	</g>
</g>
</svg>
