<?xml version="1.0" encoding="UTF-8" standalone="no"?>
<svg width="1280px" height="720px" viewBox="0 0 1280 720" version="1.1" xmlns="http://www.w3.org/2000/svg" xmlns:xlink="http://www.w3.org/1999/xlink" xmlns:sketch="http://www.bohemiancoding.com/sketch/ns">
    <!-- Generator: Sketch 3.2.2 (9983) - http://www.bohemiancoding.com/sketch -->
    <title>placeholder-burndown</title>
    <desc>Created with Sketch.</desc>
    <defs>
        <path id="path-1" d="M779.060711,263 L740.5,263 L700.5,223 L660.5,243 L620.5,243 L580.5,264 L540.5,203.5 L500.5,143 L460.5,143 L421,143 L380.5,123 L340.5,123 L300.5,203 L260.5,123 L220.5,83 L140.5,83 L100.5,43 L60.5,43 L20.5,3 L0.499999952,3"></path>
        <circle id="path-2" cx="3" cy="3" r="3"></circle>
        <circle id="path-3" cx="44" cy="43" r="3"></circle>
        <circle id="path-4" cx="84" cy="43" r="3"></circle>
        <circle id="path-5" cx="124" cy="83" r="3"></circle>
        <circle id="path-6" cx="204" cy="83" r="3"></circle>
        <circle id="path-7" cx="164" cy="83" r="3"></circle>
        <circle id="path-8" cx="244" cy="123" r="3"></circle>
        <circle id="path-9" cx="284" cy="203" r="3"></circle>
        <circle id="path-10" cx="324" cy="123" r="3"></circle>
        <circle id="path-11" cx="364" cy="123" r="3"></circle>
        <circle id="path-12" cx="404" cy="143" r="3"></circle>
        <circle id="path-13" cx="484" cy="143" r="3"></circle>
        <circle id="path-14" cx="444" cy="143" r="3"></circle>
        <circle id="path-15" cx="524" cy="203" r="3"></circle>
        <circle id="path-16" cx="564" cy="263" r="3"></circle>
        <circle id="path-17" cx="604" cy="243" r="3"></circle>
        <circle id="path-18" cx="644" cy="243" r="3"></circle>
        <circle id="path-19" cx="684" cy="223" r="3"></circle>
        <circle id="path-20" cx="724" cy="263" r="3"></circle>
        <circle id="path-21" cx="764" cy="263" r="3"></circle>
    </defs>
    <g id="BurnDown" stroke="none" stroke-width="1" fill="none" fill-rule="evenodd" sketch:type="MSPage">
        <g id="Burn-Down-Chart" sketch:type="MSLayerGroup">
            <path d="M780.5,440.5 L1279.5,719.5" id="Forecat-line" stroke="#A1A7B3" stroke-linecap="square" stroke-dasharray="4,3" opacity="0.5" sketch:type="MSShapeGroup"></path>
            <path d="M0.5,101.5 L1229.5,719.5" id="Ideal-line" stroke="#8FCC51" stroke-linecap="square" stroke-dasharray="4,3" opacity="0.5" sketch:type="MSShapeGroup"></path>
            <g id="Horizontal-lines" fill="#DADDE5" sketch:type="MSShapeGroup" opacity="0.400000006">
                <rect id="Rectangle-476" x="0" y="360" width="1280" height="1"></rect>
                <rect id="Rectangle-476" x="0" y="0" width="1280" height="1"></rect>
                <rect id="Rectangle-476" x="0" y="480" width="1280" height="1"></rect>
                <rect id="Rectangle-476" x="0" y="120" width="1280" height="1"></rect>
                <rect id="Rectangle-476" x="0" y="600" width="1280" height="1"></rect>
                <rect id="Rectangle-476" x="0" y="240" width="1280" height="1"></rect>
                <rect id="Rectangle-476" x="0" y="380" width="1280" height="1"></rect>
                <rect id="Rectangle-476" x="0" y="20" width="1280" height="1"></rect>
                <rect id="Rectangle-476" x="0" y="500" width="1280" height="1"></rect>
                <rect id="Rectangle-476" x="0" y="140" width="1280" height="1"></rect>
                <rect id="Rectangle-476" x="0" y="620" width="1280" height="1"></rect>
                <rect id="Rectangle-476" x="0" y="260" width="1280" height="1"></rect>
                <rect id="Rectangle-476" x="0" y="400" width="1280" height="1"></rect>
                <rect id="Rectangle-476" x="0" y="40" width="1280" height="1"></rect>
                <rect id="Rectangle-476" x="0" y="520" width="1280" height="1"></rect>
                <rect id="Rectangle-476" x="0" y="160" width="1280" height="1"></rect>
                <rect id="Rectangle-476" x="0" y="640" width="1280" height="1"></rect>
                <rect id="Rectangle-476" x="0" y="280" width="1280" height="1"></rect>
                <rect id="Rectangle-476" x="0" y="420" width="1280" height="1"></rect>
                <rect id="Rectangle-476" x="0" y="60" width="1280" height="1"></rect>
                <rect id="Rectangle-476" x="0" y="540" width="1280" height="1"></rect>
                <rect id="Rectangle-476" x="0" y="180" width="1280" height="1"></rect>
                <rect id="Rectangle-476" x="0" y="660" width="1280" height="1"></rect>
                <rect id="Rectangle-476" x="0" y="300" width="1280" height="1"></rect>
                <rect id="Rectangle-476" x="0" y="440" width="1280" height="1"></rect>
                <rect id="Rectangle-476" x="0" y="80" width="1280" height="1"></rect>
                <rect id="Rectangle-476" x="0" y="560" width="1280" height="1"></rect>
                <rect id="Rectangle-476" x="0" y="200" width="1280" height="1"></rect>
                <rect id="Rectangle-476" x="0" y="680" width="1280" height="1"></rect>
                <rect id="Rectangle-476" x="0" y="320" width="1280" height="1"></rect>
                <rect id="Rectangle-476" x="0" y="460" width="1280" height="1"></rect>
                <rect id="Rectangle-476" x="0" y="100" width="1280" height="1"></rect>
                <rect id="Rectangle-476" x="0" y="580" width="1280" height="1"></rect>
                <rect id="Rectangle-476" x="0" y="220" width="1280" height="1"></rect>
                <rect id="Rectangle-476" x="0" y="700" width="1280" height="1"></rect>
                <rect id="Rectangle-476" x="0" y="340" width="1280" height="1"></rect>
            </g>
            <g id="Vertical-lines" fill="#DADDE5" sketch:type="MSShapeGroup" opacity="0.400000006">
                <rect id="Rectangle-77" x="640" y="0" width="1" height="720"></rect>
                <rect id="Rectangle-78" x="660" y="0" width="1" height="720"></rect>
                <rect id="Rectangle-79" x="680" y="0" width="1" height="720"></rect>
                <rect id="Rectangle-80" x="700" y="0" width="1" height="720"></rect>
                <rect id="Rectangle-81" x="720" y="0" width="1" height="720"></rect>
                <rect id="Rectangle-82" x="740" y="0" width="1" height="720"></rect>
                <rect id="Rectangle-83" x="760" y="0" width="1" height="720"></rect>
                <rect id="Rectangle-84" x="780" y="0" width="1" height="720"></rect>
                <rect id="Rectangle-85" x="800" y="0" width="1" height="720"></rect>
                <rect id="Rectangle-86" x="820" y="0" width="1" height="720"></rect>
                <rect id="Rectangle-87" x="840" y="0" width="1" height="720"></rect>
                <rect id="Rectangle-88" x="860" y="0" width="1" height="720"></rect>
                <rect id="Rectangle-89" x="880" y="0" width="1" height="720"></rect>
                <rect id="Rectangle-90" x="900" y="0" width="1" height="720"></rect>
                <rect id="Rectangle-91" x="920" y="0" width="1" height="720"></rect>
                <rect id="Rectangle-106" x="940" y="0" width="1" height="720"></rect>
                <rect id="Rectangle-92" x="960" y="0" width="1" height="720"></rect>
                <rect id="Rectangle-93" x="980" y="0" width="1" height="720"></rect>
                <rect id="Rectangle-94" x="1000" y="0" width="1" height="720"></rect>
                <rect id="Rectangle-95" x="1020" y="0" width="1" height="720"></rect>
                <rect id="Rectangle-96" x="1040" y="0" width="1" height="720"></rect>
                <rect id="Rectangle-97" x="1060" y="0" width="1" height="720"></rect>
                <rect id="Rectangle-98" x="1080" y="0" width="1" height="720"></rect>
                <rect id="Rectangle-99" x="1100" y="0" width="1" height="720"></rect>
                <rect id="Rectangle-100" x="1120" y="0" width="1" height="720"></rect>
                <rect id="Rectangle-101" x="1140" y="0" width="1" height="720"></rect>
                <rect id="Rectangle-102" x="1160" y="0" width="1" height="720"></rect>
                <rect id="Rectangle-103" x="1180" y="0" width="1" height="720"></rect>
                <rect id="Rectangle-104" x="1200" y="0" width="1" height="720"></rect>
                <rect id="Rectangle-105" x="1220" y="0" width="1" height="720"></rect>
                <rect id="Rectangle-110" x="1240" y="0" width="1" height="720"></rect>
                <rect id="Rectangle-107" x="1260" y="0" width="1" height="720"></rect>
                <rect id="Rectangle-109" x="0" y="0" width="1" height="720"></rect>
                <rect id="Rectangle-111" x="20" y="0" width="1" height="720"></rect>
                <rect id="Rectangle-112" x="40" y="0" width="1" height="720"></rect>
                <rect id="Rectangle-113" x="60" y="0" width="1" height="720"></rect>
                <rect id="Rectangle-114" x="80" y="0" width="1" height="720"></rect>
                <rect id="Rectangle-115" x="100" y="0" width="1" height="720"></rect>
                <rect id="Rectangle-116" x="120" y="0" width="1" height="720"></rect>
                <rect id="Rectangle-117" x="140" y="0" width="1" height="720"></rect>
                <rect id="Rectangle-118" x="160" y="0" width="1" height="720"></rect>
                <rect id="Rectangle-119" x="180" y="0" width="1" height="720"></rect>
                <rect id="Rectangle-120" x="200" y="0" width="1" height="720"></rect>
                <rect id="Rectangle-121" x="220" y="0" width="1" height="720"></rect>
                <rect id="Rectangle-122" x="240" y="0" width="1" height="720"></rect>
                <rect id="Rectangle-123" x="260" y="0" width="1" height="720"></rect>
                <rect id="Rectangle-124" x="280" y="0" width="1" height="720"></rect>
                <rect id="Rectangle-125" x="300" y="0" width="1" height="720"></rect>
                <rect id="Rectangle-126" x="320" y="0" width="1" height="720"></rect>
                <rect id="Rectangle-127" x="340" y="0" width="1" height="720"></rect>
                <rect id="Rectangle-128" x="360" y="0" width="1" height="720"></rect>
                <rect id="Rectangle-129" x="380" y="0" width="1" height="720"></rect>
                <rect id="Rectangle-130" x="400" y="0" width="1" height="720"></rect>
                <rect id="Rectangle-131" x="420" y="0" width="1" height="720"></rect>
                <rect id="Rectangle-132" x="440" y="0" width="1" height="720"></rect>
                <rect id="Rectangle-133" x="460" y="0" width="1" height="720"></rect>
                <rect id="Rectangle-134" x="480" y="0" width="1" height="720"></rect>
                <rect id="Rectangle-135" x="500" y="0" width="1" height="720"></rect>
                <rect id="Rectangle-136" x="520" y="0" width="1" height="720"></rect>
                <rect id="Rectangle-137" x="540" y="0" width="1" height="720"></rect>
                <rect id="Rectangle-138" x="560" y="0" width="1" height="720"></rect>
                <rect id="Rectangle-139" x="580" y="0" width="1" height="720"></rect>
                <rect id="Rectangle-140" x="600" y="0" width="1" height="720"></rect>
                <rect id="Rectangle-141" x="620" y="0" width="1" height="720"></rect>
            </g>
            <g id="Path-+-Points" transform="translate(0.000000, 177.000000)">
                <g id="Path-2" stroke-width="2">
                    <use stroke="#FFFFFF" sketch:type="MSShapeGroup" xlink:href="#path-1"></use>
                    <use stroke-opacity="0.5" stroke="#64D5FF" xlink:href="#path-1"></use>
                </g>
                <g id="Points-2" transform="translate(17.000000, 0.000000)">
                    <g id="Oval-76">
                        <use fill="#FFFFFF" sketch:type="MSShapeGroup" xlink:href="#path-2"></use>
                        <use fill-opacity="0.5" fill="#64D5FF" xlink:href="#path-2"></use>
                    </g>
                    <g id="Oval-77">
                        <use fill="#FFFFFF" sketch:type="MSShapeGroup" xlink:href="#path-3"></use>
                        <use fill-opacity="0.5" fill="#64D5FF" xlink:href="#path-3"></use>
                    </g>
                    <g id="Oval-78">
                        <use fill="#FFFFFF" sketch:type="MSShapeGroup" xlink:href="#path-4"></use>
                        <use fill-opacity="0.5" fill="#64D5FF" xlink:href="#path-4"></use>
                    </g>
                    <g id="Oval-79">
                        <use fill="#FFFFFF" sketch:type="MSShapeGroup" xlink:href="#path-5"></use>
                        <use fill-opacity="0.5" fill="#64D5FF" xlink:href="#path-5"></use>
                    </g>
                    <g id="Oval-80">
                        <use fill="#FFFFFF" sketch:type="MSShapeGroup" xlink:href="#path-6"></use>
                        <use fill-opacity="0.5" fill="#64D5FF" xlink:href="#path-6"></use>
                    </g>
                    <g id="Oval-94">
                        <use fill="#FFFFFF" sketch:type="MSShapeGroup" xlink:href="#path-7"></use>
                        <use fill-opacity="0.5" fill="#64D5FF" xlink:href="#path-7"></use>
                    </g>
                    <g id="Oval-81">
                        <use fill="#FFFFFF" sketch:type="MSShapeGroup" xlink:href="#path-8"></use>
                        <use fill-opacity="0.5" fill="#64D5FF" xlink:href="#path-8"></use>
                    </g>
                    <g id="Oval-82">
                        <use fill="#FFFFFF" sketch:type="MSShapeGroup" xlink:href="#path-9"></use>
                        <use fill-opacity="0.5" fill="#64D5FF" xlink:href="#path-9"></use>
                    </g>
                    <g id="Oval-83">
                        <use fill="#FFFFFF" sketch:type="MSShapeGroup" xlink:href="#path-10"></use>
                        <use fill-opacity="0.5" fill="#64D5FF" xlink:href="#path-10"></use>
                    </g>
                    <g id="Oval-84">
                        <use fill="#FFFFFF" sketch:type="MSShapeGroup" xlink:href="#path-11"></use>
                        <use fill-opacity="0.5" fill="#64D5FF" xlink:href="#path-11"></use>
                    </g>
                    <g id="Oval-85">
                        <use fill="#FFFFFF" sketch:type="MSShapeGroup" xlink:href="#path-12"></use>
                        <use fill-opacity="0.5" fill="#64D5FF" xlink:href="#path-12"></use>
                    </g>
                    <g id="Oval-86">
                        <use fill="#FFFFFF" sketch:type="MSShapeGroup" xlink:href="#path-13"></use>
                        <use fill-opacity="0.5" fill="#64D5FF" xlink:href="#path-13"></use>
                    </g>
                    <g id="Oval-95">
                        <use fill="#FFFFFF" sketch:type="MSShapeGroup" xlink:href="#path-14"></use>
                        <use fill-opacity="0.5" fill="#64D5FF" xlink:href="#path-14"></use>
                    </g>
                    <g id="Oval-87">
                        <use fill="#FFFFFF" sketch:type="MSShapeGroup" xlink:href="#path-15"></use>
                        <use fill-opacity="0.5" fill="#64D5FF" xlink:href="#path-15"></use>
                    </g>
                    <g id="Oval-88">
                        <use fill="#FFFFFF" sketch:type="MSShapeGroup" xlink:href="#path-16"></use>
                        <use fill-opacity="0.5" fill="#64D5FF" xlink:href="#path-16"></use>
                    </g>
                    <g id="Oval-89">
                        <use fill="#FFFFFF" sketch:type="MSShapeGroup" xlink:href="#path-17"></use>
                        <use fill-opacity="0.5" fill="#64D5FF" xlink:href="#path-17"></use>
                    </g>
                    <g id="Oval-90">
                        <use fill="#FFFFFF" sketch:type="MSShapeGroup" xlink:href="#path-18"></use>
                        <use fill-opacity="0.5" fill="#64D5FF" xlink:href="#path-18"></use>
                    </g>
                    <g id="Oval-91">
                        <use fill="#FFFFFF" sketch:type="MSShapeGroup" xlink:href="#path-19"></use>
                        <use fill-opacity="0.5" fill="#64D5FF" xlink:href="#path-19"></use>
                    </g>
                    <g id="Oval-92">
                        <use fill="#FFFFFF" sketch:type="MSShapeGroup" xlink:href="#path-20"></use>
                        <use fill-opacity="0.5" fill="#64D5FF" xlink:href="#path-20"></use>
                    </g>
                    <g id="Oval-93">
                        <use fill="#FFFFFF" sketch:type="MSShapeGroup" xlink:href="#path-21"></use>
                        <use fill-opacity="0.5" fill="#64D5FF" xlink:href="#path-21"></use>
                    </g>
                </g>
            </g>
        </g>
    </g>
</svg>