<?xml version="1.0" encoding="UTF-8" standalone="no"?>
<svg width="128px" height="64px" viewBox="0 0 128 64" version="1.1" xmlns="http://www.w3.org/2000/svg" xmlns:xlink="http://www.w3.org/1999/xlink" xmlns:sketch="http://www.bohemiancoding.com/sketch/ns">
    <!-- Generator: Sketch 3.2.2 (9983) - http://www.bohemiancoding.com/sketch -->
    <title>placeholder-icons</title>
    <desc>Created with Sketch.</desc>
    <defs></defs>
    <g id="Page-1" stroke="none" stroke-width="1" fill="none" fill-rule="evenodd" sketch:type="MSPage">
        <g id="placeholder-icons" sketch:type="MSArtboardGroup">
            <g id="placeholder-icon-todo" sketch:type="MSLayerGroup" fill="#8FBF4D">
                <path d="M26.5896055,49.4783721 L54.5896055,16.4783721 C54.90902,16.0975318 54.8592245,15.5298631 54.4783842,15.2104487 C54.0975439,14.8910342 53.5298752,14.9408297 53.2104608,15.32167 L25.2104608,48.32167 L26.6028151,48.3377955 L18.6028151,38.3377955 C18.2923065,37.9496598 17.7259433,37.8867305 17.3378076,38.1972391 C16.9496719,38.5077477 16.8867426,39.0741109 17.1972512,39.4622466 L25.1972512,49.4622466 C25.5522153,49.9059517 26.2244605,49.9137373 26.5896055,49.4783721 Z" id="Path-706" sketch:type="MSShapeGroup"></path>
            </g>
            <g id="placeholder-icon-follow" sketch:type="MSLayerGroup" transform="translate(64.000000, 0.000000)" fill-opacity="0.5" fill="#A1A7B3">
                <path d="M52.1561432,49.3964081 C52.7991674,52.459305 51.682877,54.3543117 51.682877,54.3543117 C51.682877,54.3543117 49.9745686,55.2025313 43.4473152,53.8090019 C43.4473152,53.8090019 40.9721909,53.2481651 38.4912701,52.5843658 C36.0103493,51.9205666 31.8936997,50.4686641 30.3666709,49.912871 C14.1236194,44.0008837 11.0868545,39.5785678 11.0868545,39.5785678 C11.0868545,39.5785678 11.5004527,36.5733956 15.5186147,34.4533668 C19.5338752,32.3322818 24.5966493,28.7776756 27.1746822,23.1390872 C29.7498136,17.4994427 30.5327126,14.2018744 32.3445499,13.0969549 C34.1611103,11.9971151 36.4489256,12.1845549 36.7634794,12.0335467 C37.0809348,11.8835947 37.0107861,11.642977 37.3746667,11.5099224 C37.6494674,11.4049382 39.2597316,11.3323266 41.5276632,11.8452399 L42.4911235,9.19815464 C42.832439,8.26039797 43.8546541,7.77211129 44.7715538,8.10583547 L46.1120843,8.59374868 C47.028984,8.92747286 47.4981816,9.95858939 47.156866,10.8963461 L46.1934058,13.5434313 C48.2604365,14.6083153 49.4501982,15.7000529 49.5932252,15.957114 C49.7835465,16.2918816 49.5751434,16.4311148 49.721941,16.7500411 C49.8687387,17.0689674 51.7417908,18.3959595 52.4205902,20.404036 C53.1012112,22.4161362 51.5813105,25.4454578 49.928882,31.4209386 C48.2793551,37.3974756 49.8699066,43.3736943 51.585269,47.5805554 M44.828864,56.082448 C47.6621948,56.5534919 49.8614525,56.6337605 51.4963169,56.4183163 C51.8256196,56.3749205 52.0713148,56.324045 52.2396926,56.2752376 L52.9707484,56.0633277 L53.3759386,55.4189912 C53.5436251,55.1523349 53.7423324,54.7434857 53.9245711,54.1981877 C54.6097642,52.14794 54.6625171,49.7884749 53.5174637,46.976223 L53.4372297,46.8254119 C51.3158958,41.6229212 50.5774264,36.5884442 51.8567988,31.9530446 C52.3713507,30.0923327 53.8646126,25.3540398 53.9727353,24.9754595 C54.6372211,22.6488328 54.7976513,21.1896263 54.3151358,19.7631796 C53.9783683,18.7669279 53.4328409,17.8712226 52.7230214,17.021994 C52.3807436,16.6124924 52.0022177,15.7577904 51.6828766,15.1960821 C51.2329424,14.3872508 49.9288826,12.9403534 48.7040596,12.4799948 L49.0362513,11.5803863 C49.752106,9.61359168 48.7600742,7.42918264 46.7961246,6.71436344 L45.4555941,6.22645023 C43.4916444,5.51163103 41.3275929,6.54731969 40.6117382,8.51411436 L40.2695465,9.40482569 C39.4701061,9.19815469 37.5472402,9.39086567 36.6357956,9.73907185 C36.0485298,9.95358825 35.0761154,10.1969838 34.8125543,10.2323304 C34.0985284,10.3280899 33.4263344,10.4763843 32.7726975,10.7039033 C32.2559422,10.8837764 31.7668673,11.1087046 31.3087083,11.3860977 C30.309648,11.9953464 29.575254,12.911715 28.8667546,14.2552671 C28.3102147,15.310653 26.0295976,20.8317764 25.3553685,22.3083661 C23.3571832,26.6787304 19.5577181,30.0577811 14.5844363,32.6849464 C13.5736292,33.2182596 12.6970116,33.8328502 11.9497646,34.5149619 C10.8858306,35.4861559 10.1297539,36.5475457 9.63671002,37.6266145 C9.32074232,38.3181369 9.1617457,38.8974309 9.10553124,39.3058807 L9,40.0726624 L9.43814825,40.7107197 C9.61589807,40.9695694 9.93888413,41.3423941 10.4442041,41.8181288 C11.2030876,42.5325816 12.2196362,43.3288775 13.5324932,44.1969913 C17.1597701,46.5954923 22.436911,49.15503 29.6826306,51.7922563 C30.346485,52.0338795 30.9956583,52.2650341 31.6303501,52.4859921 C31.6243725,52.6046112 31.6213478,52.7240087 31.6213478,52.8441128 C31.6213478,56.710106 34.7553545,59.8441128 38.6213478,59.8441128 C41.318932,59.8441128 43.6601218,58.3182068 44.828864,56.082448 Z M42.7354021,55.6864887 C42.0019061,55.5322251 41.2327803,55.3553352 40.4271314,55.1546 C40.4472705,55.1163354 36.0266919,53.8668257 36.0103492,53.9221229 C35.2433184,53.6875094 34.4505267,53.4353473 33.6314761,53.1649574 C33.796888,55.7768702 35.9677027,57.8441128 38.6213478,57.8441128 C40.3268995,57.8441128 41.8329992,56.9901565 42.7354021,55.6864887 Z" id="Notification-Icon-3" sketch:type="MSShapeGroup"></path>
            </g>
        </g>
    </g>
</svg>