<svg xmlns="http://www.w3.org/2000/svg" width="16" height="16" viewBox="0 0 16 16">
  <path fill="#000000" fill-rule="evenodd" d="M14.8135098,6.38809509 L15.6032562,5.50497909 C15.8607364,6.29009475 16,7.128784 16,8 C16,12.418278 12.418278,16 8,16 C3.581722,16 0,12.418278 0,8 C0,3.581722 3.581722,0 8,0 C9.51339004,0 10.92863,0.420230473 12.1353979,1.15036942 L12.1353979,1.15036942 L11.4304143,1.89675264 C10.4166863,1.32574801 9.24638443,1 8,1 C4.13400675,1 1,4.13400675 1,8 C1,11.8659932 4.13400675,15 8,15 C11.8659932,15 15,11.8659932 15,8 C15,7.44526123 14.935471,6.90559402 14.8135098,6.38809509 L14.8135098,6.38809509 Z M8,11 L15.5,2.5 C15.7770943,2.19211748 15.8078825,1.71962365 15.5,1.44252939 C15.1921175,1.16543513 14.7753707,1.19211748 14.4982765,1.5 L7.5,9 L5.5,7 C5,6.5 4.5,7 4.5,7 C4.5,7 4,7.5 4.5,8 L7,11 C7.2891558,11.3614448 7.69035286,11.3440524 8,11 Z"/>
</svg>
