<svg xmlns="http://www.w3.org/2000/svg" width="16" height="16" viewBox="0 0 16 16">
  <g fill="none" fill-rule="evenodd">
    <path fill="#000000" d="M8,2 C4.686,2 2,4.686 2,8.001 C2,11.313 4.687,14 8,14 C11.313,14 14,11.313 14,8.001 C14,4.686 11.313,2 8,2 L8,2 L8,2 L8,2 Z M8,13 C5.238,13 3,10.762 3,8.001 C3,5.238 5.239,3 8,3 C10.761,3 13,5.238 13,8.001 C13,10.762 10.761,13 8,13 L8,13 L8,13 L8,13 Z" opacity=".6"/>
    <path fill="#000000" d="M8,8 L2,8 C2,6.719 2.401,5.531 3.086,4.557 L8,8 L8,8 L8,8 L8,8 Z" opacity=".4"/>
  </g>
</svg>
