<svg width="16px" height="16px" viewBox="0 0 16 16" version="1.1" xmlns="http://www.w3.org/2000/svg" xmlns:xlink="http://www.w3.org/1999/xlink">
    <g id="Page-1" stroke="none" stroke-width="1" fill="none" fill-rule="evenodd">
        <g id="Artboard" fill-rule="nonzero" fill="#000000">
            <path d="M14.9904,3.881371 C15.173,3.638925 15.1251,3.294045 14.882,3.111047 C14.6398,2.9280481 14.295,2.9762354 14.1115,3.218682 L8.42298,10.75507 L5.9054,8.62975 C5.67396,8.43382 5.3263,8.46314 5.13099,8.69524 C4.9347,8.92736 4.96399,9.27436 5.19642,9.4703 L8.15735,11.9703 L8.60169,12.34498 L8.9513,11.88137 L14.9904,3.881371 Z M10.99036,3.880044 C11.172,3.637032 11.1232,3.292291 10.88001,3.11004 C10.63685,2.9277887 10.29212,2.9770441 10.1095,3.22004 L7.1095,7.22006 C6.92786,7.46305 6.97669,7.80779 7.21985,7.99004 C7.46302,8.17231 7.80774,8.12306 7.99036,7.88004 L10.99036,3.880044 Z M1.904424,8.62977 C1.672979,8.43383 1.325323,8.46316 1.13001,8.69526 C0.9337212,8.92738 0.963018,9.27438 1.19544,9.47031 L4.15638,11.97031 C4.3888,12.16625 4.73548,12.13694 4.93177,11.90482 C5.12806,11.67271 5.09876,11.32571 4.86634,11.12977 L1.904424,8.62977 Z" id="batch-select"></path>
        </g>
    </g>
</svg>
