<svg xmlns="http://www.w3.org/2000/svg" width="16" height="16" viewBox="0 0 16 16">
  <path fill="#000000" fill-rule="evenodd" d="M7.499,1 C3.91,1 1,3.91 1,7.499 C1,11.088 3.91,13.999 7.499,13.999 C11.09,13.999 13.998,11.088 13.998,7.499 C13.998,3.91 11.09,1 7.499,1 M2.999,7.499 C2.999,6.437 3.382,5.474 3.998,4.705 L10.295,11.001 C9.525,11.616 8.562,11.999 7.499,11.999 C5.014,11.999 2.999,9.985 2.999,7.499 M11.002,10.294 L4.705,3.998 C5.475,3.382 6.438,3 7.499,3 C9.984,3 12,5.014 12,7.499 C12,8.562 11.617,9.524 11.002,10.294"/>
</svg>
