<svg xmlns="http://www.w3.org/2000/svg" width="16" height="16" viewBox="0 0 16 16">
  <path fill="#000000" fill-rule="evenodd" d="M11,3 L12.0044225,3 C12.5542648,3 13,3.44483697 13,3.9955775 L13,13.0044225 C13,13.5542648 12.555163,14 12.0044225,14 L2.9955775,14 C2.44573523,14 2,13.555163 2,13.0044225 L2,3.9955775 C2,3.44573523 2.44483697,3 2.9955775,3 L4,3 L4,3.49531555 C4,3.78596497 4.22385763,4 4.5,4 C4.76806641,4 5,3.77404508 5,3.49531555 L5,3 L10,3 L10,3.49531555 C10,3.78596497 10.2238576,4 10.5,4 C10.7680664,4 11,3.77404508 11,3.49531555 L11,3 L11,3 Z M11,2 L11.9972399,2 C13.1033337,2 14,2.89354265 14,4.00276013 L14,12.9972399 C14,14.1033337 13.1064574,15 11.9972399,15 L3.00276013,15 C1.89666625,15 1,14.1064574 1,12.9972399 L1,4.00276013 C1,2.89666625 1.89354265,2 3.00276013,2 L4,2 L4,1.49538898 C4,1.2217932 4.23193359,1 4.5,1 C4.77614237,1 5,1.2157526 5,1.49538898 L5,2 L10,2 L10,1.49538898 C10,1.2217932 10.2319336,1 10.5,1 C10.7761424,1 11,1.2157526 11,1.49538898 L11,2 Z M8,5 L7,5 L7,6 L8,6 L8,5 Z M10,5 L9,5 L9,6 L10,6 L10,5 Z M12,5 L11,5 L11,6 L12,6 L12,5 Z M8,7 L7,7 L7,8 L8,8 L8,7 Z M10,7 L9,7 L9,8 L10,8 L10,7 Z M12,7 L11,7 L11,8 L12,8 L12,7 Z M4,7 L3,7 L3,8 L4,8 L4,7 Z M6,7 L5,7 L5,8 L6,8 L6,7 Z M4,9 L3,9 L3,10 L4,10 L4,9 Z M6,9 L5,9 L5,10 L6,10 L6,9 Z M8,9 L7,9 L7,10 L8,10 L8,9 Z M10,9 L9,9 L9,10 L10,10 L10,9 Z M12,9 L11,9 L11,10 L12,10 L12,9 Z M4,11 L3,11 L3,12 L4,12 L4,11 Z M6,11 L5,11 L5,12 L6,12 L6,11 Z M8,11 L7,11 L7,12 L8,12 L8,11 Z M10,11 L9,11 L9,12 L10,12 L10,11 Z"/>
</svg>
