<svg width="16px" height="16px" viewBox="0 0 16 16" version="1.1" xmlns="http://www.w3.org/2000/svg" xmlns:xlink="http://www.w3.org/1999/xlink">
    <g id="Page-1" stroke="none" stroke-width="1" fill="none" fill-rule="evenodd">
        <g id="Group-4" transform="translate(0.000000, 8.000000)" fill="#000000">
            <path d="M1.50000014,1.39669396e-07 C2.00000047,0.500000466 4.50000045,2.49999969 8.00000013,2.5 C11.5000001,2.50000031 14,0.5 14.5,0 L15.4999996,0 C15.4999996,0 12.418278,4 8,4 C3.581722,4 0.510699875,2.24308337e-07 0.510699875,2.24308337e-07 L1.50000014,1.39669396e-07 Z" id="Combined-Shape"></path>
            <polygon id="Line" points="10.0149287 6.62126781 10.9850713 6.37873219 10.4850713 4.37873219 9.51492875 4.62126781"></polygon>
            <polygon id="Line" points="14.0839749 4.7773501 14.9160251 4.2226499 13.9160251 2.7226499 13.0839749 3.2773501"></polygon>
            <polygon id="Line" points="5.01492875 6.37873219 5.98507125 6.62126781 6.48507125 4.62126781 5.51492875 4.37873219"></polygon>
            <polygon id="Line" points="1.08397485 4.2226499 1.91602515 4.7773501 2.91602515 3.2773501 2.08397485 2.7226499"></polygon>
        </g>
    </g>
</svg>