<?xml version="1.0" encoding="UTF-8"?>
<svg width="16px" height="16px" viewBox="0 0 16 16" version="1.1" xmlns="http://www.w3.org/2000/svg" xmlns:xlink="http://www.w3.org/1999/xlink">
    <!-- Generator: Sketch 41.2 (35397) - http://www.bohemiancoding.com/sketch -->
    <title>Rectangle</title>
    <desc>Created with Sketch.</desc>
    <defs></defs>
    <g id="#-Icons" stroke="none" stroke-width="1" fill="none" fill-rule="evenodd">
        <g id="Artboard-1" transform="translate(-2274.000000, -280.000000)">
            <g id="Unknown" transform="translate(1565.000000, 241.000000)">
                <g id="Page-1">
                    <g id="icons-general"></g>
                </g>
            </g>
            <path d="M2280.45312,283.785053 C2280.20287,283.903765 2280.13441,284.188175 2280.28678,284.401495 L2281.92017,286.688232 C2282.2404,287.136559 2282.05497,287.526178 2281.50831,287.558335 L2274.24522,287.985575 C2274.10979,287.993542 2274,288.107018 2274,288.252342 L2274,288.747658 C2274,288.887023 2274.12016,289.007068 2274.24522,289.014425 L2281.50831,289.441665 C2282.056,289.473883 2282.24187,289.861379 2281.92017,290.311768 L2280.28678,292.598505 C2280.1284,292.820245 2280.20238,293.096405 2280.45124,293.214947 L2280.59842,293.285053 C2280.84763,293.403765 2281.19773,293.333641 2281.38415,293.124187 L2284.83374,289.248551 C2285.2017,288.835137 2285.20829,288.171936 2284.83439,287.751449 L2281.38821,283.875813 C2281.20365,283.668257 2280.85081,283.596405 2280.60091,283.714947 L2280.45312,283.785053 Z" id="Combined-Shape" fill="#A1A7B3"></path>
        </g>
    </g>
</svg>