<svg width="68px" height="68px" viewBox="0 0 68 68" version="1.1" xmlns="http://www.w3.org/2000/svg" xmlns:xlink="http://www.w3.org/1999/xlink">
    <g id="Page-1" stroke="none" stroke-width="1" fill="none" fill-rule="evenodd">
        <rect id="Rectangle-2" fill="#FFFFFF" x="20" y="44" width="28" height="8" rx="4"></rect>
        <path d="M40.000612,12.5504271 C41.9137825,11.4162293 44.3617737,12.092211 45.463133,14.05099 L55.4662942,31.8417162 C56.5699907,33.804652 55.9098896,36.3176828 54.000612,37.4495729 C52.0874415,38.5837707 49.6394502,37.907789 48.5380909,35.94901 L38.5349298,18.1582838 C37.4312332,16.195348 38.0913344,13.6823172 40.000612,12.5504271 Z" id="Rectangle-2-Copy" fill="#FFFFFF"></path>
        <path d="M28.000612,12.5504271 C26.0874415,11.4162293 23.6394502,12.092211 22.5380909,14.05099 L12.5349298,31.8417162 C11.4312332,33.804652 12.0913344,36.3176828 14.000612,37.4495729 C15.9137825,38.5837707 18.3617737,37.907789 19.463133,35.94901 L29.4662942,18.1582838 C30.5699907,16.195348 29.9098896,13.6823172 28.000612,12.5504271 Z" id="Rectangle-2-Copy-2" fill="#FFFFFF"></path>
    </g>
</svg>