<svg xmlns="http://www.w3.org/2000/svg" width="24" height="24" viewBox="0 0 24 24">
  <path fill="#000000" fill-rule="evenodd" d="M0,11.4994154 C0.00855863094,12.8577117 1.13760984,13.9588284 2.5,13.9588284 L14.4636464,13.9588284 L10.2520777,18.1020232 C9.27248323,19.0657141 8.09968567,20.8451849 9.59968567,22.3208327 C11.0996857,23.7964805 12.8026182,22.5491607 13.7876116,21.5801584 L22.2610015,13.2443322 C22.7517897,12.7615119 22.9990641,12.1307332 23,11.499818 C23.0000486,10.8724176 22.7544882,10.2399736 22.2610015,9.75449854 L13.7876116,1.41867234 C12.8080171,0.454981383 11.0996857,-0.797649981 9.59968567,0.677997836 C8.09968567,2.15364565 9.26708427,3.92780533 10.2520777,4.8968076 L14.4636464,9.04000236 L2.5,9.04000236 C1.12401493,9.04000236 0.00855863094,10.1316493 0,11.4994154 L0,11.4994154 Z"/>
</svg>
