<?xml version="1.0" encoding="UTF-8"?>
<svg width="16px" height="16px" viewBox="0 0 16 16" version="1.1" xmlns="http://www.w3.org/2000/svg" xmlns:xlink="http://www.w3.org/1999/xlink">
    <!-- Generator: Sketch 46 (44423) - http://www.bohemiancoding.com/sketch -->
    <title>pencil</title>
    <desc>Created with Sketch.</desc>
    <defs></defs>
    <g id="#-Icons" stroke="none" stroke-width="1" fill="none" fill-rule="evenodd">
        <g id="Artboard-1" transform="translate(-2659.000000, -1246.000000)" fill="#12212D">
            <path d="M2664.51451,1255.80292 C2664.3706,1256.05217 2664.22355,1256.52656 2664.07335,1257.22607 L2664.07339,1257.22608 C2664.02784,1257.43822 2664.12432,1257.65553 2664.31223,1257.76402 L2664.64964,1257.95882 L2664.64967,1257.95878 C2664.83747,1258.06721 2665.07376,1258.0422 2665.2347,1257.89687 C2665.76431,1257.41865 2666.10159,1257.054 2666.24656,1256.80292 L2668.64836,1252.64287 L2666.91631,1251.64287 L2664.51451,1255.80292 Z M2666.05066,1251.14222 C2666.3291,1250.65995 2666.93428,1250.49854 2667.41232,1250.77454 L2669.15235,1251.77915 C2669.63345,1252.05691 2669.79086,1252.66401 2669.51476,1253.14222 L2667.11258,1257.30292 C2666.77407,1257.88924 2665.99063,1258.71128 2665.44682,1259.01316 L2663.77502,1259.94124 C2663.445,1260.12445 2663.03876,1259.8899 2663.03241,1259.5125 L2663.00024,1257.60063 C2662.98986,1256.98351 2663.31183,1255.88602 2663.64848,1255.30292 L2666.05066,1251.14222 Z" id="1" fill-rule="nonzero"></path>
            <path d="M2669.21921,1251.60694 L2669.66905,1251.86665 C2669.9082,1252.00472 2670.21399,1251.92278 2670.35206,1251.68364 L2670.76207,1250.97349 C2671.17765,1250.25369 2670.93191,1249.33744 2670.214,1248.92295 L2669.34617,1248.42191 C2668.62622,1248.00624 2667.71281,1248.25306 2667.29804,1248.97147 L2666.88714,1249.68316 C2666.74907,1249.92231 2666.83101,1250.2281 2667.07015,1250.36618 L2667.46211,1250.59247 L2668.16406,1249.47147 C2668.30317,1249.23053 2668.60533,1249.14888 2668.84617,1249.28793 L2669.714,1249.78898 C2669.95371,1249.92737 2670.03543,1250.23207 2669.89604,1250.47349 L2669.21921,1251.60694 Z" id="2"></path>
        </g>
    </g>
</svg>