<svg xmlns="http://www.w3.org/2000/svg" width="120" height="54" viewBox="0 0 120 54">
  <g fill="none" fill-rule="evenodd">
    <polygon fill="#000000" points="73.961 34 73.961 28.903 78.887 28.903 78.887 27 73.961 27 73.961 22 72 22 72 27 67 27 67 28.903 72 28.903 72 34"/>
    <path fill="#000000" d="M55,18 C56.104,18 57,18.896 57,20 L57,41 C57,42.104 56.104,43 55,43 L4,43 C2.896,43 2,42.104 2,41 L2,20 C2,18.896 2.896,18 4,18 L55,18 L55,18 Z M55,17 L4,17 C2.346,17 1,18.346 1,20 L1,41 C1,42.654 2.346,44 4,44 L55,44 C56.654,44 58,42.654 58,41 L58,20 C58,18.346 56.654,17 55,17 L55,17 L55,17 L55,17 L55,17 Z"/>
    <path class="shift-bg" fill="#FFFFFF" d="M4,16 L55,16 C56.104,16 57,16.896 57,18 L57,41 C57,42.104 56.104,43 55,43 L4,43 C2.896,43 2,42.104 2,41 L2,18 C2,16.896 2.896,16 4,16 C4,16 2.896,16 4,16 L4,16 L4,16 Z"/>
    <path fill="#000000" d="M26.32,31.08 C26.523,31.388 26.803,31.618 27.16,31.77 C27.515,31.922 27.958,31.999 28.486,31.999 C28.902,31.999 29.278,31.924 29.61,31.771 C29.942,31.618 30.198,31.407 30.376,31.133 C30.553,30.861 30.643,30.57 30.643,30.261 C30.643,29.95 30.561,29.675 30.4,29.436 C30.237,29.197 29.987,29 29.649,28.844 C29.415,28.74 28.984,28.615 28.358,28.474 C27.731,28.333 27.344,28.195 27.195,28.06 C27.044,27.926 26.968,27.754 26.968,27.546 C26.968,27.306 27.075,27.101 27.288,26.93 C27.501,26.76 27.841,26.675 28.308,26.675 C28.756,26.675 29.096,26.768 29.324,26.956 C29.553,27.144 29.688,27.421 29.728,27.787 L30.468,27.731 C30.454,27.391 30.359,27.085 30.182,26.817 C30.005,26.547 29.751,26.344 29.42,26.206 C29.09,26.067 28.708,25.998 28.276,25.998 C27.883,25.998 27.526,26.063 27.206,26.196 C26.886,26.328 26.642,26.521 26.475,26.775 C26.308,27.031 26.224,27.303 26.224,27.596 C26.224,27.864 26.292,28.104 26.429,28.319 C26.567,28.535 26.773,28.715 27.052,28.859 C27.267,28.972 27.642,29.092 28.178,29.221 C28.713,29.35 29.059,29.443 29.216,29.504 C29.461,29.597 29.635,29.71 29.741,29.846 C29.846,29.983 29.901,30.141 29.901,30.324 C29.901,30.504 29.845,30.668 29.735,30.82 C29.625,30.972 29.457,31.091 29.232,31.178 C29.007,31.265 28.747,31.309 28.453,31.309 C28.12,31.309 27.822,31.251 27.558,31.136 C27.293,31.022 27.097,30.871 26.972,30.685 C26.845,30.499 26.765,30.262 26.731,29.971 L26,30.037 C26.01,30.425 26.117,30.773 26.32,31.08 C26.32,31.08 26.117,30.773 26.32,31.08 L26.32,31.08 L26.32,31.08 Z"/>
    <polygon fill="#000000" points="32.771 31.803 32.771 29.068 35.802 29.068 35.802 31.803 36.573 31.803 36.573 26 35.802 26 35.802 28.383 32.771 28.383 32.771 26 32 26 32 31.803 32.771 31.803 32.771 31.803"/>
    <polygon fill="#000000" points="39 32 39 26.197 38.229 26.197 38.229 32 39 32 39 32"/>
    <polygon fill="#000000" points="40.838 32 40.838 29.364 43.574 29.364 43.574 28.678 40.838 28.678 40.838 26.881 44 26.881 44 26.196 40.066 26.196 40.066 32 40.838 32 40.838 32"/>
    <polygon fill="#000000" points="47.645 31.901 47.645 26.783 49.574 26.783 49.574 26.098 44.953 26.098 44.953 26.783 46.874 26.783 46.874 31.901 47.645 31.901 47.645 31.901"/>
    <polygon class="shift-bg" fill="#FFFFFF" points="12.5 33.5 12.5 29.5 10.087 29.5 15 23.769 19.913 29.5 17.5 29.5 17.5 33.5"/>
    <path fill="#000000" d="M15,24.536 L18.826,29 L18,29 L17,29 L17,30 L17,33 L13,33 L13,30 L13,29 L12,29 L11.174,29 L15,24.536 L15,24.536 Z M15,23 L9,30 L12,30 L12,34 L18,34 L18,30 L21,30 L15,23 L15,23 L15,23 L15,23 Z"/>
    <path fill="#000000" d="M55 16C56.104 16 57 16.896 57 18L57 39C57 40.104 56.104 41 55 41L4 41C2.896 41 2 40.104 2 39L2 18C2 16.896 2.896 16 4 16L55 16 55 16zM55 15L4 15C2.346 15 1 16.346 1 18L1 39C1 40.654 2.346 42 4 42L55 42C56.654 42 58 40.654 58 39L58 18C58 16.346 56.654 15 55 15L55 15 55 15 55 15 55 15zM117 25.548L117 40.375C117 45.131 113.167 49 108.455 49L97.545 49C92.833 49 89 45.131 89 40.375L89 26.016C91.903 32.915 97.455 35.584 102.352 35.584 108.037 35.584 113.989 32.119 117 25.548L117 25.548zM118 15.625L118 15.845 118 15.625 118 15.625 118 15.625 118 15.625 118 15.625zM88 15.625L88 40.375C88 45.69 92.273 50 97.545 50L108.455 50C113.726 50 118 45.69 118 40.375L118 15.845C117.952 27.742 110.04 34.584 102.352 34.584 95.247 34.584 88.333 28.734 88 15.625L88 15.625 88 15.625 88 15.625 88 15.625z"/>
    <path class="shift-bg" fill="#FFFFFF" d="M117,40.375 C117,45.131 113.167,49 108.455,49 L97.545,49 C92.833,49 89,45.131 89,40.375 L89,32.1955 L89,13.625 C89,8.869 92.833,5 97.545,5 L101,5 L101,7.352 C99.421,8.183 98,9.909 98,12 L98,16.125 C98,17.971 99.204,19.749 101,20.656 L101,23.003 L101,24.003 L102,24.003 L104,24.003 L105,24.003 L105,23.003 L105,20.656 C106.796,19.749 108,17.97 108,16.125 L108,12 C108,9.908 106.579,8.183 105,7.352 L105,5 L108.455,5 C113.167,5 117,8.869 117,13.625 L117,31.9615 L117,40.375 Z M105,12 L105,16.125 C105,17.054 103.991,18 103,18 C102.009,18 101,17.054 101,16.125 L101,12 C101,11.047 102.047,10 103,10 C103.953,10 105,11.047 105,12 Z"/>
    <path fill="#000000" d="M108.455,5 C113.167,5 117,8.869 117,13.625 L117,38.375 C117,43.131 113.167,47 108.455,47 L97.545,47 C92.833,47 89,43.131 89,38.375 L89,13.625 C89,8.869 92.833,5 97.545,5 L101,5 L101,7.352 C99.421,8.183 98,9.909 98,12 L98,16.125 C98,17.971 99.204,19.749 101,20.656 L101,23.003 L101,24.003 L102,24.003 L104,24.003 L105,24.003 L105,23.003 L105,20.656 C106.796,19.749 108,17.97 108,16.125 L108,12 C108,9.908 106.579,8.183 105,7.352 L105,5 L108.455,5 L108.455,5 Z M103,10 C103.953,10 105,11.047 105,12 L105,16.125 C105,17.054 103.991,18 103,18 C102.009,18 101,17.054 101,16.125 L101,12 C101,11.047 102.047,10 103,10 L103,10 Z M108.455,4 L104,4 L104,8 C105.586,8.568 107,10.206 107,12 L107,16.125 C107,17.918 105.586,19.433 104,20 L104,23.003 L102,23.003 L102,20 C100.414,19.433 99,17.918 99,16.125 L99,12 C99,10.206 100.414,8.568 102,8 L102,4 L97.545,4 C92.274,4 88,8.309 88,13.625 L88,38.375 C88,43.69 92.273,48 97.545,48 L108.455,48 C113.726,48 118,43.69 118,38.375 L118,13.625 C118,8.309 113.727,4 108.455,4 L108.455,4 L108.455,4 L108.455,4 L108.455,4 Z M103,9 C101.494,9 100,10.48 100,12 L100,16.125 C100,17.644 101.494,19 103,19 C104.506,19 106,17.644 106,16.125 L106,12 C106,10.48 104.506,9 103,9 L103,9 L103,9 L103,9 L103,9 Z"/>
    <path id="shift-dot"  fill="#59BEEC" d="M94,10 C95.104,10 96,10.896 96,12 C96,13.104 95.104,14 94,14 C92.896,14 92,13.104 92,12 C92,10.896 92.896,10 94,10 C94,10 92.896,10 94,10 L94,10 L94,10 Z"/>
  </g>
</svg>
