<svg width="16px" height="16px" viewBox="0 0 16 16" version="1.1" xmlns="http://www.w3.org/2000/svg" xmlns:xlink="http://www.w3.org/1999/xlink">
    <g id="Page-1" stroke="none" stroke-width="1" fill="none" fill-rule="evenodd" opacity="0.9">
        <path d="M10,4 L12.5,4 C13.5,4 14,4.5 14,5.5 L14,10 L9,10 L9,9 L6,9 L6,10 L1,10 L1,5.5 C1,4.5 1.5,4 2.5,4 L5,4 C5,3.88888889 5,3.66666667 5,3.5 C5,2.5 5.5,2 6.5,2 C7.5,2 7.5,2 8.5,2 C9.5,2 10,2.5 10,3.5 L10,4 Z M9,4 L6,4 C6,3 6,3 7,3 L8,3 C9,3 9,3.03765478 9,4 Z M2.5,14 L12.5,14 C13.5,14 14,13.5 14,12.5 L14,11 L1,11 L1.012,12.5 C1.012,13.393 1.5,14 2.5,14 Z" id="Shape" fill="#000000"></path>
    </g>
</svg>