<svg width="30px" height="12px" viewBox="0 0 30 12" version="1.1" xmlns="http://www.w3.org/2000/svg" xmlns:xlink="http://www.w3.org/1999/xlink">
    <g id="Page-1" stroke="none" stroke-width="1" fill="none" fill-rule="evenodd">
        <path d="M2,5 L2,6 L7,6 L7,8 L9.996,5.497 L7,3 L7,5 L2,5 Z M27.996,5.497 L24.996,3 L24.996,5 L20.996,5 L20.996,6 L24.996,6 L24.996,8 L27.996,5.497 L27.996,5.497 L27.996,5.497 L27.996,5.497 Z M15.496,2 C13.563,2 11.996,3.566 11.996,5.5 C11.996,7.434 13.563,9 15.496,9 C17.428,9 18.995,7.434 18.995,5.5 C18.995,3.566 17.428,2 15.496,2 L15.496,2 L15.496,2 L15.496,2 Z" id="Shape" fill="#000000"></path>
    </g>
</svg>