<svg width="50px" height="16px" viewBox="0 0 50 16" version="1.1" xmlns="http://www.w3.org/2000/svg" xmlns:xlink="http://www.w3.org/1999/xlink">
    <g id="Page-1" stroke="none" stroke-width="1" fill="none" fill-rule="evenodd">
        <path d="M1,7.00096015 L1,8.0012802 L12.0012802,8.0012802 L12.0012802,11.0019203 L16,7.50112018 L12.0012802,4.00032005 L12.0012802,7.00096015 L1,7.00096015 Z M45.9990398,4.00032005 L45.9990398,7.00096015 L35.9977596,7.00096015 L35.9977596,7.99511922 L45.9990398,7.99511922 L45.9990398,10.9957593 L50,7.49803969 L45.9990398,4.00032005 Z M19.9948792,7.5 C19.9948792,11.0917143 22.905022,14 26.4948792,14 C30.0828792,14 32.993022,11.0917143 32.993022,7.5 C32.993022,3.90828571 30.0828792,1 26.4948792,1 C22.905022,1 19.9948792,3.90828571 19.9948792,7.5 Z" id="Combined-Shape" fill="#000000"></path>
    </g>
</svg>