<svg width="16px" height="16px" viewBox="0 0 16 16" version="1.1" xmlns="http://www.w3.org/2000/svg" xmlns:xlink="http://www.w3.org/1999/xlink">
    <g id="Page-1" stroke="none" stroke-width="1" fill="none" fill-rule="evenodd">
        <path d="M6,5 L10,5 C10.5081936,5 11.2354542,5.12121009 11.9736068,5.4902864 C13.2311461,6.11905607 14,7.27233687 14,9 C14,10.7276631 13.2311461,11.8809439 11.9736068,12.5097136 C11.2354542,12.8787899 10.5081936,13 10,13 L7.72222222,13 L7.22222222,13 L7.22222222,12 L7.72222222,12 L10,12 C10.0834219,12 10.2478288,11.9882566 10.4646755,11.9521155 C10.8287951,11.8914289 11.1920777,11.7824442 11.5263932,11.6152864 C12.4563539,11.1503061 13,10.3348369 13,9 C13,7.66516313 12.4563539,6.84969393 11.5263932,6.3847136 C11.1920777,6.21755582 10.8287951,6.10857107 10.4646755,6.04788446 C10.2478288,6.01174335 10.0834219,6 10,6 L6,6 L6,9 L2,5.5 L6,2 L6,5 L6,5 Z" id="Combined-Shape" fill="#000000"></path>
    </g>
</svg>