<svg width="16px" height="16px" viewBox="0 0 16 16" version="1.1" xmlns="http://www.w3.org/2000/svg" xmlns:xlink="http://www.w3.org/1999/xlink">
    <g id="Page-1" stroke="none" stroke-width="1" fill="none" fill-rule="evenodd">
        <path d="M14,12.585 L10.168,8.753 C10.692,7.964 11,7.019 11,6 C11,3.239 8.761,1 6,1 C3.239,1 1,3.239 1,6 C1,8.761 3.239,11 6,11 C7.019,11 7.964,10.691 8.754,10.168 L12.585,14 L14,12.585 L14,12.585 L14,12.585 L14,12.585 Z M2,6 C2,3.794 3.794,2 6,2 C8.206,2 10,3.794 10,6 C10,8.206 8.206,10 6,10 C3.794,10 2,8.206 2,6 C2,6 2,8.206 2,6 L2,6 L2,6 Z" id="search" fill="#000000"></path>
    </g>
</svg>