<svg width="24px" height="24px" viewBox="0 0 24 24" version="1.1" xmlns="http://www.w3.org/2000/svg" xmlns:xlink="http://www.w3.org/1999/xlink">
    <g id="#-Icons" stroke="none" stroke-width="1" fill="none" fill-rule="evenodd">
        <g id="Artboard-1" transform="translate(-1517.000000, -835.000000)" fill-rule="nonzero" fill="#000000">
            <path d="M1538.08721,854.556882 C1538.33168,854.801354 1538.33503,855.195302 1538.09098,855.439352 L1537.43935,856.090978 C1537.19585,856.334478 1536.8003,856.330626 1536.55688,856.087212 L1532.2508,851.781127 C1530.89597,852.807693 1529.24115,853.375 1527.5,853.375 C1523.15076,853.375 1519.625,849.849242 1519.625,845.5 C1519.625,841.150758 1523.15076,837.625 1527.5,837.625 C1531.84924,837.625 1535.375,841.150758 1535.375,845.5 C1535.375,847.24115 1534.80769,848.895973 1533.78113,850.250797 L1538.08721,854.556882 Z M1527.5,850.625 C1530.33046,850.625 1532.625,848.330459 1532.625,845.5 C1532.625,842.669541 1530.33046,840.375 1527.5,840.375 C1524.66954,840.375 1522.375,842.669541 1522.375,845.5 C1522.375,848.330459 1524.66954,850.625 1527.5,850.625 Z" id="Combined-Shape"></path>
        </g>
    </g>
</svg>