<svg width="16px" height="16px" viewBox="0 0 16 16" version="1.1" xmlns="http://www.w3.org/2000/svg" xmlns:xlink="http://www.w3.org/1999/xlink">
    <g id="Page-1" stroke="none" stroke-width="1" fill="none" fill-rule="evenodd">
        <g id="Slices" transform="translate(-180.000000, 0.000000)"></g>
        <path d="M15,8.86141176 L15,7.11141176 L12.9082353,6.23929412 C12.8497647,6.07541176 12.788,5.91564706 12.7130588,5.76082353 L13.558,3.65835294 L12.3202353,2.42141176 L10.2367059,3.27952941 C10.0785882,3.20211765 9.91552941,3.13788235 9.74835294,3.07776471 L8.86141176,1 L7.11141176,1 L6.24670588,3.07117647 C6.07211765,3.13294118 5.90411765,3.19717647 5.73941176,3.27623529 L3.66,2.44035294 L2.42223529,3.67811765 L3.26964706,5.73858824 C3.18729412,5.90741176 3.12058824,6.08035294 3.058,6.25823529 L1,7.13858824 L1,8.88858824 L3.05964706,9.74670588 C3.12305882,9.92458824 3.18976471,10.0967059 3.27211765,10.2663529 L2.44035294,12.3408235 L3.67811765,13.5777647 L5.74435294,12.7270588 C5.90988235,12.8061176 6.07870588,12.8678824 6.25329412,12.9288235 L7.13858824,15 L8.88858824,15 L9.75576471,12.9181176 C9.92129412,12.8571765 10.0851765,12.7921176 10.2424706,12.7163529 L12.3408235,13.5571765 L13.5785882,12.3194118 L12.7171765,10.2309412 C12.7912941,10.0736471 12.8497647,9.91388235 12.9082353,9.75247059 L15,8.86141176 L15,8.86141176 Z M8,11.2666667 C6.19607407,11.2666667 4.73333333,9.80392593 4.73333333,8 C4.73333333,6.19607407 6.19607407,4.73333333 8,4.73333333 C9.80392593,4.73333333 11.2666667,6.19607407 11.2666667,8 C11.2666667,9.80392593 9.80392593,11.2666667 8,11.2666667 L8,11.2666667 Z" id="settings" fill="#000000"></path>
    </g>
</svg>