<svg xmlns="http://www.w3.org/2000/svg" width="48" height="24" viewBox="0 0 48 24">
  <g fill="none" fill-rule="evenodd" transform="translate(0 1)">
    <path fill="#000000" d="M45,3 C46.104,3 47,3.896 47,5 L47,18 C47,19.104 46.104,20 45,20 L3,20 C1.896,20 1,19.104 1,18 L1,5 C1,3.896 1.896,3 3,3 L45,3 L45,3 Z M45,2 L3,2 C1.346,2 0,3.346 0,5 L0,18 C0,19.654 1.346,21 3,21 L45,21 C46.654,21 48,19.654 48,18 L48,5 C48,3.346 46.654,2 45,2 L45,2 L45,2 L45,2 L45,2 Z"/>
    <path class="shift-bg" fill="#FFFFFF" d="M3,1 L45,1 C46.104,1 47,1.896 47,3 L47,18 C47,19.104 46.104,20 45,20 L3,20 C1.896,20 1,19.104 1,18 L1,3 C1,1.896 1.896,1 3,1 C3,1 1.896,1 3,1 L3,1 L3,1 Z"/>
    <path fill="#000000" d="M18.32,12.08 C18.523,12.388 18.803,12.618 19.16,12.77 C19.515,12.922 19.958,12.999 20.486,12.999 C20.902,12.999 21.278,12.924 21.61,12.771 C21.942,12.618 22.198,12.407 22.376,12.133 C22.553,11.861 22.643,11.57 22.643,11.261 C22.643,10.95 22.561,10.675 22.4,10.436 C22.237,10.197 21.987,10 21.649,9.844 C21.415,9.74 20.984,9.615 20.358,9.474 C19.731,9.333 19.344,9.195 19.195,9.06 C19.044,8.926 18.968,8.754 18.968,8.546 C18.968,8.306 19.075,8.101 19.288,7.93 C19.501,7.76 19.841,7.675 20.308,7.675 C20.756,7.675 21.096,7.768 21.324,7.956 C21.553,8.144 21.688,8.421 21.728,8.787 L22.468,8.731 C22.454,8.391 22.359,8.085 22.182,7.817 C22.005,7.547 21.751,7.344 21.42,7.206 C21.09,7.067 20.708,6.998 20.276,6.998 C19.883,6.998 19.526,7.063 19.206,7.196 C18.886,7.328 18.642,7.521 18.475,7.775 C18.308,8.031 18.224,8.303 18.224,8.596 C18.224,8.864 18.292,9.104 18.429,9.319 C18.567,9.535 18.773,9.715 19.052,9.859 C19.267,9.972 19.642,10.092 20.178,10.221 C20.713,10.35 21.059,10.443 21.216,10.504 C21.461,10.597 21.635,10.71 21.741,10.846 C21.846,10.983 21.901,11.141 21.901,11.324 C21.901,11.504 21.845,11.668 21.735,11.82 C21.625,11.972 21.457,12.091 21.232,12.178 C21.007,12.265 20.747,12.309 20.453,12.309 C20.12,12.309 19.822,12.251 19.558,12.136 C19.293,12.022 19.097,11.871 18.972,11.685 C18.845,11.499 18.765,11.262 18.731,10.971 L18,11.037 C18.01,11.425 18.117,11.773 18.32,12.08 C18.32,12.08 18.117,11.773 18.32,12.08 L18.32,12.08 L18.32,12.08 Z"/>
    <polygon fill="#000000" points="24.771 12.803 24.771 10.068 27.802 10.068 27.802 12.803 28.573 12.803 28.573 7 27.802 7 27.802 9.383 24.771 9.383 24.771 7 24 7 24 12.803 24.771 12.803 24.771 12.803"/>
    <polygon fill="#000000" points="31 13 31 7.197 30.229 7.197 30.229 13 31 13 31 13"/>
    <polygon fill="#000000" points="32.838 13 32.838 10.364 35.574 10.364 35.574 9.678 32.838 9.678 32.838 7.881 36 7.881 36 7.196 32.066 7.196 32.066 13 32.838 13 32.838 13"/>
    <polygon fill="#000000" points="39.645 12.901 39.645 7.783 41.574 7.783 41.574 7.098 36.953 7.098 36.953 7.783 38.874 7.783 38.874 12.901 39.645 12.901 39.645 12.901"/>
    <polygon class="shift-bg" fill="#FFFFFF" points="7.75 12.5 7.75 9.59 6.109 9.59 9.5 5.755 12.891 9.59 11.25 9.59 11.25 12.5"/>
    <path fill="#000000" d="M9.5,6.51 L11.781,9.09 L11.75,9.09 L10.75,9.09 L10.75,10.09 L10.75,12 L8.25,12 L8.25,10.09 L8.25,9.09 L7.25,9.09 L7.219,9.09 L9.5,6.51 L9.5,6.51 Z M9.5,5 L5,10.09 L7.25,10.09 L7.25,13 L11.75,13 L11.75,10.09 L14,10.09 L9.5,5 L9.5,5 L9.5,5 L9.5,5 Z"/>
    <path fill="#000000" d="M45,1 C46.104,1 47,1.896 47,3 L47,16 C47,17.104 46.104,18 45,18 L3,18 C1.896,18 1,17.104 1,16 L1,3 C1,1.896 1.896,1 3,1 L45,1 L45,1 Z M45,0 L3,0 C1.346,0 0,1.346 0,3 L0,16 C0,17.654 1.346,19 3,19 L45,19 C46.654,19 48,17.654 48,16 L48,3 C48,1.346 46.654,0 45,0 L45,0 L45,0 L45,0 L45,0 Z"/>
  </g>
</svg>
