<svg width="16px" height="16px" viewBox="0 0 16 16" version="1.1" xmlns="http://www.w3.org/2000/svg" xmlns:xlink="http://www.w3.org/1999/xlink">
    <g id="Page-1" stroke="none" stroke-width="1" fill="none" fill-rule="evenodd">
        <polygon id="Shape" fill="#000000" points="7 5.999 5 5.999 5 11.999 4 11.999 4 5.999 2 5.999 4.5 3 7 5.999 7 5.999"></polygon>
        <path d="M6,9.999 L12.999,9.999 L12.999,8.999 L6,8.999 L6,9.999 L6,9.999 L6,9.999 L6,9.999 Z M8.968,5.999 L12.999,5.999 L12.999,5 L8.008,5.002 L8.968,5.999 L8.968,5.999 L8.968,5.999 L8.968,5.999 Z M6,11.999 L12.999,11.999 L12.999,10.999 L6,10.999 L6,11.999 L6,11.999 L6,11.999 L6,11.999 Z M6.062,3 L7.012,3.97 L12.998,4 L12.998,3 L6.062,3 L6.062,3 L6.062,3 L6.062,3 Z M6,7.999 L12.999,7.999 L12.999,6.999 L6,6.999 L6,7.999 L6,7.999 L6,7.999 L6,7.999 Z" id="Shape" fill-opacity="0.398126132" fill="#000000"></path>
    </g>
</svg>