<svg width="16px" height="16px" viewBox="0 0 16 16" version="1.1" xmlns="http://www.w3.org/2000/svg" xmlns:xlink="http://www.w3.org/1999/xlink">
    <g id="Page-1" stroke="none" stroke-width="1" fill="none" fill-rule="evenodd">
        <polygon id="Shape" fill="#000000" points="4.5 11.999 2 9 4 9 4 3 5 3 5 9 7 9 4.5 11.999 4.5 11.999"></polygon>
        <path d="M6,6 L12.999,6 L12.999,5 L6,5 L6,6 L6,6 L6,6 L6,6 Z M8.008,9.997 L12.999,9.999 L12.999,9 L8.968,9 L8.008,9.997 L8.008,9.997 L8.008,9.997 L8.008,9.997 Z M6,4 L12.999,4 L12.999,3 L6,3 L6,4 L6,4 L6,4 L6,4 Z M12.999,11.999 L12.999,10.999 L7.013,11.029 L6.063,11.999 L12.999,11.999 L12.999,11.999 L12.999,11.999 L12.999,11.999 Z M6,8 L12.999,8 L12.999,7 L6,7 L6,8 L6,8 L6,8 L6,8 Z" id="Shape" fill-opacity="0.398126132" fill="#000000"></path>
    </g>
</svg>