<svg width="16px" height="16px" viewBox="0 0 16 16" version="1.1" xmlns="http://www.w3.org/2000/svg" xmlns:xlink="http://www.w3.org/1999/xlink">
    <g id="Page-1" stroke="none" stroke-width="1" fill="none" fill-rule="evenodd">
        <path d="M3.00174133,2 C2.44849487,2 2,2.44685337 2,3.00153479 L2,6.45893755 C2,7.01206994 2.31673803,7.77714506 2.70476416,8.16509118 L8.24636114,13.7055456 C8.63559164,14.0946958 9.26837092,14.0929842 9.66513392,13.696303 L13.6987151,9.66355346 C14.0930512,9.2692987 14.0959857,8.63301934 13.7079596,8.24507322 L8.16636261,2.70461885 C7.77713211,2.3154686 7.01465293,2 6.45985711,2 L3.00174133,2 Z M4.9790537,5.97125261 C5.52748234,5.97125261 5.9720716,5.52675502 5.9720716,4.97843946 C5.9720716,4.43012389 5.52748234,3.9856263 4.9790537,3.9856263 C4.43062506,3.9856263 3.9860358,4.43012389 3.9860358,4.97843946 C3.9860358,5.52675502 4.43062506,5.97125261 4.9790537,5.97125261 Z M14.800031,9.49286219 C15.0691368,9.22375638 15.0691133,8.77622005 14.7966851,8.5037919 L8.28997803,2 L9.51000977,2 C9.63459961,2.00257337 9.75846264,2.05135586 9.85355339,2.14644661 L15.5037919,7.79668512 C16.1667277,8.45962088 16.1667846,9.54032219 15.5071378,10.199969 L11.8535534,13.8535534 C11.7584625,13.9486443 11.6345993,13.9974268 11.5099874,13.9999009 L10.3099976,14 L14.800031,9.49286219 Z" id="Combined-Shape" fill="#000000"></path>
    </g>
</svg>