<svg xmlns="http://www.w3.org/2000/svg" width="16" height="16" viewBox="0 0 16 16">
  <path fill="#000000" fill-rule="evenodd" d="M263.107,3.854 C264.478,0.252 261.817,0.504 261.817,0.504 C260.112,0.504 257.98,2.079 257.98,2.079 C257.98,2.079 255.435,1.385 252.89,2.944 C250.118,4.736 250.21,7.916 250.21,7.916 C252.464,4.643 255.603,3.314 255.603,3.314 L255.603,3.531 C250.971,6.74 249.875,11.437 249.6,12.395 C249.327,13.353 249.509,15.5 251.458,15.5 C253.407,15.5 255.389,13.908 255.389,13.908 C255.389,13.908 255.815,14 256.975,14 C261.85,14 263.007,9.646 263.007,9.646 L258.68,9.646 C258.68,9.646 258.376,11.067 256.821,11.067 C254.69,11.067 254.811,8.812 254.811,8.812 L263.068,8.812 C263.464,3.006 258.467,2.172 258.467,2.172 C258.467,2.172 260.233,0.906 261.757,0.906 C264.173,0.906 263.032,3.776 263.032,3.776 L263.107,3.854 L263.107,3.854 Z M255.148,13.844 C255.148,13.844 252.172,15.675 250.836,14.406 C250.119,13.136 251.283,11.341 251.283,11.341 C251.283,11.341 252.268,13.191 255.148,13.844 L255.148,13.844 Z M258.727,6.835 L254.8,6.835 C254.8,6.835 254.752,4.896 256.813,4.896 C258.805,4.896 258.727,6.835 258.727,6.835 L258.727,6.835 Z" transform="translate(-248)"/>
</svg>
