<svg xmlns="http://www.w3.org/2000/svg" width="16" height="16" viewBox="0 0 16 16">
  <path fill="#000000" fill-rule="evenodd" d="M2409.639,3 L2401.151,3 L2399.001,5.535 L2405.501,13 L2412.001,5.535 L2409.639,3 L2409.639,3 Z M2408.627,3.783 C2408.455,3.984 2408.285,4.185 2408.113,4.385 C2407.943,4.186 2407.756,3.994 2407.459,3.783 L2408.627,3.783 L2408.627,3.783 Z M2400.791,6.555 C2400.475,6.196 2400.158,5.895 2399.842,5.535 C2400.319,4.971 2400.795,4.347 2401.272,3.783 L2402.374,3.783 C2400.975,4.475 2400.486,5.762 2400.791,6.555 L2400.791,6.555 Z M2405.5,11.991 C2404.988,11.405 2404.561,10.82 2404.049,10.232 C2405.053,10.656 2406.266,10.565 2407.063,10.232 C2406.57,10.82 2405.992,11.405 2405.5,11.991 L2405.5,11.991 Z M2405.357,9.289 C2405,8.867 2403.732,8.516 2402.83,8.867 C2402.5,8.488 2402.18,8.109 2401.848,7.731 C2403.42,7.85 2405.243,8.053 2406.903,8.103 C2407.108,8.109 2408.067,8.267 2408.092,8.716 C2407.938,9.387 2405.84,9.613 2405.357,9.289 L2405.357,9.289 Z M2407.428,6.023 C2406.51,5.972 2405.592,6.043 2404.674,5.962 C2404.045,5.871 2402.834,5.591 2402.85,4.997 C2402.873,4.384 2403.928,3.942 2404.465,3.851 C2405.24,3.712 2406.19,3.873 2406.596,4.092 C2407.418,4.497 2407.578,5.024 2407.756,5.549 L2409.897,5.549 L2409.897,4.223 C2410.293,4.608 2410.69,5.148 2411.086,5.534 C2410.594,6.124 2410.102,6.557 2409.609,7.147 C2409.016,6.388 2408.279,6.012 2407.428,6.023 L2407.428,6.023 Z" transform="translate(-2398)"/>
</svg>
