<svg xmlns="http://www.w3.org/2000/svg" width="16" height="16" viewBox="0 0 16 16">
  <path fill="#000000" fill-rule="evenodd" d="M2010.592,10.322 C2011.444,10.417 2012.046,9.943 2012.134,9.182 C2012.155,8.996 2012.044,8.445 2012.105,7.914 C2012.164,7.404 2012.392,6.915 2012.416,6.723 C2012.502,5.961 2012.021,5.366 2011.169,5.269 C2010.483,5.193 2009.203,5.639 2008.058,6.122 C2008.934,5.119 2009.829,3.95 2009.969,3.227 C2010.144,2.347 2009.688,1.68 2008.889,1.526 C2008.693,1.488 2008.097,1.558 2007.54,1.451 C2007.002,1.347 2006.502,1.069 2006.299,1.03 C2005.495,0.876 2004.825,1.327 2004.651,2.209 C2004.505,2.963 2004.933,4.472 2005.384,5.765 C2004.358,4.827 2003.099,3.8 2002.329,3.632 C2001.451,3.441 2000.772,3.873 2000.599,4.655 C2000.556,4.846 2000.611,5.434 2000.49,5.979 C2000.375,6.504 2000.084,6.991 2000.039,7.188 C1999.867,7.973 2000.303,8.643 2001.181,8.835 C2002.063,9.026 2003.995,8.469 2005.403,7.992 C2004.336,8.976 2002.936,10.39 2002.7,11.238 C2002.466,12.074 2002.852,12.752 2003.611,12.961 C2003.797,13.014 2004.377,12.991 2004.905,13.137 C2005.417,13.279 2005.878,13.584 2006.069,13.638 C2006.83,13.847 2007.514,13.463 2007.751,12.626 C2007.999,11.743 2007.493,9.688 2007.088,8.294 C2008.205,9.155 2009.747,10.226 2010.592,10.322 L2010.592,10.322 Z M2012.973,12.939 C2009.874,11.728 2007.506,9.003 2007.506,9.003 C2009.163,12.499 2011.572,13.874 2012.036,13.99 C2012.497,14.105 2013.143,13.203 2012.973,12.939 L2012.973,12.939 Z" transform="translate(-1998)"/>
</svg>
