<svg xmlns="http://www.w3.org/2000/svg" width="16" height="16" viewBox="0 0 16 16">
  <path fill="#000000" fill-rule="evenodd" d="M55.003,7.708 L53.55,12.614 C52.287,11.78 50.914,11.092 48,12.277 L49.42,7.424 L49.437,7.416 C52.339,6.244 53.745,6.87 55.003,7.708 L55.003,7.708 Z M55.764,8.182 L54.328,13.034 C55.589,13.875 56.987,14.545 59.897,13.362 L61.282,8.632 C58.316,9.628 57.025,9.016 55.764,8.182 L55.764,8.182 Z M55.245,6.824 L56.679,1.963 C55.417,1.126 54.019,0.454 51.106,1.64 L49.671,6.52 C50.829,6.051 51.741,5.836 52.506,5.843 C53.668,5.851 54.485,6.322 55.245,6.824 L55.245,6.824 Z M57.435,2.475 L56,7.363 C57.258,8.2 58.779,8.887 61.567,7.663 L63,2.793 C60.093,3.972 58.694,3.311 57.435,2.475 L57.435,2.475 Z" transform="translate(-48)"/>
</svg>
