<svg xmlns="http://www.w3.org/2000/svg" width="16" height="16" viewBox="0 0 16 16">
  <path fill="#000000" fill-rule="evenodd" d="M1561.993,4.763 C1561.772,4.235 1560.574,3.61 1559.099,4.316 C1559.099,4.316 1551.675,7.868 1551.447,7.977 C1551.221,8.086 1551.057,7.964 1550.847,7.796 C1550.478,7.506 1549.945,7.082 1549.777,6.943 C1549.514,6.727 1548.849,6.865 1549.031,7.301 C1549.211,7.736 1549.775,9.091 1549.988,9.603 C1550.301,10.356 1551.938,10.184 1554.787,8.822 C1555.047,8.698 1555.326,8.564 1555.619,8.424 L1554.899,12.534 C1554.806,12.933 1554.896,13.043 1555.019,12.985 L1555.441,12.783 C1555.66,12.678 1555.961,12.306 1556.113,11.952 L1558.17,7.179 C1560.243,6.14 1562.133,5.1 1561.993,4.763 L1561.993,4.763 Z M1551.864,5.233 L1553.574,6.349 L1555.469,5.442 L1553.078,4.651 C1552.731,4.536 1552.272,4.528 1552.054,4.632 L1551.631,4.835 C1551.509,4.894 1551.524,5.04 1551.864,5.233 L1551.864,5.233 Z" transform="translate(-1548)"/>
</svg>
