<svg xmlns="http://www.w3.org/2000/svg" width="16" height="16" viewBox="0 0 16 16">
  <path fill="#000000" fill-rule="evenodd" d="M605.513,6.209 L605.516,6.209 C605.792,6.209 606.018,5.979 606.024,5.694 C606.027,5.534 606.126,4.127 608.551,4.127 C610.963,4.127 611.6,2.422 611.6,1.521 C611.6,1.233 611.371,1 611.092,1 C610.812,1 610.583,1.233 610.583,1.521 C610.583,1.584 610.561,3.085 608.551,3.085 C607.294,3.085 606.34,3.413 605.715,4.06 C605.02,4.777 605.006,5.603 605.007,5.695 C605.009,5.98 605.234,6.207 605.513,6.209 L605.513,6.209 Z M608.562,5.74 C607.165,5.74 606.897,7.296 605.5,7.296 C604.104,7.296 603.836,5.74 602.438,5.74 C601.042,5.74 599,8.325 599,11.575 C599,12.595 599.753,13.999 600.585,13.999 C602.251,13.999 602.572,11.376 605.5,11.376 C608.428,11.376 608.75,14 610.415,14 C611.248,14 612,12.595 612,11.576 C612,8.326 609.959,5.74 608.562,5.74 L608.562,5.74 Z M603.976,9.862 L602.959,9.862 L602.959,10.904 L601.942,10.904 L601.942,9.862 L600.925,9.862 L600.925,8.82 L601.942,8.82 L601.942,7.778 L602.959,7.778 L602.959,8.82 L603.976,8.82 L603.976,9.862 L603.976,9.862 Z M608.551,7.639 C608.905,7.639 609.193,7.934 609.193,8.298 C609.193,8.663 608.906,8.957 608.551,8.957 C608.196,8.957 607.908,8.663 607.908,8.298 C607.908,7.935 608.195,7.639 608.551,7.639 L608.551,7.639 Z M606.892,9.341 C606.892,8.977 607.178,8.682 607.535,8.682 C607.889,8.682 608.177,8.977 608.177,9.341 C608.177,9.704 607.89,9.999 607.535,9.999 C607.178,9.999 606.892,9.704 606.892,9.341 L606.892,9.341 Z M608.551,11.042 C608.196,11.042 607.908,10.748 607.908,10.383 C607.908,10.019 608.195,9.724 608.551,9.724 C608.905,9.724 609.193,10.019 609.193,10.383 C609.192,10.748 608.905,11.042 608.551,11.042 L608.551,11.042 Z M609.567,9.999 C609.212,9.999 608.923,9.704 608.923,9.341 C608.923,8.977 609.211,8.682 609.567,8.682 C609.921,8.682 610.21,8.977 610.21,9.341 C610.21,9.704 609.921,9.999 609.567,9.999 L609.567,9.999 Z" transform="translate(-598)"/>
</svg>
