<svg xmlns="http://www.w3.org/2000/svg" width="16" height="16" viewBox="0 0 16 16">
  <path fill="#000000" fill-rule="evenodd" d="M2455.5,1 C2451.91,1 2449,3.91 2449,7.5 C2449,11.09 2451.91,14 2455.5,14 C2459.09,14 2462,11.09 2462,7.5 C2462,3.91 2459.09,1 2455.5,1 L2455.5,1 Z M2455.5,12.868 C2452.535,12.868 2450.133,10.465 2450.133,7.5 C2450.133,4.535 2452.535,2.132 2455.5,2.132 C2458.465,2.132 2460.868,4.535 2460.868,7.5 C2460.868,10.465 2458.465,12.868 2455.5,12.868 L2455.5,12.868 Z M2455.5,3.327 C2453.195,3.327 2451.326,5.195 2451.326,7.5 C2451.326,9.805 2453.195,11.674 2455.5,11.674 C2457.805,11.674 2459.674,9.805 2459.674,7.5 C2459.674,5.195 2457.805,3.327 2455.5,3.327 L2455.5,3.327 Z M2455.5,10.488 C2453.85,10.488 2452.512,9.15 2452.512,7.5 C2452.512,5.85 2453.85,4.512 2455.5,4.512 C2457.15,4.512 2458.488,5.85 2458.488,7.5 C2458.488,9.15 2457.15,10.488 2455.5,10.488 L2455.5,10.488 Z M2456.148,6.445 L2455.519,4.597 L2454.906,6.445 L2452.828,6.445 L2454.492,7.755 L2453.846,9.803 L2455.52,8.541 L2457.213,9.76 L2456.609,7.755 L2458.274,6.445 L2456.148,6.445 L2456.148,6.445 Z" transform="translate(-2448)"/>
</svg>
