<svg xmlns="http://www.w3.org/2000/svg" width="16" height="16" viewBox="0 0 16 16">
  <path fill="#000000" fill-rule="evenodd" d="M2261.333,7.242 C2261.753,5.941 2261.449,4.085 2260.186,2.82 C2259.272,1.906 2258.048,1.492 2256.95,1.492 C2256.51,1.492 2256.091,1.558 2255.718,1.685 C2253.825,0.747 2252.168,0.789 2251.257,1.701 C2250.596,2.361 2250.425,3.4 2250.673,4.594 L2250.262,5.006 C2250.179,4.984 2250.094,4.969 2250.005,4.969 C2249.451,4.969 2249.001,5.418 2249.001,5.972 C2249.001,6.526 2249.451,6.976 2250.005,6.976 C2250.559,6.976 2251.007,6.526 2251.007,5.972 C2251.007,5.883 2250.993,5.797 2250.97,5.715 L2251.001,5.684 C2251.437,6.801 2252.188,7.987 2253.205,9.085 L2251.766,10.524 C2251.684,10.503 2251.598,10.487 2251.51,10.487 C2250.956,10.487 2250.506,10.937 2250.506,11.491 C2250.506,12.045 2250.956,12.494 2251.51,12.494 C2252.065,12.494 2252.513,12.045 2252.513,11.491 C2252.513,11.401 2252.497,11.316 2252.476,11.234 L2253.914,9.795 C2255.011,10.813 2256.193,11.566 2257.31,12.002 L2257.282,12.029 C2257.2,12.008 2257.116,11.992 2257.026,11.992 C2256.472,11.992 2256.023,12.442 2256.023,12.996 C2256.023,13.551 2256.472,14 2257.026,14 C2257.58,14 2258.029,13.551 2258.029,12.996 C2258.029,12.906 2258.014,12.822 2257.991,12.739 L2258.398,12.334 C2259.595,12.586 2260.64,12.416 2261.303,11.752 C2262.214,10.842 2262.24,9.12 2261.333,7.242 L2261.333,7.242 Z M2259.509,3.496 C2260.833,4.82 2260.762,6.887 2260.07,7.58 C2259.712,7.938 2259.344,8.113 2258.948,8.113 C2258.25,8.113 2257.363,7.597 2256.387,6.62 C2254.068,4.299 2255.056,3.308 2255.429,2.935 C2255.735,2.63 2256.302,2.448 2256.95,2.448 C2257.91,2.448 2258.845,2.83 2259.509,3.496 L2259.509,3.496 Z" transform="translate(-2248)"/>
</svg>
