<svg xmlns="http://www.w3.org/2000/svg" width="16" height="16" viewBox="0 0 16 16">
  <path fill="#000000" fill-rule="evenodd" d="M153.076,7.513 C153.076,8.849 154.161,9.932 155.499,9.932 C156.836,9.932 157.922,8.849 157.922,7.513 C157.922,6.177 156.837,5.094 155.499,5.094 C154.161,5.094 153.076,6.177 153.076,7.513 L153.076,7.513 Z M161.339,4.674 L161.345,4.674 C159.316,0.83 155.482,1.001 155.482,1.001 C151.661,1.152 150.14,3.816 150.102,3.883 C147.781,7.561 149.847,10.788 149.847,10.788 C151.881,14.007 154.939,14 155.035,13.999 L155.036,13.994 C159.382,14.156 161.147,10.763 161.147,10.763 C162.913,7.408 161.4,4.777 161.339,4.674 L161.339,4.674 Z M157.952,5.653 C158.346,6.17 158.582,6.813 158.582,7.512 C158.582,8.512 158.102,9.398 157.362,9.96 C156.571,11.327 155.401,13.349 155.041,13.971 L155.858,10.567 C155.74,10.581 155.621,10.59 155.499,10.59 C153.945,10.59 152.663,9.44 152.45,7.946 C151.66,6.579 150.476,4.531 150.114,3.905 L152.631,6.389 C153.08,5.245 154.193,4.434 155.499,4.434 C155.92,4.434 156.323,4.519 156.689,4.672 L161.299,4.672 L157.952,5.653 L157.952,5.653 Z" transform="translate(-148)"/>
</svg>
