<svg xmlns="http://www.w3.org/2000/svg" width="16" height="16" viewBox="0 0 16 16">
  <path fill="#000000" fill-rule="evenodd" d="M11,10.539 C10.699,11.215 10.556,11.518 10.169,12.115 C9.629,12.95 8.867,13.992 7.925,13.999 C7.087,14.006 6.871,13.443 5.733,13.453 C4.596,13.458 4.358,14.009 3.519,14 C2.577,13.992 1.855,13.053 1.315,12.219 C-0.195,9.883 -0.354,7.143 0.579,5.685 C1.239,4.651 2.285,4.044 3.267,4.044 C4.267,4.044 4.895,4.602 5.721,4.602 C6.523,4.602 7.012,4.042 8.168,4.042 C9.043,4.042 9.967,4.526 10.627,5.36 C8.466,6.565 8.817,9.7 11,10.539 L11,10.539 Z M7.29,3.11 C7.711,2.562 8.03,1.789 7.915,1 C7.229,1.048 6.426,1.492 5.957,2.068 C5.533,2.593 5.182,3.372 5.318,4.127 C6.066,4.152 6.841,3.699 7.29,3.11 L7.29,3.11 Z" transform="translate(2)"/>
</svg>
