<svg xmlns="http://www.w3.org/2000/svg" width="16" height="16" viewBox="0 0 16 16">
  <path fill="#000000" fill-rule="evenodd" d="M1405.5,1 C1401.91,1 1399,3.91 1399,7.5 C1399,11.09 1401.91,14 1405.5,14 C1409.09,14 1412,11.09 1412,7.5 C1412,3.91 1409.09,1 1405.5,1 L1405.5,1 Z M1409.918,10.737 L1409.85,10.172 L1407.788,10.646 L1406.7,12.462 L1407.22,12.706 C1406.679,12.885 1406.103,12.985 1405.501,12.985 C1404.899,12.985 1404.323,12.885 1403.78,12.706 L1404.303,12.462 L1403.215,10.647 L1401.153,10.173 L1401.083,10.736 C1400.415,9.827 1400.015,8.711 1400.015,7.499 C1400.015,7.489 1400.017,7.48 1400.017,7.47 L1400.412,7.893 L1401.803,6.296 L1401.615,4.188 L1401.058,4.297 C1401.738,3.356 1402.704,2.635 1403.833,2.275 L1403.554,2.78 L1405.501,3.608 L1407.448,2.78 L1407.169,2.275 C1408.298,2.635 1409.267,3.356 1409.946,4.297 L1409.385,4.188 L1409.199,6.295 L1410.59,7.891 L1410.985,7.469 L1410.985,7.498 C1410.984,8.711 1410.586,9.828 1409.918,10.737 L1409.918,10.737 Z M1403.213,6.987 L1404.086,9.675 L1406.912,9.675 L1407.787,6.987 L1405.5,5.326 L1403.213,6.987 L1403.213,6.987 Z" transform="translate(-1398)"/>
</svg>
