<svg xmlns="http://www.w3.org/2000/svg" width="16" height="16" viewBox="0 0 16 16">
  <path fill="#000000" fill-rule="evenodd" d="M1160.655,10.048 C1159.877,9.377 1159.088,8.969 1158.319,9.64 L1157.861,10.045 C1157.525,10.339 1156.901,11.714 1154.488,8.912 C1152.076,6.114 1153.51,5.678 1153.847,5.386 L1154.308,4.981 C1155.073,4.308 1154.785,3.462 1154.233,2.591 L1153.9,2.064 C1153.347,1.195 1152.744,0.624 1151.978,1.295 L1151.565,1.661 C1151.226,1.91 1150.279,2.719 1150.049,4.258 C1149.773,6.103 1150.644,8.216 1152.642,10.536 C1154.636,12.855 1156.59,14.02 1158.44,14.001 C1159.977,13.984 1160.907,13.151 1161.197,12.848 L1161.613,12.482 C1162.377,11.811 1161.901,11.128 1161.124,10.456 L1160.655,10.048 L1160.655,10.048 Z" transform="translate(-1148)"/>
</svg>
