<svg xmlns="http://www.w3.org/2000/svg" width="16" height="16" viewBox="0 0 16 16">
  <path fill="#000000" fill-rule="evenodd" d="M212.935,5.677 C212.875,6.142 212.808,6.382 212.74,6.398 C212.721,5.624 212.607,4.933 212.393,4.324 C212.393,4.321 212.389,4.315 212.387,4.308 C212.221,3.833 211.995,3.41 211.71,3.033 C211.844,3.553 211.909,3.956 211.913,4.25 C211.656,3.341 210.965,2.589 209.968,2.213 C208.924,1.454 207.638,1 206.244,1 C204.305,1 202.573,1.869 201.412,3.232 C201.209,2.972 201.062,2.568 200.978,2.014 C200.491,2.492 200.254,3.345 200.269,4.579 C200.232,4.63 200.185,4.702 200.129,4.787 C200.118,4.796 200.105,4.802 200.093,4.811 C200.09,4.811 200.086,4.814 200.086,4.818 C200.084,4.818 200.084,4.821 200.084,4.821 C200.08,4.824 200.076,4.827 200.076,4.834 C200.002,4.949 199.9,5.122 199.771,5.356 C199.586,5.685 199.524,5.961 199.505,6.202 C199.505,6.203 199.505,6.203 199.503,6.204 C199.503,6.206 199.505,6.21 199.505,6.212 C199.503,6.233 199.499,6.254 199.499,6.275 C199.503,6.27 199.505,6.265 199.509,6.26 C199.511,6.315 199.511,6.371 199.526,6.421 L199.922,6.098 C199.778,6.459 199.682,6.841 199.634,7.245 C199.488,8.574 199.861,9.888 200.761,11.183 C202.109,12.926 203.805,13.86 205.847,13.984 C207.889,14.106 209.631,13.353 211.069,11.734 C212.041,10.543 212.638,9.296 212.86,7.994 C213.085,7.103 213.111,6.328 212.935,5.677 L212.935,5.677 Z M206.244,1.574 C206.869,1.574 207.469,1.677 208.034,1.861 C207.942,1.856 207.853,1.849 207.759,1.846 C208.094,1.912 208.379,1.995 208.609,2.101 C208.962,2.257 209.196,2.458 209.304,2.696 C208.975,2.637 208.679,2.658 208.417,2.76 C210.292,3.499 211.182,4.379 211.08,5.396 C210.944,5.182 210.761,5.042 210.528,4.973 C210.815,6.088 210.844,7.008 210.611,7.735 C210.451,7.25 210.305,6.961 210.174,6.859 C210.357,8.354 210.111,9.459 209.438,10.179 C209.565,9.739 209.616,9.379 209.587,9.095 C208.797,10.278 207.897,10.889 206.889,10.927 C206.491,10.923 206.113,10.864 205.76,10.749 L205.753,10.749 L205.759,10.749 C205.239,10.575 204.769,10.277 204.35,9.856 C205.003,9.909 205.6,9.797 206.126,9.531 L206.988,8.973 L206.986,8.97 C207.097,8.929 207.201,8.932 207.304,8.979 C207.515,8.95 207.587,8.839 207.518,8.651 C207.416,8.51 207.264,8.384 207.064,8.273 C206.635,8.049 206.184,8.084 205.716,8.381 C205.269,8.632 204.839,8.623 204.422,8.355 C204.147,8.167 203.882,7.916 203.628,7.601 C203.628,7.601 203.581,7.546 203.525,7.451 L203.525,7.449 C203.538,7.136 203.669,6.964 203.917,6.926 C203.847,6.92 204.52,7.015 204.883,7.119 C204.945,6.772 204.864,6.409 204.645,6.036 L204.645,6.029 C204.985,5.714 205.288,5.485 205.547,5.339 C205.662,5.278 205.728,5.185 205.751,5.061 C205.755,5.059 205.757,5.055 205.761,5.055 L205.763,5.052 C205.767,5.049 205.773,5.042 205.775,5.04 C205.843,4.94 205.82,4.861 205.705,4.79 C205.467,4.803 205.227,4.787 204.988,4.74 L204.985,4.75 C204.887,4.721 204.761,4.635 204.609,4.488 L204.216,4.106 L204.099,4.014 L204.099,4.027 L204.095,4.027 L204.099,4.011 L204.077,3.988 C204.089,3.982 204.099,3.972 204.109,3.966 C204.163,3.676 204.252,3.427 204.38,3.214 L204.409,3.189 C204.537,2.979 204.782,2.752 205.143,2.51 C204.474,2.593 203.867,2.892 203.329,3.408 C202.952,3.271 202.513,3.283 202.019,3.428 C203.068,2.291 204.571,1.574 206.244,1.574 L206.244,1.574 Z" transform="translate(-198)"/>
</svg>
