<svg xmlns="http://www.w3.org/2000/svg" width="16" height="16" viewBox="0 0 16 16">
  <path fill="#000000" fill-rule="evenodd" d="M506.538,5.241 C505.107,5.241 503.947,6.368 503.947,7.762 C503.947,9.155 505.107,10.283 506.538,10.283 C507.971,10.283 509.129,9.156 509.129,7.762 C509.129,6.368 507.971,5.241 506.538,5.241 L506.538,5.241 Z M510.375,3.571 L509.877,3.571 L509.176,2.366 C509.054,2.157 508.789,2 508.423,2 L504.654,2 C504.273,2 504.025,2.157 503.902,2.366 L503.2,3.571 L502.23,3.571 C502.23,3.282 501.988,3.047 501.692,3.047 L500.615,3.047 C500.318,3.047 500.077,3.282 500.077,3.571 L500.077,3.667 C499.451,3.883 499,4.459 499,5.142 L499,10.446 C499,11.857 500.176,12.999 501.625,12.999 L510.375,12.999 C511.826,12.999 513,11.856 513,10.446 L513,6.125 C513,4.714 511.826,3.571 510.375,3.571 L510.375,3.571 Z M501.154,5.405 C500.708,5.405 500.345,5.053 500.345,4.619 C500.345,4.185 500.707,3.833 501.154,3.833 C501.599,3.833 501.961,4.185 501.961,4.619 C501.961,5.053 501.6,5.405 501.154,5.405 L501.154,5.405 Z M506.538,11.459 C504.439,11.459 502.738,9.805 502.738,7.762 C502.738,5.719 504.439,4.065 506.538,4.065 C508.64,4.065 510.339,5.719 510.339,7.762 C510.339,9.805 508.64,11.459 506.538,11.459 L506.538,11.459 Z" transform="translate(-498)"/>
</svg>
