<svg xmlns="http://www.w3.org/2000/svg" width="16" height="16" viewBox="0 0 16 16">
  <path fill="#000000" fill-rule="evenodd" d="M2209.146,2.334 L2209.449,1.721 C2209.525,1.567 2209.515,1.383 2209.424,1.237 C2209.333,1.09 2209.172,1 2209,1 L2201.999,1 C2201.827,1 2201.666,1.09 2201.575,1.236 C2201.483,1.382 2201.473,1.566 2201.55,1.72 L2201.853,2.333 C2200.131,3.537 2199,5.753 2199,8 C2199,10.586 2200.533,12.924 2202.905,13.959 C2202.968,13.986 2203.036,14 2203.104,14 L2207.894,14 C2207.961,14 2208.03,13.986 2208.092,13.959 C2210.465,12.924 2211.999,10.585 2211.999,8 C2212,5.754 2210.868,3.538 2209.146,2.334 L2209.146,2.334 Z M2202.749,2.947 C2202.978,2.815 2203.063,2.529 2202.949,2.293 L2202.803,2 L2208.197,2 L2208.051,2.293 C2207.936,2.529 2208.022,2.815 2208.251,2.947 C2208.591,3.144 2208.903,3.401 2209.195,3.689 C2208.832,3.906 2208.074,4.259 2206.947,4.259 C2205.591,4.259 2204.53,3.653 2203.301,3.653 C2202.197,3.653 2201.317,4.318 2201.146,4.455 C2201.587,3.83 2202.133,3.305 2202.749,2.947 L2202.749,2.947 Z M2207.787,13 L2203.21,13 C2201.258,12.105 2199.999,10.153 2199.999,8 C2199.999,6.75 2200.427,5.488 2201.13,4.48 C2201.23,4.462 2202.036,4.322 2203.301,4.322 C2204.726,4.322 2204.827,4.946 2206.947,4.946 C2208.32,4.946 2209.016,4.193 2209.295,3.781 C2210.334,4.859 2211.001,6.439 2211.001,8 C2211,10.153 2209.741,12.105 2207.787,13 L2207.787,13 Z M2209.5,8.027 C2208.504,8.027 2207.951,9.086 2207.951,9.086 C2207.307,8.667 2206.389,8.027 2205.5,8.027 C2203.98,8.027 2203,9.5 2203,9.5 C2203,9.5 2203.98,10.973 2205.5,10.973 C2206.389,10.973 2207.308,10.339 2207.951,9.92 C2207.951,9.92 2208.503,10.973 2209.5,10.973 C2209.5,10.973 2209,10.167 2209,9.5 C2209,8.834 2209.5,8.027 2209.5,8.027 L2209.5,8.027 Z M2204.749,9.661 C2204.521,9.661 2204.335,9.479 2204.335,9.255 C2204.335,9.031 2204.522,8.849 2204.749,8.849 C2204.978,8.849 2205.163,9.031 2205.163,9.255 C2205.163,9.479 2204.979,9.661 2204.749,9.661 L2204.749,9.661 Z M2201.75,7.533 C2201.354,7.533 2201.032,7.854 2201.032,8.25 C2201.032,8.646 2201.353,8.968 2201.75,8.968 C2202.147,8.968 2202.467,8.647 2202.467,8.25 C2202.467,7.854 2202.146,7.533 2201.75,7.533 L2201.75,7.533 Z M2203.783,6.968 C2204.179,6.968 2204.5,6.647 2204.5,6.25 C2204.5,5.854 2204.179,5.533 2203.783,5.533 C2203.387,5.533 2203.064,5.854 2203.064,6.25 C2203.064,6.646 2203.387,6.968 2203.783,6.968 L2203.783,6.968 Z" transform="translate(-2198)"/>
</svg>
