<svg xmlns="http://www.w3.org/2000/svg" width="16" height="16" viewBox="0 0 16 16">
  <path fill="#000000" fill-rule="evenodd" d="M2560.84,3.688 C2560.731,3.565 2560.576,3.493 2560.413,3.489 C2559.152,3.457 2557.558,2.123 2556.502,1.599 C2555.852,1.276 2555.422,1.063 2555.099,1.008 C2555.065,1.003 2555.033,1 2555,1 C2554.968,1 2554.935,1.003 2554.902,1.009 C2554.578,1.064 2554.148,1.277 2553.498,1.6 C2552.443,2.123 2550.849,3.457 2549.588,3.49 C2549.426,3.494 2549.272,3.566 2549.16,3.689 C2549.051,3.812 2548.992,3.975 2549.001,4.142 C2549.272,9.591 2551.246,12.964 2554.711,14.924 C2554.801,14.975 2554.9,15 2555,15 C2555.1,15 2555.199,14.975 2555.291,14.924 C2558.754,12.964 2560.729,9.591 2560.999,4.142 C2561.008,3.975 2560.951,3.812 2560.84,3.688 L2560.84,3.688 Z" transform="translate(-2548)"/>
</svg>
