<svg xmlns="http://www.w3.org/2000/svg" width="16" height="16" viewBox="0 0 16 16">
  <path fill="#000000" fill-rule="evenodd" d="M1755.5,1 C1751.91,1 1749,3.91 1749,7.5 C1749,11.09 1751.91,14 1755.5,14 C1759.09,14 1762,11.09 1762,7.5 C1762,3.91 1759.09,1 1755.5,1 L1755.5,1 Z M1755.5,12.985 C1752.476,12.985 1750.015,10.525 1750.015,7.5 C1750.015,4.476 1752.476,2.015 1755.5,2.015 C1758.524,2.015 1760.985,4.476 1760.985,7.5 C1760.985,10.525 1758.524,12.985 1755.5,12.985 L1755.5,12.985 Z M1757.529,5.471 C1756.968,5.471 1756.514,6.129 1756.514,6.486 C1756.514,6.842 1756.968,6.486 1757.529,6.486 C1758.089,6.486 1759.05,6.803 1759.05,6.486 C1759.051,6.168 1758.089,5.471 1757.529,5.471 L1757.529,5.471 Z M1753.471,6.485 C1754.032,6.485 1754.486,6.841 1754.486,6.485 C1754.486,6.128 1754.032,5.47 1753.471,5.47 C1752.911,5.47 1751.95,6.167 1751.95,6.485 C1751.949,6.802 1752.911,6.485 1753.471,6.485 L1753.471,6.485 Z M1752.029,8.515 C1752.029,10.152 1753.197,11.986 1755.5,11.986 C1757.803,11.986 1758.971,10.152 1758.971,8.515 C1758.971,8.515 1757.854,9.102 1755.5,9.102 C1753.146,9.102 1752.029,8.515 1752.029,8.515 L1752.029,8.515 Z" transform="translate(-1748)"/>
</svg>
