<svg xmlns="http://www.w3.org/2000/svg" width="16" height="16" viewBox="0 0 16 16">
  <path fill="#000000" fill-rule="evenodd" d="M361.782,3.808 C361.782,3.808 360.187,5.409 360.025,5.573 C359.86,5.735 359.312,5.718 359.312,5.718 C359.312,5.718 357.857,5.555 357.647,5.346 C357.438,5.137 357.293,3.619 357.293,3.619 C357.293,3.619 357.253,3.196 357.463,2.987 C357.673,2.778 359.228,1.227 359.228,1.227 C359.228,1.227 359.428,1.002 359.139,1.001 C358.205,0.997 356.31,1.019 355.392,1.936 L355.202,2.124 C354.117,3.214 354.045,4.854 354.917,6.032 L349.551,10.878 C349.124,11.304 348.563,12.463 349.551,13.451 C350.54,14.439 351.702,13.876 352.128,13.451 C352.128,13.451 355.643,9.612 355.944,9.276 C356.245,8.941 356.087,8.588 356.087,8.588 C356.087,8.588 355.469,7.726 355.136,7.21 C354.954,6.929 355.04,6.893 355.297,7.058 C356.007,7.511 356.835,8.031 356.98,8.099 L356.983,8.097 C358.158,8.976 359.8,8.908 360.892,7.817 L361.08,7.628 C361.97,6.74 361.997,4.864 362.001,3.916 C362.003,3.613 361.782,3.808 361.782,3.808 L361.782,3.808 Z M350.981,12.901 C350.482,12.901 350.078,12.498 350.078,11.999 C350.078,11.501 350.482,11.098 350.981,11.098 C351.479,11.098 351.885,11.501 351.885,11.999 C351.885,12.498 351.479,12.901 350.981,12.901 L350.981,12.901 Z" transform="translate(-348)"/>
</svg>
