<svg xmlns="http://www.w3.org/2000/svg" width="16" height="16" viewBox="0 0 16 16">
  <path fill="#000000" fill-rule="evenodd" d="M700.49,3.251 C700.652,3.129 700.735,2.916 700.676,2.707 C700.599,2.439 700.321,2.286 700.054,2.363 L699.363,2.565 C699.097,2.642 698.944,2.923 699.02,3.191 C699.087,3.42 699.3,3.556 699.528,3.545 L703.157,13.667 C703.23,13.873 703.424,14 703.63,14 C703.686,14 703.743,13.99 703.8,13.97 C704.062,13.875 704.196,13.586 704.102,13.323 L700.49,3.251 L700.49,3.251 Z M711.712,1.048 C711.537,0.965 711.329,0.99 711.179,1.114 C710.878,1.364 709.901,2.01 709.007,2.01 C708.516,2.01 708.111,1.816 707.641,1.59 C707.066,1.313 706.412,1 705.491,1 C702.771,1 701.201,2.681 701.135,2.752 C701.008,2.89 700.967,3.088 701.031,3.265 L703.289,9.61 C703.348,9.775 703.487,9.896 703.655,9.934 C703.69,9.941 703.725,9.945 703.76,9.945 C703.896,9.945 704.026,9.891 704.121,9.792 C704.447,9.454 705.504,8.578 706.478,8.578 C707.201,8.578 707.65,8.711 708.085,8.839 C708.493,8.959 708.914,9.084 709.489,9.084 C710.693,9.084 711.695,8.54 711.737,8.517 C711.898,8.428 711.999,8.258 711.999,8.074 L711.999,1.507 C712,1.31 711.888,1.132 711.712,1.048 L711.712,1.048 Z M710.995,6.078 C710.47,6.305 710.034,6.388 710.034,6.388 L710.162,7.998 C709.949,8.04 709.726,8.073 709.49,8.073 C709.263,8.073 709.067,8.046 708.88,8.006 L708.51,6.375 C708.036,6.25 707.275,6.027 706.924,5.978 L707.362,7.631 C707.105,7.592 706.818,7.568 706.479,7.568 C706.141,7.568 705.813,7.636 705.502,7.739 L704.9,6.147 C704.359,6.356 703.806,6.764 703.446,7.059 L702.634,4.778 C703.349,4.236 704.06,3.974 704.06,3.974 L703.459,2.421 C704.01,2.191 704.689,2.012 705.49,2.012 C705.631,2.012 705.758,2.028 705.883,2.045 L706.314,3.668 C706.769,3.668 708.037,4.293 708.037,4.293 L707.681,2.719 C708.076,2.887 708.497,3.023 709.008,3.023 C709.265,3.023 709.513,2.98 709.755,2.923 L709.882,4.483 C709.882,4.483 710.372,4.356 710.996,3.981 L710.996,6.078 L710.995,6.078 Z M705.928,3.641 C704.908,3.641 704.06,3.973 704.06,3.973 L704.901,6.146 C704.901,6.146 705.562,5.909 706.018,5.909 C706.473,5.909 706.924,5.976 706.924,5.976 L706.314,3.665 C706.313,3.666 706.141,3.641 705.928,3.641 L705.928,3.641 Z M709.188,4.578 C708.595,4.578 708.036,4.291 708.036,4.291 L708.51,6.374 C708.51,6.374 708.982,6.461 709.306,6.461 C709.629,6.461 710.035,6.387 710.035,6.387 L709.882,4.48 C709.881,4.48 709.567,4.578 709.188,4.578 L709.188,4.578 Z" transform="translate(-698)"/>
</svg>
