<svg xmlns="http://www.w3.org/2000/svg" width="16" height="16" viewBox="0 0 16 16">
  <path fill="#000000" fill-rule="evenodd" d="M1261.038,1.96 C1260.398,1.32 1259.559,1 1258.721,1 C1257.88,1 1257.041,1.32 1256.401,1.96 C1256.026,2.336 1252.975,5.387 1252.684,5.677 C1251.746,6.615 1252.062,9.025 1251.201,9.885 C1250.343,10.745 1249.454,11.632 1249.395,11.692 C1248.871,12.216 1248.87,13.066 1249.387,13.594 L1249.379,13.603 C1249.646,13.869 1249.993,14 1250.342,13.999 C1250.344,13.999 1250.348,14 1250.352,14 C1250.698,14 1251.043,13.867 1251.307,13.604 C1251.368,13.544 1252.271,12.641 1253.114,11.798 C1253.957,10.954 1256.384,11.254 1257.324,10.315 C1257.613,10.025 1260.665,6.973 1261.039,6.598 C1262.32,5.317 1262.32,3.241 1261.038,1.96 L1261.038,1.96 Z M1260.471,6.029 C1260.096,6.404 1257.043,9.456 1256.754,9.745 C1256.45,10.049 1255.666,10.189 1254.975,10.312 C1254.315,10.429 1253.642,10.551 1253.096,10.836 L1252.617,10.356 L1249.958,13.023 C1249.859,12.921 1249.805,12.79 1249.805,12.647 C1249.805,12.501 1249.862,12.365 1249.968,12.258 C1250.028,12.198 1250.913,11.313 1251.772,10.454 C1252.371,9.854 1252.539,8.914 1252.697,8.004 C1252.819,7.32 1252.955,6.546 1253.255,6.245 L1253.489,6.013 L1254.045,6.57 C1254.124,6.649 1254.228,6.688 1254.33,6.688 C1254.434,6.688 1254.537,6.649 1254.615,6.57 C1254.771,6.412 1254.771,6.158 1254.615,6.002 L1254.056,5.444 L1254.424,5.078 C1254.445,5.055 1254.471,5.031 1254.495,5.008 L1255.05,5.565 C1255.128,5.644 1255.233,5.683 1255.335,5.683 C1255.439,5.683 1255.541,5.644 1255.619,5.565 C1255.777,5.408 1255.777,5.153 1255.619,4.997 L1255.061,4.44 C1255.207,4.293 1255.354,4.147 1255.499,4.003 L1256.055,4.56 C1256.134,4.639 1256.239,4.678 1256.34,4.678 C1256.444,4.678 1256.546,4.639 1256.625,4.56 C1256.781,4.403 1256.781,4.148 1256.625,3.992 L1256.066,3.435 C1256.228,3.273 1256.375,3.127 1256.504,2.998 L1257.06,3.555 C1257.138,3.633 1257.244,3.673 1257.345,3.673 C1257.448,3.673 1257.551,3.633 1257.629,3.555 C1257.787,3.398 1257.787,3.142 1257.629,2.986 L1257.081,2.439 C1257.535,2.036 1258.106,1.807 1258.72,1.807 C1259.38,1.807 1260.001,2.064 1260.468,2.53 C1261.434,3.495 1261.435,5.065 1260.471,6.029 L1260.471,6.029 Z M1252.934,9.497 L1253.501,10.065 L1259.176,4.391 L1258.608,3.822 L1252.934,9.497 L1252.934,9.497 Z" transform="translate(-1248)"/>
</svg>
