<svg xmlns="http://www.w3.org/2000/svg" width="16" height="16" viewBox="0 0 16 16">
  <path fill="#000000" fill-rule="evenodd" d="M811.893,7.5 C811.893,6.97 811.821,6.457 811.699,5.964 C812.005,5.201 812.428,3.498 810.966,2.035 C809.504,0.572 807.801,0.996 807.038,1.302 C806.545,1.179 806.032,1.108 805.501,1.108 C804.971,1.108 804.458,1.18 803.966,1.302 C803.202,0.996 801.499,0.573 800.037,2.035 C798.573,3.498 798.997,5.201 799.304,5.964 C799.182,6.457 799.11,6.97 799.11,7.5 C799.11,8.03 799.182,8.542 799.304,9.036 C798.997,9.799 798.574,11.502 800.037,12.965 C800.836,13.764 801.706,14 802.456,14 C803.081,14 803.617,13.836 803.963,13.698 C804.457,13.821 804.97,13.893 805.501,13.893 C806.032,13.893 806.546,13.821 807.04,13.698 C807.387,13.837 807.922,14 808.547,14 C809.297,14 810.168,13.764 810.966,12.965 C812.429,11.502 812.005,9.799 811.699,9.036 C811.82,8.542 811.893,8.03 811.893,7.5 L811.893,7.5 Z M806.475,12.852 L806.475,10.911 C807.651,10.575 808.576,9.649 808.912,8.474 L810.853,8.474 C810.45,10.698 808.698,12.45 806.475,12.852 L806.475,12.852 Z M800.148,8.474 L802.09,8.474 C802.426,9.649 803.351,10.574 804.525,10.911 L804.525,12.852 C802.302,12.45 800.551,10.698 800.148,8.474 L800.148,8.474 Z M804.525,2.147 L804.525,4.088 C803.351,4.424 802.426,5.351 802.09,6.525 L800.148,6.525 C800.551,4.301 802.302,2.55 804.525,2.147 L804.525,2.147 Z M810.853,6.525 L808.912,6.525 C808.576,5.351 807.651,4.425 806.475,4.088 L806.475,2.147 C808.698,2.55 810.45,4.301 810.853,6.525 L810.853,6.525 Z M805.5,10.102 C804.066,10.102 802.898,8.935 802.898,7.5 C802.898,6.064 804.066,4.897 805.5,4.897 C806.936,4.897 808.103,6.064 808.103,7.5 C808.103,8.935 806.936,10.102 805.5,10.102 L805.5,10.102 Z M810.61,2.391 C811.559,3.342 811.589,4.393 811.433,5.137 C810.786,3.512 809.489,2.215 807.864,1.566 C808.606,1.409 809.659,1.44 810.61,2.391 L810.61,2.391 Z M800.393,2.391 C801.342,1.441 802.394,1.41 803.138,1.566 C801.513,2.215 800.217,3.512 799.567,5.137 C799.41,4.393 799.441,3.341 800.393,2.391 L800.393,2.391 Z M800.393,12.609 C799.442,11.658 799.411,10.606 799.567,9.863 C800.217,11.488 801.513,12.784 803.138,13.434 C802.395,13.59 801.342,13.56 800.393,12.609 L800.393,12.609 Z M810.61,12.609 C809.659,13.561 808.606,13.591 807.862,13.434 C809.489,12.784 810.786,11.489 811.433,9.863 C811.59,10.606 811.56,11.658 810.61,12.609 L810.61,12.609 Z" transform="translate(-798)"/>
</svg>
