<svg xmlns="http://www.w3.org/2000/svg" width="16" height="16" viewBox="0 0 16 16">
  <path fill="#000000" fill-rule="evenodd" d="M311.692,3.364 C311.675,2.901 311.63,2.367 312,2 C310.585,2.294 309.391,3.367 308.344,4.379 C308.389,4.979 308.775,5.193 309.035,5.715 C308.589,5.563 308.264,5.025 308.144,4.57 C308.002,4.707 307.863,4.843 307.728,4.976 C306.786,5.879 306.18,7.033 305.58,8.174 C305.434,8.625 305.593,9.003 306.125,9.34 C305.696,9.236 305.379,8.952 305.268,8.521 C305.235,8.556 305.2,8.59 305.164,8.623 C304.375,9.349 302.76,10.691 303.378,11.428 C304.248,11.024 305.075,10.566 305.805,10.103 C309.072,8.035 310.175,4.749 310.977,2.926 C310.977,2.926 309.782,6.444 308.588,7.911 C307.597,9.13 306.693,10.123 305.294,10.877 C305.123,10.969 304.488,11.294 303.685,11.662 C303.884,11.76 304.153,11.837 304.513,11.885 C305.922,12.076 309.091,10.43 309.091,10.43 C309.091,10.43 307.893,10.013 307.389,9.8 C308.151,10.069 308.92,10.15 309.688,9.869 C309.793,9.753 309.89,9.634 309.974,9.512 C310.312,9.037 310.539,8.35 310.731,7.743 C310.299,7.864 309.88,7.741 309.437,7.505 C309.906,7.583 310.417,7.516 310.851,7.32 L310.862,7.333 C310.877,7.288 310.89,7.245 310.906,7.202 C311.362,5.843 311.736,5.113 311.719,3.755 C311.053,3.778 311.09,3.771 310.857,3.851 C311.468,3.643 311.43,3.529 311.692,3.364 L311.692,3.364 Z M303.395,11.423 C301.969,12.086 300.425,12.604 299,12.745 C299.353,13.481 301.918,12.473 303.675,11.668 C303.675,11.667 303.463,11.547 303.395,11.423 L303.395,11.423 Z" transform="translate(-298)"/>
</svg>
