<svg width="16px" height="16px" viewBox="0 0 16 16" version="1.1" xmlns="http://www.w3.org/2000/svg" xmlns:xlink="http://www.w3.org/1999/xlink">
    <g id="Page-1" stroke="none" stroke-width="1" fill="none" fill-rule="evenodd">
        <path d="M3,13 C3.14706426,12.258538 3.49111819,11.7250299 5.10881794,11.032059 C5.64635779,10.8017941 5.74853954,10.612035 6.28023872,10.342191 C6.28023872,10.342191 6.33542774,10.0288016 6.31590967,9.84330533 C6.31590967,9.84330533 6.73352909,9.84467684 6.73689427,9.84467684 C6.7520376,9.84467684 6.78434338,9.23847077 6.73184649,8.82873307 C6.73184649,8.82873307 6.22437665,8.67409566 6.20149339,7.50351449 C6.20149339,7.50351449 6.1688511,7.51620093 6.12173852,7.51620093 C6.00900483,7.51620093 5.81382412,7.44248243 5.79733472,6.94085376 C5.79094087,6.73444197 5.72902147,6.54037374 5.69536962,6.35796331 C5.72464673,6.24652837 5.78892176,6.14023658 5.92386566,6.04080233 L5.83906301,5.77815875 C5.86564797,5.75107149 5.88853122,5.72398423 5.92386566,5.6979256 L5.68628363,4.962455 C5.68628363,4.962455 5.62369119,4.56471798 5.60955742,4.08297617 C5.62941201,3.41813818 5.77983576,2.72998457 6.32163049,2.72998457 C6.39869322,2.72998457 6.48349587,2.74404252 6.57671148,2.77352992 C6.29470901,2.38710783 7.07173014,2 7.96787882,2 C8.90205407,2 9.9651159,2.42036688 10.0926564,3.69826847 C10.0926564,3.69826847 10.157941,4.19612549 10.1697191,4.79375964 C10.1639983,5.08109035 10.1424611,5.37390708 10.0926564,5.63346477 C10.0926564,5.63346477 10.0993868,5.63277902 10.1414516,5.63517915 C10.1293369,5.75278587 10.1135205,5.86764958 10.1104919,5.97565575 C10.1683731,5.97565575 10.3470644,5.99931425 10.3958595,6.27875879 C10.3783606,6.41865249 10.3420166,6.58871936 10.2790876,6.79547403 C10.2790876,6.79547403 10.1128475,7.51380079 9.84901703,7.51380079 C9.81940341,7.51380079 9.78844371,7.50454312 9.75647445,7.48431339 C9.75647445,7.48431339 9.8082983,8.60929196 9.30957793,8.8002743 L9.34524889,9.78261615 L9.79214541,9.85942054 C9.79147237,9.91633808 9.77801164,10.3737356 9.83219111,10.4093948 C9.83219111,10.4093948 10.3951865,10.8520487 11.0672139,11.0495457 C12.3614639,11.4301389 12.9514817,12.0836619 12.9521547,12.6555803 C12.9521547,12.6555803 12.9741324,12.7842447 13,13 L3,13 L3,13 Z M14.5305096,9.11914657 C14.0810566,8.98595813 13.704395,8.68654496 13.704395,8.68654496 L13.6961544,8.31758169 L13.3788934,8.26333262 L13.3552018,7.48263277 C13.6889439,7.35292184 13.6535783,6.59273927 13.6535783,6.59273927 C13.6748663,6.60630154 13.6958111,6.61256105 13.7157257,6.61256105 C13.8925541,6.61256105 14.0041448,6.12640586 14.0041448,6.12640586 C14.0360769,6.01999421 14.0556482,5.93097009 14.0693824,5.85133523 C14.0268063,5.70597552 13.926203,5.68824025 13.8911807,5.68824025 C13.9001079,5.58043759 13.9131554,5.46324568 13.921396,5.34361951 C13.9093785,5.34153301 13.8987345,5.34048976 13.8911807,5.34048976 C13.9090352,5.18469754 13.9241428,5.01012679 13.9296365,4.83625155 C13.9193359,4.45616026 13.8791632,4.14840108 13.8791632,4.14840108 C13.7940109,3.28389336 13.0825771,2.99978122 12.4573257,2.99908571 C11.8581694,2.99908571 11.3386717,3.26059408 11.5271742,3.52210245 C11.4646834,3.50158517 11.4080296,3.49289141 11.3565262,3.49289141 C11.0090499,3.49289141 10.9015794,3.92027676 10.8816648,4.35148737 C10.8940256,4.64950954 10.9311081,4.88597987 10.9311081,4.88597987 L11.0904253,5.38326307 C11.0547162,5.4096921 11.0279345,5.43716439 11.005273,5.46498443 L11.0904253,5.73101356 C11.0176338,5.78526263 10.9757443,5.84264146 10.9510227,5.9021068 C10.9736842,6.00434544 11.0014961,6.11145259 11.005273,6.22412375 C11.015917,6.56318048 11.1463923,6.61325655 11.222274,6.61325655 C11.2538628,6.61325655 11.2758375,6.60456278 11.2758375,6.60456278 C11.2916319,7.3967384 11.6308677,7.50106355 11.6308677,7.50106355 C11.6758474,7.85263929 11.645632,8.30332392 11.6346446,8.30332392 C11.6322411,8.30332392 11.3520626,8.30262842 11.3520626,8.30262842 C11.3654535,8.42886185 11.3287144,8.63959865 11.3287144,8.63959865 C10.9729975,8.82286315 10.8974592,8.92892705 10.5444891,9.1069753 C10.1976995,9.2811983 10,9.25411723 10,9.49908571 C10,10.4990857 12.5687448,10.5264928 13,10.9990857 L16,10.9990857 C15.9773385,10.5417938 15.9210281,10.2058668 15.9210281,10.2058668 C15.9210281,9.81882055 15.3964536,9.37717743 14.5305096,9.11914657 L14.5305096,9.11914657 Z M2.62110659,7.49908571 C2.62110659,7.49908571 2.2818708,7.39476057 2.26607642,6.60258495 C2.26607642,6.60258495 2.24410163,6.61127872 2.21251288,6.61127872 C2.13663119,6.61127872 2.00615588,6.56120265 1.99551185,6.22214592 C1.99173493,6.10947476 1.96392309,6.00236761 1.94126159,5.90012897 C1.96598322,5.84066363 2.00787266,5.7832848 2.08066415,5.72903573 L1.99551185,5.4630066 C2.01817335,5.43518656 2.04495512,5.40771427 2.08066415,5.38128524 L1.92134694,4.88400204 C1.92134694,4.88400204 1.88426448,4.6475317 1.87190366,4.34950954 C1.89181832,3.91829893 1.99928876,3.49091358 2.3467651,3.49091358 C2.3982685,3.49091358 2.45492225,3.49960734 2.51741306,3.52012462 C2.32891058,3.25861625 2.8484083,2.99710788 3.44756462,2.99710788 C4.07281601,2.99780338 4.84296365,3.28389336 4.92811596,4.14840108 C4.92811596,4.14840108 4.96828862,4.45616026 4.9785893,4.83625155 C4.9730956,5.01012679 4.95798793,5.18469754 4.94013342,5.34048976 C4.94768725,5.34048976 4.95833129,5.34153301 4.97034875,5.34361951 C4.96210821,5.46324568 4.94906068,5.58043759 4.94013342,5.68824025 C4.97515574,5.68824025 5.07575906,5.70597552 5.11833521,5.85133523 C5.10460097,5.93097009 5.08502968,6.01999421 5.05309756,6.12640586 C5.05309756,6.12640586 4.88279296,6.61058321 4.70596459,6.61058321 C4.68604993,6.61058321 4.66510521,6.60432371 4.64381714,6.59076144 C4.64381714,6.59076144 4.67918281,7.35094401 4.34544072,7.48065494 C4.34544072,7.48065494 4.35436798,8.30332392 4.36535537,8.30332392 C4.36775887,8.30332392 4.64793741,8.30262842 4.64793741,8.30262842 C4.63454652,8.42886185 4.67128562,8.63959865 4.67128562,8.63959865 C5.0270025,8.82286315 5.10254083,8.92892705 5.45551086,9.1069753 C5.80230049,9.2811983 6,9.25411723 6,9.49908571 C6,10.4990857 3.43125521,10.5264928 3,10.9990857 L0,10.9990857 C0.0226615,10.5417938 0.0789718939,10.2058668 0.0789718939,10.2058668 C0.0789718939,9.81882055 0.603546378,9.37717743 1.46949036,9.11914657 C1.91894344,8.98595813 2.29560504,8.68654496 2.29560504,8.68654496 L2.30384559,8.31758169 L2.62110659,8.26333262 L2.62110659,7.49908571 L2.62110659,7.49908571 Z" id="Combined-Shape" fill="#000000"></path>
    </g>
</svg>