<svg xmlns="http://www.w3.org/2000/svg" width="16" height="16" viewBox="0 0 16 16">
  <path fill="#000000" fill-rule="evenodd" d="M2611.975,5.909 C2611.913,5.711 2611.748,5.565 2611.551,5.535 L2607.696,4.947 L2605.971,1.282 C2605.794,0.906 2605.206,0.906 2605.03,1.282 L2603.305,4.947 L2599.45,5.535 C2599.253,5.565 2599.088,5.711 2599.026,5.909 C2598.965,6.11 2599.016,6.328 2599.159,6.474 L2601.949,9.328 L2601.29,13.356 C2601.257,13.561 2601.338,13.771 2601.499,13.894 C2601.661,14.017 2601.876,14.034 2602.053,13.936 L2605.501,12.035 L2608.949,13.936 C2609.026,13.979 2609.11,13.999 2609.194,13.999 C2609.301,13.999 2609.411,13.964 2609.503,13.894 C2609.664,13.771 2609.745,13.561 2609.712,13.356 L2609.053,9.328 L2611.843,6.474 C2611.985,6.328 2612.036,6.11 2611.975,5.909 L2611.975,5.909 Z" transform="translate(-2598)"/>
</svg>
