<svg xmlns="http://www.w3.org/2000/svg" width="16" height="16" viewBox="0 0 16 16">
  <path fill="#000000" fill-rule="evenodd" d="M459.5,7 L458,7 L458,4.5 C458,3.672 457.329,3 456.5,3 L453.845,3 C453.016,3 452.466,3.408 452.043,4.5 L451.86,5 L450.5,5 C449.671,5 449,5.672 449,6.5 L449,10.5 C449,11.328 449.671,12 450.5,12 L450.757,12 L450.619,12.5 C450.543,12.775 450.705,13 450.98,13 L451.98,13 C452.255,13 452.542,12.775 452.619,12.5 L452.757,12 L454.52,12 L454.762,12.5 C454.895,12.775 455.229,13 455.504,13 L457.5,13 C457.775,13 458,12.775 458,12.5 L458,10 L459.5,10 C460,10 460.492,11 461,11 L462,11 L462,6 L461,6 C460.516,6 460,7 459.5,7 L459.5,7 Z M453.5,8.5 L450.5,8.5 L450.5,6.5 L453.5,6.5 L453.5,8.5 L453.5,8.5 Z M457,5.092 C456.843,5.036 456.677,5 456.5,5 L452.86,5 L453.043,4.5 C453.143,4.225 453.449,4 453.725,4 L456.5,4 C456.775,4 457,4.225 457,4.5 L457,5.092 L457,5.092 Z M459,5 L461,5 C461.275,5 462,4.805 462,4 C462,3.195 461.275,3 461,3 L459,3 C458.725,3 458.5,3.225 458.5,3.5 L458.5,4.5 C458.5,4.775 458.725,5 459,5 L459,5 Z" transform="translate(-448)"/>
</svg>
