<svg xmlns="http://www.w3.org/2000/svg" width="16" height="16" viewBox="0 0 16 16">
  <path fill="#000000" fill-rule="evenodd" d="M1353.38,1.033 L1353.38,3.983 C1353.38,4.15 1353.223,4.282 1353.028,4.281 C1352.832,4.281 1352.675,4.149 1352.675,3.983 L1352.675,1.005 C1352.531,1.002 1352.378,1.001 1352.215,1 C1352.033,1 1351.867,1.003 1351.712,1.005 L1351.712,3.956 C1351.711,4.122 1351.556,4.254 1351.359,4.253 C1351.165,4.253 1351.007,4.122 1351.007,3.956 L1351.007,1.034 C1350.434,1.068 1350.149,1.116 1350.149,1.116 C1350.149,1.116 1350.001,3.452 1349.999,4.79 C1349.999,6.284 1351.617,6.293 1351.617,6.882 C1351.616,7.468 1351.124,9.904 1351.124,11.28 C1351.124,13.8 1351.709,14 1352.193,14 C1352.678,14.001 1353.288,13.799 1353.286,11.28 C1353.288,9.905 1352.769,7.47 1352.769,6.883 C1352.768,6.295 1354.385,6.305 1354.387,4.79 C1354.387,3.911 1354.25,1.117 1354.25,1.117 C1354.25,1.117 1353.965,1.066 1353.38,1.033 L1353.38,1.033 Z M1357.302,1.066 L1357.299,4.292 C1357.299,5.742 1357.164,6.443 1357.164,7.085 C1357.164,7.728 1356.712,9.582 1356.712,11.084 C1356.712,13.84 1357.199,14 1357.797,14.001 C1358.4,14.001 1358.876,13.839 1358.876,11.084 C1358.874,9.583 1358.329,9.013 1358.329,8.371 C1358.328,7.281 1359.992,6.86 1359.994,5.205 C1359.994,4.242 1360.248,1.066 1357.302,1.066 L1357.302,1.066 Z" transform="translate(-1348)"/>
</svg>
