<svg xmlns="http://www.w3.org/2000/svg" width="16" height="16" viewBox="0 0 16 16">
  <path fill="#000000" fill-rule="evenodd" d="M1510.986,10.438 C1510.964,10.438 1510.936,10.444 1510.914,10.445 C1511.027,9.283 1510.65,7.793 1508.898,6.345 C1507.532,5.213 1504.532,6.312 1504.398,4.942 C1504.398,4.94 1504.397,4.94 1504.397,4.938 C1504.383,4.845 1504.371,4.752 1504.345,4.66 C1504.683,4.522 1505.128,4.245 1505.734,3.923 C1506.87,3.319 1508.38,3.286 1508.348,2.836 C1508.302,2.197 1506.906,1.945 1505.54,2.522 C1506.506,2.076 1507.638,1.86 1507.323,1.185 C1507.132,0.78 1505.336,1.033 1504.038,2.032 C1503.452,2.485 1503.066,2.861 1502.942,3.225 C1502.31,3.02 1501.581,3.056 1500.967,3.373 C1499.831,3.962 1498.691,5.83 1499.073,6.806 C1499.265,7.291 1500.171,7.56 1501.126,7.598 C1500.662,9.049 1501.795,9.241 1501.369,10.714 C1501.135,11.522 1501.186,12.422 1501.076,12.575 C1500.808,12.943 1499.494,12.434 1499.494,13.703 C1499.494,13.943 1500.258,13.985 1501.251,13.918 C1501.729,13.888 1502.982,11.847 1503.369,11.26 C1502.516,7.865 1506.151,8.166 1506.535,9.341 C1504.025,8.877 1503.808,10.403 1504.14,11.112 C1504.689,12.285 1505.911,12.459 1506.56,12.557 C1501.98,12.557 1502.196,13.361 1502.196,13.767 C1502.196,14.115 1505.311,13.895 1506.741,13.897 C1508.395,13.896 1510.235,14.356 1509.917,13.345 C1509.691,12.635 1509.717,12.251 1509.848,12.019 C1510.172,12.281 1510.668,12.449 1511.012,12.443 C1511.565,12.434 1512.006,11.979 1511.998,11.425 C1511.993,10.872 1511.539,10.429 1510.986,10.438 L1510.986,10.438 Z M1500.638,5.421 C1500.638,5.091 1500.893,4.824 1501.212,4.824 C1501.529,4.824 1501.787,5.091 1501.787,5.421 C1501.787,5.751 1501.529,6.019 1501.212,6.019 C1500.893,6.02 1500.638,5.751 1500.638,5.421 L1500.638,5.421 Z" transform="translate(-1498)"/>
</svg>
