<svg xmlns="http://www.w3.org/2000/svg" width="16" height="16" viewBox="0 0 16 16">
  <path fill="#000000" fill-rule="evenodd" d="M105.629,12.647 C106.253,12.532 106.743,12.191 107.107,11.854 C107.079,12.08 107.044,12.272 107.012,12.443 C106.969,12.671 106.932,12.871 106.926,13.085 C106.922,13.2 106.93,13.305 106.945,13.401 C106.319,13.255 106.047,13.292 105.286,13.336 C104.757,13.367 104.625,13.351 104.474,13.39 C104.489,13.305 104.495,13.202 104.492,13.066 C104.489,12.91 104.461,12.782 104.413,12.669 C104.656,12.731 105.039,12.757 105.629,12.647 L105.629,12.647 Z M103.259,10.579 C103.016,10.366 102.858,10.248 102.705,10.121 C102.695,10.113 102.686,10.105 102.677,10.098 C102.811,10.259 102.969,10.472 103.157,10.765 C103.263,10.933 103.334,11.047 103.409,11.17 C103.501,11.318 103.603,11.484 103.793,11.785 C103.824,11.834 103.854,11.879 103.884,11.923 C103.989,11.902 104.093,11.863 104.14,11.796 C104.255,11.625 104.188,11.431 104.113,11.31 C104.042,11.188 103.514,10.801 103.259,10.579 L103.259,10.579 Z M101.552,9.817 C101.471,9.412 101.525,9.276 101.761,8.684 C101.99,8.119 102.26,7.464 102.679,6.834 C103.186,6.069 103.737,5.665 103.698,5.073 C103.538,2.873 103.409,1.773 104.386,1.266 C105.319,0.783 106.097,1.069 106.405,1.234 C106.537,1.305 106.807,1.443 107.008,1.684 C107.209,1.92 107.39,2.279 107.491,2.731 C107.701,3.638 107.405,3.34 107.642,4.378 C107.876,5.417 108.352,5.925 108.933,6.746 C109.513,7.568 110.119,8.922 109.926,9.706 C109.903,9.801 109.866,9.913 109.819,10.035 C109.796,10.03 109.773,10.028 109.749,10.028 C109.695,10.028 109.651,10.037 109.626,10.043 L109.625,10.043 C109.59,10.045 109.561,10.054 109.533,10.07 C109.522,9.98 109.373,9.895 109.258,9.847 C109.138,9.799 109.008,9.779 109.008,9.779 C109.008,9.779 108.861,9.757 108.732,9.751 C108.69,9.75 108.693,9.749 108.643,9.753 C108.697,9.666 108.904,9.28 108.872,8.515 C108.834,7.606 107.851,7.082 107.827,7.122 C107.809,7.151 108.104,7.218 108.411,7.627 C108.687,7.994 108.827,8.483 108.771,8.877 C108.735,9.146 108.713,9.248 108.66,9.427 C108.618,9.562 108.562,9.697 108.537,9.757 C108.447,9.769 108.358,9.788 108.308,9.821 C108.219,9.879 108.148,9.972 108.199,9.962 C108.249,9.95 108.305,9.868 108.413,9.832 C108.52,9.799 108.706,9.8 108.778,9.804 C108.852,9.807 109.033,9.827 109.158,9.868 C109.282,9.91 109.384,9.971 109.436,10.05 C109.453,10.076 109.468,10.096 109.483,10.11 C109.437,10.157 109.391,10.227 109.33,10.323 C109.3,10.369 109.262,10.428 109.247,10.448 C109.208,10.495 109.066,10.614 108.956,10.683 C108.883,10.73 108.843,10.751 108.718,10.751 C108.691,10.751 108.66,10.751 108.629,10.748 C108.474,10.735 108.433,10.699 108.375,10.65 C108.366,10.642 108.357,10.634 108.349,10.628 L108.333,10.614 C108.276,10.564 108.276,10.564 108.28,10.525 L108.286,10.471 C108.307,10.3 108.324,10.137 108.207,10.02 C108.145,9.958 108.075,9.927 107.996,9.911 C108.014,9.742 108.03,9.552 108.03,9.438 C108.03,8.908 107.968,8.369 107.846,7.972 C107.734,7.602 107.556,7.341 107.403,7.006 C107.097,6.337 107.113,6.038 106.84,5.61 C106.694,5.376 106.651,5.179 106.601,5.039 C106.689,4.922 106.734,4.766 106.748,4.552 C106.761,4.365 106.655,4.248 106.508,4.167 C106.555,4.105 106.587,4.03 106.611,3.941 C106.672,3.712 106.675,3.458 106.504,3.16 C106.344,2.875 106.253,2.83 106.021,2.811 C105.664,2.78 105.497,3.029 105.418,3.207 C105.334,3.4 105.351,3.373 105.356,3.617 C105.357,3.65 105.359,3.681 105.362,3.71 C105.28,3.693 105.2,3.687 105.132,3.687 C105.091,3.687 105.053,3.69 105.016,3.694 C104.986,3.697 104.957,3.7 104.932,3.701 C104.896,3.704 104.86,3.705 104.823,3.711 C104.827,3.668 104.828,3.617 104.828,3.56 C104.828,3.305 104.75,3.219 104.63,3.053 C104.514,2.894 104.332,2.887 104.217,2.907 C104.151,2.918 104.065,3.002 104.006,3.127 C103.967,3.211 103.938,3.317 103.935,3.429 C103.927,3.73 103.953,3.844 104.021,4.047 C104.039,4.097 104.06,4.142 104.086,4.181 C104.079,4.186 104.072,4.192 104.066,4.197 C103.904,4.329 103.764,4.446 103.772,4.693 C103.777,4.888 103.891,5.043 104.028,5.175 C104.004,5.362 103.995,5.406 103.995,5.666 C103.995,5.876 103.899,5.892 103.69,6.209 C103.634,6.297 103.585,6.389 103.539,6.484 C103.517,6.567 103.502,6.633 103.523,6.703 C103.585,6.914 103.895,6.955 103.878,7.024 C103.862,7.095 103.619,7.128 103.447,7.224 C103.359,7.276 103.305,7.349 103.203,7.442 C103.055,7.782 102.783,8.165 102.711,8.486 C102.625,8.868 102.52,9.111 102.536,9.623 C102.542,9.765 102.545,9.852 102.554,9.912 C102.479,9.829 102.394,9.73 102.351,9.644 C102.27,9.481 102.229,9.244 102.255,8.959 C102.284,8.632 102.347,8.449 102.524,8.025 C102.713,7.567 102.856,7.465 102.817,7.421 C102.786,7.386 102.609,7.716 102.549,7.846 C102.386,8.191 102.248,8.518 102.201,8.931 C102.167,9.233 102.204,9.447 102.287,9.626 C102.308,9.673 102.358,9.743 102.415,9.817 C102.212,9.642 102.096,9.637 102.035,9.637 C101.817,9.638 101.667,9.72 101.552,9.817 L101.552,9.817 Z M107.191,5.276 C107.334,5.419 107.423,5.419 107.482,5.355 C107.594,5.235 107.504,5.123 107.436,5.044 C107.369,4.966 107.279,4.992 107.197,4.915 C107.119,4.835 107.063,4.842 107.03,4.878 C107.006,4.905 107.046,5.128 107.191,5.276 L107.191,5.276 Z M106.347,2.678 C106.267,2.646 106.166,2.642 106.167,2.659 C106.168,2.68 106.278,2.701 106.324,2.718 C106.371,2.735 106.478,2.828 106.52,2.877 C106.562,2.925 106.64,3.084 106.666,3.075 C106.69,3.069 106.635,2.962 106.594,2.904 C106.552,2.845 106.427,2.711 106.347,2.678 L106.347,2.678 Z M106.158,2.052 C106.234,2.086 106.506,1.953 106.495,1.882 C106.481,1.777 106.37,1.648 106.322,1.643 C106.276,1.639 106.173,1.639 106.146,1.681 C106.115,1.717 106.079,2.021 106.158,2.052 L106.158,2.052 Z M104.424,2.74 C104.425,2.777 104.543,2.766 104.666,2.871 C104.792,2.98 104.806,3.076 104.844,3.072 C104.883,3.07 104.825,2.95 104.696,2.836 C104.596,2.748 104.423,2.704 104.424,2.74 L104.424,2.74 Z M110.753,11.701 C110.607,11.618 110.229,11.315 110.04,11.016 C109.926,10.831 110.088,10.536 109.931,10.307 C109.837,10.17 109.67,10.227 109.643,10.227 C109.616,10.227 109.47,10.481 109.412,10.556 C109.35,10.632 109.186,10.765 109.068,10.837 C108.952,10.911 108.86,10.952 108.61,10.934 C108.361,10.913 108.29,10.829 108.211,10.765 C108.132,10.694 108.054,10.642 108.068,10.476 C108.086,10.311 108.107,10.195 108.055,10.144 C108.002,10.09 107.928,10.079 107.765,10.079 C107.601,10.079 107.572,10.084 107.434,10.171 C107.357,10.216 107.352,10.52 107.352,10.876 C107.352,11.159 107.354,11.476 107.329,11.732 C107.271,12.329 107.149,12.68 107.139,13.065 C107.126,13.451 107.256,13.71 107.374,13.811 C107.49,13.916 107.661,13.996 108.04,13.996 C108.42,13.996 108.656,13.912 108.906,13.663 C109.067,13.501 109.236,13.352 109.731,13.013 C110.123,12.747 110.713,12.454 110.831,12.337 C110.889,12.278 110.993,12.222 111.002,12.012 C111.005,11.826 110.856,11.766 110.753,11.701 L110.753,11.701 Z M103.615,11.87 C103.266,11.317 103.211,11.216 102.978,10.85 C102.748,10.487 102.288,9.832 102.026,9.825 C101.818,9.82 101.699,9.933 101.571,10.064 C101.44,10.195 101.28,10.532 101.052,10.698 C100.821,10.863 100.241,10.846 100.094,11.041 C99.949,11.233 100.1,11.513 100.097,12.033 C100.097,12.253 100.057,12.422 100.033,12.556 C99.997,12.726 99.974,12.846 100.046,12.968 C100.176,13.184 100.383,13.239 101.578,13.487 C102.217,13.619 102.821,13.962 103.225,13.996 C103.629,14.026 103.716,13.892 103.963,13.673 C104.208,13.454 104.286,13.524 104.278,13.042 C104.271,12.564 103.964,12.422 103.615,11.87 L103.615,11.87 Z M104.261,5.223 C104.073,5.071 103.898,4.907 103.892,4.695 C103.884,4.469 104.032,4.394 104.241,4.215 C104.264,4.193 104.291,4.169 104.322,4.146 C104.265,4.132 104.249,4.081 104.179,4.009 C104.151,3.976 104.068,3.831 104.068,3.71 C104.068,3.633 104.05,3.522 104.116,3.426 C104.162,3.355 104.22,3.322 104.303,3.322 C104.378,3.322 104.474,3.372 104.522,3.442 C104.569,3.51 104.605,3.607 104.605,3.715 C104.605,3.794 104.601,3.874 104.586,3.944 C104.622,3.922 104.655,3.902 104.687,3.885 C104.814,3.822 104.895,3.835 105.027,3.819 C105.213,3.796 105.467,3.841 105.584,3.928 C105.619,3.954 105.651,3.975 105.68,3.994 C105.655,3.908 105.649,3.791 105.649,3.7 C105.649,3.559 105.69,3.461 105.76,3.381 C105.814,3.324 105.911,3.311 105.992,3.311 C106.183,3.311 106.295,3.481 106.333,3.701 C106.348,3.799 106.325,3.913 106.264,3.993 C106.209,4.069 106.116,4.119 106.029,4.135 C106.327,4.218 106.637,4.293 106.62,4.548 C106.598,4.906 106.493,5.067 106.196,5.16 C105.956,5.235 105.529,5.648 105.197,5.648 C105.05,5.648 104.844,5.656 104.725,5.613 C104.61,5.571 104.449,5.378 104.261,5.223 L104.261,5.223 Z M106.076,3.538 C106.102,3.569 106.118,3.649 106.156,3.617 C106.197,3.588 106.197,3.541 106.146,3.486 C106.097,3.431 106.053,3.41 106.033,3.431 C105.992,3.468 106.031,3.493 106.076,3.538 L106.076,3.538 Z M105.177,3.994 C105.206,4.052 105.277,4.059 105.325,4.088 C105.371,4.113 105.396,4.118 105.415,4.108 C105.456,4.088 105.424,4.013 105.384,3.988 C105.346,3.962 105.162,3.958 105.177,3.994 L105.177,3.994 Z M104.618,4.08 C104.61,4.102 104.674,4.145 104.703,4.114 C104.739,4.088 104.78,4.059 104.796,4.049 C104.859,4.009 104.834,3.98 104.732,3.994 C104.628,4.015 104.628,4.056 104.618,4.08 L104.618,4.08 Z M104.375,3.563 C104.416,3.612 104.413,3.687 104.456,3.67 C104.473,3.665 104.467,3.539 104.436,3.484 C104.405,3.432 104.333,3.425 104.32,3.453 C104.305,3.485 104.335,3.514 104.375,3.563 L104.375,3.563 Z M104.113,4.971 C104.202,5.042 104.311,5.113 104.405,5.16 C104.463,5.188 104.602,5.221 104.602,5.221 C104.737,5.238 104.862,5.234 104.943,5.234 C105.133,5.234 105.371,5.154 105.62,5.035 C105.865,4.913 105.923,4.866 106.097,4.765 C106.264,4.671 106.475,4.549 106.402,4.513 C106.329,4.476 106.255,4.529 106.013,4.674 C105.78,4.817 105.617,4.904 105.384,5.006 C105.278,5.052 105.134,5.109 105.028,5.117 C104.926,5.123 104.795,5.122 104.716,5.122 C104.624,5.122 104.521,5.084 104.425,5.05 C104.366,5.028 104.308,4.993 104.285,4.973 C104.203,4.922 104.059,4.784 104.011,4.752 C103.996,4.747 103.953,4.751 103.963,4.78 C103.986,4.863 104.041,4.913 104.113,4.971 L104.113,4.971 Z" transform="translate(-98)"/>
</svg>
