<svg xmlns="http://www.w3.org/2000/svg" width="16" height="16" viewBox="0 0 16 16">
  <path fill="#000000" fill-rule="evenodd" d="M656.144,3.377 C656.793,3.377 657.32,2.845 657.32,2.188 C657.32,1.532 656.794,1 656.144,1 C655.494,1 654.968,1.532 654.968,2.188 C654.968,2.845 655.493,3.377 656.144,3.377 L656.144,3.377 Z M653.465,9.071 L653.254,10.557 C653.254,10.557 652.714,11.856 652.342,12.619 C652.061,13.197 651.928,13.613 652.121,13.718 C652.418,13.878 652.816,13.52 653.233,12.862 C653.933,11.759 654.293,11.207 654.429,10.939 L654.64,10.238 C654.641,10.237 653.601,9.542 653.465,9.071 L653.465,9.071 Z M659.974,4.841 C659.842,4.589 659.63,4.611 659.4,4.702 L659.4,4.192 C659.4,4.034 659.274,3.906 659.118,3.906 C658.962,3.906 658.835,4.034 658.835,4.192 L658.835,4.967 L657.925,5.4 L656.37,4.252 C656.333,4.224 656.289,4.211 656.248,4.195 C656.229,4.179 656.21,4.167 656.188,4.161 L654.961,3.815 C654.791,3.767 654.561,3.949 654.517,4.251 L653.68,7.293 C653.551,7.921 653.549,8.387 654.102,8.902 C654.11,8.913 654.112,8.923 654.122,8.934 L656.206,10.706 L655.975,12.977 C655.959,13.537 655.993,13.862 656.344,13.899 C656.673,13.933 656.818,13.242 656.853,13.067 C656.853,13.067 657.272,10.892 657.324,10.585 C657.376,10.278 657.405,9.916 657.18,9.684 L655.574,8.072 L656.193,5.502 L657.401,6.386 C657.557,6.5 657.8,6.56 657.978,6.483 C657.978,6.483 658.424,6.209 658.835,5.953 L658.835,13.712 C658.835,13.87 658.962,13.998 659.118,13.998 C659.274,13.998 659.4,13.87 659.4,13.712 L659.4,5.596 C659.412,5.589 659.427,5.579 659.437,5.573 C659.76,5.36 660.099,5.079 659.974,4.841 L659.974,4.841 Z M653.091,6.876 C653.203,6.51 653.939,4.201 653.939,4.201 C654.226,3.21 652.918,3.421 652.344,4.025 C651.769,4.629 651.108,5.569 651.01,6.276 C650.92,6.926 651.491,7.159 652.041,7.329 C652.591,7.499 652.98,7.243 653.091,6.876 L653.091,6.876 Z" transform="translate(-648)"/>
</svg>
