<svg xmlns="http://www.w3.org/2000/svg" width="16" height="16" viewBox="0 0 16 16">
  <path fill="#000000" fill-rule="evenodd" d="M1311.633,5.776 C1311.376,5.672 1311.085,5.795 1310.979,6.051 C1310.745,6.625 1310.801,7.152 1310.881,7.474 L1306.355,12.923 L1300.685,11.24 C1300.573,11.184 1300.004,10.852 1300.004,9.986 C1300.004,9.712 1300.049,9.35 1300.261,9.183 C1300.416,9.061 1300.639,9.054 1300.781,9.065 L1306.014,10.558 C1306.059,10.571 1306.105,10.577 1306.15,10.577 C1306.306,10.577 1306.458,10.508 1306.557,10.384 L1311.881,4.255 C1311.996,4.113 1312.031,3.921 1311.971,3.749 C1311.91,3.576 1311.764,3.446 1311.585,3.407 L1305.34,2.012 C1305.151,1.973 1304.954,2.037 1304.829,2.182 L1299.636,7.961 C1299.516,8.097 1299.188,8.622 1299.086,9.304 C1299.088,9.303 1299.088,9.302 1299.09,9.3 C1299.037,9.508 1299,9.731 1299,9.986 C1299,11.596 1300.256,12.15 1300.31,12.172 C1300.328,12.179 1300.345,12.186 1300.363,12.192 L1306.386,13.98 C1306.434,13.994 1306.483,14.001 1306.53,14.001 C1306.676,14.001 1306.819,13.936 1306.916,13.819 L1311.831,7.904 C1311.952,7.758 1311.977,7.553 1311.903,7.38 C1311.895,7.362 1311.71,6.92 1311.909,6.432 C1312.014,6.174 1311.891,5.882 1311.633,5.776 L1311.633,5.776 Z M1304.234,4.63 L1304.635,4.154 C1304.746,4.024 1305.004,3.958 1305.209,4.007 L1308.938,4.913 C1309.142,4.963 1309.221,5.111 1309.111,5.243 L1308.712,5.716 C1308.601,5.847 1308.342,5.913 1308.137,5.864 L1304.408,4.957 C1304.203,4.907 1304.125,4.76 1304.234,4.63 L1304.234,4.63 Z" transform="translate(-1298)"/>
</svg>
