<svg xmlns="http://www.w3.org/2000/svg" width="16" height="16" viewBox="0 0 16 16">
  <path fill="#000000" fill-rule="evenodd" d="M2055.5,4 C2053.567,4 2052,5.567 2052,7.5 C2052,9.433 2053.567,11 2055.5,11 C2057.433,11 2059,9.433 2059,7.5 C2059,5.567 2057.433,4 2055.5,4 L2055.5,4 Z M2055.5,10 C2054.122,10 2053,8.878 2053,7.5 C2053,6.122 2054.122,5 2055.5,5 C2056.878,5 2058,6.122 2058,7.5 C2058,8.878 2056.878,10 2055.5,10 L2055.5,10 Z M2055.5,3.5 C2055.776,3.5 2056,3.276 2056,3 L2056,1.5 C2056,1.224 2055.776,1 2055.5,1 C2055.224,1 2055,1.224 2055,1.5 L2055,3 C2055,3.276 2055.224,3.5 2055.5,3.5 L2055.5,3.5 Z M2055.5,11.5 C2055.224,11.5 2055,11.724 2055,12 L2055,13.5 C2055,13.776 2055.224,14 2055.5,14 C2055.776,14 2056,13.776 2056,13.5 L2056,12 C2056,11.724 2055.776,11.5 2055.5,11.5 L2055.5,11.5 Z M2061.5,7 L2060,7 C2059.724,7 2059.5,7.224 2059.5,7.5 C2059.5,7.776 2059.724,8 2060,8 L2061.5,8 C2061.776,8 2062,7.776 2062,7.5 C2062,7.224 2061.776,7 2061.5,7 L2061.5,7 Z M2051.5,7.5 C2051.5,7.224 2051.276,7 2051,7 L2049.5,7 C2049.224,7 2049,7.224 2049,7.5 C2049,7.776 2049.224,8 2049.5,8 L2051,8 C2051.276,8 2051.5,7.776 2051.5,7.5 L2051.5,7.5 Z M2050.054,4.933 L2051.353,5.683 C2051.432,5.728 2051.518,5.75 2051.603,5.75 C2051.776,5.75 2051.944,5.661 2052.037,5.5 C2052.176,5.261 2052.094,4.955 2051.853,4.817 L2050.554,4.067 C2050.316,3.929 2050.009,4.01 2049.871,4.25 C2049.733,4.489 2049.815,4.795 2050.054,4.933 L2050.054,4.933 Z M2060.946,10.067 L2059.647,9.317 C2059.408,9.179 2059.102,9.261 2058.963,9.5 C2058.824,9.739 2058.906,10.045 2059.147,10.183 L2060.446,10.933 C2060.524,10.979 2060.61,11 2060.696,11 C2060.868,11 2061.036,10.91 2061.13,10.75 C2061.268,10.511 2061.186,10.205 2060.946,10.067 L2060.946,10.067 Z M2057.5,4.036 C2057.579,4.081 2057.665,4.103 2057.749,4.103 C2057.923,4.103 2058.091,4.014 2058.183,3.853 L2058.933,2.554 C2059.072,2.315 2058.99,2.009 2058.75,1.871 C2058.511,1.733 2058.205,1.814 2058.067,2.054 L2057.317,3.353 C2057.179,3.592 2057.261,3.897 2057.5,4.036 L2057.5,4.036 Z M2053.5,10.964 C2053.261,10.825 2052.955,10.907 2052.817,11.147 L2052.067,12.447 C2051.928,12.686 2052.01,12.992 2052.25,13.13 C2052.329,13.176 2052.415,13.197 2052.499,13.197 C2052.673,13.197 2052.841,13.107 2052.933,12.947 L2053.683,11.647 C2053.821,11.408 2053.739,11.102 2053.5,10.964 L2053.5,10.964 Z M2052.036,9.5 C2051.897,9.261 2051.591,9.179 2051.352,9.317 L2050.053,10.067 C2049.815,10.205 2049.733,10.511 2049.87,10.75 C2049.963,10.91 2050.131,11 2050.304,11 C2050.389,11 2050.475,10.979 2050.553,10.934 L2051.852,10.184 C2052.093,10.045 2052.175,9.739 2052.036,9.5 L2052.036,9.5 Z M2058.964,5.5 C2059.057,5.66 2059.225,5.75 2059.398,5.75 C2059.483,5.75 2059.569,5.729 2059.648,5.683 L2060.947,4.933 C2061.186,4.795 2061.268,4.489 2061.131,4.25 C2060.992,4.011 2060.686,3.929 2060.447,4.067 L2059.148,4.817 C2058.907,4.955 2058.825,5.261 2058.964,5.5 L2058.964,5.5 Z M2052.816,3.853 C2052.909,4.013 2053.077,4.103 2053.25,4.103 C2053.335,4.103 2053.421,4.082 2053.499,4.036 C2053.739,3.898 2053.821,3.592 2053.683,3.353 L2052.933,2.054 C2052.795,1.815 2052.489,1.733 2052.25,1.871 C2052.011,2.009 2051.929,2.315 2052.067,2.554 L2052.816,3.853 L2052.816,3.853 Z M2058.183,11.147 C2058.044,10.908 2057.739,10.826 2057.5,10.964 C2057.261,11.102 2057.179,11.407 2057.317,11.647 L2058.067,12.947 C2058.16,13.107 2058.328,13.197 2058.501,13.197 C2058.586,13.197 2058.672,13.176 2058.751,13.13 C2058.989,12.992 2059.071,12.687 2058.934,12.447 L2058.183,11.147 L2058.183,11.147 Z" transform="translate(-2048)"/>
</svg>
