<svg xmlns="http://www.w3.org/2000/svg" width="16" height="16" viewBox="0 0 16 16">
  <path fill="#000000" fill-rule="evenodd" d="M1602.25,10.541 C1601.611,10.541 1601.094,11.091 1601.094,11.77 C1601.094,12.449 1601.612,12.999 1602.25,12.999 C1602.888,12.999 1603.406,12.449 1603.406,11.77 C1603.406,11.091 1602.889,10.541 1602.25,10.541 L1602.25,10.541 Z M1609.25,10.541 C1608.611,10.541 1608.094,11.091 1608.094,11.77 C1608.094,12.449 1608.612,12.999 1609.25,12.999 C1609.888,12.999 1610.406,12.449 1610.406,11.77 C1610.406,11.091 1609.889,10.541 1609.25,10.541 L1609.25,10.541 Z M1611.618,7.242 L1610.5,5.658 C1610.272,5.365 1610.117,5.126 1609.75,5.126 L1607.5,5.126 C1607.226,5.126 1607,5.365 1607,5.658 L1607,11.473 C1607,11.765 1607.223,12.002 1607.497,12.004 C1607.62,10.401 1608.355,9.942 1609.25,9.942 C1610.145,9.942 1610.849,10.338 1611.003,12.004 L1611.501,12.004 C1611.775,12.004 1612,11.765 1612,11.473 L1612,8.315 C1612,7.812 1611.618,7.242 1611.618,7.242 L1611.618,7.242 Z M1608.5,8.315 L1608.5,6.189 L1609.723,6.189 C1609.804,6.189 1609.915,6.314 1609.915,6.314 L1610.968,7.863 C1611.062,8.009 1611.163,8.182 1611.163,8.315 L1608.5,8.315 L1608.5,8.315 Z M1606,3 L1599.5,3 C1599.225,3 1599,3.239 1599,3.531 L1599,11.473 C1599,11.765 1599.225,12.004 1599.5,12.004 L1600.497,12.004 C1600.65,10.307 1601.354,9.942 1602.25,9.942 C1603.145,9.942 1603.974,10.276 1604.003,12.004 L1606,12.004 C1606.275,12.004 1606.501,11.765 1606.501,11.473 L1606.501,3.531 C1606.501,3.239 1606.275,3 1606,3 L1606,3 Z" transform="translate(-1598)"/>
</svg>
