<svg xmlns="http://www.w3.org/2000/svg" width="16" height="16" viewBox="0 0 16 16">
  <path fill="#000000" fill-rule="evenodd" d="M1805.5,10.084 C1804.492,10.084 1803.591,9.608 1803.591,10.195 C1803.591,10.885 1804.485,10.979 1805.5,10.979 C1807.271,10.979 1808.463,10.367 1808.962,8.809 C1808.025,10.155 1807.031,10.084 1805.5,10.084 L1805.5,10.084 Z M1811.912,5.697 C1811.834,5.582 1811.717,5.51 1811.59,5.487 C1810.755,2.883 1808.346,1 1805.5,1 C1802.654,1 1800.245,2.884 1799.409,5.487 C1799.283,5.51 1799.166,5.582 1799.088,5.697 C1798.936,5.919 1798.986,6.218 1799.193,6.382 C1799.131,6.746 1799.091,7.118 1799.091,7.5 C1799.091,11.09 1801.96,14 1805.499,14 C1809.038,14 1811.907,11.09 1811.907,7.5 C1811.907,7.118 1811.868,6.746 1811.805,6.382 C1812.014,6.218 1812.064,5.919 1811.912,5.697 L1811.912,5.697 Z M1805.5,2.015 C1807.902,2.015 1809.94,3.613 1810.644,5.815 C1810.436,5.872 1810.213,5.911 1809.995,5.937 C1809.948,5.491 1809.591,5.472 1807.751,5.472 C1807.072,5.472 1806.626,5.526 1806.351,5.699 C1806.085,5.597 1805.793,5.538 1805.486,5.538 C1805.185,5.538 1804.9,5.592 1804.638,5.69 C1804.363,5.523 1803.918,5.472 1803.251,5.472 C1801.411,5.472 1801.054,5.492 1801.007,5.937 C1800.788,5.912 1800.566,5.873 1800.358,5.816 C1801.059,3.613 1803.098,2.015 1805.5,2.015 L1805.5,2.015 Z M1805.5,12.985 C1802.519,12.985 1800.092,10.525 1800.092,7.5 C1800.092,7.264 1800.112,7.033 1800.141,6.805 C1800.479,6.894 1800.822,6.943 1801.125,6.969 C1801.488,8.159 1802.57,8.461 1803.25,8.461 C1804.07,8.461 1804.984,7.994 1804.998,6.515 C1805.148,6.466 1805.311,6.437 1805.484,6.437 C1805.669,6.437 1805.843,6.47 1806.004,6.526 C1806.022,7.996 1806.932,8.461 1807.75,8.461 C1808.43,8.461 1809.512,8.159 1809.875,6.969 C1810.179,6.944 1810.521,6.895 1810.859,6.805 C1810.887,7.033 1810.907,7.264 1810.907,7.5 C1810.907,10.525 1808.481,12.985 1805.5,12.985 L1805.5,12.985 Z" transform="translate(-1798)"/>
</svg>
