<svg xmlns="http://www.w3.org/2000/svg" width="16" height="16" viewBox="0 0 16 16">
  <path fill="#000000" fill-rule="evenodd" d="M1905.5,1 C1901.794,1 1899,3.875 1899,7.688 C1899,9.848 1900.259,11.092 1902.456,11.107 L1902.456,12.07 C1902.456,13.945 1903.812,14 1903.967,14 C1904.176,14 1904.378,13.955 1904.565,13.875 C1904.702,13.921 1904.85,13.948 1905.007,13.948 C1905.157,13.948 1905.327,13.926 1905.506,13.858 C1905.694,13.93 1905.866,13.948 1905.994,13.948 C1906.155,13.948 1906.308,13.92 1906.449,13.871 C1906.633,13.949 1906.835,13.993 1907.042,13.993 C1907.196,13.993 1908.544,13.939 1908.544,12.07 L1908.544,11.105 C1910.741,11.084 1911.999,9.84 1911.999,7.688 C1911.999,3.875 1909.205,1 1905.5,1 L1905.5,1 Z M1908.485,10.135 C1908.184,10.135 1907.864,10.109 1907.529,10.059 L1907.529,12.069 C1907.529,12.789 1907.289,13.024 1907.042,13.024 C1906.786,13.024 1906.522,12.768 1906.522,12.542 C1906.522,12.542 1906.296,12.979 1905.994,12.979 C1905.843,12.979 1905.672,12.87 1905.5,12.542 C1905.328,12.87 1905.159,12.979 1905.007,12.979 C1904.706,12.979 1904.484,12.542 1904.484,12.542 C1904.484,12.779 1904.224,13.031 1903.967,13.031 C1903.718,13.031 1903.471,12.792 1903.471,12.07 L1903.471,10.056 C1903.128,10.109 1902.803,10.138 1902.497,10.138 C1901.008,10.138 1900.015,9.46 1900.015,7.688 C1900.015,4.527 1902.191,1.969 1905.5,1.969 C1908.812,1.969 1910.984,4.527 1910.984,7.688 C1910.984,9.473 1909.98,10.135 1908.485,10.135 L1908.485,10.135 Z M1907.61,5.637 C1906.603,6.342 1906.058,6.878 1906.058,7.435 C1906.058,8.337 1906.251,8.619 1907.177,8.619 C1909.431,8.619 1909.535,7.195 1909.52,6.686 C1909.491,5.712 1908.944,4.703 1907.61,5.637 L1907.61,5.637 Z M1904.941,7.436 C1904.941,6.879 1904.397,6.343 1903.39,5.638 C1902.055,4.703 1901.508,5.713 1901.478,6.687 C1901.463,7.196 1901.568,8.62 1903.821,8.62 C1904.749,8.619 1904.941,8.337 1904.941,7.436 L1904.941,7.436 Z M1905.5,9.537 C1905.5,9.211 1905.151,9.098 1905.04,9.401 C1904.698,10.336 1904.085,11.078 1904.901,11.078 C1905.265,11.078 1905.5,10.582 1905.5,10.582 C1905.5,10.582 1905.61,11.097 1906.149,11.097 C1906.838,11.097 1906.353,10.433 1905.999,9.485 C1905.832,9.037 1905.5,9.196 1905.5,9.537 L1905.5,9.537 Z" transform="translate(-1898)"/>
</svg>
