<svg xmlns="http://www.w3.org/2000/svg" width="16" height="16" viewBox="0 0 16 16">
  <path fill="#000000" fill-rule="evenodd" d="M1855.5,1 C1851.91,1 1849,3.91 1849,7.5 C1849,11.09 1851.91,14 1855.5,14 C1859.09,14 1862,11.09 1862,7.5 C1862,3.91 1859.09,1 1855.5,1 L1855.5,1 Z M1855.5,12.985 C1852.476,12.985 1850.016,10.524 1850.016,7.5 C1850.016,4.475 1852.476,2.015 1855.5,2.015 C1858.525,2.015 1860.985,4.475 1860.985,7.5 C1860.985,10.524 1858.525,12.985 1855.5,12.985 L1855.5,12.985 Z M1857.39,9.073 C1856.814,9.073 1856.102,9.197 1855.5,9.197 C1854.913,9.197 1854.221,9.088 1853.651,9.088 C1853.005,9.088 1852.515,9.229 1852.515,9.829 C1852.515,10.548 1854.109,11.51 1855.499,11.51 C1856.889,11.51 1858.482,10.576 1858.482,9.829 C1858.483,9.219 1858.016,9.073 1857.39,9.073 L1857.39,9.073 Z M1853.979,10.284 C1853.744,10.158 1853.554,10.023 1853.437,9.908 C1853.494,9.903 1853.565,9.9 1853.652,9.9 C1853.754,9.9 1853.865,9.906 1853.979,9.913 L1853.979,10.284 L1853.979,10.284 Z M1855.5,10.698 C1855.149,10.698 1854.801,10.619 1854.485,10.507 L1854.485,9.95 L1854.491,9.95 C1854.824,9.979 1855.169,10.009 1855.5,10.009 L1855.5,10.698 L1855.5,10.698 Z M1857.022,10.293 C1856.738,10.444 1856.382,10.576 1856.007,10.646 L1856.007,9.988 C1856.186,9.975 1856.364,9.959 1856.541,9.942 C1856.708,9.926 1856.867,9.911 1857.021,9.901 L1857.021,10.293 L1857.022,10.293 Z M1857.529,9.949 L1857.529,9.89 C1857.549,9.891 1857.575,9.891 1857.591,9.892 C1857.574,9.91 1857.55,9.93 1857.529,9.949 L1857.529,9.949 Z M1858.195,5.605 C1857.823,5.859 1857.339,6.2 1856.775,6.612 C1856.309,6.954 1856.838,8.007 1857.654,8.007 C1858.283,8.007 1858.789,7.5 1858.952,6.889 C1859.12,6.264 1858.875,5.143 1858.195,5.605 L1858.195,5.605 Z M1853.347,8.007 C1854.162,8.007 1854.691,6.954 1854.224,6.612 C1853.662,6.2 1853.178,5.859 1852.806,5.605 C1852.126,5.142 1851.881,6.263 1852.048,6.889 C1852.211,7.5 1852.716,8.007 1853.347,8.007 L1853.347,8.007 Z M1852.302,4.578 C1853.604,5.114 1854.178,5.736 1854.183,5.74 C1854.263,5.83 1854.374,5.876 1854.486,5.876 C1854.583,5.876 1854.678,5.842 1854.756,5.773 C1854.924,5.625 1854.939,5.368 1854.79,5.2 C1854.762,5.169 1854.103,4.44 1852.612,3.826 C1852.405,3.741 1852.168,3.84 1852.082,4.047 C1851.996,4.255 1852.095,4.492 1852.302,4.578 L1852.302,4.578 Z M1856.516,5.876 C1856.616,5.876 1856.716,5.839 1856.795,5.765 C1856.802,5.759 1857.424,5.178 1858.717,4.57 C1858.92,4.475 1859.007,4.234 1858.912,4.031 C1858.816,3.828 1858.575,3.74 1858.372,3.836 C1856.945,4.505 1856.263,5.15 1856.234,5.178 C1856.072,5.333 1856.067,5.589 1856.22,5.751 C1856.301,5.834 1856.408,5.876 1856.516,5.876 L1856.516,5.876 Z" transform="translate(-1848)"/>
</svg>
