<svg xmlns="http://www.w3.org/2000/svg" width="16" height="16" viewBox="0 0 16 16">
  <path fill="#000000" fill-rule="evenodd" d="M1112.626,8.881 C1112.721,8.457 1112.771,8.018 1112.771,7.568 C1112.771,4.193 1109.995,1.455 1106.57,1.455 C1106.209,1.455 1105.855,1.486 1105.508,1.544 C1104.956,1.2 1104.3,1 1103.596,1 C1101.612,1 1100,2.588 1100,4.545 C1100,5.2 1100.181,5.812 1100.496,6.339 C1100.414,6.737 1100.37,7.148 1100.37,7.568 C1100.37,10.946 1103.145,13.682 1106.569,13.682 C1106.957,13.682 1107.336,13.647 1107.706,13.579 C1108.21,13.848 1108.791,14 1109.405,14 C1111.39,14 1113,12.413 1113,10.455 C1113,9.89 1112.867,9.354 1112.626,8.881 L1112.626,8.881 Z M1109.75,10.49 C1109.463,10.89 1109.039,11.208 1108.49,11.432 C1107.946,11.654 1107.294,11.768 1106.552,11.768 C1105.661,11.768 1104.914,11.614 1104.332,11.309 C1103.915,11.087 1103.57,10.786 1103.311,10.415 C1103.046,10.042 1102.914,9.67 1102.914,9.311 C1102.914,9.087 1103.001,8.893 1103.172,8.733 C1103.342,8.576 1103.56,8.497 1103.819,8.497 C1104.032,8.497 1104.215,8.559 1104.365,8.684 C1104.509,8.804 1104.631,8.98 1104.728,9.208 C1104.838,9.457 1104.958,9.665 1105.084,9.831 C1105.205,9.99 1105.381,10.123 1105.605,10.227 C1105.83,10.332 1106.131,10.385 1106.504,10.385 C1107.017,10.385 1107.437,10.278 1107.753,10.065 C1108.061,9.857 1108.211,9.607 1108.211,9.301 C1108.211,9.06 1108.133,8.87 1107.973,8.722 C1107.804,8.566 1107.581,8.445 1107.312,8.362 C1107.029,8.276 1106.647,8.182 1106.172,8.084 C1105.529,7.948 1104.984,7.787 1104.549,7.605 C1104.103,7.418 1103.745,7.16 1103.483,6.836 C1103.216,6.507 1103.083,6.095 1103.083,5.61 C1103.083,5.148 1103.225,4.731 1103.504,4.372 C1103.781,4.017 1104.188,3.738 1104.708,3.548 C1105.221,3.36 1105.834,3.266 1106.526,3.266 C1107.08,3.266 1107.567,3.328 1107.973,3.454 C1108.381,3.579 1108.727,3.748 1108.997,3.957 C1109.269,4.167 1109.472,4.392 1109.6,4.625 C1109.728,4.861 1109.793,5.095 1109.793,5.322 C1109.793,5.54 1109.708,5.739 1109.539,5.912 C1109.37,6.086 1109.155,6.173 1108.902,6.173 C1108.673,6.173 1108.493,6.118 1108.368,6.01 C1108.252,5.908 1108.131,5.751 1107.998,5.524 C1107.845,5.233 1107.657,5.005 1107.442,4.845 C1107.233,4.689 1106.884,4.609 1106.406,4.609 C1105.962,4.609 1105.6,4.696 1105.333,4.871 C1105.073,5.038 1104.947,5.229 1104.947,5.457 C1104.947,5.596 1104.988,5.712 1105.071,5.812 C1105.159,5.917 1105.284,6.011 1105.441,6.088 C1105.604,6.169 1105.772,6.234 1105.94,6.279 C1106.111,6.325 1106.401,6.396 1106.798,6.487 C1107.299,6.593 1107.761,6.712 1108.168,6.84 C1108.581,6.971 1108.938,7.131 1109.229,7.318 C1109.526,7.509 1109.762,7.754 1109.928,8.046 C1110.095,8.339 1110.179,8.702 1110.179,9.124 C1110.183,9.629 1110.038,10.088 1109.75,10.49 L1109.75,10.49 Z" transform="translate(-1098)"/>
</svg>
