<svg xmlns="http://www.w3.org/2000/svg" width="16" height="16" viewBox="0 0 16 16">
  <path fill="#000000" fill-rule="evenodd" d="M400.686,9.589 C400.686,9.563 400.688,9.539 400.69,9.514 C400.565,9.717 400.492,9.953 400.492,10.208 C400.492,10.941 401.083,11.534 401.811,11.534 C402.092,11.534 402.352,11.445 402.567,11.294 C402.51,11.3 402.452,11.303 402.392,11.303 C401.449,11.303 400.686,10.536 400.686,9.589 L400.686,9.589 Z M408.295,9.589 C408.295,9.563 408.297,9.539 408.299,9.514 C408.174,9.717 408.101,9.953 408.101,10.208 C408.101,10.941 408.692,11.534 409.42,11.534 C409.701,11.534 409.961,11.445 410.176,11.294 C410.119,11.3 410.061,11.303 410.001,11.303 C409.059,11.303 408.295,10.536 408.295,9.589 L408.295,9.589 Z M411.75,9.169 C411.753,9.172 411.757,9.176 411.76,9.179 L410.344,5.564 C410.164,4.921 409.559,4.433 408.982,4.433 L408.956,4.433 C408.956,3.642 408.318,3 407.53,3 C407.139,3 406.786,3.158 406.528,3.415 L404.473,3.415 C404.215,3.159 403.862,3 403.471,3 C402.683,3 402.044,3.642 402.044,4.433 L402.018,4.433 C401.442,4.433 400.837,4.921 400.657,5.564 L399.241,9.179 C399.245,9.173 399.249,9.169 399.255,9.163 C399.097,9.508 399.001,9.888 399.001,10.293 C399.001,11.786 400.208,13 401.696,13 C403.184,13 404.391,11.787 404.391,10.293 C404.391,10.143 404.37,9.999 404.346,9.856 C404.606,10.215 405.024,10.452 405.5,10.452 C405.976,10.452 406.395,10.215 406.652,9.856 C406.631,9.999 406.609,10.143 406.609,10.293 C406.609,11.786 407.816,13 409.304,13 C410.793,13 411.999,11.787 411.999,10.293 C412,9.891 411.906,9.512 411.75,9.169 L411.75,9.169 Z M401.695,12.069 C400.72,12.069 399.927,11.273 399.927,10.294 C399.927,9.315 400.72,8.518 401.695,8.518 C402.67,8.518 403.463,9.314 403.463,10.294 C403.463,11.272 402.67,12.069 401.695,12.069 L401.695,12.069 Z M404.047,8.994 C404.057,9.008 404.067,9.02 404.074,9.032 C404.074,9.038 404.076,9.044 404.076,9.05 C404.066,9.031 404.057,9.013 404.047,8.994 L404.047,8.994 Z M405.5,9.942 C404.994,9.942 404.58,9.527 404.58,9.019 C404.58,8.51 404.994,8.096 405.5,8.096 C406.007,8.096 406.42,8.51 406.42,9.019 C406.42,9.528 406.007,9.942 405.5,9.942 L405.5,9.942 Z M409.305,12.069 C408.33,12.069 407.537,11.273 407.537,10.294 C407.537,9.315 408.33,8.518 409.305,8.518 C410.28,8.518 411.073,9.314 411.073,10.294 C411.072,11.272 410.279,12.069 409.305,12.069 L409.305,12.069 Z" transform="translate(-398)"/>
</svg>
