<svg xmlns="http://www.w3.org/2000/svg" width="16" height="16" viewBox="0 0 16 16">
  <path fill="#000000" fill-rule="evenodd" d="M2105.5,8 C2105.221,8 2104.993,8.224 2104.993,8.5 L2104.993,12 C2104.993,12.429 2104.888,13 2103.978,13 C2103.333,13 2102.963,12.636 2102.963,12 C2102.963,11.724 2102.736,11.5 2102.455,11.5 C2102.176,11.5 2101.948,11.724 2101.948,12 C2101.948,13.178 2102.782,14 2103.977,14 C2105.229,14 2106.006,13.233 2106.006,12 L2106.006,8.5 C2106.008,8.224 2105.781,8 2105.5,8 L2105.5,8 Z M2106.008,2.615 L2106.008,1.5 C2106.008,1.224 2105.781,1 2105.5,1 C2105.221,1 2104.993,1.224 2104.993,1.5 L2104.993,2.615 C2101.641,2.827 2099,5.131 2099,8.5 C2099,8.5 2099.952,7.5 2101.188,7.5 C2102.426,7.5 2103.47,8.5 2103.47,8.5 C2103.47,8.5 2104.232,7.5 2105.499,7.5 C2106.77,7.5 2107.528,8.5 2107.528,8.5 C2107.528,8.5 2108.551,7.5 2109.811,7.5 C2111.071,7.5 2111.999,8.5 2111.999,8.5 C2112,5.131 2109.36,2.827 2106.008,2.615 L2106.008,2.615 Z" transform="translate(-2098)"/>
</svg>
