<svg xmlns="http://www.w3.org/2000/svg" width="16" height="16" viewBox="0 0 16 16">
  <path fill="#000000" fill-rule="evenodd" d="M1055.5,6.851 C1057.746,6.851 1058.405,6.269 1058.405,4.93 C1058.405,4.052 1057.726,3.502 1056.885,3.225 C1056.791,2.535 1056.21,2 1055.499,2 C1054.788,2 1054.206,2.534 1054.112,3.225 C1053.27,3.502 1052.592,4.052 1052.592,4.93 C1052.594,6.269 1053.254,6.851 1055.5,6.851 L1055.5,6.851 Z M1061.5,8.457 L1059.406,8.457 C1059.406,8.095 1059.4,7.807 1059.385,7.577 C1060.083,7.111 1061,6.088 1061,3.921 C1061,3.643 1060.776,3.417 1060.5,3.417 C1060.224,3.417 1060,3.643 1060,3.921 C1060,6.504 1058.458,6.939 1058.382,6.959 C1058.332,6.971 1058.288,6.997 1058.246,7.023 C1057.661,7.248 1056.792,7.55 1055.5,7.55 C1053.589,7.55 1052.609,6.864 1052.109,6.696 C1051.632,6.349 1051,5.579 1051,3.921 C1051,3.643 1050.775,3.417 1050.5,3.417 C1050.224,3.417 1050,3.643 1050,3.921 C1050,6.078 1050.909,7.102 1051.605,7.571 C1051.595,7.808 1051.593,8.098 1051.593,8.456 L1049.498,8.456 C1049.222,8.456 1048.999,8.681 1048.999,8.96 C1048.999,9.238 1049.222,9.464 1049.498,9.464 L1051.695,9.464 C1051.743,9.709 1051.807,9.949 1051.886,10.182 C1050.75,10.566 1049.497,11.519 1049.497,13.495 C1049.497,13.773 1049.722,13.999 1049.998,13.999 C1050.274,13.999 1050.498,13.773 1050.498,13.495 C1050.498,11.91 1051.553,11.322 1052.305,11.102 C1052.922,12.178 1053.887,13.003 1054.998,13.32 L1054.998,9.463 C1054.998,7.952 1055.997,7.951 1055.997,9.463 L1055.997,13.32 C1057.108,13.003 1058.07,12.18 1058.687,11.106 C1059.434,11.327 1060.498,11.916 1060.498,13.494 C1060.498,13.772 1060.722,13.998 1060.998,13.998 C1061.273,13.998 1061.498,13.772 1061.498,13.494 C1061.498,11.517 1060.246,10.564 1059.109,10.181 C1059.188,9.948 1059.253,9.708 1059.301,9.463 L1061.497,9.463 C1061.773,9.463 1061.997,9.237 1061.997,8.959 C1062,8.682 1061.776,8.457 1061.5,8.457 L1061.5,8.457 Z" transform="translate(-1048)"/>
</svg>
