<svg xmlns="http://www.w3.org/2000/svg" width="16" height="16" viewBox="0 0 16 16">
  <path fill="#000000" fill-rule="evenodd" d="M1708.641,3.226 C1707.861,2.587 1707.053,1.927 1706.434,1.194 C1706.33,1.071 1706.177,1 1706.018,1 L1705.985,1 C1705.826,1 1705.673,1.071 1705.569,1.194 C1704.949,1.926 1704.141,2.587 1703.362,3.226 C1701.71,4.579 1700.001,5.977 1700.001,8.142 C1700.001,10.105 1701.376,11.476 1703.346,11.476 C1704.131,11.476 1704.834,11.09 1705.374,10.667 C1705.037,11.811 1704.566,13.094 1703.958,14 C1705.32,13.756 1706.692,13.767 1708.044,14 C1707.441,13.095 1706.971,11.813 1706.633,10.67 C1707.172,11.091 1707.873,11.476 1708.657,11.476 C1710.625,11.476 1712.001,10.104 1712.001,8.142 C1712,5.978 1710.293,4.578 1708.641,3.226 L1708.641,3.226 Z" transform="translate(-1698)"/>
</svg>
