<svg xmlns="http://www.w3.org/2000/svg" width="16" height="16" viewBox="0 0 16 16">
  <path fill="#000000" fill-rule="evenodd" d="M2305.5,1 C2301.91,1 2299,3.91 2299,7.5 C2299,11.09 2301.91,14 2305.5,14 C2309.09,14 2312,11.09 2312,7.5 C2312,3.91 2309.09,1 2305.5,1 L2305.5,1 Z M2305.5,13 C2302.468,13 2300,10.533 2300,7.5 C2300,4.467 2302.468,2 2305.5,2 C2308.532,2 2311,4.467 2311,7.5 C2311,10.533 2308.532,13 2305.5,13 L2305.5,13 Z M2301.824,9.064 C2302.636,10.22 2303.978,10.978 2305.5,10.978 C2307.022,10.978 2308.363,10.22 2309.176,9.064 C2308.141,9.809 2306.873,10.253 2305.5,10.253 C2304.127,10.253 2302.859,9.81 2301.824,9.064 L2301.824,9.064 Z M2303.471,7.5 C2304.032,7.5 2304.486,7.046 2304.486,6.485 C2304.486,5.924 2304.032,5.47 2303.471,5.47 C2302.911,5.47 2302.456,5.924 2302.456,6.485 C2302.456,7.046 2302.911,7.5 2303.471,7.5 L2303.471,7.5 Z M2307.529,7.5 C2308.089,7.5 2308.544,7.046 2308.544,6.485 C2308.544,5.924 2308.089,5.47 2307.529,5.47 C2306.969,5.47 2306.514,5.924 2306.514,6.485 C2306.514,7.046 2306.97,7.5 2307.529,7.5 L2307.529,7.5 Z" transform="translate(-2298)"/>
</svg>
