<svg xmlns="http://www.w3.org/2000/svg" width="16" height="16" viewBox="0 0 16 16">
  <path fill="#000000" fill-rule="evenodd" d="M2503.578,11.511 C2503.629,11.424 2503.666,11.367 2503.687,11.315 C2502.636,10.577 2501.945,9.35 2501.945,7.963 C2501.945,5.709 2503.763,3.875 2506,3.875 C2506.213,3.875 2506.422,3.896 2506.626,3.929 L2507.369,3.119 C2506.933,2.994 2506.476,2.922 2506,2.922 C2503.238,2.922 2501,5.18 2501,7.963 C2501,9.701 2501.875,11.234 2503.203,12.141 C2503.328,11.93 2503.453,11.721 2503.578,11.511 L2503.578,11.511 Z M2508.791,3.781 L2508.311,4.608 C2509.364,5.347 2510.055,6.574 2510.055,7.962 C2510.055,10.214 2508.237,12.048 2506,12.048 C2505.828,12.048 2505.662,12.033 2505.496,12.013 L2504.709,12.825 C2505.121,12.936 2505.553,13.001 2506,13.001 C2508.762,13.001 2511,10.743 2511,7.962 C2511,6.221 2510.123,4.686 2508.791,3.781 L2508.791,3.781 Z M2506.203,9.017 L2508.75,5.731 L2506.756,6.292 L2509.535,1.501 L2503.971,7.566 L2505.617,7.309 L2503.504,10.422 L2505.08,10.237 L2502.387,14.5 L2507.858,8.855 L2506.203,9.017 L2506.203,9.017 Z" transform="translate(-2498)"/>
</svg>
