<svg xmlns="http://www.w3.org/2000/svg" width="16" height="16" viewBox="0 0 16 16">
  <path fill="#000000" fill-rule="evenodd" d="M1211.5,1 L1199.5,1 C1199.225,1 1199,1.225 1199,1.5 L1199,13.5 C1199,13.775 1199.225,14 1199.5,14 L1211.5,14 C1211.775,14 1212,13.775 1212,13.5 L1212,1.5 C1212,1.225 1211.775,1 1211.5,1 L1211.5,1 Z M1211,13 L1200,13 L1200,2 L1211,2 L1211,13 L1211,13 Z M1201,8.5 L1201.5,8.5 C1201.632,8.5 1201.76,8.447 1201.854,8.354 L1202.23,7.979 L1202.515,9.122 C1202.57,9.341 1202.763,9.496 1202.989,9.501 C1203.203,9.498 1203.415,9.36 1203.48,9.145 L1204.185,6.792 L1204.501,11.535 C1204.517,11.773 1204.7,11.967 1204.937,11.998 C1204.958,12 1204.98,12.002 1205.001,12.002 C1205.213,12.002 1205.405,11.866 1205.474,11.66 L1206.593,8.305 L1207.053,9.226 C1207.222,9.565 1207.779,9.565 1207.948,9.226 L1208.31,8.502 L1210,8.502 C1210.276,8.502 1210.5,8.278 1210.5,8.002 C1210.5,7.726 1210.276,7.502 1210,7.502 L1208,7.502 C1207.811,7.502 1207.638,7.608 1207.553,7.778 L1207.5,7.884 L1206.947,6.779 C1206.856,6.597 1206.667,6.487 1206.464,6.504 C1206.263,6.518 1206.089,6.652 1206.026,6.844 L1205.329,8.932 L1204.999,3.969 C1204.983,3.728 1204.796,3.532 1204.556,3.505 C1204.314,3.482 1204.091,3.627 1204.021,3.858 L1203.044,7.115 L1202.985,6.881 C1202.941,6.706 1202.807,6.569 1202.633,6.52 C1202.457,6.471 1202.274,6.52 1202.146,6.649 L1201.292,7.503 L1201,7.503 C1200.724,7.503 1200.5,7.727 1200.5,8.003 C1200.5,8.276 1200.724,8.5 1201,8.5 L1201,8.5 Z" transform="translate(-1198)"/>
</svg>
