<svg xmlns="http://www.w3.org/2000/svg" width="16" height="16" viewBox="0 0 16 16">
  <path fill="#000000" fill-rule="evenodd" d="M1661.528,10.585 C1661.328,10.605 1661.156,10.696 1661.08,10.861 C1660.988,10.914 1660.616,11.073 1659.502,11.073 L1653.951,11.073 C1653.685,11.073 1653.471,11.281 1653.471,11.536 C1653.471,11.792 1653.686,12 1653.951,12 L1659.502,12 C1661.553,12 1661.992,11.487 1662,11.056 C1662.004,10.801 1661.793,10.589 1661.528,10.585 L1661.528,10.585 Z M1651.429,5.169 L1655.995,4.922 L1655.995,5.944 C1655.624,6.107 1655.328,6.352 1655.1,6.657 L1650.162,6.657 C1649.91,6.657 1649.854,7.068 1650.135,7.114 C1650.202,7.125 1652.834,7.745 1654.541,8.149 C1654.512,8.367 1654.497,8.594 1654.497,8.828 C1654.497,10.548 1656.05,10.538 1657.966,10.538 C1659.88,10.538 1661.434,10.548 1661.434,8.828 C1661.434,7.109 1659.1,5.715 1657.184,5.715 C1657.104,5.715 1657.03,5.721 1656.954,5.726 L1656.954,4.922 L1661.521,5.169 C1661.786,5.169 1662,4.961 1662,4.707 C1662,4.451 1661.785,4.243 1661.521,4.243 L1656.954,4.491 L1656.954,4.463 C1656.954,4.208 1656.739,4 1656.475,4 C1656.21,4 1655.996,4.208 1655.996,4.463 L1655.996,4.491 L1651.43,4.243 C1651.164,4.243 1650.95,4.451 1650.95,4.707 C1650.948,4.962 1651.163,5.169 1651.429,5.169 L1651.429,5.169 Z M1658.051,6.691 C1658.95,6.691 1660.49,7.499 1660.49,8.518 C1660.49,8.899 1660.094,9.075 1658.703,9.075 C1657.793,9.075 1657.525,8.672 1657.525,8.153 C1657.525,7.366 1657.631,6.691 1658.051,6.691 L1658.051,6.691 Z M1650.166,7.509 C1649.821,7.509 1649.539,7.237 1649.539,6.903 C1649.539,6.568 1649.821,6.296 1650.166,6.296 C1650.334,6.296 1650.485,6.362 1650.597,6.466 L1651.242,6.466 C1651.066,6.06 1650.651,5.775 1650.167,5.775 C1649.523,5.775 1649.001,6.28 1649.001,6.903 C1649.001,7.526 1649.523,8.031 1650.167,8.031 C1650.543,8.031 1650.874,7.855 1651.087,7.589 L1650.464,7.427 C1650.373,7.475 1650.275,7.509 1650.166,7.509 L1650.166,7.509 Z" transform="translate(-1648)"/>
</svg>
