<svg xmlns="http://www.w3.org/2000/svg" width="16" height="16" viewBox="0 0 16 16">
  <path fill="#000000" fill-rule="evenodd" d="M2355.5,4 C2351.922,4 2349,5.798 2349,8.002 C2349,10.203 2351.922,12 2355.5,12 C2359.08,12 2362,10.203 2362,8.002 C2362,5.798 2359.08,4 2355.5,4 L2355.5,4 Z M2355.5,11.553 C2352.176,11.553 2349.463,9.957 2349.463,8.002 C2349.463,6.044 2352.176,4.447 2355.5,4.447 C2358.826,4.447 2361.54,6.044 2361.54,8.002 C2361.54,9.957 2358.826,11.553 2355.5,11.553 L2355.5,11.553 Z M2357.533,4.991 C2359.054,7.012 2356.883,8.416 2356.484,6.64 L2356.31,4.994 L2355.965,5.434 L2355.116,5.434 L2354.768,4.994 L2354.596,6.64 C2354.197,8.419 2352.014,7.004 2353.557,4.975 C2353.526,4.98 2353.495,4.986 2353.463,4.992 C2351.438,5.46 2349.998,6.607 2349.998,7.943 C2349.998,8.328 2350.119,8.697 2350.34,9.039 C2350.647,9.463 2351.098,9.869 2351.686,10.228 C2351.868,10.328 2352.063,10.423 2352.268,10.511 C2351.184,8.995 2352.963,8.534 2353.769,10.086 C2354.144,8.848 2355.194,9.439 2355.53,11.024 C2355.87,9.454 2356.936,8.847 2357.311,10.086 C2358.106,8.552 2359.856,8.987 2358.846,10.46 C2360.155,9.878 2360.998,8.966 2360.998,7.942 C2361,6.607 2359.562,5.46 2357.533,4.991 L2357.533,4.991 Z" transform="translate(-2348)"/>
</svg>
