<svg xmlns="http://www.w3.org/2000/svg" width="16" height="16" viewBox="0 0 16 16">
  <path fill="#000000" fill-rule="evenodd" d="M758.984,9.077 C758.947,8.956 758.843,8.868 758.723,8.85 L756.351,8.492 L755.289,6.263 C755.18,6.034 754.817,6.034 754.71,6.263 L753.648,8.492 L751.276,8.85 C751.154,8.868 751.052,8.956 751.015,9.077 C750.976,9.199 751.009,9.333 751.097,9.421 L752.813,11.156 L752.408,13.608 C752.388,13.733 752.437,13.86 752.537,13.936 C752.638,14.01 752.768,14.02 752.878,13.961 L755,12.805 L757.122,13.961 C757.169,13.987 757.222,14 757.272,14 C757.34,14 757.407,13.978 757.462,13.936 C757.56,13.861 757.61,13.733 757.591,13.608 L757.186,11.156 L758.902,9.421 C758.99,9.333 759.023,9.199 758.984,9.077 L758.984,9.077 Z M752.088,2.891 L754.515,4.358 C754.782,4.56 755.218,4.56 755.487,4.358 L757.914,2.891 C758.181,2.69 758.399,2.298 758.399,2.021 L758.399,1 L751.603,1 L751.603,2.021 C751.603,2.298 751.821,2.689 752.088,2.891 L752.088,2.891 Z M754.029,5.531 C754.029,5.808 754.248,6.034 754.514,6.034 L755.486,6.034 C755.753,6.034 755.971,5.808 755.971,5.531 L755.971,5.028 L754.029,5.028 L754.029,5.531 L754.029,5.531 Z" transform="translate(-748)"/>
</svg>
