<svg xmlns="http://www.w3.org/2000/svg" width="16" height="16" viewBox="0 0 16 16">
  <path fill="#000000" fill-rule="evenodd" d="M857.529,9.059 C858.084,9.059 858.533,8.608 858.533,8.052 C858.533,7.496 858.084,7.045 857.529,7.045 C856.975,7.045 856.526,7.496 856.526,8.052 C856.526,8.608 856.976,9.059 857.529,9.059 L857.529,9.059 Z M853.515,7.044 C852.96,7.044 852.51,7.495 852.51,8.051 C852.51,8.607 852.96,9.058 853.515,9.058 C854.069,9.058 854.519,8.607 854.519,8.051 C854.519,7.495 854.068,7.044 853.515,7.044 L853.515,7.044 Z M860.542,6.037 L860.461,6.037 C860.463,2.514 858.118,1 855.522,1 C852.721,1 850.131,2.745 850.611,6.901 C850.236,7.246 850.001,7.811 850.001,8.474 C850.001,9.417 850.901,10.225 851.599,10.482 C851.825,11.23 852.28,11.906 852.929,12.454 C853.024,12.534 853.138,12.573 853.252,12.573 C853.395,12.573 853.537,12.512 853.637,12.394 C853.815,12.181 853.787,11.864 853.576,11.685 C853.001,11.2 852.639,10.62 852.5,9.96 C852.455,9.743 852.234,9.58 852.014,9.561 C851.789,9.541 851.005,8.99 851.005,8.475 C851.005,8.234 851.056,8.031 851.131,7.873 C851.224,7.98 851.355,8.052 851.507,8.052 C851.785,8.052 852.009,7.827 852.009,7.548 L852.009,7.064 C852.029,6.746 852.073,6.415 852.154,6.089 C852.842,5.855 853.421,6.235 854.017,4.471 C854.892,7.08 857.156,5.576 858.711,5.504 C858.892,5.948 859.003,6.466 859.036,7.066 L859.036,7.547 C859.036,7.826 859.262,8.051 859.538,8.051 L859.538,9.303 C859.353,9.458 859.159,9.562 859.036,9.562 C858.8,9.562 858.595,9.729 858.546,9.961 C858.45,10.411 858.249,10.828 857.946,11.202 C857.77,11.418 857.803,11.735 858.02,11.91 C858.234,12.086 858.551,12.053 858.724,11.837 C859.054,11.431 859.294,10.983 859.443,10.501 C859.699,10.419 859.959,10.264 860.194,10.065 L860.539,10.065 C860.264,11.463 859.488,12.12 859.337,12.232 C859.204,12.289 858.454,12.573 856.912,12.658 C856.809,12.099 856.229,11.67 855.523,11.67 C854.743,11.67 854.111,12.191 854.111,12.835 C854.111,13.479 854.743,14 855.523,14 C856.015,14 856.448,13.792 856.7,13.476 C858.787,13.396 859.682,12.962 859.762,12.919 C859.823,12.877 861.15,11.958 861.401,9.78 C861.768,9.506 862.001,9.06 862.001,8.554 L862.001,7.547 C862,6.713 861.373,6.037 860.542,6.037 L860.542,6.037 Z" transform="translate(-848)"/>
</svg>
