<svg xmlns="http://www.w3.org/2000/svg" width="16" height="16" viewBox="0 0 16 16">
  <path fill="#000000" fill-rule="evenodd" d="M1957.764,8.556 C1957.356,8.556 1957.026,8.885 1957.026,9.291 C1957.026,9.697 1957.356,10.026 1957.764,10.026 C1958.174,10.026 1958.504,9.697 1958.504,9.291 C1958.504,8.885 1958.174,8.556 1957.764,8.556 L1957.764,8.556 Z M1954.225,8.556 C1953.815,8.556 1953.485,8.885 1953.485,9.291 C1953.485,9.697 1953.815,10.026 1954.225,10.026 C1954.633,10.026 1954.963,9.697 1954.963,9.291 C1954.963,8.885 1954.633,8.556 1954.225,8.556 L1954.225,8.556 Z M1955.488,5.522 L1956.5,5.522 L1956.5,4.517 L1957.512,4.517 L1957.512,3.512 L1956.5,3.512 L1956.5,2.507 L1955.488,2.507 L1955.488,3.512 L1954.476,3.512 L1954.476,4.517 L1955.488,4.517 L1955.488,5.522 L1955.488,5.522 Z M1960.336,4.072 L1960.539,3.018 C1960.56,2.903 1960.541,2.785 1960.486,2.683 C1960.39,2.511 1959.459,1.001 1955.994,1.001 C1952.531,1.001 1951.599,2.511 1951.506,2.683 C1951.447,2.785 1951.43,2.904 1951.451,3.018 L1951.621,3.906 C1949.826,5.967 1949.601,9.42 1950.555,12.474 C1951.522,12.929 1952.674,13.08 1953.561,12.997 C1954.512,13.685 1955.532,14 1955.995,14 C1956.491,14 1957.565,13.669 1958.507,12.938 C1960.046,13.25 1961.058,12.873 1961.56,12.551 C1962.373,9.917 1962.115,6.296 1960.336,4.072 L1960.336,4.072 Z M1955.994,2.005 C1958.297,2.005 1959.226,2.755 1959.502,3.049 L1958.992,5.713 C1958.717,5.818 1957.924,6.025 1955.957,6.025 C1954.012,6.025 1953.256,5.822 1952.998,5.722 L1952.486,3.051 C1952.77,2.75 1953.697,2.005 1955.994,2.005 L1955.994,2.005 Z M1959.566,8.263 C1959.566,9.285 1959.41,10.052 1959.134,10.665 C1959.134,10.67 1959.132,10.673 1959.13,10.678 C1959.114,10.715 1959.097,10.75 1959.081,10.786 C1958.706,11.556 1958.136,12.076 1957.446,12.556 C1956.833,12.92 1956.243,13.096 1955.993,13.096 C1955.766,13.096 1955.227,12.937 1954.638,12.607 C1953.177,11.605 1952.513,10.18 1952.431,8.883 C1951.835,8.774 1951.513,8.478 1951.456,8.333 C1951.823,8.318 1953.095,8.071 1953.894,6.93 C1954.458,6.996 1955.148,7.03 1955.956,7.03 C1956.077,7.03 1956.186,7.029 1956.3,7.027 C1956.773,7.25 1957.456,7.431 1958.206,7.51 C1959.436,7.639 1960.554,7.453 1960.554,7.453 C1960.554,7.453 1960.129,8.143 1959.566,8.263 L1959.566,8.263 Z" transform="translate(-1948)"/>
</svg>
