<svg xmlns="http://www.w3.org/2000/svg" width="16" height="16" viewBox="0 0 16 16">
  <path fill="#000000" fill-rule="evenodd" d="M961.321,10.741 L960.883,11.854 L959.768,12.293 L960.883,12.732 L961.321,13.845 L961.761,12.732 L962.874,12.293 L961.761,11.854 L961.321,10.741 L961.321,10.741 Z M958.283,9.781 L958,10.494 L957.288,10.776 L958,11.057 L958.283,11.77 L958.564,11.057 L959.277,10.776 L958.564,10.494 L958.283,9.781 L958.283,9.781 Z M960.853,5.758 L963,5.055 L960.891,4.244 L961.912,2.228 L959.847,3.147 L959.142,1 L958.332,3.108 L956.315,2.088 L957.234,4.151 L955.085,4.855 L957.091,5.625 L954.84,7.875 L950.199,12.514 C949.933,12.779 949.933,13.208 950.199,13.473 L950.517,13.793 C950.784,14.058 951.212,14.058 951.478,13.793 L956.471,8.804 L958.283,6.993 L958.941,8.911 L959.754,6.801 L961.77,7.822 L960.853,5.758 L960.853,5.758 Z M958.97,5.593 L956.121,8.439 L955.556,7.875 L958.405,5.029 C958.45,4.985 958.502,4.978 958.528,4.978 C958.555,4.978 958.605,4.984 958.65,5.028 L958.97,5.348 C959.037,5.416 959.037,5.525 958.97,5.593 L958.97,5.593 Z" transform="translate(-948)"/>
</svg>
