<svg xmlns="http://www.w3.org/2000/svg" width="16" height="16" viewBox="0 0 16 16">
  <path fill="#000000" fill-rule="evenodd" d="M2650.795,5.17165022 C2650.356,5.17165022 2650,5.52865022 2650,5.96765022 L2650,9.30165022 C2650.001,9.74065022 2650.357,10.0966502 2650.796,10.0966502 C2651.236,10.0966502 2651.593,9.74065022 2651.593,9.30165022 L2651.593,5.96765022 C2651.592,5.52865022 2651.235,5.17165022 2650.795,5.17165022 L2650.795,5.17165022 Z M2657.215,2.17865022 L2657.771,1.16365022 C2657.799,1.11165022 2657.779,1.04365022 2657.727,1.01265022 C2657.672,0.984650219 2657.605,1.00465022 2657.577,1.05765022 L2657.016,2.08265022 C2656.544,1.87265022 2656.016,1.75465022 2655.456,1.75565022 C2654.898,1.75465022 2654.37,1.87265022 2653.9,2.08165022 L2653.338,1.05865022 C2653.309,1.00465022 2653.242,0.985650219 2653.188,1.01465022 C2653.135,1.04365022 2653.115,1.11165022 2653.145,1.16465022 L2653.701,2.17765022 C2652.608,2.74165022 2651.871,3.81365022 2651.871,5.04465022 L2659.042,5.04465022 C2659.042,3.81365022 2658.305,2.74265022 2657.215,2.17865022 L2657.215,2.17865022 Z M2654.44398,4.03112522 C2654.19913,4.03112522 2654,3.83347522 2654,3.59010022 C2654,3.34525022 2654.19913,3.14465022 2654.44398,3.14465022 C2654.68883,3.14465022 2654.88647,3.34525022 2654.88647,3.59010022 C2654.88795,3.83347522 2654.68883,4.03112522 2654.44398,4.03112522 L2654.44398,4.03112522 Z M2656.44398,4.03112522 C2656.19913,4.03112522 2656,3.83347522 2656,3.59010022 C2656,3.34525022 2656.19913,3.14465022 2656.44398,3.14465022 C2656.68883,3.14465022 2656.88647,3.34525022 2656.88647,3.59010022 C2656.88795,3.83347522 2656.68883,4.03112522 2656.44398,4.03112522 L2656.44398,4.03112522 Z M2651.9,5.32265022 L2651.901,10.4876502 C2651.901,10.9576502 2652.282,11.3366502 2652.751,11.3366502 L2653.33,11.3386502 L2653.331,13.0996502 C2653.331,13.5406502 2653.687,13.8966502 2654.125,13.8966502 C2654.565,13.8966502 2654.921,13.5396502 2654.922,13.0996502 L2654.921,11.3366502 L2655.996,11.3366502 L2655.997,13.0996502 C2655.997,13.5396502 2656.353,13.8966502 2656.792,13.8956502 C2657.231,13.8966502 2657.589,13.5396502 2657.589,13.0986502 L2657.589,11.3366502 L2658.168,11.3366502 C2658.637,11.3366502 2659.018,10.9566502 2659.018,10.4866502 L2659.017,5.32165022 L2651.9,5.32265022 L2651.9,5.32265022 Z M2660.916,5.96665022 C2660.916,5.52665022 2660.56,5.17065022 2660.119,5.17065022 C2659.681,5.17065022 2659.324,5.52765022 2659.324,5.96665022 L2659.324,9.30065022 C2659.324,9.73965022 2659.681,10.0956502 2660.12,10.0956502 C2660.56,10.0956502 2660.916,9.73965022 2660.916,9.30065022 L2660.916,5.96665022 L2660.916,5.96665022 Z" transform="translate(-2648)"/>
</svg>
