<svg xmlns="http://www.w3.org/2000/svg" width="16" height="16" viewBox="0 0 16 16">
  <path fill="#000000" fill-rule="evenodd" d="M1010.942,5.5 L1010.942,2 C1010.942,1 1010.414,1 1009.903,1 C1008.873,1 1008.799,5 1003.154,5 L1000.556,5 C999.697,5 998.999,5.672 998.999,6.5 L998.999,7.5 C998.999,8.328 999.696,9 1000.556,9 L1003.154,9 C1008.832,9 1008.856,13 1009.903,13 L1009.927,13 C1010.454,13 1010.942,12.992 1010.942,12 L1010.942,8.5 C1011.801,8.5 1012.5,7.828 1012.5,7 C1012.5,6.172 1011.802,5.5 1010.942,5.5 L1010.942,5.5 Z M1003.154,7 L1000.556,7 C1000.556,6.007 1001.329,6 1001.329,6 L1003.153,6 L1003.153,7 L1003.154,7 Z M1009.903,11.551 C1009.177,10.374 1007.869,8.364 1004.192,8.044 L1004.192,5.956 C1007.849,5.635 1009.171,3.63 1009.903,2.451 L1009.903,11.551 L1009.903,11.551 Z M1003.292,11.396 C1002.636,10.89 1003.117,9.5 1003.117,9.5 L1000.633,9.5 L1001.476,12.5 C1001.543,12.775 1001.83,13 1002.116,13 L1003.155,13 C1003.993,13.024 1004.241,12.126 1003.292,11.396 L1003.292,11.396 Z M1005.231,7 C1007.227,7 1008.865,6.555 1008.865,6.555 L1008.865,5.03 C1008.865,5.03 1007.238,6.501 1005.231,6.501 L1005.231,7 L1005.231,7 Z" transform="translate(-998)"/>
</svg>
