<svg xmlns="http://www.w3.org/2000/svg" width="16" height="16" viewBox="0 0 16 16">
  <path fill="#000000" fill-rule="evenodd" d="M1462.499,3.1 C1462.499,2.797 1462.274,2.55 1461.998,2.55 L1461.347,2.55 C1461.431,2.247 1461.273,2 1460.998,2 L1460.499,2 C1460.222,2 1459.93,2.247 1459.846,2.55 L1451.883,2.55 C1451.256,2.55 1450.431,3.414 1450.057,5.3 C1450.006,5.561 1450.086,5.85 1450.372,5.85 C1451.242,5.85 1451.146,6.51 1451.109,7.04 C1451.064,7.694 1450.458,8.471 1450.109,10.176 C1449.75,11.926 1450.325,13 1451.109,13 L1452.837,13 C1453.369,13 1454.025,12.76 1454.307,11.281 C1454.368,10.962 1454.504,10.815 1454.665,9.15 L1455.559,9.15 C1457.344,9.15 1458.497,7.961 1458.497,6.12 L1458.497,5.85 L1461.999,5.85 C1462.275,5.85 1462.5,5.603 1462.5,5.3 C1462.774,5.3 1463.001,5.052 1463.001,4.75 L1463.001,3.65 C1463,3.347 1462.773,3.1 1462.499,3.1 L1462.499,3.1 Z M1457.496,6.12 C1457.496,7.862 1456.142,8.05 1455.558,8.05 L1454.756,8.05 C1454.777,7.779 1454.797,7.492 1454.817,7.167 C1454.821,7.104 1454.848,7.001 1454.893,6.885 C1455.173,7.268 1455.613,7.46 1456.047,7.46 C1456.247,7.46 1456.411,7.3 1456.411,7.079 C1456.411,6.749 1455.752,6.889 1455.679,6.029 C1455.897,5.922 1456.166,5.851 1456.493,5.851 L1457.495,5.851 L1457.495,6.12 L1457.496,6.12 Z" transform="translate(-1448)"/>
</svg>
