<svg xmlns="http://www.w3.org/2000/svg" width="16" height="16" viewBox="0 0 16 16">
  <path fill="#000000" fill-rule="evenodd" d="M552.931,4.789 C553.101,5.088 554.187,5.238 554.718,5.219 C555.25,5.2 556.34,4.963 556.3,4.509 C556.225,3.667 556.74,2.541 556.842,2.384 C557.05,2.066 557.066,1.402 556.19,1.718 C555.986,1.792 555.503,2.291 555.298,1.699 C554.93,0.635 554.073,0.931 553.885,1.625 C553.754,2.106 553.235,2.143 552.639,2.087 C551.942,2.022 551.853,2.456 552.083,2.823 C552.209,3.019 552.736,4.445 552.931,4.789 L552.931,4.789 Z M556.644,5.358 C556.528,5.325 556.319,5.893 554.756,5.949 C553.345,6 552.936,5.487 552.854,5.515 C550.763,6.237 549,8.358 549,10.508 C549,13.274 550.588,14.001 555,14.001 C559.413,14.001 561,13.256 561,10.508 C561,8.196 558.853,5.982 556.644,5.358 L556.644,5.358 Z M555.056,11.463 L555.056,12.028 C555.056,12.07 555.02,12.105 554.978,12.105 L554.467,12.105 C554.425,12.105 554.39,12.07 554.39,12.028 L554.39,11.508 C554.029,11.486 553.66,11.382 553.431,11.237 C553.402,11.218 553.389,11.184 553.397,11.152 L553.564,10.571 C553.57,10.548 553.587,10.529 553.61,10.521 C553.634,10.513 553.658,10.515 553.677,10.527 C553.84,10.623 554.173,10.785 554.596,10.785 C554.95,10.785 555.176,10.628 555.176,10.385 C555.176,10.154 555.002,10 554.551,9.84 C554.002,9.64 553.437,9.345 553.437,8.673 C553.437,8.116 553.817,7.696 554.427,7.565 L554.427,7.035 C554.427,6.993 554.463,6.958 554.504,6.958 L555.008,6.958 C555.05,6.958 555.086,6.993 555.086,7.035 L555.086,7.525 C555.471,7.548 555.728,7.656 555.891,7.737 C555.925,7.754 555.941,7.792 555.931,7.827 L555.764,8.389 C555.758,8.41 555.743,8.429 555.721,8.438 C555.7,8.447 555.677,8.446 555.658,8.436 C555.495,8.355 555.243,8.23 554.856,8.23 C554.538,8.23 554.347,8.361 554.347,8.582 C554.347,8.776 554.524,8.91 555.048,9.109 C555.777,9.381 556.088,9.742 556.088,10.318 C556.088,10.892 555.685,11.336 555.056,11.463 L555.056,11.463 Z" transform="translate(-548)"/>
</svg>
