<svg xmlns="http://www.w3.org/2000/svg" width="16" height="16" viewBox="0 0 16 16">
  <path fill="#000000" fill-rule="evenodd" d="M910,6.95 C908.898,6.95 908,7.853 908,8.965 C908,9.88 908.613,10.646 909.445,10.89 C909.291,11.611 908.707,12.994 906.5,12.994 C905.541,12.994 904.801,12.716 904.299,12.167 C903.791,11.612 903.6,10.87 903.531,10.311 C903.781,10.019 903.963,9.576 904.013,9.216 C906.22,8.07 906.999,3.386 906.999,2.921 C906.999,2.221 906.171,1.702 905.808,1.508 C905.66,1.208 905.355,1 905,1 C904.5,1 904.094,1.408 904.094,1.913 C904.094,2.417 904.5,2.826 905,2.826 C905.242,2.826 905.461,2.729 905.623,2.574 C905.82,2.712 905.978,2.854 906,2.919 C905.988,3.561 904.971,8.461 903,8.461 C901.035,8.461 900.014,3.562 899.998,2.945 C900.023,2.864 900.182,2.716 900.379,2.576 C900.541,2.73 900.76,2.826 901,2.826 C901.502,2.826 901.906,2.418 901.906,1.913 C901.906,1.408 901.502,1 901,1 C900.645,1 900.34,1.208 900.191,1.508 C899.83,1.703 899,2.225 899,2.92 C899,3.385 899.781,8.069 901.986,9.215 C902.043,9.602 902.248,10.087 902.529,10.373 C902.611,11.088 902.857,12.072 903.556,12.841 C904.256,13.611 905.248,14 906.5,14 C909.551,14 910.273,11.865 910.445,10.924 C911.334,10.718 912,9.92 912,8.964 C912,7.853 911.104,6.95 910,6.95 L910,6.95 Z M910,9.971 C909.449,9.971 909,9.519 909,8.964 C909,8.408 909.449,7.956 910,7.956 C910.553,7.956 911,8.408 911,8.964 C911,9.52 910.553,9.971 910,9.971 L910,9.971 Z M910,8.46 C909.725,8.46 909.5,8.686 909.5,8.964 C909.5,9.242 909.725,9.467 910,9.467 C910.277,9.467 910.5,9.242 910.5,8.964 C910.5,8.686 910.277,8.46 910,8.46 L910,8.46 Z" transform="translate(-898)"/>
</svg>
