<svg xmlns="http://www.w3.org/2000/svg" width="16" height="16" viewBox="0 0 16 16">
  <path fill="#000000" fill-rule="evenodd" d="M2158.025,12.135 L2157.875,11.997 L2158,11.997 C2158.553,11.997 2159,11.661 2159,11.246 C2159,10.831 2158.553,10.495 2158,10.495 L2157.5,10.495 C2157.5,8.641 2154.918,6.56 2154.918,6.291 C2154.918,6.08 2155.033,6.346 2155.346,6.321 C2155.655,6.297 2155.975,5.834 2156.262,5.834 C2156.881,5.834 2156.789,6.378 2157.315,6.378 C2157.67,6.378 2157.827,5.992 2157.967,5.819 C2158.147,5.603 2158.645,5.693 2158.368,5.087 C2158.221,4.765 2157.648,3.682 2156.57,3.236 C2156.08,3.033 2156.533,2.466 2154.978,2.466 C2154.843,2.258 2154.867,1.508 2154.968,0.999 C2153.57,1.235 2153.411,2.528 2153.322,2.789 C2152.947,3.011 2152.431,3.46 2152.055,3.835 C2151.113,4.779 2150.769,6.323 2151.343,7.837 C2151.593,8.495 2152.016,10.494 2152.016,10.494 L2151,10.494 C2150.449,10.494 2150,10.83 2150,11.245 C2150,11.66 2150.449,11.996 2151,11.996 L2151.125,11.996 L2150.972,12.134 C2150.069,12.95 2149.625,13.999 2150.508,13.999 L2158.494,13.999 C2159.377,14 2158.93,12.952 2158.025,12.135 L2158.025,12.135 Z" transform="translate(-2148)"/>
</svg>
