<svg xmlns="http://www.w3.org/2000/svg" width="24" height="24" viewBox="0 0 24 24">
  <path fill="#000000" fill-rule="evenodd" d="M11.5,3 C6.81351351,3 3,6.81236486 3,11.5 C3,16.1876351 6.81351351,20 11.5,20 C16.1864865,20 20,16.1876351 20,11.5 C20,6.81236486 16.1864865,3 11.5,3 Z M12,1 L14,1 L14,0 L9,0 L9,1 L11,1 L11,3 L12,3 L12,1 Z M5,11.5 C5,7.91571429 7.91571429,5 11.5,5 C15.0842857,5 18,7.91571429 18,11.5 C18,15.0842857 15.0842857,18 11.5,18 C7.91571429,18 5,15.0842857 5,11.5 Z M12,7 L12,13 L11,13 L11,7 L12,7 Z"/>
</svg>
