<svg height="32" viewBox="0 0 16 16" width="32" xmlns="http://www.w3.org/2000/svg">
<g fill="rgba(0, 0, 0, 0)" fill-rule="evenodd" transform="translate(-2700 -1206)">
<circle id="knob" stroke="rgba(0, 0, 0, 0.3)" fill="rgba(0, 0, 0, 0)" cx="2708" cy="1214" r="7.5"/>
<path id="cross" fill="rgba(0, 0, 0, 0.3)" d="m2711.1646 1210.1646.6708.6708c.09274.09274.09805.24139.01215.34051l-2.44753 2.82409 2.44753 2.82409c.0859.09912.08059.24777-.01215.34051l-.6708.6708c-.09274.09274-.24139.09805-.34051.01215l-2.82409-2.44753-2.82409 2.44753c-.09912.0859-.24777.08059-.34051-.01215l-.6708-.6708c-.09274-.09274-.09805-.24139-.01215-.34051l2.44753-2.82409-2.44753-2.82409c-.0859-.09912-.08059-.24777.01215-.34051l.6708-.6708c.09274-.09274.24139-.09805.34051-.01215l2.82409 2.44753 2.82409-2.44753c.09912-.0859.24777-.08059.34051.01215z" fill-rule="nonzero"/>
</g>
</svg>