<svg height="32" viewBox="0 0 16 16" width="32" xmlns="http://www.w3.org/2000/svg">
<path id="knob" fill="rgba(0, 0, 0, 0.3)" d="m2728 1222c-4.41828 0-8-3.58172-8-8s3.58172-8 8-8 8 3.58172 8 8-3.58172 8-8 8zm-5.09461-8.07389 3.59461 4.07389 6.33524-6.82257c.09184-.0989.0886-.25283-.00731-.34778l-.66932-.66263c-.09456-.09361-.24586-.09676-.34423-.00717l-5.31438 4.84015-2.57489-2.10673c-.09941-.08133-.24427-.07411-.33509.01671l-.67395.67395c-.09335.09335-.09802.24319-.01068.34218z" fill-rule="evenodd" transform="translate(-2720 -1206)"/>
<path id="check" fill="rgba(0, 0, 0, 0)" transform="translate(2.0, 4.0)" d="M0.90539,3.92611 L4.5,8 L10.83524,1.17743 C10.92708,1.07853 10.92384,0.9246 10.82793,0.82965 L10.15861,0.16702 C10.06405,0.07341 9.91275,0.07026 9.81438,0.15985 L4.5,5 L1.92511,2.89327 C1.8257,2.81194 1.68084,2.81916 1.59002,2.90998 L0.91607,3.58393 C0.82272,3.67728 0.81805,3.82712 0.90539,3.92611 L0.90539,3.92611 Z"/>
</svg>