<svg width="16px" height="16px" viewBox="0 0 16 16" version="1.1" xmlns="http://www.w3.org/2000/svg" xmlns:xlink="http://www.w3.org/1999/xlink">
    <g id="Page-1" stroke="none" stroke-width="1" fill="none" fill-rule="evenodd">
        <path d="M4,13 C4,13.5 4.47777885,14 5,14 L10,14 C10.6475327,14 11,13.5 11,13 L11.5,5.00000001 L3.5,5.00000001 L4,13 L4,13 L4,13 Z M5.14924431,6 C5.34351319,6 5.49999994,6 5.49999994,6.5 L5.69999999,12.5 C5.69999999,13 5.54351323,13 5.34924434,13 C5.15676152,13 5,13 5,12.5 C5,12.5 4.79999996,7.00000006 4.79999996,6.50000003 C4.79999996,6 4.95676148,6 5.14924431,6 L5.14924431,6 L5.14924431,6 Z M9.85080451,6 C9.65653562,6 9.50004887,6 9.50004887,6.5 L9.30004883,12.5 C9.30004883,13 9.45653558,13 9.65080447,13 C9.84328729,13 10.0000488,13 10.0000488,12.5 C10.0000488,12.5 10.2000489,7.00000006 10.2000489,6.50000003 C10.2000489,6 10.0432873,6 9.85080451,6 L9.85080451,6 L9.85080451,6 Z M7.49926877,6 C7.69353765,6 7.8500244,6 7.8500244,6.5 L7.8500244,12.5 C7.8500244,13 7.69353765,13 7.49926876,13 C7.30678594,13 7.15002441,13 7.15002441,12.5 C7.15002441,12.5 7.15002441,7.00000006 7.15002441,6.50000003 C7.15002441,6 7.30678594,6 7.49926877,6 L7.49926877,6 Z M11,2.99999999 C11.5,3 12,3.5 12,3.99999999 L3,3.99999999 C3,3.99053323 3.00017924,3.98106647 3.00053432,3.97160311 C3.01893352,3.48124572 3.50946676,3 4,2.99999999 L6.00051728,2.99999999 C6.00051737,2.5 6.00051737,2 6.49999999,2 L8.49999996,2 C9.00058937,2 9.00058937,2.5 9.00058934,2.99999999 L11,2.99999999 L11,2.99999999 Z" id="Combined-Shape" fill="#000000"></path>
    </g>
</svg>