<svg width="16px" height="16px" viewBox="0 0 16 16" version="1.1" xmlns="http://www.w3.org/2000/svg" xmlns:xlink="http://www.w3.org/1999/xlink">
    <g id="Page-1" stroke="none" stroke-width="1" fill="none" fill-rule="evenodd">
        <path d="M8,12 C3.581722,12 0.510699875,8.00000022 0.510699875,8.00000022 C0.510699875,8.00000022 0.683496336,7.80702438 0.999999972,7.50584507 L0,7.50584507 C0,7.50584507 3.02943725,3 8,3 C12.9705627,3 15.9999993,7.50584507 15.9999996,7.50584507 C16,7.50584507 15.5,7.50584507 14.9999996,7.50584507 C15.3165033,7.80702438 15.4999996,8 15.4999996,8 C15.4999996,8 12.418278,12 8,12 Z M6.02195198,7 C6.02195198,7 8.02195198,5 8.02195198,5 C8.02195198,6 7.49999995,7 6.02195198,7 Z M1.5,8 C2,8.5 4.5,10.9999997 8,11 C11.5,11.0000003 14,8.5 14.5,8 C14,7.5 11,5.5 10.0543146,5.31371419 C10.6364501,5.85998535 11,6.63800498 11,7.5 C11,9.15685425 9.65685425,10.5 8,10.5 C6.34314575,10.5 5,9.15685425 5,7.5 C5,6.63800498 5.35998535,5.85998535 5.94568538,5.31371419 C5,5.5 2,7.5 1.5,8 Z" id="Combined-Shape" fill="#000000"></path>
    </g>
</svg>