<svg width="16px" height="16px" viewBox="0 0 16 16" version="1.1" xmlns="http://www.w3.org/2000/svg" xmlns:xlink="http://www.w3.org/1999/xlink">
    <g id="Page-1" stroke="none" stroke-width="1" fill="none" fill-rule="evenodd">
        <path d="M2,13.9993446 L2,12.8840908 C2,12.8840908 2.07041252,12.1988806 2.87055477,11.9866084 C2.87055477,11.9866084 4.15931721,11.501572 5.1685633,11.0473315 C5.69025605,10.8130623 5.80334282,10.6733806 6.32930299,10.4325121 C6.32930299,10.4325121 6.38477952,10.1531488 6.36450925,9.98817038 L6.77631579,9.98817038 C6.77631579,9.98817038 6.87019915,10.044263 6.77631579,9.38874896 C6.77631579,9.38874896 6.27489331,9.25236683 6.25142248,8.20970351 C6.25142248,8.20970351 5.87375533,8.34058635 5.85135135,7.70816925 C5.83534851,7.27922548 5.51422475,6.90747421 5.97617354,6.60061443 L5.74146515,5.94510036 C5.74146515,5.94510036 5.27098151,3.30104695 6.62375533,3.6881962 C6.0529872,2.98428847 9.85953058,2.2814806 10.1070413,4.51308807 C10.1070413,4.51308807 10.2830725,5.71853006 10.1070413,6.54232207 C10.1070413,6.54232207 10.6628734,6.47633072 10.2905405,7.57728641 C10.2905405,7.57728641 10.086771,8.37028246 9.77311522,8.19210582 C9.77311522,8.19210582 9.82432432,9.19517433 9.32930299,9.36455213 C9.32930299,9.36455213 9.36450925,9.89908206 9.36450925,9.9353773 L9.83499289,10.0079678 C9.83499289,10.0079678 9.76458037,10.4446106 9.84672831,10.4919044 C9.84672831,10.4919044 10.4046942,10.8867526 11.0704125,11.0638294 C12.3527738,11.4036848 13.8709104,11.9855086 13.8709104,12.4947418 C13.8709104,12.4947418 14,13.1733529 14,13.9982447 L2,13.9982447 L2,13.9982447 L2,13.9993446 L2,13.9993446 Z" id="Shape" fill="#000000"></path>
    </g>
</svg>